G04*
G04 #@! TF.GenerationSoftware,Altium Limited,Altium Designer,20.0.13 (296)*
G04*
G04 Layer_Physical_Order=1*
G04 Layer_Color=255*
%FSLAX25Y25*%
%MOIN*%
G70*
G01*
G75*
%ADD10R,0.02559X0.02520*%
%ADD11R,0.04803X0.03583*%
%ADD12R,0.02362X0.01968*%
%ADD13R,0.01968X0.02362*%
%ADD14R,0.04724X0.03543*%
%ADD15R,0.05118X0.04724*%
G04:AMPARAMS|DCode=16|XSize=57.09mil|YSize=18.9mil|CornerRadius=2.36mil|HoleSize=0mil|Usage=FLASHONLY|Rotation=270.000|XOffset=0mil|YOffset=0mil|HoleType=Round|Shape=RoundedRectangle|*
%AMROUNDEDRECTD16*
21,1,0.05709,0.01417,0,0,270.0*
21,1,0.05236,0.01890,0,0,270.0*
1,1,0.00472,-0.00709,-0.02618*
1,1,0.00472,-0.00709,0.02618*
1,1,0.00472,0.00709,0.02618*
1,1,0.00472,0.00709,-0.02618*
%
%ADD16ROUNDEDRECTD16*%
%ADD17R,0.02264X0.02441*%
%ADD18R,0.01181X0.03347*%
G04:AMPARAMS|DCode=19|XSize=74.8mil|YSize=23.62mil|CornerRadius=2.95mil|HoleSize=0mil|Usage=FLASHONLY|Rotation=90.000|XOffset=0mil|YOffset=0mil|HoleType=Round|Shape=RoundedRectangle|*
%AMROUNDEDRECTD19*
21,1,0.07480,0.01772,0,0,90.0*
21,1,0.06890,0.02362,0,0,90.0*
1,1,0.00591,0.00886,0.03445*
1,1,0.00591,0.00886,-0.03445*
1,1,0.00591,-0.00886,-0.03445*
1,1,0.00591,-0.00886,0.03445*
%
%ADD19ROUNDEDRECTD19*%
%ADD20R,0.04724X0.02756*%
%ADD21R,0.04724X0.02992*%
%ADD22R,0.04724X0.03150*%
%ADD23R,0.02520X0.02559*%
%ADD24R,0.11420X0.04720*%
%ADD25R,0.06299X0.02756*%
%ADD26R,0.08661X0.04724*%
%ADD27R,0.05906X0.04724*%
%ADD28R,0.05906X0.06299*%
%ADD29C,0.00800*%
%ADD30C,0.00400*%
%ADD31C,0.03000*%
%ADD32C,0.08000*%
%ADD33C,0.04000*%
%ADD34C,0.07000*%
%ADD35C,0.02000*%
%ADD36C,0.02500*%
%ADD37C,0.01200*%
%ADD38C,0.05000*%
%ADD39C,0.04500*%
%ADD40C,0.03500*%
%ADD41C,0.06500*%
%ADD42C,0.11200*%
%ADD43O,0.15000X0.20000*%
%ADD44R,0.02756X0.02362*%
%ADD45C,0.14575*%
%ADD46C,0.15000*%
%ADD47C,0.11500*%
%ADD48C,0.01000*%
%ADD49C,0.13500*%
%ADD50O,0.04500X0.05500*%
%ADD51C,0.07000*%
%ADD52C,0.03150*%
%ADD53C,0.06000*%
%ADD54C,0.05512*%
%ADD55R,0.05300X0.04800*%
%ADD56R,0.06496X0.06496*%
%ADD57C,0.06496*%
%ADD58R,0.06555X0.06555*%
%ADD59C,0.06555*%
%ADD60C,0.07874*%
%ADD61C,0.18000*%
%ADD62C,0.10000*%
%ADD63C,0.01968*%
%ADD64C,0.01772*%
%ADD65C,0.09000*%
G36*
X609120Y574900D02*
X609181Y574593D01*
X609355Y574333D01*
X609615Y574158D01*
X609908Y574100D01*
Y512356D01*
X609526Y512177D01*
X609076Y512444D01*
Y554500D01*
X608972Y555296D01*
X608664Y556038D01*
X608175Y556675D01*
X607538Y557164D01*
X606796Y557472D01*
X606000Y557576D01*
X605204Y557472D01*
X604462Y557164D01*
X603825Y556675D01*
X603336Y556038D01*
X603028Y555296D01*
X602924Y554500D01*
Y552898D01*
X602424Y552729D01*
X602072Y553187D01*
X601041Y553978D01*
X599840Y554475D01*
X599051Y554579D01*
Y549665D01*
X598051D01*
Y554579D01*
X597262Y554475D01*
X596061Y553978D01*
X595030Y553187D01*
X594239Y552155D01*
X593824Y551154D01*
X593324Y551254D01*
Y559378D01*
X593228Y560109D01*
X592952Y560775D01*
X597996Y565819D01*
X598560Y566663D01*
X598757Y567658D01*
Y571618D01*
X598885Y571926D01*
X598982Y572657D01*
X598885Y573388D01*
X598603Y574070D01*
X598154Y574654D01*
X597570Y575103D01*
X596888Y575385D01*
X596158Y575482D01*
X586362D01*
Y577100D01*
X583000D01*
X579638D01*
Y574925D01*
Y570161D01*
Y566264D01*
Y562327D01*
Y558193D01*
Y556247D01*
X583000D01*
Y555446D01*
X579638D01*
Y553272D01*
X579638Y553272D01*
X579638D01*
X579751Y552772D01*
X579278Y552155D01*
X578781Y550954D01*
X578677Y550165D01*
X583591D01*
Y549665D01*
X584091D01*
Y544752D01*
X584879Y544855D01*
X586080Y545353D01*
X587112Y546144D01*
X587822Y547070D01*
X588378Y547165D01*
X588503Y547003D01*
X589088Y546554D01*
X589769Y546272D01*
X590348Y546196D01*
X593720Y542824D01*
X593529Y542362D01*
X590400D01*
Y539400D01*
X595331D01*
Y540560D01*
X595793Y540751D01*
X599665Y536879D01*
Y508440D01*
X599577Y508000D01*
X599665Y507560D01*
Y491260D01*
X593240Y484835D01*
X585506D01*
X585438Y484963D01*
X585290Y485335D01*
X585423Y486000D01*
X585276Y486736D01*
X584860Y487360D01*
X584236Y487776D01*
X583500Y487923D01*
X583099Y487843D01*
X581020Y489922D01*
Y494120D01*
X581520Y494387D01*
X581764Y494224D01*
X582500Y494077D01*
X583236Y494224D01*
X583665Y494510D01*
X584210Y494333D01*
X584224Y494264D01*
X584640Y493640D01*
X585264Y493224D01*
X586000Y493077D01*
X586736Y493224D01*
X587360Y493640D01*
X587677Y494116D01*
X588264Y493724D01*
X589000Y493577D01*
X589736Y493724D01*
X590360Y494140D01*
X590776Y494764D01*
X590923Y495500D01*
X590776Y496236D01*
X590360Y496860D01*
X589736Y497276D01*
X589000Y497423D01*
X588264Y497276D01*
X587640Y496860D01*
X587323Y496384D01*
X586736Y496776D01*
X586000Y496923D01*
X585264Y496776D01*
X584835Y496490D01*
X584290Y496667D01*
X584276Y496736D01*
X583860Y497360D01*
X583236Y497776D01*
X582500Y497923D01*
X581764Y497776D01*
X581520Y497613D01*
X581020Y497880D01*
Y503000D01*
X580942Y503390D01*
X580721Y503721D01*
X577721Y506721D01*
X577390Y506942D01*
X577000Y507020D01*
X574607D01*
X574352Y507329D01*
X574451Y507867D01*
X574860Y508140D01*
X575276Y508764D01*
X575423Y509500D01*
X575276Y510236D01*
X574860Y510860D01*
X574236Y511276D01*
X573500Y511423D01*
X572764Y511276D01*
X572140Y510860D01*
X571800Y510350D01*
X571245Y510197D01*
X570843Y510599D01*
X570923Y511000D01*
X570776Y511736D01*
X570360Y512360D01*
X569736Y512776D01*
X569000Y512923D01*
X568264Y512776D01*
X568172Y512715D01*
X568104Y512722D01*
X567651Y512968D01*
X567544Y513504D01*
X567127Y514127D01*
X566503Y514544D01*
X565768Y514690D01*
X565367Y514611D01*
X562256Y517721D01*
X561926Y517942D01*
X561535Y518020D01*
X558169D01*
X557827Y518520D01*
X557923Y519000D01*
X557776Y519736D01*
X557360Y520360D01*
X556736Y520776D01*
X556000Y520923D01*
X555264Y520776D01*
X554640Y520360D01*
X554224Y519736D01*
X554077Y519000D01*
X554173Y518520D01*
X554117Y518358D01*
X553879Y518029D01*
X553811Y517982D01*
X553610Y517942D01*
X553279Y517721D01*
X552879Y517321D01*
X552417Y517513D01*
Y519724D01*
X549068D01*
X548916Y520224D01*
X549276Y520764D01*
X549313Y520949D01*
X549760D01*
Y524492D01*
Y526372D01*
X547500D01*
X545240D01*
Y524492D01*
Y520949D01*
X545687D01*
X545724Y520764D01*
X546084Y520224D01*
X545931Y519724D01*
X544118D01*
Y514968D01*
Y513586D01*
X543618Y513436D01*
X543285Y513934D01*
X542661Y514351D01*
X541926Y514497D01*
X541646Y514442D01*
X541260Y514759D01*
Y515328D01*
X539000D01*
X536740D01*
Y514986D01*
X536278Y514795D01*
X533472Y517601D01*
Y519528D01*
X534043D01*
Y524874D01*
X533469D01*
X533278Y525336D01*
X537592Y529650D01*
X538064Y529416D01*
X538187Y528801D01*
X538603Y528177D01*
X539227Y527761D01*
X539963Y527614D01*
X540699Y527761D01*
X541323Y528177D01*
X541740Y528801D01*
X541886Y529537D01*
X541740Y530273D01*
X541323Y530897D01*
X540699Y531313D01*
X540085Y531435D01*
X539850Y531908D01*
X546403Y538461D01*
X548252D01*
Y535857D01*
X552205D01*
Y535457D01*
X552605D01*
Y531307D01*
X556157D01*
Y532895D01*
X556658Y533046D01*
X556891Y532696D01*
X557515Y532280D01*
X558251Y532133D01*
X558987Y532280D01*
X559611Y532696D01*
X560027Y533320D01*
X560174Y534056D01*
X560027Y534792D01*
X559611Y535416D01*
X559844Y535849D01*
X560008Y536095D01*
X560154Y536830D01*
X560008Y537566D01*
X559892Y537740D01*
X560159Y538240D01*
X563872D01*
Y540500D01*
Y542760D01*
X562704D01*
X562528Y543124D01*
X562789Y543569D01*
X563386D01*
X563891Y543670D01*
X564320Y543956D01*
X564606Y544384D01*
X564707Y544890D01*
Y551780D01*
X564606Y552285D01*
X564320Y552713D01*
X563891Y553000D01*
X563821Y553014D01*
X563716Y553544D01*
X563860Y553640D01*
X564276Y554264D01*
X564423Y555000D01*
X564276Y555736D01*
X563860Y556360D01*
X563236Y556776D01*
X562500Y556923D01*
X561764Y556776D01*
X561140Y556360D01*
X560724Y555736D01*
X560577Y555000D01*
X560724Y554264D01*
X561140Y553640D01*
X561284Y553544D01*
X561179Y553014D01*
X561109Y553000D01*
X560680Y552713D01*
X560394Y552285D01*
X560293Y551780D01*
Y544890D01*
X560033Y544529D01*
X559702Y544868D01*
X559706Y544890D01*
Y551780D01*
X559606Y552285D01*
X559320Y552713D01*
X558891Y553000D01*
X558386Y553100D01*
X558070D01*
X554760Y556410D01*
Y558872D01*
X552500D01*
X550240D01*
Y557371D01*
X549764Y557276D01*
X549140Y556860D01*
X548724Y556236D01*
X548577Y555500D01*
X548724Y554764D01*
X549140Y554140D01*
X549764Y553724D01*
X550240Y553629D01*
Y553449D01*
X554760D01*
X554760Y553449D01*
Y553449D01*
X555125Y553161D01*
X555637Y552649D01*
X555394Y552285D01*
X555294Y551780D01*
Y546979D01*
X554794Y546696D01*
X554760Y546716D01*
Y547551D01*
X546740D01*
Y542992D01*
Y542128D01*
X549000D01*
Y541328D01*
X546740D01*
Y540501D01*
X545981D01*
X545591Y540423D01*
X545260Y540202D01*
X544870Y539812D01*
X544328Y539977D01*
X544276Y540236D01*
X543860Y540860D01*
X543236Y541276D01*
X542500Y541423D01*
X541764Y541276D01*
X541140Y540860D01*
X540823Y540384D01*
X540236Y540776D01*
X539500Y540923D01*
X538764Y540776D01*
X538140Y540360D01*
X537913Y540020D01*
X531422D01*
X530656Y540786D01*
X530711Y540858D01*
X531139Y541891D01*
X531285Y543000D01*
X531139Y544109D01*
X530711Y545142D01*
X530030Y546030D01*
X529142Y546711D01*
X528109Y547139D01*
X527000Y547285D01*
X525891Y547139D01*
X524858Y546711D01*
X523970Y546030D01*
X523289Y545142D01*
X522861Y544109D01*
X522715Y543000D01*
X522861Y541891D01*
X523289Y540858D01*
X523970Y539970D01*
X524858Y539289D01*
X525891Y538861D01*
X527000Y538715D01*
X528109Y538861D01*
X529142Y539289D01*
X529214Y539344D01*
X530279Y538279D01*
X530610Y538058D01*
X531000Y537980D01*
X537913D01*
X538140Y537640D01*
X538351Y537500D01*
X538414Y536856D01*
X535578Y534020D01*
X531248D01*
Y537248D01*
X522752D01*
Y528752D01*
X531248D01*
Y531980D01*
X536000D01*
X536390Y532058D01*
X536447Y532096D01*
X536766Y531707D01*
X529932Y524874D01*
X526461D01*
X526236Y525024D01*
X525500Y525171D01*
X524764Y525024D01*
X524140Y524608D01*
X523724Y523984D01*
X523577Y523248D01*
X523724Y522512D01*
X524140Y521888D01*
X524764Y521472D01*
X524957Y521433D01*
Y519528D01*
X527618D01*
X527795Y519263D01*
X528657Y518401D01*
X528563Y518117D01*
X528440Y517911D01*
X527764Y517776D01*
X527140Y517360D01*
X526724Y516736D01*
X526577Y516000D01*
X526724Y515264D01*
X527067Y514750D01*
X526724Y514236D01*
X526577Y513500D01*
X526657Y513099D01*
X526030Y512472D01*
X524957D01*
Y507126D01*
X526320D01*
X526638Y506740D01*
X526593Y506516D01*
X526739Y505780D01*
X527156Y505156D01*
X527780Y504739D01*
X528516Y504593D01*
X529252Y504739D01*
X529875Y505156D01*
X530292Y505780D01*
X530439Y506516D01*
X530394Y506740D01*
X530711Y507126D01*
X531229D01*
Y505990D01*
X531322Y505522D01*
X531588Y505125D01*
X533402Y503310D01*
X533799Y503045D01*
X533949Y503015D01*
Y501240D01*
X535828D01*
Y503500D01*
X536628D01*
Y501240D01*
X539980D01*
Y495760D01*
X538172D01*
Y493500D01*
X537372D01*
Y495760D01*
X526628D01*
Y493500D01*
Y491240D01*
X528129D01*
X528224Y490764D01*
X528640Y490140D01*
X529264Y489724D01*
X529734Y489630D01*
X529983Y489103D01*
X529957Y489064D01*
X529811Y488328D01*
X529529Y487984D01*
X526400D01*
Y486000D01*
Y484016D01*
X531350D01*
Y484016D01*
X531449D01*
Y483400D01*
X533728D01*
Y482600D01*
X531449D01*
Y481900D01*
X528350D01*
Y479000D01*
X532000D01*
Y478000D01*
X528350D01*
Y475100D01*
X529449D01*
Y473900D01*
X531728D01*
Y473500D01*
X532128D01*
Y471240D01*
X534380D01*
X534577Y471000D01*
X534724Y470264D01*
X535140Y469640D01*
X535764Y469224D01*
X536500Y469077D01*
X537236Y469224D01*
X537860Y469640D01*
X538276Y470264D01*
X538423Y471000D01*
X538276Y471736D01*
X537860Y472360D01*
X537551Y472566D01*
Y474338D01*
X540480Y477267D01*
X540980Y477060D01*
Y463922D01*
X537623Y460565D01*
X537231Y460728D01*
X536500Y460824D01*
X535769Y460728D01*
X535088Y460446D01*
X534503Y459997D01*
X534054Y459412D01*
X533772Y458731D01*
X533676Y458000D01*
X533772Y457269D01*
X534054Y456588D01*
X534503Y456003D01*
X542503Y448003D01*
X543088Y447554D01*
X543769Y447272D01*
X544500Y447176D01*
X569830D01*
X579830Y437176D01*
X578437Y435784D01*
X578000Y435841D01*
X576686D01*
X576369Y436228D01*
X576423Y436500D01*
X576276Y437236D01*
X575860Y437860D01*
X575236Y438276D01*
X574500Y438423D01*
X573764Y438276D01*
X573140Y437860D01*
X573049Y437723D01*
X570507D01*
X566391Y441840D01*
X566423Y442000D01*
X566276Y442736D01*
X565860Y443360D01*
X565236Y443776D01*
X564500Y443923D01*
X563764Y443776D01*
X563140Y443360D01*
X563050Y443223D01*
X557985D01*
X556020Y445189D01*
X555623Y445454D01*
X555155Y445547D01*
X549324D01*
X548855Y445454D01*
X548458Y445189D01*
X545186Y441916D01*
X544724Y442107D01*
Y443000D01*
X544630Y443468D01*
X544365Y443865D01*
X537891Y450340D01*
X537923Y450500D01*
X537776Y451236D01*
X537360Y451860D01*
X536736Y452276D01*
X536000Y452423D01*
X535264Y452276D01*
X534640Y451860D01*
X534224Y451236D01*
X534077Y450500D01*
X534224Y449764D01*
X534640Y449140D01*
X535264Y448724D01*
X536000Y448577D01*
X536161Y448609D01*
X542276Y442493D01*
Y439951D01*
X542140Y439860D01*
X541724Y439236D01*
X541577Y438500D01*
X541724Y437764D01*
X542140Y437140D01*
X542764Y436724D01*
X543500Y436577D01*
X544236Y436724D01*
X544860Y437140D01*
X545276Y437764D01*
X545423Y438500D01*
X545391Y438660D01*
X548816Y442086D01*
X549240Y441803D01*
X548990Y441198D01*
X548901Y440524D01*
X557971D01*
X558193Y440776D01*
X563050D01*
X563140Y440640D01*
X563764Y440224D01*
X564500Y440077D01*
X564661Y440109D01*
X567682Y437087D01*
X567487Y436576D01*
X567279Y436564D01*
X566921Y436921D01*
X565919Y437691D01*
X564751Y438174D01*
X563498Y438339D01*
X562245Y438174D01*
X561077Y437691D01*
X560075Y436921D01*
X559644Y436360D01*
X556738D01*
X556695Y436485D01*
X556619Y436860D01*
X557305Y437754D01*
X557758Y438849D01*
X557847Y439524D01*
X553874D01*
Y435551D01*
X553974Y435564D01*
X554350Y435234D01*
Y429640D01*
X558729D01*
X558994Y429140D01*
X558724Y428736D01*
X558577Y428000D01*
X558609Y427840D01*
X547254Y416484D01*
X544181D01*
Y416484D01*
X539819D01*
Y413878D01*
X539724Y413736D01*
X539577Y413000D01*
X539724Y412264D01*
X540140Y411640D01*
X540764Y411224D01*
X541500Y411077D01*
X542236Y411224D01*
X542860Y411640D01*
X543276Y412264D01*
X543304Y412401D01*
X543756Y412516D01*
X543756Y412516D01*
X543756Y412516D01*
X548118D01*
Y413888D01*
X560022Y425792D01*
X560133Y425835D01*
X560314Y425821D01*
X560686Y425388D01*
X560609Y425000D01*
X560755Y424264D01*
X561172Y423640D01*
X561796Y423224D01*
X562532Y423077D01*
X563267Y423224D01*
X563891Y423640D01*
X564308Y424264D01*
X564454Y425000D01*
X564308Y425736D01*
X564099Y426049D01*
X564430Y426453D01*
X564743Y426324D01*
X565996Y426159D01*
X573774D01*
X573807Y426079D01*
X574577Y425077D01*
X575579Y424307D01*
X576747Y423823D01*
X578000Y423659D01*
X579253Y423823D01*
X580421Y424307D01*
X581423Y425077D01*
X588673Y432327D01*
X592332Y435986D01*
X593076Y436083D01*
X594243Y436567D01*
X595246Y437336D01*
X596016Y438339D01*
X596499Y439507D01*
X596664Y440760D01*
X596499Y442013D01*
X596016Y443181D01*
X595246Y444183D01*
X594525Y444737D01*
X594506Y445302D01*
X594533Y445353D01*
X597444Y448265D01*
X597710Y448661D01*
X597803Y449130D01*
X597710Y449598D01*
X597444Y449995D01*
X597048Y450260D01*
X596579Y450353D01*
X596111Y450260D01*
X595714Y449995D01*
X594417Y448697D01*
X593955Y448889D01*
Y450461D01*
X593857D01*
X593754Y450977D01*
X593301Y451655D01*
X593301Y451655D01*
X591375Y453581D01*
X591566Y454043D01*
X593049D01*
Y457005D01*
X589890D01*
Y456261D01*
X589390Y455994D01*
X589335Y456030D01*
Y469500D01*
X589217Y470096D01*
X589443Y470373D01*
X589608Y470485D01*
X589890Y470400D01*
Y467232D01*
X596969D01*
X597043Y466674D01*
X597302Y466048D01*
X597715Y465510D01*
X598253Y465097D01*
X598879Y464838D01*
X599551Y464749D01*
X600223Y464838D01*
X600850Y465097D01*
X601388Y465510D01*
X601800Y466048D01*
X602060Y466674D01*
X602148Y467346D01*
X602060Y468019D01*
X601800Y468645D01*
X601388Y469183D01*
X600850Y469595D01*
X600396Y469783D01*
X600496Y470283D01*
X602913Y470283D01*
X602924Y469788D01*
Y458212D01*
X602913Y457717D01*
X600496D01*
X600396Y458217D01*
X600850Y458404D01*
X601388Y458817D01*
X601800Y459355D01*
X602060Y459981D01*
X602148Y460654D01*
X602060Y461326D01*
X601800Y461952D01*
X601388Y462490D01*
X600850Y462903D01*
X600223Y463162D01*
X599551Y463251D01*
X598879Y463162D01*
X598253Y462903D01*
X597715Y462490D01*
X597302Y461952D01*
X597043Y461326D01*
X596969Y460767D01*
X593849D01*
Y457405D01*
Y454043D01*
X596189D01*
Y452173D01*
X599151D01*
Y454945D01*
X599951D01*
Y452173D01*
X602913D01*
X602924Y451678D01*
Y449341D01*
X602000D01*
X600747Y449177D01*
X599579Y448693D01*
X598577Y447923D01*
X597807Y446921D01*
X597324Y445753D01*
X597159Y444500D01*
X597324Y443247D01*
X597807Y442079D01*
X598577Y441077D01*
X599579Y440307D01*
X600747Y439823D01*
X602000Y439659D01*
X604240D01*
Y439128D01*
X606500D01*
X608760D01*
Y441465D01*
X608972Y441975D01*
X609076Y442772D01*
Y444221D01*
X609113Y444500D01*
X609076Y444779D01*
Y471312D01*
X609526Y471579D01*
X609908Y471400D01*
Y403351D01*
X609600Y403290D01*
X609443Y403185D01*
X609023Y403196D01*
X608825Y403246D01*
X608786Y403312D01*
X608855Y403540D01*
X609048Y405500D01*
X608855Y407460D01*
X608284Y409345D01*
X607355Y411083D01*
X606105Y412605D01*
X604583Y413855D01*
X602845Y414783D01*
X600960Y415355D01*
X599000Y415548D01*
X598128Y415462D01*
X597650Y415918D01*
Y419484D01*
X590984D01*
Y421723D01*
X592038Y422777D01*
X593549D01*
X593640Y422640D01*
X594264Y422224D01*
X595000Y422077D01*
X595736Y422224D01*
X596360Y422640D01*
X596776Y423264D01*
X596923Y424000D01*
X596776Y424736D01*
X596360Y425360D01*
X595736Y425776D01*
X595000Y425923D01*
X594264Y425776D01*
X593640Y425360D01*
X593549Y425223D01*
X591532D01*
X591063Y425130D01*
X590666Y424865D01*
X589451Y423650D01*
X587016D01*
Y419287D01*
Y416632D01*
X586609Y416360D01*
X586192Y415736D01*
X586046Y415000D01*
X586192Y414264D01*
X586609Y413640D01*
X587233Y413224D01*
X587968Y413077D01*
X588704Y413224D01*
X589328Y413640D01*
X589745Y414264D01*
X589891Y415000D01*
X590179Y415350D01*
X590984D01*
Y415516D01*
X594449D01*
Y414406D01*
X593417Y413855D01*
X591895Y412605D01*
X590645Y411083D01*
X589716Y409345D01*
X589145Y407460D01*
X588952Y405500D01*
X589145Y403540D01*
X589716Y401655D01*
X590645Y399917D01*
X591895Y398395D01*
X593417Y397145D01*
X595155Y396217D01*
X596436Y395828D01*
X596362Y395328D01*
X533638D01*
X533564Y395828D01*
X534845Y396217D01*
X536583Y397145D01*
X538105Y398395D01*
X539355Y399917D01*
X540283Y401655D01*
X540855Y403540D01*
X541048Y405500D01*
X540855Y407460D01*
X540283Y409345D01*
X539355Y411083D01*
X538105Y412605D01*
X536583Y413855D01*
X534845Y414783D01*
X532960Y415355D01*
X531000Y415548D01*
X529040Y415355D01*
X527155Y414783D01*
X525417Y413855D01*
X523895Y412605D01*
X522645Y411083D01*
X521716Y409345D01*
X521328Y408064D01*
X520828Y408138D01*
Y588260D01*
X533526D01*
X533625Y587760D01*
X532983Y587494D01*
X532147Y586853D01*
X531506Y586017D01*
X531103Y585044D01*
X530966Y584000D01*
X531103Y582956D01*
X531506Y581983D01*
X531671Y581767D01*
Y576441D01*
X531785Y575580D01*
X532118Y574777D01*
X532646Y574087D01*
X533336Y573558D01*
X534138Y573226D01*
X535000Y573112D01*
X535096Y573125D01*
X535472Y572795D01*
Y571382D01*
X535568Y570899D01*
X535841Y570491D01*
X536250Y570217D01*
X536732Y570121D01*
X538150D01*
X538632Y570217D01*
X538721Y570276D01*
X538809Y570217D01*
X539291Y570121D01*
X539600D01*
Y574000D01*
Y577879D01*
X539291D01*
X538809Y577783D01*
X538801Y577777D01*
X538329Y577968D01*
Y581767D01*
X538494Y581983D01*
X538897Y582956D01*
X539035Y584000D01*
X538897Y585044D01*
X538494Y586017D01*
X537853Y586853D01*
X537017Y587494D01*
X536375Y587760D01*
X536475Y588260D01*
X545336D01*
X545436Y587760D01*
X544794Y587494D01*
X543958Y586853D01*
X543317Y586017D01*
X542914Y585044D01*
X542776Y584000D01*
X542914Y582956D01*
X543317Y581983D01*
X543735Y581438D01*
Y580171D01*
X543348Y579853D01*
X543000Y579923D01*
X542264Y579776D01*
X541640Y579360D01*
X541224Y578736D01*
X541212Y578676D01*
X541078Y578476D01*
X540997Y578071D01*
X540709Y577879D01*
X540400D01*
Y574000D01*
Y570121D01*
X540709D01*
X541191Y570217D01*
X541280Y570276D01*
X541368Y570217D01*
X541850Y570121D01*
X543268D01*
X543750Y570217D01*
X543839Y570276D01*
X543927Y570217D01*
X544410Y570121D01*
X545827D01*
X546309Y570217D01*
X546718Y570491D01*
X546991Y570899D01*
X547087Y571382D01*
Y572653D01*
X547607Y572721D01*
X548349Y573029D01*
X548986Y573518D01*
X549475Y574155D01*
X549783Y574897D01*
X549887Y575693D01*
Y581438D01*
X550305Y581983D01*
X550708Y582956D01*
X550845Y584000D01*
X550708Y585044D01*
X550305Y586017D01*
X549664Y586853D01*
X548828Y587494D01*
X548186Y587760D01*
X548285Y588260D01*
X580627Y588260D01*
X580796Y587760D01*
X580069Y587202D01*
X579278Y586171D01*
X578781Y584970D01*
X578677Y584181D01*
X583591D01*
X588504D01*
X588401Y584970D01*
X587903Y586171D01*
X587112Y587202D01*
X586385Y587760D01*
X586554Y588260D01*
X595587D01*
X595757Y587760D01*
X595030Y587202D01*
X594239Y586171D01*
X593741Y584970D01*
X593637Y584181D01*
X598551D01*
X603465D01*
X603361Y584970D01*
X602864Y586171D01*
X602072Y587202D01*
X601345Y587760D01*
X601515Y588260D01*
X609120D01*
Y574900D01*
D02*
G37*
G36*
X643595Y578366D02*
X643510Y578321D01*
X642596Y577571D01*
X641846Y576657D01*
X641289Y575615D01*
X640946Y574484D01*
X640830Y573308D01*
X640946Y572131D01*
X641289Y571000D01*
X641846Y569958D01*
X642596Y569044D01*
X643510Y568295D01*
X644552Y567737D01*
X645683Y567394D01*
X646859Y567278D01*
Y567278D01*
X646876Y567295D01*
X649567Y567143D01*
X652242Y566689D01*
X654848Y565938D01*
X656597Y565214D01*
X656475Y564723D01*
X655621Y564807D01*
X654073Y564655D01*
X652584Y564203D01*
X651211Y563469D01*
X650008Y562482D01*
X649021Y561279D01*
X648287Y559907D01*
X647836Y558418D01*
X647683Y556869D01*
Y551869D01*
X647836Y550320D01*
X648287Y548831D01*
X649021Y547459D01*
X650008Y546256D01*
X651211Y545269D01*
X652584Y544535D01*
X654073Y544083D01*
X655621Y543931D01*
X657170Y544083D01*
X658659Y544535D01*
X660032Y545269D01*
X661235Y546256D01*
X661553Y546644D01*
X667977D01*
X669101Y545722D01*
X670436Y545008D01*
X670949Y544853D01*
X671047Y543108D01*
X670895Y540399D01*
X670441Y537725D01*
X669690Y535119D01*
X668652Y532613D01*
X667340Y530239D01*
X665770Y528026D01*
X663963Y526004D01*
X661940Y524196D01*
X659728Y522627D01*
X657354Y521315D01*
X654848Y520277D01*
X652242Y519526D01*
X650334Y519202D01*
X650170Y519681D01*
X651269Y520269D01*
X652472Y521256D01*
X653460Y522459D01*
X654193Y523831D01*
X654645Y525320D01*
X654797Y526869D01*
Y531869D01*
X654645Y533418D01*
X654193Y534907D01*
X653460Y536279D01*
X652472Y537482D01*
X651269Y538470D01*
X650074Y539108D01*
Y539877D01*
X650802D01*
Y543039D01*
X647247D01*
Y541415D01*
X647219Y541277D01*
X647219Y541277D01*
Y540635D01*
X646719Y540176D01*
X646538Y540192D01*
X646472Y540272D01*
Y543039D01*
X642916D01*
Y539877D01*
X644321D01*
X644395Y539377D01*
X643821Y539203D01*
X642449Y538470D01*
X641246Y537482D01*
X640259Y536279D01*
X639525Y534907D01*
X639073Y533418D01*
X638921Y531869D01*
Y526869D01*
X639073Y525320D01*
X639525Y523831D01*
X640259Y522459D01*
X641246Y521256D01*
X642449Y520269D01*
X643821Y519535D01*
X645068Y519157D01*
Y518634D01*
X644552Y518478D01*
X643510Y517920D01*
X642596Y517171D01*
X641846Y516257D01*
X641289Y515215D01*
X640946Y514084D01*
X640830Y512908D01*
X640946Y511731D01*
X641289Y510600D01*
X641846Y509558D01*
X642596Y508644D01*
X643510Y507895D01*
X643599Y507846D01*
X643451Y507359D01*
X641584Y507543D01*
X638123Y508231D01*
X634747Y509255D01*
X631487Y510605D01*
X628375Y512269D01*
X625442Y514229D01*
X622714Y516467D01*
X620220Y518962D01*
X617981Y521689D01*
X616021Y524623D01*
X614358Y527735D01*
X613008Y530994D01*
X611983Y534371D01*
X611295Y537831D01*
X610949Y541342D01*
Y544871D01*
X611295Y548382D01*
X611983Y551842D01*
X613008Y555219D01*
X614358Y558479D01*
X616021Y561590D01*
X617981Y564524D01*
X620220Y567251D01*
X622714Y569746D01*
X625442Y571984D01*
X628375Y573945D01*
X631487Y575608D01*
X634747Y576958D01*
X638123Y577982D01*
X641584Y578671D01*
X643447Y578854D01*
X643595Y578366D01*
D02*
G37*
G36*
X656912Y476569D02*
X660434Y475830D01*
X663874Y474774D01*
X667204Y473409D01*
X670396Y471748D01*
X673424Y469804D01*
X676264Y467594D01*
X678890Y465134D01*
X681283Y462446D01*
X683422Y459552D01*
X685289Y456476D01*
X686869Y453243D01*
X688149Y449880D01*
X689119Y446414D01*
X689769Y442875D01*
X690096Y439291D01*
Y435693D01*
X689769Y432109D01*
X689119Y428570D01*
X688149Y425104D01*
X686869Y421741D01*
X685289Y418508D01*
X683422Y415432D01*
X681283Y412538D01*
X678890Y409850D01*
X676264Y407391D01*
X673424Y405180D01*
X670396Y403236D01*
X667204Y401575D01*
X663874Y400211D01*
X660433Y399154D01*
X656912Y398415D01*
X655730Y398277D01*
X655725Y398292D01*
X655209Y399177D01*
X655154Y399240D01*
X655110Y399312D01*
X654422Y400072D01*
X654355Y400122D01*
X654298Y400183D01*
X653467Y400783D01*
X653391Y400818D01*
X653322Y400867D01*
X653185Y400928D01*
X653279Y401433D01*
X654092Y401473D01*
X657606Y401994D01*
X661051Y402857D01*
X664395Y404053D01*
X667606Y405572D01*
X670653Y407398D01*
X673505Y409514D01*
X676137Y411899D01*
X678523Y414531D01*
X680638Y417384D01*
X682465Y420431D01*
X683983Y423641D01*
X685180Y426986D01*
X686043Y430431D01*
X686564Y433945D01*
X686738Y437492D01*
X686564Y441040D01*
X686043Y444553D01*
X685180Y447999D01*
X683983Y451343D01*
X682465Y454554D01*
X680638Y457600D01*
X679447Y459207D01*
X679230Y459922D01*
X678496Y461295D01*
X677509Y462497D01*
X676306Y463485D01*
X674933Y464218D01*
X673444Y464670D01*
X671896Y464822D01*
X670347Y464670D01*
X668858Y464218D01*
X667486Y463485D01*
X666283Y462497D01*
X665295Y461295D01*
X664562Y459922D01*
X664110Y458433D01*
X663958Y456884D01*
Y451884D01*
X664110Y450336D01*
X664562Y448846D01*
X665295Y447474D01*
X666283Y446271D01*
X667486Y445284D01*
X668858Y444550D01*
X670347Y444099D01*
X671896Y443946D01*
X673410Y444095D01*
X673784Y442796D01*
X674232Y440161D01*
X674382Y437492D01*
X674288Y435810D01*
X673786Y435799D01*
X673679Y436884D01*
X673228Y438373D01*
X672494Y439745D01*
X671507Y440948D01*
X670304Y441935D01*
X668931Y442669D01*
X667442Y443121D01*
X665894Y443273D01*
X664345Y443121D01*
X662856Y442669D01*
X661483Y441935D01*
X660281Y440948D01*
X659293Y439745D01*
X658560Y438373D01*
X658120Y436922D01*
X658108Y436884D01*
X658028Y436440D01*
X657966Y435947D01*
X657554Y434589D01*
X656852Y433277D01*
X655909Y432128D01*
X654759Y431184D01*
X653448Y430483D01*
X652025Y430051D01*
X650545Y429906D01*
X649064Y430051D01*
X647641Y430483D01*
X646330Y431184D01*
X645180Y432128D01*
X644237Y433277D01*
X643536Y434589D01*
X643198Y435700D01*
X643088Y436177D01*
X643066Y436349D01*
X642974Y436652D01*
X642614Y437838D01*
X641880Y439211D01*
X641850Y439248D01*
Y442067D01*
X641999Y442346D01*
X642451Y443836D01*
X642603Y445384D01*
X642451Y446933D01*
X641999Y448422D01*
X641266Y449794D01*
X640278Y450997D01*
X634951Y456325D01*
X633748Y457312D01*
X632375Y458046D01*
X630886Y458497D01*
X629338Y458650D01*
X627789Y458497D01*
X626300Y458046D01*
X624928Y457312D01*
X623725Y456325D01*
X622737Y455122D01*
X622004Y453750D01*
X621552Y452260D01*
X621399Y450712D01*
X621552Y449163D01*
X622004Y447674D01*
X622737Y446302D01*
X623725Y445099D01*
X627481Y441342D01*
Y436210D01*
X627353Y434912D01*
X626851Y434922D01*
X626707Y437492D01*
X626754Y438323D01*
X626754Y438323D01*
X626743Y438539D01*
X626717Y438802D01*
X626717Y438802D01*
X626715Y438819D01*
X626624Y439745D01*
X626272Y440904D01*
X625701Y441972D01*
X624933Y442909D01*
X623996Y443677D01*
X622928Y444248D01*
X621768Y444600D01*
X620563Y444719D01*
X619357Y444600D01*
X618198Y444248D01*
X617130Y443677D01*
X616193Y442909D01*
X615424Y441972D01*
X614853Y440904D01*
X614502Y439745D01*
X614404Y438754D01*
X614404D01*
X614412Y438745D01*
X614351Y437492D01*
X614525Y433945D01*
X615046Y430431D01*
X615909Y426986D01*
X617106Y423641D01*
X618625Y420431D01*
X620451Y417384D01*
X622567Y414531D01*
X624952Y411899D01*
X627584Y409514D01*
X630437Y407398D01*
X633483Y405572D01*
X636694Y404053D01*
X640038Y402857D01*
X643483Y401994D01*
X646997Y401473D01*
X647810Y401433D01*
X647904Y400928D01*
X647767Y400867D01*
X647698Y400818D01*
X647622Y400783D01*
X646792Y400183D01*
X646734Y400122D01*
X646667Y400072D01*
X645979Y399312D01*
X645936Y399240D01*
X645880Y399177D01*
X645364Y398292D01*
X645359Y398277D01*
X644177Y398415D01*
X640656Y399154D01*
X637216Y400211D01*
X633886Y401575D01*
X630693Y403236D01*
X627665Y405180D01*
X624826Y407391D01*
X622199Y409850D01*
X619806Y412538D01*
X617667Y415432D01*
X615800Y418508D01*
X614220Y421741D01*
X612940Y425104D01*
X611971Y428570D01*
X611320Y432109D01*
X610993Y435693D01*
Y439291D01*
X611320Y442875D01*
X611971Y446414D01*
X612940Y449880D01*
X614220Y453243D01*
X615800Y456476D01*
X617667Y459552D01*
X619806Y462446D01*
X622199Y465134D01*
X624826Y467594D01*
X627665Y469804D01*
X630693Y471748D01*
X633886Y473409D01*
X637216Y474774D01*
X640656Y475830D01*
X644177Y476569D01*
X645359Y476707D01*
X645364Y476693D01*
X645880Y475807D01*
X645936Y475744D01*
X645979Y475672D01*
X646667Y474913D01*
X646734Y474863D01*
X646792Y474801D01*
X647622Y474201D01*
X647698Y474166D01*
X647767Y474117D01*
X648704Y473702D01*
X648786Y473684D01*
X648863Y473651D01*
X649866Y473438D01*
X649950Y473437D01*
X650032Y473421D01*
X651057D01*
X651139Y473437D01*
X651223Y473438D01*
X652226Y473651D01*
X652303Y473684D01*
X652385Y473702D01*
X653322Y474117D01*
X653391Y474166D01*
X653467Y474201D01*
X654298Y474801D01*
X654355Y474863D01*
X654422Y474913D01*
X655110Y475672D01*
X655154Y475744D01*
X655209Y475807D01*
X655725Y476693D01*
X655730Y476707D01*
X656912Y476569D01*
D02*
G37*
G36*
X602924Y488621D02*
Y476322D01*
X602913Y475827D01*
X602424Y475827D01*
X599951D01*
Y473055D01*
X599151D01*
Y475827D01*
X596189D01*
Y473956D01*
X591447D01*
X591308Y474114D01*
X591535Y474614D01*
X595331D01*
Y477576D01*
X590000D01*
Y478376D01*
X595331D01*
Y481339D01*
X595331Y481339D01*
X595404Y481808D01*
X602424Y488828D01*
X602924Y488621D01*
D02*
G37*
G36*
X542610Y484058D02*
X543000Y483980D01*
X544118D01*
Y480323D01*
X548252D01*
Y478376D01*
X552205D01*
X556157D01*
Y480655D01*
X556658Y480825D01*
X556947Y480447D01*
X557732Y479845D01*
X558645Y479467D01*
X559126Y479403D01*
Y483126D01*
X560126D01*
Y479403D01*
X560606Y479467D01*
X561520Y479845D01*
X562305Y480447D01*
X562907Y481232D01*
X563285Y482146D01*
X563307Y482309D01*
X563811D01*
X563841Y482083D01*
X564219Y481169D01*
X564821Y480384D01*
X565606Y479782D01*
X566519Y479404D01*
X567500Y479275D01*
X568480Y479404D01*
X569355Y479766D01*
X574240Y474881D01*
X574076Y474338D01*
X573764Y474276D01*
X573140Y473860D01*
X572724Y473236D01*
X572577Y472500D01*
X572630Y472236D01*
X572209Y471787D01*
X572000Y471814D01*
X570883Y471667D01*
X569843Y471236D01*
X568949Y470551D01*
X568264Y469657D01*
X567833Y468617D01*
X567686Y467500D01*
X567833Y466383D01*
X568264Y465343D01*
X568949Y464449D01*
X569843Y463764D01*
X570883Y463333D01*
X572000Y463186D01*
X573117Y463333D01*
X574157Y463764D01*
X575051Y464449D01*
X575480Y465009D01*
X575980Y464839D01*
Y460161D01*
X575480Y459991D01*
X575051Y460551D01*
X574157Y461236D01*
X573117Y461667D01*
X572000Y461814D01*
X570883Y461667D01*
X569843Y461236D01*
X568949Y460551D01*
X568264Y459657D01*
X567833Y458617D01*
X567686Y457500D01*
X567833Y456383D01*
X568264Y455343D01*
X568949Y454449D01*
X569843Y453764D01*
X570883Y453333D01*
X570947Y453324D01*
X570914Y452824D01*
X563086D01*
X563053Y453324D01*
X563117Y453333D01*
X564157Y453764D01*
X565051Y454449D01*
X565736Y455343D01*
X566167Y456383D01*
X566315Y457500D01*
X566167Y458617D01*
X565736Y459657D01*
X565051Y460551D01*
X564157Y461236D01*
X563117Y461667D01*
X562000Y461814D01*
X560883Y461667D01*
X559843Y461236D01*
X558949Y460551D01*
X558264Y459657D01*
X557832Y458617D01*
X557686Y457500D01*
X557832Y456383D01*
X558264Y455343D01*
X558949Y454449D01*
X559843Y453764D01*
X560883Y453333D01*
X560947Y453324D01*
X560914Y452824D01*
X553086D01*
X553053Y453324D01*
X553117Y453333D01*
X554157Y453764D01*
X555051Y454449D01*
X555736Y455343D01*
X556168Y456383D01*
X556315Y457500D01*
X556168Y458617D01*
X555736Y459657D01*
X555051Y460551D01*
X554157Y461236D01*
X553117Y461667D01*
X552000Y461814D01*
X550883Y461667D01*
X549843Y461236D01*
X548949Y460551D01*
X548264Y459657D01*
X547832Y458617D01*
X547685Y457500D01*
X547832Y456383D01*
X548264Y455343D01*
X548949Y454449D01*
X549843Y453764D01*
X550883Y453333D01*
X550947Y453324D01*
X550914Y452824D01*
X545670D01*
X539218Y459276D01*
X542721Y462779D01*
X542942Y463110D01*
X543020Y463500D01*
Y482500D01*
X542942Y482890D01*
X542721Y483221D01*
X542234Y483708D01*
X542553Y484096D01*
X542610Y484058D01*
D02*
G37*
%LPC*%
G36*
X603465Y583181D02*
X599051D01*
Y578767D01*
X599840Y578871D01*
X601041Y579369D01*
X602072Y580160D01*
X602864Y581191D01*
X603361Y582392D01*
X603465Y583181D01*
D02*
G37*
G36*
X598051D02*
X593637D01*
X593741Y582392D01*
X594239Y581191D01*
X595030Y580160D01*
X596061Y579369D01*
X597262Y578871D01*
X598051Y578767D01*
Y583181D01*
D02*
G37*
G36*
X588504Y583181D02*
X583591D01*
X578677D01*
X578781Y582392D01*
X579278Y581191D01*
X579751Y580575D01*
X579638Y580075D01*
X579638D01*
X579638Y580075D01*
Y577900D01*
X583000D01*
X586362D01*
Y579585D01*
X587112Y580160D01*
X587903Y581191D01*
X588401Y582392D01*
X588504Y583181D01*
D02*
G37*
G36*
X565562Y586736D02*
X564670D01*
X564572Y586716D01*
X564471D01*
X563597Y586542D01*
X563504Y586504D01*
X563405Y586484D01*
X562581Y586143D01*
X562498Y586087D01*
X562405Y586049D01*
X561663Y585553D01*
X561592Y585482D01*
X561509Y585427D01*
X560878Y584796D01*
X560823Y584712D01*
X560752Y584641D01*
X560256Y583900D01*
X560218Y583807D01*
X560162Y583723D01*
X559821Y582900D01*
X559801Y582801D01*
X559763Y582708D01*
X559589Y581834D01*
Y581733D01*
X559569Y581635D01*
Y580743D01*
X559589Y580644D01*
Y580544D01*
X559763Y579669D01*
X559801Y579576D01*
X559821Y579478D01*
X560162Y578654D01*
X560218Y578571D01*
X560256Y578478D01*
X560752Y577736D01*
X560823Y577665D01*
X560878Y577582D01*
X561509Y576951D01*
X561593Y576895D01*
X561663Y576824D01*
X562405Y576329D01*
X562498Y576290D01*
X562581Y576234D01*
X563405Y575893D01*
X563504Y575874D01*
X563597Y575835D01*
X564471Y575661D01*
X564572D01*
X564670Y575642D01*
X565562D01*
X565661Y575661D01*
X565761D01*
X566636Y575835D01*
X566728Y575874D01*
X566827Y575893D01*
X567651Y576234D01*
X567734Y576290D01*
X567827Y576329D01*
X568569Y576824D01*
X568640Y576895D01*
X568723Y576951D01*
X569354Y577582D01*
X569410Y577665D01*
X569481Y577736D01*
X569976Y578478D01*
X570015Y578571D01*
X570070Y578654D01*
X570412Y579478D01*
X570431Y579576D01*
X570470Y579669D01*
X570644Y580544D01*
Y580644D01*
X570663Y580743D01*
Y581635D01*
X570644Y581733D01*
Y581834D01*
X570470Y582708D01*
X570431Y582801D01*
X570412Y582900D01*
X570070Y583723D01*
X570015Y583807D01*
X569976Y583900D01*
X569481Y584641D01*
X569410Y584712D01*
X569354Y584796D01*
X568723Y585427D01*
X568640Y585482D01*
X568569Y585553D01*
X567827Y586049D01*
X567734Y586087D01*
X567651Y586143D01*
X566827Y586484D01*
X566728Y586504D01*
X566636Y586542D01*
X565761Y586716D01*
X565661D01*
X565562Y586736D01*
D02*
G37*
G36*
X527500Y577219D02*
Y573500D01*
X531219D01*
X531139Y574109D01*
X530711Y575142D01*
X530030Y576030D01*
X529142Y576711D01*
X528109Y577139D01*
X527500Y577219D01*
D02*
G37*
G36*
X526500D02*
X525891Y577139D01*
X524858Y576711D01*
X523970Y576030D01*
X523289Y575142D01*
X522861Y574109D01*
X522781Y573500D01*
X526500D01*
Y577219D01*
D02*
G37*
G36*
X558386Y572431D02*
X556614D01*
X556109Y572330D01*
X555680Y572044D01*
X555394Y571616D01*
X555294Y571110D01*
Y570275D01*
X554794Y569864D01*
X554500Y569923D01*
X553764Y569776D01*
X553140Y569360D01*
X552724Y568736D01*
X552577Y568000D01*
X552724Y567264D01*
X553140Y566640D01*
X553764Y566224D01*
X554500Y566077D01*
X554794Y566136D01*
X555294Y565725D01*
Y564221D01*
X555394Y563715D01*
X555680Y563287D01*
X556109Y563000D01*
X556614Y562900D01*
X558386D01*
X558891Y563000D01*
X559320Y563287D01*
X559606Y563715D01*
X559706Y564221D01*
Y571110D01*
X559606Y571616D01*
X559320Y572044D01*
X558891Y572330D01*
X558386Y572431D01*
D02*
G37*
G36*
X531219Y572500D02*
X527500D01*
Y568781D01*
X528109Y568861D01*
X529142Y569289D01*
X530030Y569970D01*
X530711Y570858D01*
X531139Y571891D01*
X531219Y572500D01*
D02*
G37*
G36*
X526500D02*
X522781D01*
X522861Y571891D01*
X523289Y570858D01*
X523970Y569970D01*
X524858Y569289D01*
X525891Y568861D01*
X526500Y568781D01*
Y572500D01*
D02*
G37*
G36*
X573386Y572431D02*
X572900D01*
Y568065D01*
X574707D01*
Y571110D01*
X574606Y571616D01*
X574320Y572044D01*
X573891Y572330D01*
X573386Y572431D01*
D02*
G37*
G36*
X563386D02*
X562900D01*
Y568065D01*
X564707D01*
Y571110D01*
X564606Y571616D01*
X564320Y572044D01*
X563891Y572330D01*
X563386Y572431D01*
D02*
G37*
G36*
X572100D02*
X571614D01*
X571109Y572330D01*
X570680Y572044D01*
X570394Y571616D01*
X570294Y571110D01*
Y568065D01*
X572100D01*
Y572431D01*
D02*
G37*
G36*
X562100D02*
X561614D01*
X561109Y572330D01*
X560680Y572044D01*
X560394Y571616D01*
X560293Y571110D01*
Y568065D01*
X562100D01*
Y572431D01*
D02*
G37*
G36*
X568386D02*
X566614D01*
X566109Y572330D01*
X565680Y572044D01*
X565394Y571616D01*
X565294Y571110D01*
Y565113D01*
X565206Y565048D01*
X564707Y565299D01*
Y567265D01*
X562900D01*
Y562900D01*
X563386D01*
X563891Y563000D01*
X564320Y563287D01*
X564334Y563308D01*
X564865Y563202D01*
X564952Y562764D01*
X565369Y562140D01*
X565992Y561724D01*
X566728Y561577D01*
X567464Y561724D01*
X568088Y562140D01*
X568505Y562764D01*
X568538Y562930D01*
X568891Y563000D01*
X569320Y563287D01*
X569606Y563715D01*
X569706Y564221D01*
Y571110D01*
X569606Y571616D01*
X569320Y572044D01*
X568891Y572330D01*
X568386Y572431D01*
D02*
G37*
G36*
X574707Y567265D02*
X572900D01*
Y562900D01*
X573386D01*
X573891Y563000D01*
X574320Y563287D01*
X574606Y563715D01*
X574707Y564221D01*
Y567265D01*
D02*
G37*
G36*
X572100D02*
X570294D01*
Y564221D01*
X570394Y563715D01*
X570680Y563287D01*
X571109Y563000D01*
X571614Y562900D01*
X572100D01*
Y567265D01*
D02*
G37*
G36*
X562100D02*
X560293D01*
Y564221D01*
X560394Y563715D01*
X560680Y563287D01*
X561109Y563000D01*
X561614Y562900D01*
X562100D01*
Y567265D01*
D02*
G37*
G36*
X554760Y561551D02*
X552900D01*
Y559672D01*
X554760D01*
Y561551D01*
D02*
G37*
G36*
X552100D02*
X550240D01*
Y559672D01*
X552100D01*
Y561551D01*
D02*
G37*
G36*
X527000Y567285D02*
X525891Y567139D01*
X524858Y566711D01*
X523970Y566030D01*
X523289Y565142D01*
X522861Y564109D01*
X522715Y563000D01*
X522861Y561891D01*
X523289Y560858D01*
X523970Y559970D01*
X524858Y559289D01*
X525891Y558861D01*
X527000Y558715D01*
X528109Y558861D01*
X529142Y559289D01*
X530030Y559970D01*
X530711Y560858D01*
X531139Y561891D01*
X531285Y563000D01*
X531139Y564109D01*
X530711Y565142D01*
X530030Y566030D01*
X529142Y566711D01*
X528109Y567139D01*
X527000Y567285D01*
D02*
G37*
G36*
X541500Y567923D02*
X540764Y567776D01*
X540140Y567360D01*
X539724Y566736D01*
X539706Y566648D01*
X536720Y563662D01*
X536499Y563331D01*
X536421Y562941D01*
Y560809D01*
X536250Y560775D01*
X535841Y560501D01*
X535568Y560093D01*
X535472Y559610D01*
Y554374D01*
X535568Y553892D01*
X535841Y553483D01*
X536250Y553209D01*
X536732Y553114D01*
X538150D01*
X538632Y553209D01*
X538721Y553269D01*
X538809Y553209D01*
X539291Y553114D01*
X540709D01*
X541191Y553209D01*
X541280Y553269D01*
X541368Y553209D01*
X541850Y553114D01*
X543268D01*
X543750Y553209D01*
X543839Y553269D01*
X543927Y553209D01*
X544410Y553114D01*
X545827D01*
X546309Y553209D01*
X546718Y553483D01*
X546991Y553892D01*
X547087Y554374D01*
Y557519D01*
X547721Y558153D01*
X547942Y558484D01*
X548020Y558874D01*
Y558913D01*
X548360Y559140D01*
X548776Y559764D01*
X548923Y560500D01*
X548776Y561236D01*
X548360Y561860D01*
X547736Y562276D01*
X547000Y562423D01*
X546264Y562276D01*
X545640Y561860D01*
X545224Y561236D01*
X545151Y560871D01*
X544410D01*
X543927Y560775D01*
X543839Y560716D01*
X543750Y560775D01*
X543268Y560871D01*
X542781D01*
X542514Y561371D01*
X542776Y561764D01*
X542923Y562500D01*
X542776Y563236D01*
X542410Y563784D01*
X542367Y563893D01*
X542475Y564384D01*
X542860Y564640D01*
X543276Y565264D01*
X543423Y566000D01*
X543276Y566736D01*
X542860Y567360D01*
X542236Y567776D01*
X541500Y567923D01*
D02*
G37*
G36*
X575500Y553257D02*
X574764Y553111D01*
X574244Y552764D01*
X573891Y553000D01*
X573386Y553100D01*
X571614D01*
X571109Y553000D01*
X570680Y552713D01*
X570394Y552285D01*
X570294Y551780D01*
Y544890D01*
X570394Y544384D01*
X570680Y543956D01*
X571109Y543670D01*
X571614Y543569D01*
X572302D01*
X572454Y543069D01*
X572140Y542860D01*
X571740Y542260D01*
X568857D01*
Y540000D01*
Y537740D01*
X574279D01*
Y539753D01*
X574860Y540140D01*
X575276Y540764D01*
X575423Y541500D01*
X575276Y542236D01*
X574860Y542860D01*
X574236Y543276D01*
X574210Y543282D01*
X574105Y543812D01*
X574320Y543956D01*
X574606Y544384D01*
X574707Y544890D01*
Y549099D01*
X575099Y549492D01*
X575500Y549412D01*
X576236Y549558D01*
X576860Y549975D01*
X577276Y550599D01*
X577423Y551335D01*
X577276Y552071D01*
X576860Y552694D01*
X576236Y553111D01*
X575500Y553257D01*
D02*
G37*
G36*
X527000Y557285D02*
X525891Y557139D01*
X524858Y556711D01*
X523970Y556030D01*
X523289Y555142D01*
X522861Y554109D01*
X522715Y553000D01*
X522861Y551891D01*
X523289Y550858D01*
X523970Y549970D01*
X524858Y549289D01*
X525891Y548861D01*
X527000Y548715D01*
X528109Y548861D01*
X529142Y549289D01*
X530030Y549970D01*
X530711Y550858D01*
X531139Y551891D01*
X531285Y553000D01*
X531139Y554109D01*
X530711Y555142D01*
X530030Y556030D01*
X529142Y556711D01*
X528109Y557139D01*
X527000Y557285D01*
D02*
G37*
G36*
X583091Y549165D02*
X578677D01*
X578781Y548377D01*
X579278Y547176D01*
X580069Y546144D01*
X581101Y545353D01*
X582302Y544855D01*
X583091Y544752D01*
Y549165D01*
D02*
G37*
G36*
X568469Y557454D02*
X567733Y557308D01*
X567109Y556891D01*
X566692Y556267D01*
X566546Y555532D01*
X566637Y555072D01*
X566558Y554953D01*
X566480Y554563D01*
Y553074D01*
X566109Y553000D01*
X565680Y552713D01*
X565394Y552285D01*
X565294Y551780D01*
Y544890D01*
X565394Y544384D01*
X565680Y543956D01*
X566109Y543670D01*
X566614Y543569D01*
X568386D01*
X568891Y543670D01*
X569320Y543956D01*
X569606Y544384D01*
X569706Y544890D01*
Y551780D01*
X569606Y552285D01*
X569320Y552713D01*
X568891Y553000D01*
X568520Y553074D01*
Y553619D01*
X569204Y553755D01*
X569828Y554172D01*
X570245Y554796D01*
X570391Y555532D01*
X570245Y556267D01*
X569828Y556891D01*
X569204Y557308D01*
X568469Y557454D01*
D02*
G37*
G36*
X589600Y542362D02*
X584669D01*
Y539400D01*
X589600D01*
Y542362D01*
D02*
G37*
G36*
X566551Y542760D02*
X564672D01*
Y540500D01*
Y538240D01*
X566177D01*
Y537740D01*
X568057D01*
Y540000D01*
Y542260D01*
X566551D01*
Y542760D01*
D02*
G37*
G36*
X589600Y538600D02*
X584669D01*
Y535638D01*
X584669Y535638D01*
X584669D01*
X584289Y535330D01*
X584210Y535278D01*
X583794Y534654D01*
X583647Y533918D01*
X583794Y533182D01*
X584210Y532558D01*
X584834Y532142D01*
X584896Y532129D01*
Y531620D01*
X584486Y531538D01*
X583862Y531121D01*
X583445Y530497D01*
X583299Y529762D01*
X583445Y529026D01*
X583862Y528402D01*
X584486Y527985D01*
X585222Y527839D01*
X585957Y527985D01*
X586581Y528402D01*
X586998Y529026D01*
X587144Y529762D01*
X587047Y530248D01*
X587498Y530549D01*
X587945Y530250D01*
X588681Y530104D01*
X589417Y530250D01*
X590041Y530667D01*
X590457Y531291D01*
X590604Y532026D01*
X590457Y532762D01*
X590041Y533386D01*
X589417Y533803D01*
X588681Y533949D01*
X587945Y533803D01*
X587940Y533800D01*
X587461Y534080D01*
X587347Y534654D01*
X587023Y535138D01*
X587222Y535638D01*
X589600D01*
Y538600D01*
D02*
G37*
G36*
X595331D02*
X590400D01*
Y535638D01*
X595331D01*
Y538600D01*
D02*
G37*
G36*
X551805Y535057D02*
X548252D01*
Y531307D01*
X551805D01*
Y535057D01*
D02*
G37*
G36*
X549760Y529051D02*
X547900D01*
Y527172D01*
X549760D01*
Y529051D01*
D02*
G37*
G36*
X547100D02*
X545240D01*
Y527172D01*
X547100D01*
Y529051D01*
D02*
G37*
G36*
X572532Y527891D02*
X571796Y527745D01*
X571172Y527328D01*
X570755Y526704D01*
X570609Y525969D01*
X570755Y525233D01*
X571172Y524609D01*
X571796Y524192D01*
X572532Y524046D01*
X573267Y524192D01*
X573891Y524609D01*
X574308Y525233D01*
X574454Y525969D01*
X574308Y526704D01*
X573891Y527328D01*
X573267Y527745D01*
X572532Y527891D01*
D02*
G37*
G36*
X574532Y523954D02*
X573796Y523808D01*
X573172Y523391D01*
X572755Y522767D01*
X572609Y522031D01*
X572755Y521296D01*
X573172Y520672D01*
X573796Y520255D01*
X574532Y520109D01*
X575267Y520255D01*
X575891Y520672D01*
X576308Y521296D01*
X576454Y522031D01*
X576308Y522767D01*
X575891Y523391D01*
X575267Y523808D01*
X574532Y523954D01*
D02*
G37*
G36*
X568469Y521954D02*
X567733Y521808D01*
X567109Y521391D01*
X566692Y520767D01*
X566546Y520031D01*
X566692Y519296D01*
X567109Y518672D01*
X567733Y518255D01*
X568469Y518109D01*
X569204Y518255D01*
X569828Y518672D01*
X570245Y519296D01*
X570391Y520031D01*
X570245Y520767D01*
X569828Y521391D01*
X569204Y521808D01*
X568469Y521954D01*
D02*
G37*
G36*
X591575Y523490D02*
X590800Y523388D01*
X590078Y523089D01*
X589458Y522613D01*
X588982Y521993D01*
X588683Y521271D01*
X588581Y520496D01*
X588683Y519721D01*
X588982Y518999D01*
X589458Y518379D01*
X590078Y517903D01*
X590800Y517604D01*
X591575Y517502D01*
X592350Y517604D01*
X593072Y517903D01*
X593692Y518379D01*
X594168Y518999D01*
X594467Y519721D01*
X594569Y520496D01*
X594467Y521271D01*
X594168Y521993D01*
X593692Y522613D01*
X593072Y523089D01*
X592350Y523388D01*
X591575Y523490D01*
D02*
G37*
G36*
X539000Y522194D02*
X538264Y522048D01*
X537640Y521631D01*
X537587Y521551D01*
X536740D01*
Y516992D01*
Y516128D01*
X539000D01*
X541260D01*
Y516992D01*
Y521551D01*
X540413D01*
X540360Y521631D01*
X539736Y522048D01*
X539000Y522194D01*
D02*
G37*
G36*
X525828Y495760D02*
X523949D01*
Y493900D01*
X525828D01*
Y495760D01*
D02*
G37*
G36*
Y493100D02*
X523949D01*
Y491240D01*
X525828D01*
Y493100D01*
D02*
G37*
G36*
X525600Y487984D02*
X523819D01*
Y486400D01*
X525600D01*
Y487984D01*
D02*
G37*
G36*
X591575Y491994D02*
X590800Y491892D01*
X590078Y491593D01*
X589458Y491117D01*
X588982Y490497D01*
X588683Y489775D01*
X588581Y489000D01*
X588683Y488225D01*
X588982Y487503D01*
X589458Y486883D01*
X590078Y486407D01*
X590800Y486108D01*
X591575Y486006D01*
X592350Y486108D01*
X593072Y486407D01*
X593692Y486883D01*
X594168Y487503D01*
X594467Y488225D01*
X594569Y489000D01*
X594467Y489775D01*
X594168Y490497D01*
X593692Y491117D01*
X593072Y491593D01*
X592350Y491892D01*
X591575Y491994D01*
D02*
G37*
G36*
X525600Y485600D02*
X523819D01*
Y484016D01*
X525600D01*
Y485600D01*
D02*
G37*
G36*
X531328Y473100D02*
X529449D01*
Y471240D01*
X531328D01*
Y473100D01*
D02*
G37*
G36*
X593049Y460767D02*
X589890D01*
Y457805D01*
X593049D01*
Y460767D01*
D02*
G37*
G36*
X568838Y445423D02*
X568102Y445276D01*
X567479Y444860D01*
X567062Y444236D01*
X566915Y443500D01*
X567062Y442764D01*
X567479Y442140D01*
X568102Y441724D01*
X568838Y441577D01*
X569574Y441724D01*
X570198Y442140D01*
X570615Y442764D01*
X570761Y443500D01*
X570615Y444236D01*
X570198Y444860D01*
X569574Y445276D01*
X568838Y445423D01*
D02*
G37*
G36*
X537500D02*
X536764Y445276D01*
X536140Y444860D01*
X535724Y444236D01*
X535577Y443500D01*
X535724Y442764D01*
X536140Y442140D01*
X536764Y441724D01*
X537500Y441577D01*
X538236Y441724D01*
X538860Y442140D01*
X539276Y442764D01*
X539423Y443500D01*
X539276Y444236D01*
X538860Y444860D01*
X538236Y445276D01*
X537500Y445423D01*
D02*
G37*
G36*
X534500Y441423D02*
X533764Y441276D01*
X533140Y440860D01*
X532724Y440236D01*
X532577Y439500D01*
X532724Y438764D01*
X533140Y438140D01*
X533764Y437724D01*
X534500Y437577D01*
X535236Y437724D01*
X535860Y438140D01*
X536276Y438764D01*
X536423Y439500D01*
X536276Y440236D01*
X535860Y440860D01*
X535236Y441276D01*
X534500Y441423D01*
D02*
G37*
G36*
X552874Y439524D02*
X548901D01*
X548990Y438849D01*
X549443Y437754D01*
X550165Y436814D01*
X551105Y436093D01*
X552199Y435639D01*
X552874Y435551D01*
Y439524D01*
D02*
G37*
G36*
X540210Y436360D02*
X533900D01*
Y433400D01*
X540210D01*
Y436360D01*
D02*
G37*
G36*
X533100D02*
X526790D01*
Y433400D01*
X533100D01*
Y436360D01*
D02*
G37*
G36*
X608760Y438328D02*
X606500D01*
X604240D01*
X604240Y436449D01*
X603805Y436291D01*
X599598D01*
Y435845D01*
X596000D01*
X595103Y435667D01*
X594342Y435158D01*
X593833Y434397D01*
X593655Y433500D01*
X593833Y432603D01*
X594342Y431842D01*
X595103Y431333D01*
X596000Y431155D01*
X599598D01*
Y430709D01*
X606402D01*
X606402Y436291D01*
X606836Y436449D01*
X608760D01*
Y438328D01*
D02*
G37*
G36*
X602134Y430057D02*
X601398Y429910D01*
X600774Y429494D01*
X600357Y428870D01*
X600211Y428134D01*
X600357Y427398D01*
X600774Y426774D01*
X601398Y426357D01*
X602134Y426211D01*
X602870Y426357D01*
X603493Y426774D01*
X603910Y427398D01*
X604057Y428134D01*
X603910Y428870D01*
X603493Y429494D01*
X602870Y429910D01*
X602134Y430057D01*
D02*
G37*
G36*
X540210Y432600D02*
X533500D01*
X526790D01*
Y429640D01*
X533408D01*
X533560Y429140D01*
X533140Y428860D01*
X532724Y428236D01*
X532577Y427500D01*
X532724Y426764D01*
X533140Y426140D01*
X533764Y425724D01*
X534500Y425577D01*
X535236Y425724D01*
X535860Y426140D01*
X536276Y426764D01*
X536423Y427500D01*
X536276Y428236D01*
X535860Y428860D01*
X535440Y429140D01*
X535592Y429640D01*
X540210D01*
Y432600D01*
D02*
G37*
G36*
X606402Y423417D02*
X603400D01*
Y421026D01*
X606402D01*
Y423417D01*
D02*
G37*
G36*
X602600D02*
X599598D01*
Y421026D01*
X602600D01*
Y423417D01*
D02*
G37*
G36*
X544000Y426778D02*
X543152Y426666D01*
X542361Y426339D01*
X541682Y425818D01*
X541161Y425139D01*
X540834Y424348D01*
X540722Y423500D01*
Y422500D01*
X540834Y421652D01*
X541161Y420861D01*
X541682Y420182D01*
X542361Y419661D01*
X543152Y419334D01*
X544000Y419222D01*
X544848Y419334D01*
X545639Y419661D01*
X546318Y420182D01*
X546839Y420861D01*
X547166Y421652D01*
X547278Y422500D01*
Y423500D01*
X547166Y424348D01*
X546839Y425139D01*
X546318Y425818D01*
X545639Y426339D01*
X544848Y426666D01*
X544000Y426778D01*
D02*
G37*
G36*
X533000Y422923D02*
X532264Y422776D01*
X531640Y422360D01*
X531224Y421736D01*
X531077Y421000D01*
X531224Y420264D01*
X531640Y419640D01*
X532264Y419224D01*
X533000Y419077D01*
X533736Y419224D01*
X534360Y419640D01*
X534776Y420264D01*
X534923Y421000D01*
X534776Y421736D01*
X534360Y422360D01*
X533736Y422776D01*
X533000Y422923D01*
D02*
G37*
G36*
X606402Y420226D02*
X603400D01*
Y417835D01*
X606402D01*
Y420226D01*
D02*
G37*
G36*
X602600D02*
X599598D01*
Y417835D01*
X602600D01*
Y420226D01*
D02*
G37*
G36*
X566000Y421529D02*
X564824Y421413D01*
X563693Y421070D01*
X562650Y420513D01*
X561737Y419763D01*
X560987Y418850D01*
X560430Y417807D01*
X560087Y416676D01*
X559971Y415500D01*
X560087Y414324D01*
X560430Y413193D01*
X560987Y412150D01*
X561737Y411237D01*
X562650Y410487D01*
X563693Y409930D01*
X564824Y409587D01*
X566000Y409471D01*
X567176Y409587D01*
X568307Y409930D01*
X569349Y410487D01*
X570263Y411237D01*
X571013Y412150D01*
X571570Y413193D01*
X571913Y414324D01*
X572029Y415500D01*
X571913Y416676D01*
X571570Y417807D01*
X571013Y418850D01*
X570263Y419763D01*
X569349Y420513D01*
X568307Y421070D01*
X567176Y421413D01*
X566000Y421529D01*
D02*
G37*
G36*
X549000Y411480D02*
Y406000D01*
X554480D01*
X554413Y406676D01*
X554070Y407807D01*
X553513Y408849D01*
X552763Y409763D01*
X551850Y410513D01*
X550807Y411070D01*
X549676Y411413D01*
X549000Y411480D01*
D02*
G37*
G36*
X548000D02*
X547324Y411413D01*
X546193Y411070D01*
X545151Y410513D01*
X544237Y409763D01*
X543487Y408849D01*
X542930Y407807D01*
X542587Y406676D01*
X542520Y406000D01*
X548000D01*
Y411480D01*
D02*
G37*
G36*
X554480Y405000D02*
X549000D01*
Y399520D01*
X549676Y399587D01*
X550807Y399930D01*
X551850Y400487D01*
X552763Y401237D01*
X553513Y402150D01*
X554070Y403193D01*
X554413Y404324D01*
X554480Y405000D01*
D02*
G37*
G36*
X548000D02*
X542520D01*
X542587Y404324D01*
X542930Y403193D01*
X543487Y402150D01*
X544237Y401237D01*
X545151Y400487D01*
X546193Y399930D01*
X547324Y399587D01*
X548000Y399520D01*
Y405000D01*
D02*
G37*
G36*
X582000Y411529D02*
X580824Y411413D01*
X579693Y411070D01*
X578651Y410513D01*
X577737Y409763D01*
X576987Y408849D01*
X576430Y407807D01*
X576087Y406676D01*
X575971Y405500D01*
X576087Y404324D01*
X576430Y403193D01*
X576987Y402150D01*
X577737Y401237D01*
X578651Y400487D01*
X579693Y399930D01*
X580824Y399587D01*
X582000Y399471D01*
X583176Y399587D01*
X584307Y399930D01*
X585350Y400487D01*
X586263Y401237D01*
X587013Y402150D01*
X587570Y403193D01*
X587913Y404324D01*
X588029Y405500D01*
X587913Y406676D01*
X587570Y407807D01*
X587013Y408849D01*
X586263Y409763D01*
X585350Y410513D01*
X584307Y411070D01*
X583176Y411413D01*
X582000Y411529D01*
D02*
G37*
G36*
X565562Y407946D02*
X564670D01*
X564572Y407927D01*
X564471D01*
X563597Y407753D01*
X563504Y407714D01*
X563405Y407694D01*
X562581Y407353D01*
X562498Y407298D01*
X562405Y407259D01*
X561663Y406764D01*
X561592Y406693D01*
X561509Y406637D01*
X560878Y406006D01*
X560823Y405923D01*
X560752Y405852D01*
X560256Y405110D01*
X560218Y405017D01*
X560162Y404934D01*
X559821Y404110D01*
X559801Y404011D01*
X559763Y403919D01*
X559589Y403044D01*
Y402943D01*
X559569Y402845D01*
Y401953D01*
X559589Y401855D01*
Y401754D01*
X559763Y400879D01*
X559801Y400787D01*
X559821Y400688D01*
X560162Y399864D01*
X560218Y399781D01*
X560256Y399688D01*
X560752Y398946D01*
X560823Y398875D01*
X560878Y398792D01*
X561509Y398161D01*
X561593Y398106D01*
X561663Y398035D01*
X562405Y397539D01*
X562498Y397500D01*
X562581Y397445D01*
X563405Y397104D01*
X563504Y397084D01*
X563597Y397045D01*
X564471Y396871D01*
X564572D01*
X564670Y396852D01*
X565562D01*
X565661Y396871D01*
X565761D01*
X566636Y397045D01*
X566728Y397084D01*
X566827Y397104D01*
X567651Y397445D01*
X567734Y397500D01*
X567827Y397539D01*
X568569Y398035D01*
X568640Y398106D01*
X568723Y398161D01*
X569354Y398792D01*
X569410Y398875D01*
X569481Y398946D01*
X569976Y399688D01*
X570015Y399781D01*
X570070Y399864D01*
X570412Y400688D01*
X570431Y400787D01*
X570470Y400879D01*
X570644Y401754D01*
Y401855D01*
X570663Y401953D01*
Y402845D01*
X570644Y402943D01*
Y403044D01*
X570470Y403919D01*
X570431Y404011D01*
X570412Y404110D01*
X570070Y404934D01*
X570015Y405017D01*
X569976Y405110D01*
X569481Y405852D01*
X569410Y405923D01*
X569354Y406006D01*
X568723Y406637D01*
X568640Y406693D01*
X568569Y406764D01*
X567827Y407259D01*
X567734Y407298D01*
X567651Y407353D01*
X566827Y407694D01*
X566728Y407714D01*
X566636Y407753D01*
X565761Y407927D01*
X565661D01*
X565562Y407946D01*
D02*
G37*
G36*
X650565Y464822D02*
X649017Y464670D01*
X647527Y464218D01*
X646155Y463485D01*
X644952Y462497D01*
X643965Y461295D01*
X643231Y459922D01*
X642779Y458433D01*
X642627Y456884D01*
Y451884D01*
X642779Y450336D01*
X643231Y448846D01*
X643965Y447474D01*
X644952Y446271D01*
X646155Y445284D01*
X647527Y444550D01*
X647640Y444516D01*
Y441445D01*
X647071Y441008D01*
X646285Y439984D01*
X645791Y438792D01*
X645623Y437513D01*
X645791Y436234D01*
X646285Y435042D01*
X647071Y434018D01*
X648094Y433233D01*
X649286Y432739D01*
X650565Y432571D01*
X651844Y432739D01*
X653036Y433233D01*
X654060Y434018D01*
X654845Y435042D01*
X655339Y436234D01*
X655508Y437513D01*
X655339Y438792D01*
X654845Y439984D01*
X654060Y441008D01*
X653490Y441445D01*
Y444516D01*
X653603Y444550D01*
X654976Y445284D01*
X656178Y446271D01*
X657166Y447474D01*
X657899Y448846D01*
X658351Y450336D01*
X658503Y451884D01*
Y456884D01*
X658351Y458433D01*
X657899Y459922D01*
X657166Y461295D01*
X656178Y462497D01*
X654976Y463485D01*
X653603Y464218D01*
X652114Y464670D01*
X650565Y464822D01*
D02*
G37*
G36*
X561531Y478891D02*
X560796Y478745D01*
X560172Y478328D01*
X559755Y477704D01*
X559609Y476968D01*
X559755Y476233D01*
X560172Y475609D01*
X560796Y475192D01*
X561531Y475046D01*
X562267Y475192D01*
X562891Y475609D01*
X563308Y476233D01*
X563454Y476968D01*
X563308Y477704D01*
X562891Y478328D01*
X562267Y478745D01*
X561531Y478891D01*
D02*
G37*
G36*
X556157Y477576D02*
X552605D01*
Y474614D01*
X556157D01*
Y477576D01*
D02*
G37*
G36*
X551805D02*
X548252D01*
Y474614D01*
X551805D01*
Y477576D01*
D02*
G37*
G36*
X556278Y471778D02*
X552500D01*
Y468000D01*
X556278D01*
Y471778D01*
D02*
G37*
G36*
X551500D02*
X547722D01*
Y468000D01*
X551500D01*
Y471778D01*
D02*
G37*
G36*
X556278Y467000D02*
X552500D01*
Y463222D01*
X556278D01*
Y467000D01*
D02*
G37*
G36*
X551500D02*
X547722D01*
Y463222D01*
X551500D01*
Y467000D01*
D02*
G37*
G36*
X562000Y471814D02*
X560883Y471667D01*
X559843Y471236D01*
X558949Y470551D01*
X558264Y469657D01*
X557832Y468617D01*
X557686Y467500D01*
X557832Y466383D01*
X558264Y465343D01*
X558949Y464449D01*
X559843Y463764D01*
X560883Y463333D01*
X562000Y463186D01*
X563117Y463333D01*
X564157Y463764D01*
X565051Y464449D01*
X565736Y465343D01*
X566167Y466383D01*
X566315Y467500D01*
X566167Y468617D01*
X565736Y469657D01*
X565051Y470551D01*
X564157Y471236D01*
X563117Y471667D01*
X562000Y471814D01*
D02*
G37*
%LPD*%
D10*
X537772Y493500D02*
D03*
X534228D02*
D03*
X529772D02*
D03*
X526228D02*
D03*
X537272Y483000D02*
D03*
X533728D02*
D03*
X583921Y448636D02*
D03*
X587464D02*
D03*
X539772Y503500D02*
D03*
X536228D02*
D03*
X531728Y473500D02*
D03*
X535272D02*
D03*
X564272Y540500D02*
D03*
X560728D02*
D03*
X568457Y540000D02*
D03*
X572000D02*
D03*
D11*
X603000Y433500D02*
D03*
Y420626D02*
D03*
D12*
X542000Y414500D02*
D03*
X545937Y414500D02*
D03*
X591532Y417500D02*
D03*
X595469D02*
D03*
X529937Y486000D02*
D03*
X526000D02*
D03*
X533532Y486000D02*
D03*
X537468D02*
D03*
D13*
X589000Y417531D02*
D03*
Y421468D02*
D03*
D14*
X599551Y473055D02*
D03*
Y454945D02*
D03*
D15*
X593449Y470594D02*
D03*
Y457405D02*
D03*
D16*
X537441Y574000D02*
D03*
X540000D02*
D03*
X542559D02*
D03*
X545118D02*
D03*
Y556992D02*
D03*
X542559D02*
D03*
X540000D02*
D03*
X537441D02*
D03*
D17*
X601177Y444500D02*
D03*
X591823Y440760D02*
D03*
Y448240D02*
D03*
D18*
X526547Y522201D02*
D03*
X528516D02*
D03*
X530484D02*
D03*
X532453D02*
D03*
Y509799D02*
D03*
X530484D02*
D03*
X528516D02*
D03*
X526547D02*
D03*
D19*
X557500Y567665D02*
D03*
X562500D02*
D03*
X567500D02*
D03*
X572500D02*
D03*
Y548335D02*
D03*
X567500D02*
D03*
X562500D02*
D03*
X557500D02*
D03*
D20*
X583000Y564705D02*
D03*
Y568642D02*
D03*
D21*
Y572657D02*
D03*
Y560689D02*
D03*
D22*
Y577500D02*
D03*
Y555847D02*
D03*
D23*
X606500Y442272D02*
D03*
Y438728D02*
D03*
X552500Y559272D02*
D03*
Y555728D02*
D03*
X549000Y545272D02*
D03*
Y541728D02*
D03*
X547500Y526772D02*
D03*
Y523228D02*
D03*
X552500Y545272D02*
D03*
Y541728D02*
D03*
X539000Y515728D02*
D03*
Y519272D02*
D03*
D24*
X533500Y433000D02*
D03*
X561060D02*
D03*
D25*
X548268Y482701D02*
D03*
Y487032D02*
D03*
Y491362D02*
D03*
Y495693D02*
D03*
Y500024D02*
D03*
Y504354D02*
D03*
Y508685D02*
D03*
Y513016D02*
D03*
Y517346D02*
D03*
D26*
X590000Y539000D02*
D03*
Y477976D02*
D03*
D27*
X552205D02*
D03*
D28*
Y535457D02*
D03*
D29*
X593640Y446190D02*
X596579Y449130D01*
X588344Y447757D02*
X589910Y446190D01*
X593640D01*
X587464Y448636D02*
X587484D01*
X588344Y447777D01*
Y447757D02*
Y447777D01*
X534267Y504176D02*
X535553D01*
X536228Y503500D01*
X532453Y505990D02*
X534267Y504176D01*
X532453Y505990D02*
Y509799D01*
X542000Y413500D02*
Y414500D01*
X541500Y413000D02*
X542000Y413500D01*
X564500Y442000D02*
X570000Y436500D01*
X557479Y442000D02*
X564500D01*
X591532Y424000D02*
X595000D01*
X589000Y421468D02*
X591532Y424000D01*
X570000Y436500D02*
X574500D01*
X543500Y438500D02*
Y443000D01*
X536000Y450500D02*
X543500Y443000D01*
X555155Y444324D02*
X557479Y442000D01*
X549324Y444324D02*
X555155D01*
X543500Y438500D02*
X549324Y444324D01*
X545937Y414500D02*
X547000D01*
X560500Y428000D01*
D30*
X539772Y503500D02*
X539791D01*
X540851Y502440D01*
Y502421D02*
Y502440D01*
Y502421D02*
X541000Y502272D01*
Y492531D02*
Y502272D01*
X549000Y541728D02*
X552500D01*
X528500Y516000D02*
X529500D01*
X526547Y511547D02*
X528500Y513500D01*
X529500Y516000D02*
X530484Y515016D01*
X526547Y509799D02*
Y511547D01*
X560728Y540500D02*
Y542272D01*
X530484Y523984D02*
X545981Y539481D01*
X554981D02*
X557111Y541612D01*
X545981Y539481D02*
X554981D01*
X536000Y533000D02*
X542500Y539500D01*
X539000Y520272D02*
X540000Y519272D01*
X539000Y483000D02*
X540500Y481500D01*
X587968Y415000D02*
X590469Y417500D01*
X537414Y489914D02*
X540914D01*
X569000Y511000D02*
X574000Y506000D01*
X577000D01*
X580000Y503000D01*
Y489500D02*
Y503000D01*
Y489500D02*
X583500Y486000D01*
X561000Y495000D02*
X564500Y498500D01*
X557500Y495000D02*
X561000D01*
X556086Y493586D02*
X557500Y495000D01*
X545086Y493586D02*
X556086D01*
X536500Y458000D02*
X542000Y463500D01*
Y482500D01*
X538500Y486000D02*
X542000Y482500D01*
X537468Y486000D02*
X538500D01*
X543500Y492000D02*
X545086Y493586D01*
X543500Y491369D02*
Y492000D01*
X566500Y501000D02*
X569000Y498500D01*
X549244Y501000D02*
X566500D01*
X548268Y500024D02*
X549244Y501000D01*
X544376Y502376D02*
X551876D01*
X542586Y500586D02*
X544376Y502376D01*
X551876D02*
X559000Y509500D01*
X542586Y491586D02*
Y500586D01*
X540931Y488800D02*
X543500Y491369D01*
X532205Y488800D02*
X540931D01*
X531734Y488328D02*
X532205Y488800D01*
X540000Y488000D02*
X543000Y485000D01*
X535532Y488000D02*
X540000D01*
X533532Y486000D02*
X535532Y488000D01*
X531734Y488234D02*
Y488328D01*
X537414Y489914D02*
X538000Y490500D01*
X534228Y491772D02*
X534500Y491500D01*
X529772Y491728D02*
X530000Y491500D01*
X559000Y509500D02*
Y510000D01*
X540914Y489914D02*
X542586Y491586D01*
X534228Y491772D02*
Y493500D01*
X529772Y491728D02*
Y493500D01*
X555000Y487000D02*
X569000D01*
X553000Y485000D02*
X555000Y487000D01*
X543000Y485000D02*
X553000D01*
X569000Y487000D02*
X571000Y489000D01*
Y496500D01*
X573086Y498586D01*
X548913Y505000D02*
X551500D01*
X548268Y504354D02*
X548913Y505000D01*
X552371Y513871D02*
X554500Y516000D01*
X552371Y511371D02*
Y513871D01*
X549685Y508685D02*
X552371Y511371D01*
X561685Y509685D02*
Y514815D01*
X560500Y516000D02*
X561685Y514815D01*
X554500Y516000D02*
X560500D01*
X548268Y508685D02*
X549685D01*
X561535Y517000D02*
X565768Y512768D01*
X554000Y517000D02*
X561535D01*
X550016Y513016D02*
X554000Y517000D01*
X548268Y513016D02*
X550016D01*
X562500Y548335D02*
Y555000D01*
X550500Y555500D02*
X550728Y555728D01*
X552500D01*
X540500Y566000D02*
X541500D01*
X537441Y562941D02*
X540500Y566000D01*
X537441Y556992D02*
Y562941D01*
X540000Y561500D02*
X541000Y562500D01*
X557165Y568000D02*
X557500Y567665D01*
X554500Y568000D02*
X557165D01*
X540000Y556992D02*
Y561500D01*
X545118Y556992D02*
X547000Y558874D01*
Y560500D01*
X572000Y540000D02*
X573500Y541500D01*
X530484Y522201D02*
Y523984D01*
X547500Y521500D02*
Y523228D01*
X525500Y523248D02*
X526547Y522201D01*
X567500Y483063D02*
X577000Y473563D01*
Y455000D02*
Y473563D01*
Y455000D02*
X580000Y452000D01*
X537500Y508000D02*
Y511000D01*
X528516Y519984D02*
X537500Y511000D01*
X532453Y517179D02*
X539500Y510131D01*
X532453Y517179D02*
Y522201D01*
X528516Y519984D02*
Y522201D01*
X591543Y472500D02*
X593449Y470594D01*
X590000Y472500D02*
X591543D01*
X552500Y555728D02*
X554000D01*
X534554Y506414D02*
X536858D01*
X534500Y506468D02*
X534554Y506414D01*
X536858D02*
X539772Y503500D01*
X528516Y506516D02*
Y509799D01*
X530484D02*
Y515016D01*
X531000Y539000D02*
X539500D01*
X527000Y543000D02*
X531000Y539000D01*
X527000Y533000D02*
X536000D01*
X572500Y548335D02*
X575500Y551335D01*
X567500Y548335D02*
Y554563D01*
X568469Y555532D01*
X567500Y564272D02*
Y567665D01*
X566728Y563500D02*
X567500Y564272D01*
X549000Y545272D02*
X552500D01*
X553272Y544500D01*
X554000D01*
X540011Y478240D02*
Y481011D01*
X535272Y473500D02*
X540011Y478240D01*
X606000Y442772D02*
X606500Y442272D01*
X604272Y444500D02*
X606000Y442772D01*
X585500Y564000D02*
X585500Y564000D01*
X583000Y568642D02*
X583358Y569000D01*
X586031D01*
X545362Y491362D02*
X548268D01*
X540011Y481011D02*
X540500Y481500D01*
X537272Y483000D02*
X539000D01*
X533532Y486000D02*
X533532Y486000D01*
X529937Y486000D02*
X533532D01*
X536500Y471000D02*
Y472272D01*
X535272Y473500D02*
X536500Y472272D01*
X557500Y548335D02*
Y552228D01*
X554000Y555728D02*
X557500Y552228D01*
X590469Y417500D02*
X591532D01*
X595469Y409031D02*
Y417500D01*
D31*
X583921Y448636D02*
Y454617D01*
X582000Y456538D02*
X583921Y454617D01*
X582000Y456538D02*
Y456845D01*
X583921Y446079D02*
Y448636D01*
Y446079D02*
X585500Y444500D01*
X596000Y433500D02*
X603000D01*
D32*
X565996Y431000D02*
X578000D01*
X602000Y444500D02*
X604272D01*
X590260Y440760D02*
X591823D01*
X585250Y435750D02*
X590260Y440760D01*
X578000Y428500D02*
X585250Y435750D01*
X563498Y433498D02*
X565996Y431000D01*
D33*
X559506Y433498D02*
X563498D01*
X590500Y549000D02*
Y559378D01*
X583000Y572657D02*
X596158D01*
X536500Y458000D02*
X544500Y450000D01*
X571000D01*
X585250Y435750D01*
D34*
X578000Y428500D02*
Y431000D01*
D35*
X556700Y498200D02*
X561500D01*
X554193Y495693D02*
X556700Y498200D01*
X548268Y495693D02*
X554193D01*
X587500Y454500D02*
Y469500D01*
X535000Y576441D02*
X537441Y574000D01*
X545118D02*
X546811Y575693D01*
X601500Y508000D02*
Y538000D01*
X589189Y560689D02*
X590500Y559378D01*
X594000Y483000D02*
X601500Y490500D01*
Y508000D01*
X584500Y483000D02*
X594000D01*
X582500Y481000D02*
X584500Y483000D01*
X582500Y474500D02*
Y481000D01*
Y474500D02*
X587500Y469500D01*
X542773Y576500D02*
Y577773D01*
X543000Y578000D01*
X646859Y529369D02*
X648646Y531156D01*
Y541277D01*
X648828Y541458D01*
X649024D01*
D36*
X591823Y448240D02*
Y450177D01*
X587500Y454500D02*
X591823Y450177D01*
X590500Y549000D02*
X601500Y538000D01*
D37*
X553957Y507457D02*
Y511957D01*
X551500Y505000D02*
X553957Y507457D01*
D38*
X535000Y576441D02*
Y584000D01*
X650565Y437513D02*
Y454384D01*
D39*
X546811Y575693D02*
Y584000D01*
X606000Y442772D02*
Y554500D01*
D40*
X583000Y560689D02*
X589000D01*
X596158Y567658D02*
Y572657D01*
X589189Y560689D02*
X596158Y567658D01*
D41*
X595469Y409031D02*
X599000Y405500D01*
D42*
X646859Y512908D02*
X647858Y512924D01*
X648855Y512973D01*
X649850Y513056D01*
X650842Y513171D01*
X651830Y513319D01*
X652812Y513500D01*
X653788Y513713D01*
X654756Y513958D01*
X655715Y514235D01*
X656665Y514544D01*
X657604Y514884D01*
X658532Y515254D01*
X659446Y515656D01*
X660347Y516087D01*
X661233Y516547D01*
X662103Y517037D01*
X662957Y517556D01*
X663793Y518102D01*
X664610Y518675D01*
X665408Y519276D01*
X666186Y519902D01*
X666943Y520554D01*
X667678Y521230D01*
X668390Y521930D01*
X669078Y522654D01*
X669742Y523399D01*
X670381Y524167D01*
X670995Y524955D01*
X671582Y525763D01*
X672142Y526590D01*
X672674Y527435D01*
X673178Y528297D01*
X673653Y529175D01*
X674099Y530069D01*
X674515Y530976D01*
X674901Y531897D01*
X675257Y532831D01*
X675581Y533775D01*
X675874Y534730D01*
X676135Y535694D01*
X676364Y536666D01*
X676561Y537645D01*
X676725Y538630D01*
X676857Y539620D01*
X676956Y540614D01*
X677022Y541610D01*
X677055Y542608D01*
X677055Y543607D01*
X677022Y544605D01*
X676956Y545602D01*
X676857Y546595D01*
X676725Y547585D01*
X676561Y548570D01*
X676364Y549549D01*
X676135Y550521D01*
X675874Y551485D01*
X675581Y552440D01*
X675257Y553385D01*
X674901Y554318D01*
X674515Y555239D01*
X674099Y556147D01*
X673653Y557040D01*
X673178Y557919D01*
X672674Y558781D01*
X672141Y559626D01*
X671581Y560453D01*
X670994Y561260D01*
X670381Y562048D01*
X669742Y562816D01*
X669078Y563562D01*
X668389Y564285D01*
X667677Y564985D01*
X666943Y565662D01*
X666186Y566313D01*
X665408Y566940D01*
X664610Y567540D01*
X663793Y568114D01*
X662956Y568660D01*
X662103Y569178D01*
X661232Y569668D01*
X660346Y570128D01*
X659446Y570560D01*
X658531Y570961D01*
X657604Y571332D01*
X656665Y571671D01*
X655715Y571980D01*
X654755Y572257D01*
X653787Y572502D01*
X652812Y572715D01*
X651829Y572896D01*
X650842Y573044D01*
X649850Y573159D01*
X648855Y573242D01*
X647857Y573291D01*
X646859Y573308D01*
D43*
X638121Y554369D02*
D03*
X646859Y529369D02*
D03*
X655621Y554369D02*
D03*
X629338Y454384D02*
D03*
X671896D02*
D03*
X650565D02*
D03*
D44*
X649024Y541458D02*
D03*
X644694D02*
D03*
D45*
X655621Y554369D02*
X671168D01*
X673392Y552145D01*
X655621Y554369D02*
Y554812D01*
X655818Y555008D01*
D46*
X635280Y434800D02*
X635484Y433826D01*
X635751Y432866D01*
X636079Y431926D01*
X636466Y431008D01*
X636911Y430118D01*
X637413Y429257D01*
X637969Y428431D01*
X638577Y427642D01*
X639234Y426894D01*
X639938Y426190D01*
X640685Y425532D01*
X641474Y424924D01*
X642300Y424367D01*
X643159Y423865D01*
X644050Y423418D01*
X644967Y423030D01*
X645907Y422702D01*
X646866Y422435D01*
X647841Y422230D01*
X648827Y422088D01*
X649819Y422009D01*
X650815Y421994D01*
X651810Y422044D01*
X652799Y422157D01*
X653779Y422333D01*
X654746Y422572D01*
X655695Y422873D01*
X656624Y423234D01*
X657527Y423654D01*
X658401Y424131D01*
X659243Y424663D01*
X660048Y425248D01*
X660815Y425883D01*
X661540Y426567D01*
X662218Y427295D01*
X662849Y428066D01*
X663429Y428876D01*
X663956Y429721D01*
X664427Y430598D01*
X664841Y431504D01*
X665196Y432434D01*
X665491Y433386D01*
X665724Y434354D01*
X665894Y435335D01*
X629338Y450712D02*
X634665Y445384D01*
D47*
X620563Y438539D02*
X620545Y437537D01*
X620560Y436535D01*
X620609Y435534D01*
X620691Y434536D01*
X620806Y433540D01*
X620955Y432550D01*
X621136Y431564D01*
X621350Y430585D01*
X621597Y429614D01*
X621877Y428652D01*
X622188Y427700D01*
X622531Y426758D01*
X622905Y425828D01*
X623310Y424912D01*
X623745Y424009D01*
X624210Y423122D01*
X624705Y422250D01*
X625228Y421396D01*
X625780Y420560D01*
X626359Y419742D01*
X626966Y418944D01*
X627598Y418167D01*
X628256Y417412D01*
X628939Y416678D01*
X629646Y415969D01*
X630377Y415282D01*
X631130Y414621D01*
X631904Y413986D01*
X632700Y413376D01*
X633515Y412794D01*
X634349Y412239D01*
X635202Y411712D01*
X636071Y411214D01*
X636957Y410746D01*
X637858Y410307D01*
X638773Y409898D01*
X639701Y409520D01*
X640641Y409174D01*
X641592Y408859D01*
X642553Y408576D01*
X643524Y408325D01*
X644501Y408107D01*
X645486Y407922D01*
X646477Y407769D01*
X647471Y407650D01*
X648470Y407564D01*
X649470Y407511D01*
X650472Y407492D01*
X651474Y407507D01*
X652475Y407554D01*
X653474Y407635D01*
X654469Y407750D01*
X655460Y407898D01*
X656446Y408078D01*
X657425Y408292D01*
X658396Y408538D01*
X659359Y408816D01*
X660311Y409127D01*
X661253Y409469D01*
X662183Y409842D01*
X663100Y410246D01*
X664003Y410680D01*
X664891Y411145D01*
X665763Y411638D01*
X666618Y412161D01*
X667455Y412712D01*
X668273Y413291D01*
X669071Y413896D01*
X669849Y414528D01*
X670605Y415185D01*
X671339Y415868D01*
X672049Y416574D01*
X672736Y417304D01*
X673398Y418057D01*
X674034Y418831D01*
X674644Y419626D01*
X675227Y420440D01*
X675783Y421274D01*
X676310Y422126D01*
X676809Y422995D01*
X677279Y423880D01*
X677718Y424781D01*
X678128Y425695D01*
X678506Y426623D01*
X678854Y427563D01*
X679170Y428514D01*
X679453Y429475D01*
X679705Y430445D01*
X679924Y431422D01*
X680110Y432407D01*
X680264Y433397D01*
X680384Y434392D01*
X680471Y435390D01*
X680524Y436391D01*
X680544Y437393D01*
X680531Y438394D01*
X680484Y439395D01*
X680404Y440394D01*
X680290Y441390D01*
X680143Y442381D01*
X679964Y443367D01*
X679751Y444346D01*
X679506Y445317D01*
X679228Y446280D01*
X678919Y447233D01*
X678578Y448175D01*
X678205Y449106D01*
X677802Y450023D01*
X677368Y450926D01*
X676905Y451815D01*
X676412Y452687D01*
X675890Y453542D01*
X675340Y454380D01*
X674762Y455198D01*
X674157Y455997D01*
X673526Y456776D01*
D48*
X634665Y435415D02*
X635280Y434800D01*
X629338Y450712D02*
Y454384D01*
X650545Y437492D02*
X650565Y437513D01*
D49*
X634665Y435415D02*
Y445384D01*
D50*
X544000Y423000D02*
D03*
D51*
X553374Y440024D02*
D03*
D52*
X599551Y467346D02*
D03*
Y460654D02*
D03*
D53*
X546811Y584000D02*
D03*
X535000D02*
D03*
D54*
X559626Y483126D02*
D03*
X567500Y483063D02*
D03*
X575374D02*
D03*
Y491000D02*
D03*
X567500D02*
D03*
X559626D02*
D03*
D55*
X532000Y478500D02*
D03*
D56*
X527000Y533000D02*
D03*
D57*
Y543000D02*
D03*
Y553000D02*
D03*
Y563000D02*
D03*
Y573000D02*
D03*
D58*
X552000Y467500D02*
D03*
D59*
X562000D02*
D03*
X572000D02*
D03*
X582000D02*
D03*
X552000Y457500D02*
D03*
X562000D02*
D03*
X572000D02*
D03*
X582000D02*
D03*
D60*
X598551Y549665D02*
D03*
Y583681D02*
D03*
X583591D02*
D03*
Y549665D02*
D03*
D61*
X599000Y405500D02*
D03*
X531000D02*
D03*
D62*
X566000Y415500D02*
D03*
X548500Y405500D02*
D03*
X582000D02*
D03*
D63*
X591575Y489000D02*
D03*
Y520496D02*
D03*
D64*
X585222Y529762D02*
D03*
X588681Y532026D02*
D03*
X585570Y533918D02*
D03*
X522406Y521292D02*
D03*
X599394Y480235D02*
D03*
X596579Y449130D02*
D03*
X587259Y487096D02*
D03*
X528500Y516000D02*
D03*
Y513500D02*
D03*
X539963Y529537D02*
D03*
X558251Y534056D02*
D03*
X558231Y536830D02*
D03*
X560728Y542272D02*
D03*
X557111Y541612D02*
D03*
X558500Y513500D02*
D03*
X532000Y469586D02*
D03*
X552500Y528000D02*
D03*
X573500Y509500D02*
D03*
X569000Y511000D02*
D03*
X583500Y486000D02*
D03*
X602134Y428134D02*
D03*
X561500Y498200D02*
D03*
X527500Y581500D02*
D03*
X602500Y567000D02*
D03*
X558000Y528000D02*
D03*
X595552Y533135D02*
D03*
X606000Y415000D02*
D03*
X529000Y451500D02*
D03*
X545500Y472000D02*
D03*
X586500Y513500D02*
D03*
X575500Y503500D02*
D03*
X524500Y526500D02*
D03*
X574500Y472500D02*
D03*
X541500Y413000D02*
D03*
X533000Y421000D02*
D03*
X534500Y427500D02*
D03*
Y439500D02*
D03*
X574532Y522031D02*
D03*
X596000Y433500D02*
D03*
X564500Y498500D02*
D03*
X531734Y488328D02*
D03*
X538000Y490500D02*
D03*
X534500Y491500D02*
D03*
X530000D02*
D03*
X559000Y510000D02*
D03*
X541000Y492531D02*
D03*
X554500Y492000D02*
D03*
X555000Y489500D02*
D03*
X561531Y476968D02*
D03*
X569000Y498500D02*
D03*
X553957Y511957D02*
D03*
X561685Y509685D02*
D03*
X565768Y512768D02*
D03*
X568469Y520031D02*
D03*
X562500Y555000D02*
D03*
X550500Y555500D02*
D03*
X541500Y566000D02*
D03*
X541000Y562500D02*
D03*
X554500Y568000D02*
D03*
X547000Y560500D02*
D03*
X573500Y541500D02*
D03*
X573086Y498586D02*
D03*
X572532Y525969D02*
D03*
X586000Y495000D02*
D03*
X589000Y495500D02*
D03*
X573500Y496000D02*
D03*
X547500Y521500D02*
D03*
X525500Y523248D02*
D03*
X541926Y512574D02*
D03*
X580000Y452000D02*
D03*
X539500Y510131D02*
D03*
X590000Y472500D02*
D03*
X537500Y508000D02*
D03*
X534500Y506468D02*
D03*
X528516Y506516D02*
D03*
X542500Y539500D02*
D03*
X539500Y539000D02*
D03*
X575500Y551335D02*
D03*
X568469Y555532D02*
D03*
X566728Y563500D02*
D03*
X554000Y544500D02*
D03*
X568838Y443500D02*
D03*
X564500Y442000D02*
D03*
X602000Y442500D02*
D03*
X606000Y554500D02*
D03*
X596158Y572657D02*
D03*
X585500Y564000D02*
D03*
X586031Y569000D02*
D03*
X577500Y498500D02*
D03*
X582500Y496000D02*
D03*
X545362Y491362D02*
D03*
X540011Y481011D02*
D03*
X556000Y519000D02*
D03*
X562532Y425000D02*
D03*
X536500Y471000D02*
D03*
X539000Y520272D02*
D03*
X585500Y444500D02*
D03*
X601500Y508000D02*
D03*
X595000Y424000D02*
D03*
X587968Y415000D02*
D03*
X543000Y578000D02*
D03*
X536500Y458000D02*
D03*
X574500Y436500D02*
D03*
X536000Y450500D02*
D03*
X543500Y438500D02*
D03*
X537500Y443500D02*
D03*
X578000Y428500D02*
D03*
X560500Y428000D02*
D03*
X635621Y530869D02*
D03*
X653121Y571369D02*
D03*
X659621Y567369D02*
D03*
X646859Y514621D02*
D03*
Y508923D02*
D03*
X650621Y516869D02*
D03*
X652621Y511369D02*
D03*
X655621Y518369D02*
D03*
X658121Y513369D02*
D03*
X660621Y520369D02*
D03*
X664121Y515869D02*
D03*
X665621Y523369D02*
D03*
X670121Y520369D02*
D03*
Y528369D02*
D03*
X675121Y526369D02*
D03*
X673621Y533869D02*
D03*
X678121Y532869D02*
D03*
X674121Y540369D02*
D03*
X680121Y539869D02*
D03*
X674621Y546369D02*
D03*
X680621Y547369D02*
D03*
X672280Y553257D02*
D03*
X678621Y554369D02*
D03*
X669121Y558869D02*
D03*
X674621Y561369D02*
D03*
X665121Y563369D02*
D03*
X668121Y567869D02*
D03*
X660621Y573869D02*
D03*
X653621Y576369D02*
D03*
X646859Y571040D02*
D03*
Y576528D02*
D03*
X635796Y543108D02*
D03*
X627621Y549369D02*
D03*
X630121Y555369D02*
D03*
X636621Y560869D02*
D03*
X643121Y563869D02*
D03*
X645621Y557369D02*
D03*
X642121Y556369D02*
D03*
X638121Y554369D02*
D03*
X634121Y551369D02*
D03*
X631621Y547869D02*
D03*
X635621Y534869D02*
D03*
X628121Y536369D02*
D03*
X632621Y537869D02*
D03*
X626768Y543108D02*
D03*
X630811D02*
D03*
X644694Y541458D02*
D03*
D65*
X650565Y437513D02*
D03*
X662108Y409576D02*
D03*
X650545Y407276D02*
D03*
X638981Y409576D02*
D03*
X629178Y416126D02*
D03*
X622628Y425929D02*
D03*
X620328Y437492D02*
D03*
X680761D02*
D03*
X678461Y425929D02*
D03*
X671911Y416126D02*
D03*
X663734Y437492D02*
D03*
X659871Y428166D02*
D03*
X650545Y424303D02*
D03*
X643388Y420215D02*
D03*
X637356Y437492D02*
D03*
X667822Y430336D02*
D03*
X657701Y420215D02*
D03*
X641219Y428166D02*
D03*
X633267Y430336D02*
D03*
M02*
