G04*
G04 #@! TF.GenerationSoftware,Altium Limited,Altium Designer,20.0.13 (296)*
G04*
G04 Layer_Color=16711935*
%FSLAX25Y25*%
%MOIN*%
G70*
G01*
G75*
%ADD155C,0.00050*%
%ADD156C,0.00050*%
D155*
X645872Y477579D02*
X644853Y477447D01*
X643837Y477289D01*
X642826Y477105D01*
X641820Y476896D01*
X640819Y476661D01*
X639825Y476401D01*
X638837Y476115D01*
X637858Y475804D01*
X636886Y475469D01*
X635923Y475108D01*
X634970Y474724D01*
X634027Y474315D01*
X633095Y473882D01*
X632174Y473426D01*
X631265Y472947D01*
X630368Y472444D01*
X655218Y397413D02*
X656214Y397542D01*
X657205Y397695D01*
X658193Y397873D01*
X659176Y398076D01*
X660153Y398302D01*
X661125Y398553D01*
X662090Y398829D01*
X663048Y399128D01*
X663998Y399450D01*
X664940Y399797D01*
X665873Y400166D01*
X666796Y400559D01*
X667710Y400974D01*
X668612Y401412D01*
X669504Y401873D01*
X670384Y402355D01*
X671252Y402859D01*
X672107Y403385D01*
X672948Y403932D01*
X673776Y404499D01*
X674589Y405087D01*
X675387Y405695D01*
X676170Y406322D01*
X676938Y406969D01*
X677689Y407635D01*
X678423Y408319D01*
X679140Y409021D01*
X679839Y409741D01*
X680520Y410478D01*
X681182Y411232D01*
X681826Y412001D01*
X682450Y412787D01*
X683055Y413588D01*
X683639Y414404D01*
X684203Y415234D01*
X684746Y416078D01*
X685268Y416935D01*
X685769Y417804D01*
X686248Y418686D01*
X686704Y419580D01*
X687139Y420484D01*
X687550Y421400D01*
X687939Y422325D01*
X688305Y423259D01*
X688647Y424202D01*
X688966Y425154D01*
X689261Y426113D01*
X689532Y427079D01*
X689779Y428052D01*
X690002Y429030D01*
X690200Y430014D01*
X690374Y431002D01*
X690523Y431995D01*
X690647Y432991D01*
X690747Y433989D01*
X690822Y434990D01*
X690872Y435992D01*
X690897Y436995D01*
X690897Y437999D01*
X690872Y439002D01*
X690822Y440004D01*
X690747Y441005D01*
X690647Y442003D01*
X690523Y442999D01*
X690374Y443991D01*
X690200Y444980D01*
X690001Y445963D01*
X689779Y446942D01*
X689532Y447914D01*
X689261Y448881D01*
X688966Y449840D01*
X688647Y450791D01*
X688304Y451734D01*
X687939Y452669D01*
X687550Y453594D01*
X687138Y454509D01*
X686704Y455414D01*
X686247Y456307D01*
X685768Y457189D01*
X685268Y458059D01*
X684746Y458916D01*
X684202Y459760D01*
X683639Y460590D01*
X683054Y461406D01*
X682450Y462207D01*
X681825Y462992D01*
X681182Y463762D01*
X680519Y464516D01*
X679838Y465253D01*
X679139Y465972D01*
X678422Y466675D01*
X677688Y467359D01*
X676937Y468024D01*
X676170Y468671D01*
X675386Y469299D01*
X674588Y469907D01*
X673775Y470494D01*
X672947Y471062D01*
X672106Y471608D01*
X671251Y472134D01*
X670383Y472638D01*
X669503Y473120D01*
X668611Y473581D01*
X667709Y474019D01*
X666795Y474434D01*
X665872Y474827D01*
X664939Y475197D01*
X663997Y475543D01*
X663047Y475865D01*
X662089Y476164D01*
X661124Y476440D01*
X660152Y476690D01*
X659175Y476917D01*
X658192Y477120D01*
X657204Y477297D01*
X656212Y477451D01*
X655218Y477579D01*
Y397413D02*
X654797Y398348D01*
X654192Y399175D01*
X653428Y399859D01*
X652540Y400369D01*
X651565Y400685D01*
X650545Y400792D01*
X649526Y400685D01*
X648551Y400369D01*
X647662Y399859D01*
X646899Y399175D01*
X646293Y398348D01*
X645872Y397413D01*
X630368Y402548D02*
X631265Y402046D01*
X632174Y401566D01*
X633095Y401110D01*
X634027Y400677D01*
X634970Y400269D01*
X635923Y399884D01*
X636886Y399524D01*
X637858Y399188D01*
X638837Y398878D01*
X639825Y398592D01*
X640819Y398332D01*
X641820Y398097D01*
X642826Y397887D01*
X643837Y397703D01*
X644853Y397546D01*
X645872Y397413D01*
X645872Y477579D02*
X646293Y476645D01*
X646899Y475818D01*
X647662Y475134D01*
X648551Y474623D01*
X649526Y474308D01*
X650545Y474201D01*
X651565Y474308D01*
X652540Y474623D01*
X653428Y475134D01*
X654192Y475818D01*
X654797Y476645D01*
X655218Y477579D01*
X628504Y511312D02*
X629375Y510825D01*
X630259Y510361D01*
X631156Y509922D01*
X632064Y509507D01*
X632984Y509117D01*
X633913Y508752D01*
X634852Y508413D01*
X635800Y508099D01*
X636756Y507811D01*
X637720Y507549D01*
X638691Y507314D01*
X639667Y507105D01*
X640649Y506923D01*
X641635Y506767D01*
X642625Y506639D01*
X643619Y506537D01*
X644614Y506462D01*
X645612Y506415D01*
X646610Y506394D01*
X647609Y506401D01*
X648607Y506435D01*
X649603Y506496D01*
X650598Y506584D01*
X651590Y506700D01*
X652578Y506842D01*
X653562Y507011D01*
X654542Y507206D01*
X655515Y507428D01*
X656482Y507677D01*
X657442Y507952D01*
X658394Y508253D01*
X659338Y508579D01*
X660272Y508931D01*
X661197Y509309D01*
X662111Y509711D01*
X663013Y510138D01*
X663904Y510590D01*
X664782Y511065D01*
X665647Y511565D01*
X666498Y512087D01*
X667334Y512633D01*
X668155Y513201D01*
X668961Y513791D01*
X669750Y514403D01*
X670522Y515036D01*
X671277Y515690D01*
X672013Y516364D01*
X672731Y517058D01*
X673430Y517772D01*
X674109Y518504D01*
X674768Y519254D01*
X675407Y520022D01*
X676024Y520807D01*
X676619Y521608D01*
X677193Y522425D01*
X677744Y523258D01*
X678273Y524105D01*
X678778Y524966D01*
X679259Y525841D01*
X679717Y526729D01*
X680150Y527628D01*
X680559Y528540D01*
X680943Y529461D01*
X681301Y530393D01*
X681634Y531335D01*
X681941Y532285D01*
X682223Y533243D01*
X682478Y534208D01*
X682707Y535180D01*
X682909Y536158D01*
X683085Y537141D01*
X683233Y538129D01*
X683355Y539120D01*
X683450Y540114D01*
X683518Y541110D01*
X683559Y542108D01*
X683572Y543106D01*
X683559Y544105D01*
X683518Y545102D01*
X683450Y546099D01*
X683355Y547093D01*
X683233Y548084D01*
X683085Y549071D01*
X682909Y550054D01*
X682707Y551032D01*
X682478Y552004D01*
X682223Y552969D01*
X681941Y553927D01*
X681634Y554878D01*
X681301Y555819D01*
X680943Y556751D01*
X680559Y557673D01*
X680150Y558584D01*
X679717Y559483D01*
X679259Y560371D01*
X678778Y561246D01*
X678273Y562107D01*
X677744Y562955D01*
X677193Y563787D01*
X676619Y564604D01*
X676024Y565406D01*
X675407Y566191D01*
X674768Y566959D01*
X674109Y567709D01*
X673430Y568441D01*
X672731Y569154D01*
X672013Y569848D01*
X671277Y570522D01*
X670522Y571176D01*
X669750Y571809D01*
X668961Y572421D01*
X668155Y573011D01*
X667334Y573579D01*
X666498Y574125D01*
X665647Y574648D01*
X664782Y575147D01*
X663904Y575623D01*
X663013Y576074D01*
X662111Y576501D01*
X661197Y576903D01*
X660273Y577281D01*
X659338Y577633D01*
X658394Y577960D01*
X657442Y578261D01*
X656482Y578535D01*
X655515Y578784D01*
X654542Y579006D01*
X653562Y579202D01*
X652578Y579371D01*
X651590Y579513D01*
X650598Y579628D01*
X649603Y579716D01*
X648607Y579777D01*
X647609Y579811D01*
X646610Y579818D01*
X645612Y579798D01*
X644614Y579750D01*
X643619Y579675D01*
X642625Y579574D01*
X641635Y579445D01*
X640649Y579289D01*
X639667Y579107D01*
X638691Y578898D01*
X637720Y578663D01*
X636757Y578401D01*
X635800Y578113D01*
X634852Y577800D01*
X633913Y577460D01*
X632984Y577095D01*
X632064Y576706D01*
X631156Y576291D01*
X630259Y575851D01*
X629375Y575388D01*
X628504Y574900D01*
X569644Y581189D02*
X569530Y582196D01*
X569195Y583153D01*
X568656Y584012D01*
X567939Y584729D01*
X567081Y585268D01*
X566124Y585603D01*
X565116Y585716D01*
X564109Y585603D01*
X563152Y585268D01*
X562293Y584729D01*
X561576Y584012D01*
X561037Y583153D01*
X560702Y582196D01*
X560589Y581189D01*
X560702Y580181D01*
X561037Y579224D01*
X561576Y578366D01*
X562293Y577649D01*
X563152Y577110D01*
X564109Y576775D01*
X565116Y576661D01*
X566124Y576775D01*
X567081Y577110D01*
X567939Y577649D01*
X568656Y578366D01*
X569195Y579224D01*
X569530Y580181D01*
X569644Y581189D01*
Y402399D02*
X569530Y403406D01*
X569195Y404363D01*
X568656Y405222D01*
X567939Y405939D01*
X567081Y406478D01*
X566124Y406813D01*
X565116Y406927D01*
X564109Y406813D01*
X563152Y406478D01*
X562293Y405939D01*
X561576Y405222D01*
X561037Y404363D01*
X560702Y403406D01*
X560589Y402399D01*
X560702Y401392D01*
X561037Y400435D01*
X561576Y399576D01*
X562293Y398859D01*
X563152Y398320D01*
X564109Y397985D01*
X565116Y397871D01*
X566124Y397985D01*
X567081Y398320D01*
X567939Y398859D01*
X568656Y399576D01*
X569195Y400435D01*
X569530Y401392D01*
X569644Y402399D01*
X609917Y472444D02*
X630368D01*
X609908Y402548D02*
X630368D01*
X609917Y511312D02*
X628504D01*
X609923Y574900D02*
X628504D01*
X609923D02*
Y589063D01*
X609917Y472444D02*
Y511312D01*
X609908Y394525D02*
Y402548D01*
X520025Y589063D02*
X609908D01*
X520025Y394525D02*
Y589063D01*
Y394525D02*
X609908D01*
X646538Y420215D02*
X646384Y421188D01*
X645936Y422066D01*
X645239Y422763D01*
X644361Y423210D01*
X643388Y423364D01*
X642415Y423210D01*
X641537Y422763D01*
X640840Y422066D01*
X640393Y421188D01*
X640239Y420215D01*
X640393Y419242D01*
X640840Y418364D01*
X641537Y417667D01*
X642415Y417219D01*
X643388Y417065D01*
X644361Y417219D01*
X645239Y417667D01*
X645936Y418364D01*
X646384Y419242D01*
X646538Y420215D01*
X653694Y437492D02*
X653540Y438465D01*
X653093Y439343D01*
X652396Y440040D01*
X651518Y440488D01*
X650545Y440642D01*
X649571Y440488D01*
X648693Y440040D01*
X647997Y439343D01*
X647549Y438465D01*
X647395Y437492D01*
X647549Y436519D01*
X647997Y435641D01*
X648693Y434944D01*
X649571Y434497D01*
X650545Y434342D01*
X651518Y434497D01*
X652396Y434944D01*
X653093Y435641D01*
X653540Y436519D01*
X653694Y437492D01*
X670971Y430336D02*
X670817Y431309D01*
X670370Y432187D01*
X669673Y432884D01*
X668795Y433331D01*
X667822Y433485D01*
X666849Y433331D01*
X665971Y432884D01*
X665274Y432187D01*
X664826Y431309D01*
X664672Y430336D01*
X664826Y429362D01*
X665274Y428484D01*
X665971Y427787D01*
X666849Y427340D01*
X667822Y427186D01*
X668795Y427340D01*
X669673Y427787D01*
X670370Y428484D01*
X670817Y429362D01*
X670971Y430336D01*
X675061Y416126D02*
X674906Y417099D01*
X674459Y417977D01*
X673762Y418674D01*
X672884Y419121D01*
X671911Y419275D01*
X670938Y419121D01*
X670060Y418674D01*
X669363Y417977D01*
X668915Y417099D01*
X668761Y416126D01*
X668915Y415153D01*
X669363Y414275D01*
X670060Y413578D01*
X670938Y413130D01*
X671911Y412976D01*
X672884Y413130D01*
X673762Y413578D01*
X674459Y414275D01*
X674906Y415153D01*
X675061Y416126D01*
X632328D02*
X632174Y417099D01*
X631726Y417977D01*
X631030Y418674D01*
X630152Y419121D01*
X629178Y419275D01*
X628205Y419121D01*
X627327Y418674D01*
X626630Y417977D01*
X626183Y417099D01*
X626029Y416126D01*
X626183Y415153D01*
X626630Y414275D01*
X627327Y413578D01*
X628205Y413130D01*
X629178Y412976D01*
X630152Y413130D01*
X631030Y413578D01*
X631726Y414275D01*
X632174Y415153D01*
X632328Y416126D01*
X625778Y425929D02*
X625624Y426902D01*
X625176Y427780D01*
X624479Y428477D01*
X623601Y428924D01*
X622628Y429078D01*
X621655Y428924D01*
X620777Y428477D01*
X620080Y427780D01*
X619633Y426902D01*
X619479Y425929D01*
X619633Y424956D01*
X620080Y424078D01*
X620777Y423381D01*
X621655Y422933D01*
X622628Y422779D01*
X623601Y422933D01*
X624479Y423381D01*
X625176Y424078D01*
X625624Y424956D01*
X625778Y425929D01*
X665258Y409576D02*
X665103Y410549D01*
X664656Y411427D01*
X663959Y412124D01*
X663081Y412571D01*
X662108Y412725D01*
X661135Y412571D01*
X660257Y412124D01*
X659560Y411427D01*
X659113Y410549D01*
X658958Y409576D01*
X659113Y408602D01*
X659560Y407724D01*
X660257Y407028D01*
X661135Y406580D01*
X662108Y406426D01*
X663081Y406580D01*
X663959Y407028D01*
X664656Y407724D01*
X665103Y408602D01*
X665258Y409576D01*
X666883Y437492D02*
X666729Y438465D01*
X666282Y439343D01*
X665585Y440040D01*
X664707Y440488D01*
X663734Y440642D01*
X662760Y440488D01*
X661882Y440040D01*
X661186Y439343D01*
X660738Y438465D01*
X660584Y437492D01*
X660738Y436519D01*
X661186Y435641D01*
X661882Y434944D01*
X662760Y434497D01*
X663734Y434342D01*
X664707Y434497D01*
X665585Y434944D01*
X666282Y435641D01*
X666729Y436519D01*
X666883Y437492D01*
X653694Y424303D02*
X653540Y425276D01*
X653093Y426154D01*
X652396Y426851D01*
X651518Y427299D01*
X650545Y427453D01*
X649571Y427299D01*
X648693Y426851D01*
X647997Y426154D01*
X647549Y425276D01*
X647395Y424303D01*
X647549Y423330D01*
X647997Y422452D01*
X648693Y421755D01*
X649571Y421308D01*
X650545Y421153D01*
X651518Y421308D01*
X652396Y421755D01*
X653093Y422452D01*
X653540Y423330D01*
X653694Y424303D01*
X644368Y428166D02*
X644214Y429139D01*
X643767Y430017D01*
X643070Y430714D01*
X642192Y431162D01*
X641219Y431316D01*
X640245Y431162D01*
X639367Y430714D01*
X638670Y430017D01*
X638223Y429139D01*
X638069Y428166D01*
X638223Y427193D01*
X638670Y426315D01*
X639367Y425618D01*
X640245Y425171D01*
X641219Y425016D01*
X642192Y425171D01*
X643070Y425618D01*
X643767Y426315D01*
X644214Y427193D01*
X644368Y428166D01*
X640505Y437492D02*
X640351Y438465D01*
X639904Y439343D01*
X639207Y440040D01*
X638329Y440488D01*
X637356Y440642D01*
X636382Y440488D01*
X635504Y440040D01*
X634807Y439343D01*
X634360Y438465D01*
X634206Y437492D01*
X634360Y436519D01*
X634807Y435641D01*
X635504Y434944D01*
X636382Y434497D01*
X637356Y434342D01*
X638329Y434497D01*
X639207Y434944D01*
X639904Y435641D01*
X640351Y436519D01*
X640505Y437492D01*
X663020Y428166D02*
X662866Y429139D01*
X662419Y430017D01*
X661722Y430714D01*
X660844Y431162D01*
X659871Y431316D01*
X658897Y431162D01*
X658019Y430714D01*
X657323Y430017D01*
X656875Y429139D01*
X656721Y428166D01*
X656875Y427193D01*
X657323Y426315D01*
X658019Y425618D01*
X658897Y425171D01*
X659871Y425016D01*
X660844Y425171D01*
X661722Y425618D01*
X662419Y426315D01*
X662866Y427193D01*
X663020Y428166D01*
X681611Y425929D02*
X681457Y426902D01*
X681009Y427780D01*
X680312Y428477D01*
X679434Y428924D01*
X678461Y429078D01*
X677488Y428924D01*
X676610Y428477D01*
X675913Y427780D01*
X675465Y426902D01*
X675311Y425929D01*
X675465Y424956D01*
X675913Y424078D01*
X676610Y423381D01*
X677488Y422933D01*
X678461Y422779D01*
X679434Y422933D01*
X680312Y423381D01*
X681009Y424078D01*
X681457Y424956D01*
X681611Y425929D01*
X642131Y409576D02*
X641977Y410549D01*
X641529Y411427D01*
X640833Y412124D01*
X639955Y412571D01*
X638981Y412725D01*
X638008Y412571D01*
X637130Y412124D01*
X636433Y411427D01*
X635986Y410549D01*
X635832Y409576D01*
X635986Y408602D01*
X636433Y407724D01*
X637130Y407028D01*
X638008Y406580D01*
X638981Y406426D01*
X639955Y406580D01*
X640833Y407028D01*
X641529Y407724D01*
X641977Y408602D01*
X642131Y409576D01*
X623478Y437492D02*
X623323Y438465D01*
X622876Y439343D01*
X622179Y440040D01*
X621301Y440488D01*
X620328Y440642D01*
X619355Y440488D01*
X618477Y440040D01*
X617780Y439343D01*
X617333Y438465D01*
X617178Y437492D01*
X617333Y436519D01*
X617780Y435641D01*
X618477Y434944D01*
X619355Y434497D01*
X620328Y434342D01*
X621301Y434497D01*
X622179Y434944D01*
X622876Y435641D01*
X623323Y436519D01*
X623478Y437492D01*
X653694Y407276D02*
X653540Y408249D01*
X653093Y409127D01*
X652396Y409824D01*
X651518Y410271D01*
X650545Y410425D01*
X649571Y410271D01*
X648693Y409824D01*
X647997Y409127D01*
X647549Y408249D01*
X647395Y407276D01*
X647549Y406302D01*
X647997Y405424D01*
X648693Y404728D01*
X649571Y404280D01*
X650545Y404126D01*
X651518Y404280D01*
X652396Y404728D01*
X653093Y405424D01*
X653540Y406302D01*
X653694Y407276D01*
X683911Y437492D02*
X683757Y438465D01*
X683309Y439343D01*
X682612Y440040D01*
X681734Y440488D01*
X680761Y440642D01*
X679788Y440488D01*
X678910Y440040D01*
X678213Y439343D01*
X677766Y438465D01*
X677611Y437492D01*
X677766Y436519D01*
X678213Y435641D01*
X678910Y434944D01*
X679788Y434497D01*
X680761Y434342D01*
X681734Y434497D01*
X682612Y434944D01*
X683309Y435641D01*
X683757Y436519D01*
X683911Y437492D01*
X660851Y420215D02*
X660697Y421188D01*
X660249Y422066D01*
X659552Y422763D01*
X658674Y423210D01*
X657701Y423364D01*
X656728Y423210D01*
X655850Y422763D01*
X655153Y422066D01*
X654706Y421188D01*
X654551Y420215D01*
X654706Y419242D01*
X655153Y418364D01*
X655850Y417667D01*
X656728Y417219D01*
X657701Y417065D01*
X658674Y417219D01*
X659552Y417667D01*
X660249Y418364D01*
X660697Y419242D01*
X660851Y420215D01*
X636417Y430336D02*
X636263Y431309D01*
X635815Y432187D01*
X635119Y432884D01*
X634241Y433331D01*
X633267Y433485D01*
X632294Y433331D01*
X631416Y432884D01*
X630719Y432187D01*
X630272Y431309D01*
X630118Y430336D01*
X630272Y429362D01*
X630719Y428484D01*
X631416Y427787D01*
X632294Y427340D01*
X633267Y427186D01*
X634241Y427340D01*
X635119Y427787D01*
X635815Y428484D01*
X636263Y429362D01*
X636417Y430336D01*
X655218Y397409D02*
X654797Y398344D01*
X654191Y399171D01*
X653428Y399854D01*
X652539Y400365D01*
X651564Y400681D01*
X650545Y400787D01*
X649525Y400681D01*
X648550Y400365D01*
X647661Y399854D01*
X646898Y399171D01*
X646292Y398344D01*
X645871Y397409D01*
Y477575D02*
X646292Y476641D01*
X646898Y475813D01*
X647661Y475130D01*
X648550Y474619D01*
X649525Y474304D01*
X650545Y474197D01*
X651564Y474304D01*
X652539Y474619D01*
X653428Y475130D01*
X654191Y475813D01*
X654797Y476641D01*
X655218Y477575D01*
D156*
X650564Y437492D02*
D03*
M02*
