G04*
G04 #@! TF.GenerationSoftware,Altium Limited,Altium Designer,20.0.13 (296)*
G04*
G04 Layer_Physical_Order=2*
G04 Layer_Color=36540*
%FSLAX25Y25*%
%MOIN*%
G70*
G01*
G75*
%ADD43O,0.15000X0.20000*%
%ADD51C,0.07000*%
%ADD54C,0.05512*%
%ADD55R,0.05300X0.04800*%
%ADD57C,0.06496*%
%ADD58R,0.06555X0.06555*%
%ADD60C,0.07874*%
%ADD62C,0.10000*%
%ADD64C,0.01772*%
%ADD65C,0.09000*%
G36*
X609120Y574900D02*
X609181Y574593D01*
X609355Y574333D01*
X609615Y574158D01*
X609908Y574100D01*
Y512113D01*
X609610Y512054D01*
X609349Y511880D01*
X609175Y511619D01*
X609114Y511312D01*
Y472444D01*
X609175Y472137D01*
X609349Y471876D01*
X609610Y471702D01*
X609908Y471643D01*
Y403351D01*
X609600Y403290D01*
X609443Y403185D01*
X609023Y403196D01*
X608825Y403246D01*
X608786Y403312D01*
X608855Y403540D01*
X609048Y405500D01*
X608855Y407460D01*
X608284Y409345D01*
X607355Y411083D01*
X606105Y412605D01*
X604583Y413855D01*
X602845Y414783D01*
X600960Y415355D01*
X599000Y415548D01*
X597040Y415355D01*
X595155Y414783D01*
X593417Y413855D01*
X591895Y412605D01*
X590645Y411083D01*
X589716Y409345D01*
X589145Y407460D01*
X588952Y405500D01*
X589145Y403540D01*
X589716Y401655D01*
X590645Y399917D01*
X591895Y398395D01*
X593417Y397145D01*
X595155Y396217D01*
X596436Y395828D01*
X596362Y395328D01*
X533638D01*
X533564Y395828D01*
X534845Y396217D01*
X536583Y397145D01*
X538105Y398395D01*
X539355Y399917D01*
X540283Y401655D01*
X540855Y403540D01*
X541048Y405500D01*
X540855Y407460D01*
X540283Y409345D01*
X539355Y411083D01*
X538105Y412605D01*
X536583Y413855D01*
X534845Y414783D01*
X532960Y415355D01*
X531000Y415548D01*
X529040Y415355D01*
X527155Y414783D01*
X525417Y413855D01*
X523895Y412605D01*
X522645Y411083D01*
X521716Y409345D01*
X521328Y408064D01*
X520828Y408138D01*
Y588260D01*
X533526D01*
X533625Y587760D01*
X532983Y587494D01*
X532147Y586853D01*
X531506Y586017D01*
X531103Y585044D01*
X530966Y584000D01*
X531103Y582956D01*
X531506Y581983D01*
X532147Y581147D01*
X532983Y580506D01*
X533956Y580103D01*
X535000Y579965D01*
X536044Y580103D01*
X537017Y580506D01*
X537853Y581147D01*
X538494Y581983D01*
X538897Y582956D01*
X539035Y584000D01*
X538897Y585044D01*
X538494Y586017D01*
X537853Y586853D01*
X537017Y587494D01*
X536375Y587760D01*
X536475Y588260D01*
X545336D01*
X545436Y587760D01*
X544794Y587494D01*
X543958Y586853D01*
X543317Y586017D01*
X542914Y585044D01*
X542776Y584000D01*
X542914Y582956D01*
X543317Y581983D01*
X543958Y581147D01*
X544794Y580506D01*
X545767Y580103D01*
X546811Y579965D01*
X547855Y580103D01*
X548828Y580506D01*
X549664Y581147D01*
X550305Y581983D01*
X550708Y582956D01*
X550845Y584000D01*
X550708Y585044D01*
X550305Y586017D01*
X549664Y586853D01*
X548828Y587494D01*
X548186Y587760D01*
X548285Y588260D01*
X580627Y588260D01*
X580796Y587760D01*
X580069Y587202D01*
X579278Y586171D01*
X578781Y584970D01*
X578677Y584181D01*
X583591D01*
X588504D01*
X588401Y584970D01*
X587903Y586171D01*
X587112Y587202D01*
X586385Y587760D01*
X586554Y588260D01*
X595587D01*
X595757Y587760D01*
X595030Y587202D01*
X594239Y586171D01*
X593741Y584970D01*
X593637Y584181D01*
X598551D01*
X603465D01*
X603361Y584970D01*
X602864Y586171D01*
X602072Y587202D01*
X601345Y587760D01*
X601515Y588260D01*
X609120D01*
Y574900D01*
D02*
G37*
G36*
X652135Y578671D02*
X655595Y577982D01*
X658971Y576958D01*
X662231Y575608D01*
X665343Y573945D01*
X668276Y571984D01*
X671004Y569746D01*
X673498Y567251D01*
X675737Y564524D01*
X677697Y561590D01*
X679360Y558479D01*
X680711Y555219D01*
X681735Y551842D01*
X682423Y548382D01*
X682485Y547752D01*
X682311Y547554D01*
X682091Y547521D01*
X681950Y547795D01*
X681927Y547910D01*
X681621Y548368D01*
X681162Y548674D01*
X680621Y548782D01*
X680081Y548674D01*
X679622Y548368D01*
X679316Y547910D01*
X679209Y547369D01*
X679316Y546828D01*
X679622Y546370D01*
X680081Y546064D01*
X680621Y545956D01*
X681162Y546064D01*
X681621Y546370D01*
X681927Y546828D01*
X681945Y546918D01*
X682494Y547118D01*
X682552Y547072D01*
X682769Y544871D01*
Y543107D01*
X682769Y541342D01*
X682423Y537831D01*
X681735Y534371D01*
X680711Y530994D01*
X679360Y527735D01*
X677697Y524623D01*
X675737Y521689D01*
X673498Y518962D01*
X671004Y516467D01*
X668276Y514229D01*
X665343Y512269D01*
X662231Y510605D01*
X658971Y509255D01*
X655595Y508231D01*
X652135Y507543D01*
X648623Y507197D01*
X647654D01*
X647519Y507697D01*
X647858Y507924D01*
X648165Y508382D01*
X648272Y508923D01*
X648165Y509463D01*
X647858Y509922D01*
X647400Y510228D01*
X646859Y510335D01*
X646318Y510228D01*
X645860Y509922D01*
X645554Y509463D01*
X645446Y508923D01*
X645554Y508382D01*
X645860Y507924D01*
X646199Y507697D01*
X646064Y507197D01*
X645095D01*
X641584Y507543D01*
X638123Y508231D01*
X634747Y509255D01*
X631487Y510605D01*
X628375Y512269D01*
X625442Y514229D01*
X622714Y516467D01*
X620220Y518962D01*
X617981Y521689D01*
X616021Y524623D01*
X614358Y527735D01*
X613008Y530994D01*
X611983Y534371D01*
X611295Y537831D01*
X610949Y541342D01*
Y544871D01*
X611295Y548382D01*
X611983Y551842D01*
X613008Y555219D01*
X614358Y558479D01*
X616021Y561590D01*
X617981Y564524D01*
X620220Y567251D01*
X622714Y569746D01*
X625442Y571984D01*
X628375Y573945D01*
X631487Y575608D01*
X634747Y576958D01*
X638123Y577982D01*
X641584Y578671D01*
X645095Y579016D01*
X648623D01*
X652135Y578671D01*
D02*
G37*
G36*
X656912Y476569D02*
X660434Y475830D01*
X663874Y474774D01*
X667204Y473409D01*
X670396Y471748D01*
X673424Y469804D01*
X676264Y467594D01*
X678890Y465134D01*
X681283Y462446D01*
X683422Y459552D01*
X685289Y456476D01*
X686869Y453243D01*
X688149Y449880D01*
X689119Y446414D01*
X689769Y442875D01*
X690096Y439291D01*
Y435693D01*
X689769Y432109D01*
X689119Y428570D01*
X688149Y425104D01*
X686869Y421741D01*
X685289Y418508D01*
X683422Y415432D01*
X681283Y412538D01*
X678890Y409850D01*
X676264Y407391D01*
X673424Y405180D01*
X670396Y403236D01*
X667204Y401575D01*
X663874Y400211D01*
X660433Y399154D01*
X656912Y398415D01*
X655730Y398277D01*
X655725Y398292D01*
X655209Y399177D01*
X655154Y399240D01*
X655110Y399312D01*
X654422Y400072D01*
X654355Y400122D01*
X654298Y400183D01*
X653467Y400783D01*
X653391Y400818D01*
X653322Y400867D01*
X652385Y401282D01*
X652303Y401301D01*
X652226Y401334D01*
X651223Y401546D01*
X651139Y401547D01*
X651057Y401563D01*
X650032D01*
X649950Y401547D01*
X649866Y401546D01*
X648863Y401334D01*
X648786Y401301D01*
X648704Y401282D01*
X647767Y400867D01*
X647698Y400818D01*
X647622Y400783D01*
X646792Y400183D01*
X646734Y400122D01*
X646667Y400072D01*
X645979Y399312D01*
X645936Y399240D01*
X645880Y399177D01*
X645364Y398292D01*
X645359Y398277D01*
X644177Y398415D01*
X640656Y399154D01*
X637216Y400211D01*
X633886Y401575D01*
X630693Y403236D01*
X627665Y405180D01*
X624826Y407391D01*
X622199Y409850D01*
X619806Y412538D01*
X617667Y415432D01*
X615800Y418508D01*
X614220Y421741D01*
X612940Y425104D01*
X611971Y428570D01*
X611320Y432109D01*
X610993Y435693D01*
Y439291D01*
X611320Y442875D01*
X611971Y446414D01*
X612940Y449880D01*
X614220Y453243D01*
X615800Y456476D01*
X617667Y459552D01*
X619806Y462446D01*
X622199Y465134D01*
X624826Y467594D01*
X627665Y469804D01*
X630693Y471748D01*
X633886Y473409D01*
X637216Y474774D01*
X640656Y475830D01*
X644177Y476569D01*
X645359Y476707D01*
X645364Y476693D01*
X645880Y475807D01*
X645936Y475744D01*
X645979Y475672D01*
X646667Y474913D01*
X646734Y474863D01*
X646792Y474801D01*
X647622Y474201D01*
X647698Y474166D01*
X647767Y474117D01*
X648704Y473702D01*
X648786Y473684D01*
X648863Y473651D01*
X649866Y473438D01*
X649950Y473437D01*
X650032Y473421D01*
X651057D01*
X651139Y473437D01*
X651223Y473438D01*
X652226Y473651D01*
X652303Y473684D01*
X652385Y473702D01*
X653322Y474117D01*
X653391Y474166D01*
X653467Y474201D01*
X654298Y474801D01*
X654355Y474863D01*
X654422Y474913D01*
X655110Y475672D01*
X655154Y475744D01*
X655209Y475807D01*
X655725Y476693D01*
X655730Y476707D01*
X656912Y476569D01*
D02*
G37*
%LPC*%
G36*
X603465Y583181D02*
X599051D01*
Y578767D01*
X599840Y578871D01*
X601041Y579369D01*
X602072Y580160D01*
X602864Y581191D01*
X603361Y582392D01*
X603465Y583181D01*
D02*
G37*
G36*
X588504Y583181D02*
X584091D01*
Y578767D01*
X584879Y578871D01*
X586080Y579369D01*
X587112Y580160D01*
X587903Y581191D01*
X588401Y582392D01*
X588504Y583181D01*
D02*
G37*
G36*
X583091D02*
X578677D01*
X578781Y582392D01*
X579278Y581191D01*
X580069Y580160D01*
X581101Y579369D01*
X582302Y578871D01*
X583091Y578767D01*
Y583181D01*
D02*
G37*
G36*
X598051Y583181D02*
X593637D01*
X593741Y582392D01*
X594239Y581191D01*
X595030Y580160D01*
X596061Y579369D01*
X597262Y578871D01*
X598051Y578767D01*
Y583181D01*
D02*
G37*
G36*
X543000Y579923D02*
X542264Y579776D01*
X541640Y579360D01*
X541224Y578736D01*
X541077Y578000D01*
X541224Y577264D01*
X541640Y576640D01*
X542264Y576224D01*
X543000Y576077D01*
X543736Y576224D01*
X544360Y576640D01*
X544776Y577264D01*
X544923Y578000D01*
X544776Y578736D01*
X544360Y579360D01*
X543736Y579776D01*
X543000Y579923D01*
D02*
G37*
G36*
X565562Y586736D02*
X564670D01*
X564572Y586716D01*
X564471D01*
X563597Y586542D01*
X563504Y586504D01*
X563405Y586484D01*
X562581Y586143D01*
X562498Y586087D01*
X562405Y586049D01*
X561663Y585553D01*
X561592Y585482D01*
X561509Y585427D01*
X560878Y584796D01*
X560823Y584712D01*
X560752Y584641D01*
X560256Y583900D01*
X560218Y583807D01*
X560162Y583723D01*
X559821Y582900D01*
X559801Y582801D01*
X559763Y582708D01*
X559589Y581834D01*
Y581733D01*
X559569Y581635D01*
Y580743D01*
X559589Y580644D01*
Y580544D01*
X559763Y579669D01*
X559801Y579576D01*
X559821Y579478D01*
X560162Y578654D01*
X560218Y578571D01*
X560256Y578478D01*
X560752Y577736D01*
X560823Y577665D01*
X560878Y577582D01*
X561509Y576951D01*
X561593Y576895D01*
X561663Y576824D01*
X562405Y576329D01*
X562498Y576290D01*
X562581Y576234D01*
X563405Y575893D01*
X563504Y575874D01*
X563597Y575835D01*
X564471Y575661D01*
X564572D01*
X564670Y575642D01*
X565562D01*
X565661Y575661D01*
X565761D01*
X566636Y575835D01*
X566728Y575874D01*
X566827Y575893D01*
X567651Y576234D01*
X567734Y576290D01*
X567827Y576329D01*
X568569Y576824D01*
X568640Y576895D01*
X568723Y576951D01*
X569354Y577582D01*
X569410Y577665D01*
X569481Y577736D01*
X569976Y578478D01*
X570015Y578571D01*
X570070Y578654D01*
X570412Y579478D01*
X570431Y579576D01*
X570470Y579669D01*
X570644Y580544D01*
Y580644D01*
X570663Y580743D01*
Y581635D01*
X570644Y581733D01*
Y581834D01*
X570470Y582708D01*
X570431Y582801D01*
X570412Y582900D01*
X570070Y583723D01*
X570015Y583807D01*
X569976Y583900D01*
X569481Y584641D01*
X569410Y584712D01*
X569354Y584796D01*
X568723Y585427D01*
X568640Y585482D01*
X568569Y585553D01*
X567827Y586049D01*
X567734Y586087D01*
X567651Y586143D01*
X566827Y586484D01*
X566728Y586504D01*
X566636Y586542D01*
X565761Y586716D01*
X565661D01*
X565562Y586736D01*
D02*
G37*
G36*
X527500Y577219D02*
Y573500D01*
X531219D01*
X531139Y574109D01*
X530711Y575142D01*
X530030Y576030D01*
X529142Y576711D01*
X528109Y577139D01*
X527500Y577219D01*
D02*
G37*
G36*
X526500D02*
X525891Y577139D01*
X524858Y576711D01*
X523970Y576030D01*
X523289Y575142D01*
X522861Y574109D01*
X522781Y573500D01*
X526500D01*
Y577219D01*
D02*
G37*
G36*
X596158Y574580D02*
X595422Y574434D01*
X594798Y574017D01*
X594381Y573393D01*
X594235Y572657D01*
X594381Y571922D01*
X594798Y571298D01*
X595422Y570881D01*
X596158Y570735D01*
X596893Y570881D01*
X597517Y571298D01*
X597934Y571922D01*
X598080Y572657D01*
X597934Y573393D01*
X597517Y574017D01*
X596893Y574434D01*
X596158Y574580D01*
D02*
G37*
G36*
X531219Y572500D02*
X527500D01*
Y568781D01*
X528109Y568861D01*
X529142Y569289D01*
X530030Y569970D01*
X530711Y570858D01*
X531139Y571891D01*
X531219Y572500D01*
D02*
G37*
G36*
X526500D02*
X522781D01*
X522861Y571891D01*
X523289Y570858D01*
X523970Y569970D01*
X524858Y569289D01*
X525891Y568861D01*
X526500Y568781D01*
Y572500D01*
D02*
G37*
G36*
X586031Y570923D02*
X585296Y570776D01*
X584672Y570360D01*
X584255Y569736D01*
X584109Y569000D01*
X584255Y568264D01*
X584672Y567640D01*
X585296Y567224D01*
X586031Y567077D01*
X586767Y567224D01*
X587391Y567640D01*
X587808Y568264D01*
X587954Y569000D01*
X587808Y569736D01*
X587391Y570360D01*
X586767Y570776D01*
X586031Y570923D01*
D02*
G37*
G36*
X554500Y569923D02*
X553764Y569776D01*
X553140Y569360D01*
X552724Y568736D01*
X552577Y568000D01*
X552724Y567264D01*
X553140Y566640D01*
X553764Y566224D01*
X554500Y566077D01*
X555236Y566224D01*
X555860Y566640D01*
X556276Y567264D01*
X556423Y568000D01*
X556276Y568736D01*
X555860Y569360D01*
X555236Y569776D01*
X554500Y569923D01*
D02*
G37*
G36*
X585500Y565923D02*
X584764Y565776D01*
X584140Y565360D01*
X583724Y564736D01*
X583577Y564000D01*
X583724Y563264D01*
X584140Y562640D01*
X584764Y562224D01*
X585500Y562077D01*
X586236Y562224D01*
X586860Y562640D01*
X587276Y563264D01*
X587423Y564000D01*
X587276Y564736D01*
X586860Y565360D01*
X586236Y565776D01*
X585500Y565923D01*
D02*
G37*
G36*
X566728Y565423D02*
X565992Y565276D01*
X565369Y564860D01*
X564952Y564236D01*
X564806Y563500D01*
X564952Y562764D01*
X565369Y562140D01*
X565992Y561724D01*
X566728Y561577D01*
X567464Y561724D01*
X568088Y562140D01*
X568505Y562764D01*
X568651Y563500D01*
X568505Y564236D01*
X568088Y564860D01*
X567464Y565276D01*
X566728Y565423D01*
D02*
G37*
G36*
X541500Y567923D02*
X540764Y567776D01*
X540140Y567360D01*
X539724Y566736D01*
X539577Y566000D01*
X539724Y565264D01*
X540090Y564716D01*
X540133Y564607D01*
X540025Y564116D01*
X539640Y563860D01*
X539224Y563236D01*
X539077Y562500D01*
X539224Y561764D01*
X539640Y561140D01*
X540264Y560724D01*
X541000Y560577D01*
X541736Y560724D01*
X542360Y561140D01*
X542776Y561764D01*
X542923Y562500D01*
X542776Y563236D01*
X542410Y563784D01*
X542367Y563893D01*
X542475Y564384D01*
X542860Y564640D01*
X543276Y565264D01*
X543423Y566000D01*
X543276Y566736D01*
X542860Y567360D01*
X542236Y567776D01*
X541500Y567923D01*
D02*
G37*
G36*
X527000Y567285D02*
X525891Y567139D01*
X524858Y566711D01*
X523970Y566030D01*
X523289Y565142D01*
X522861Y564109D01*
X522715Y563000D01*
X522861Y561891D01*
X523289Y560858D01*
X523970Y559970D01*
X524858Y559289D01*
X525891Y558861D01*
X527000Y558715D01*
X528109Y558861D01*
X529142Y559289D01*
X530030Y559970D01*
X530711Y560858D01*
X531139Y561891D01*
X531285Y563000D01*
X531139Y564109D01*
X530711Y565142D01*
X530030Y566030D01*
X529142Y566711D01*
X528109Y567139D01*
X527000Y567285D01*
D02*
G37*
G36*
X547000Y562423D02*
X546264Y562276D01*
X545640Y561860D01*
X545224Y561236D01*
X545077Y560500D01*
X545224Y559764D01*
X545640Y559140D01*
X546264Y558724D01*
X547000Y558577D01*
X547736Y558724D01*
X548360Y559140D01*
X548776Y559764D01*
X548923Y560500D01*
X548776Y561236D01*
X548360Y561860D01*
X547736Y562276D01*
X547000Y562423D01*
D02*
G37*
G36*
X568469Y557454D02*
X567733Y557308D01*
X567109Y556891D01*
X566692Y556267D01*
X566546Y555532D01*
X566692Y554796D01*
X567109Y554172D01*
X567733Y553755D01*
X568469Y553609D01*
X569204Y553755D01*
X569828Y554172D01*
X570245Y554796D01*
X570391Y555532D01*
X570245Y556267D01*
X569828Y556891D01*
X569204Y557308D01*
X568469Y557454D01*
D02*
G37*
G36*
X550500Y557423D02*
X549764Y557276D01*
X549140Y556860D01*
X548724Y556236D01*
X548577Y555500D01*
X548724Y554764D01*
X549140Y554140D01*
X549764Y553724D01*
X550500Y553577D01*
X551236Y553724D01*
X551860Y554140D01*
X552276Y554764D01*
X552423Y555500D01*
X552276Y556236D01*
X551860Y556860D01*
X551236Y557276D01*
X550500Y557423D01*
D02*
G37*
G36*
X562500Y556923D02*
X561764Y556776D01*
X561140Y556360D01*
X560724Y555736D01*
X560577Y555000D01*
X560724Y554264D01*
X561140Y553640D01*
X561764Y553224D01*
X562500Y553077D01*
X563236Y553224D01*
X563860Y553640D01*
X564276Y554264D01*
X564423Y555000D01*
X564276Y555736D01*
X563860Y556360D01*
X563236Y556776D01*
X562500Y556923D01*
D02*
G37*
G36*
X606000Y556423D02*
X605264Y556276D01*
X604640Y555860D01*
X604224Y555236D01*
X604077Y554500D01*
X604224Y553764D01*
X604640Y553140D01*
X605264Y552724D01*
X606000Y552577D01*
X606736Y552724D01*
X607360Y553140D01*
X607776Y553764D01*
X607923Y554500D01*
X607776Y555236D01*
X607360Y555860D01*
X606736Y556276D01*
X606000Y556423D01*
D02*
G37*
G36*
X584091Y554579D02*
Y550165D01*
X588504D01*
X588401Y550954D01*
X587903Y552155D01*
X587112Y553187D01*
X586080Y553978D01*
X584879Y554475D01*
X584091Y554579D01*
D02*
G37*
G36*
X583091D02*
X582302Y554475D01*
X581101Y553978D01*
X580069Y553187D01*
X579278Y552155D01*
X578781Y550954D01*
X578677Y550165D01*
X583091D01*
Y554579D01*
D02*
G37*
G36*
X599051D02*
Y550165D01*
X603465D01*
X603361Y550954D01*
X602864Y552155D01*
X602072Y553187D01*
X601041Y553978D01*
X599840Y554475D01*
X599051Y554579D01*
D02*
G37*
G36*
X598051D02*
X597262Y554475D01*
X596061Y553978D01*
X595030Y553187D01*
X594239Y552155D01*
X593741Y550954D01*
X593637Y550165D01*
X598051D01*
Y554579D01*
D02*
G37*
G36*
X575500Y553257D02*
X574764Y553111D01*
X574140Y552694D01*
X573724Y552071D01*
X573577Y551335D01*
X573724Y550599D01*
X574140Y549975D01*
X574764Y549558D01*
X575500Y549412D01*
X576236Y549558D01*
X576860Y549975D01*
X577276Y550599D01*
X577423Y551335D01*
X577276Y552071D01*
X576860Y552694D01*
X576236Y553111D01*
X575500Y553257D01*
D02*
G37*
G36*
X527000Y557285D02*
X525891Y557139D01*
X524858Y556711D01*
X523970Y556030D01*
X523289Y555142D01*
X522861Y554109D01*
X522715Y553000D01*
X522861Y551891D01*
X523289Y550858D01*
X523970Y549970D01*
X524858Y549289D01*
X525891Y548861D01*
X527000Y548715D01*
X528109Y548861D01*
X529142Y549289D01*
X530030Y549970D01*
X530711Y550858D01*
X531139Y551891D01*
X531285Y553000D01*
X531139Y554109D01*
X530711Y555142D01*
X530030Y556030D01*
X529142Y556711D01*
X528109Y557139D01*
X527000Y557285D01*
D02*
G37*
G36*
X603465Y549165D02*
X599051D01*
Y544752D01*
X599840Y544855D01*
X601041Y545353D01*
X602072Y546144D01*
X602864Y547176D01*
X603361Y548377D01*
X603465Y549165D01*
D02*
G37*
G36*
X588504Y549165D02*
X584091D01*
Y544752D01*
X584879Y544855D01*
X586080Y545353D01*
X587112Y546144D01*
X587903Y547176D01*
X588401Y548377D01*
X588504Y549165D01*
D02*
G37*
G36*
X583091D02*
X578677D01*
X578781Y548377D01*
X579278Y547176D01*
X580069Y546144D01*
X581101Y545353D01*
X582302Y544855D01*
X583091Y544752D01*
Y549165D01*
D02*
G37*
G36*
X598051Y549165D02*
X593637D01*
X593741Y548377D01*
X594239Y547176D01*
X595030Y546144D01*
X596061Y545353D01*
X597262Y544855D01*
X598051Y544752D01*
Y549165D01*
D02*
G37*
G36*
X542500Y541423D02*
X541764Y541276D01*
X541140Y540860D01*
X540823Y540384D01*
X540236Y540776D01*
X539500Y540923D01*
X538764Y540776D01*
X538140Y540360D01*
X537724Y539736D01*
X537577Y539000D01*
X537724Y538264D01*
X538140Y537640D01*
X538764Y537224D01*
X539500Y537077D01*
X540236Y537224D01*
X540860Y537640D01*
X541177Y538116D01*
X541764Y537724D01*
X542500Y537577D01*
X543236Y537724D01*
X543860Y538140D01*
X544276Y538764D01*
X544423Y539500D01*
X544276Y540236D01*
X543860Y540860D01*
X543236Y541276D01*
X542500Y541423D01*
D02*
G37*
G36*
X554000Y546423D02*
X553264Y546276D01*
X552640Y545860D01*
X552224Y545236D01*
X552077Y544500D01*
X552224Y543764D01*
X552640Y543140D01*
X553264Y542724D01*
X554000Y542577D01*
X554736Y542724D01*
X555186Y543024D01*
X555546Y542664D01*
X555335Y542347D01*
X555189Y541612D01*
X555335Y540876D01*
X555752Y540252D01*
X556376Y539835D01*
X557111Y539689D01*
X557847Y539835D01*
X558471Y540252D01*
X558840Y540804D01*
X559367Y540915D01*
X559369Y540912D01*
X559993Y540495D01*
X560728Y540349D01*
X561464Y540495D01*
X562088Y540912D01*
X562505Y541536D01*
X562651Y542272D01*
X562505Y543008D01*
X562088Y543631D01*
X561464Y544048D01*
X560728Y544194D01*
X559993Y544048D01*
X559369Y543631D01*
X559000Y543079D01*
X558473Y542968D01*
X558471Y542971D01*
X557847Y543388D01*
X557111Y543534D01*
X556376Y543388D01*
X555926Y543087D01*
X555565Y543448D01*
X555776Y543764D01*
X555923Y544500D01*
X555776Y545236D01*
X555360Y545860D01*
X554736Y546276D01*
X554000Y546423D01*
D02*
G37*
G36*
X573500Y543423D02*
X572764Y543276D01*
X572140Y542860D01*
X571724Y542236D01*
X571577Y541500D01*
X571724Y540764D01*
X572140Y540140D01*
X572764Y539724D01*
X573500Y539577D01*
X574236Y539724D01*
X574860Y540140D01*
X575276Y540764D01*
X575423Y541500D01*
X575276Y542236D01*
X574860Y542860D01*
X574236Y543276D01*
X573500Y543423D01*
D02*
G37*
G36*
X527000Y547285D02*
X525891Y547139D01*
X524858Y546711D01*
X523970Y546030D01*
X523289Y545142D01*
X522861Y544109D01*
X522715Y543000D01*
X522861Y541891D01*
X523289Y540858D01*
X523970Y539970D01*
X524858Y539289D01*
X525891Y538861D01*
X527000Y538715D01*
X528109Y538861D01*
X529142Y539289D01*
X530030Y539970D01*
X530711Y540858D01*
X531139Y541891D01*
X531285Y543000D01*
X531139Y544109D01*
X530711Y545142D01*
X530030Y546030D01*
X529142Y546711D01*
X528109Y547139D01*
X527000Y547285D01*
D02*
G37*
G36*
X558231Y538753D02*
X557496Y538607D01*
X556872Y538190D01*
X556455Y537566D01*
X556309Y536830D01*
X556455Y536095D01*
X556872Y535471D01*
X556638Y535037D01*
X556474Y534792D01*
X556328Y534056D01*
X556474Y533320D01*
X556891Y532696D01*
X557515Y532280D01*
X558251Y532133D01*
X558987Y532280D01*
X559611Y532696D01*
X560027Y533320D01*
X560174Y534056D01*
X560027Y534792D01*
X559611Y535416D01*
X559844Y535849D01*
X560008Y536095D01*
X560154Y536830D01*
X560008Y537566D01*
X559591Y538190D01*
X558967Y538607D01*
X558231Y538753D01*
D02*
G37*
G36*
X585570Y535841D02*
X584834Y535694D01*
X584210Y535278D01*
X583794Y534654D01*
X583647Y533918D01*
X583794Y533182D01*
X584210Y532558D01*
X584834Y532142D01*
X584896Y532129D01*
Y531620D01*
X584486Y531538D01*
X583862Y531121D01*
X583445Y530497D01*
X583299Y529762D01*
X583445Y529026D01*
X583862Y528402D01*
X584486Y527985D01*
X585222Y527839D01*
X585957Y527985D01*
X586581Y528402D01*
X586998Y529026D01*
X587144Y529762D01*
X587047Y530248D01*
X587498Y530549D01*
X587945Y530250D01*
X588681Y530104D01*
X589417Y530250D01*
X590041Y530667D01*
X590457Y531291D01*
X590604Y532026D01*
X590457Y532762D01*
X590041Y533386D01*
X589417Y533803D01*
X588681Y533949D01*
X587945Y533803D01*
X587940Y533800D01*
X587461Y534080D01*
X587347Y534654D01*
X586930Y535278D01*
X586306Y535694D01*
X585570Y535841D01*
D02*
G37*
G36*
X531248Y537248D02*
X522752D01*
Y528752D01*
X531248D01*
Y537248D01*
D02*
G37*
G36*
X539963Y531460D02*
X539227Y531313D01*
X538603Y530897D01*
X538187Y530273D01*
X538040Y529537D01*
X538187Y528801D01*
X538603Y528177D01*
X539227Y527761D01*
X539963Y527614D01*
X540699Y527761D01*
X541323Y528177D01*
X541740Y528801D01*
X541886Y529537D01*
X541740Y530273D01*
X541323Y530897D01*
X540699Y531313D01*
X539963Y531460D01*
D02*
G37*
G36*
X572532Y527891D02*
X571796Y527745D01*
X571172Y527328D01*
X570755Y526704D01*
X570609Y525969D01*
X570755Y525233D01*
X571172Y524609D01*
X571796Y524192D01*
X572532Y524046D01*
X573267Y524192D01*
X573891Y524609D01*
X574308Y525233D01*
X574454Y525969D01*
X574308Y526704D01*
X573891Y527328D01*
X573267Y527745D01*
X572532Y527891D01*
D02*
G37*
G36*
X525500Y525171D02*
X524764Y525024D01*
X524140Y524608D01*
X523724Y523984D01*
X523577Y523248D01*
X523724Y522512D01*
X524140Y521888D01*
X524764Y521472D01*
X525500Y521325D01*
X526236Y521472D01*
X526860Y521888D01*
X527276Y522512D01*
X527423Y523248D01*
X527276Y523984D01*
X526860Y524608D01*
X526236Y525024D01*
X525500Y525171D01*
D02*
G37*
G36*
X574532Y523954D02*
X573796Y523808D01*
X573172Y523391D01*
X572755Y522767D01*
X572609Y522031D01*
X572755Y521296D01*
X573172Y520672D01*
X573796Y520255D01*
X574532Y520109D01*
X575267Y520255D01*
X575891Y520672D01*
X576308Y521296D01*
X576454Y522031D01*
X576308Y522767D01*
X575891Y523391D01*
X575267Y523808D01*
X574532Y523954D01*
D02*
G37*
G36*
X547500Y523423D02*
X546764Y523276D01*
X546140Y522860D01*
X545724Y522236D01*
X545577Y521500D01*
X545724Y520764D01*
X546140Y520140D01*
X546764Y519724D01*
X547500Y519577D01*
X548236Y519724D01*
X548860Y520140D01*
X549276Y520764D01*
X549423Y521500D01*
X549276Y522236D01*
X548860Y522860D01*
X548236Y523276D01*
X547500Y523423D01*
D02*
G37*
G36*
X539000Y522194D02*
X538264Y522048D01*
X537640Y521631D01*
X537224Y521007D01*
X537077Y520272D01*
X537224Y519536D01*
X537640Y518912D01*
X538264Y518495D01*
X539000Y518349D01*
X539736Y518495D01*
X540360Y518912D01*
X540776Y519536D01*
X540923Y520272D01*
X540776Y521007D01*
X540360Y521631D01*
X539736Y522048D01*
X539000Y522194D01*
D02*
G37*
G36*
X568469Y521954D02*
X567733Y521808D01*
X567109Y521391D01*
X566692Y520767D01*
X566546Y520031D01*
X566692Y519296D01*
X567109Y518672D01*
X567733Y518255D01*
X568469Y518109D01*
X569204Y518255D01*
X569828Y518672D01*
X570245Y519296D01*
X570391Y520031D01*
X570245Y520767D01*
X569828Y521391D01*
X569204Y521808D01*
X568469Y521954D01*
D02*
G37*
G36*
X591575Y523490D02*
X590800Y523388D01*
X590078Y523089D01*
X589458Y522613D01*
X588982Y521993D01*
X588683Y521271D01*
X588581Y520496D01*
X588683Y519721D01*
X588982Y518999D01*
X589458Y518379D01*
X590078Y517903D01*
X590800Y517604D01*
X591575Y517502D01*
X592350Y517604D01*
X593072Y517903D01*
X593692Y518379D01*
X594168Y518999D01*
X594467Y519721D01*
X594569Y520496D01*
X594467Y521271D01*
X594168Y521993D01*
X593692Y522613D01*
X593072Y523089D01*
X592350Y523388D01*
X591575Y523490D01*
D02*
G37*
G36*
X556000Y520923D02*
X555264Y520776D01*
X554640Y520360D01*
X554224Y519736D01*
X554077Y519000D01*
X554224Y518264D01*
X554640Y517640D01*
X555264Y517224D01*
X556000Y517077D01*
X556736Y517224D01*
X557360Y517640D01*
X557776Y518264D01*
X557923Y519000D01*
X557776Y519736D01*
X557360Y520360D01*
X556736Y520776D01*
X556000Y520923D01*
D02*
G37*
G36*
X541926Y514497D02*
X541190Y514351D01*
X540566Y513934D01*
X540149Y513310D01*
X540003Y512574D01*
X540043Y512370D01*
X539690Y512016D01*
X539500Y512054D01*
X538764Y511908D01*
X538140Y511491D01*
X537724Y510867D01*
X537632Y510406D01*
X537500Y509923D01*
X536764Y509776D01*
X536140Y509360D01*
X535724Y508736D01*
X535666Y508448D01*
X535121Y508268D01*
X534500Y508391D01*
X533764Y508245D01*
X533140Y507828D01*
X532724Y507204D01*
X532577Y506468D01*
X532724Y505733D01*
X533140Y505109D01*
X533764Y504692D01*
X534500Y504546D01*
X535236Y504692D01*
X535860Y505109D01*
X536276Y505733D01*
X536334Y506020D01*
X536879Y506201D01*
X537500Y506077D01*
X538236Y506224D01*
X538860Y506640D01*
X539276Y507264D01*
X539368Y507725D01*
X539500Y508209D01*
X540236Y508355D01*
X540860Y508772D01*
X541276Y509396D01*
X541423Y510131D01*
X541382Y510336D01*
X541736Y510689D01*
X541926Y510652D01*
X542661Y510798D01*
X543285Y511215D01*
X543702Y511839D01*
X543848Y512574D01*
X543702Y513310D01*
X543285Y513934D01*
X542661Y514351D01*
X541926Y514497D01*
D02*
G37*
G36*
X528500Y517923D02*
X527764Y517776D01*
X527140Y517360D01*
X526724Y516736D01*
X526577Y516000D01*
X526724Y515264D01*
X527067Y514750D01*
X526724Y514236D01*
X526577Y513500D01*
X526724Y512764D01*
X527140Y512140D01*
X527764Y511724D01*
X528500Y511577D01*
X529236Y511724D01*
X529860Y512140D01*
X530276Y512764D01*
X530423Y513500D01*
X530276Y514236D01*
X529933Y514750D01*
X530276Y515264D01*
X530423Y516000D01*
X530276Y516736D01*
X529860Y517360D01*
X529236Y517776D01*
X528500Y517923D01*
D02*
G37*
G36*
X553957Y513879D02*
X553221Y513733D01*
X552597Y513316D01*
X552180Y512692D01*
X552034Y511957D01*
X552180Y511221D01*
X552597Y510597D01*
X553221Y510180D01*
X553957Y510034D01*
X554693Y510180D01*
X555316Y510597D01*
X555733Y511221D01*
X555879Y511957D01*
X555733Y512692D01*
X555316Y513316D01*
X554693Y513733D01*
X553957Y513879D01*
D02*
G37*
G36*
X565768Y514690D02*
X565032Y514544D01*
X564408Y514127D01*
X563991Y513504D01*
X563845Y512768D01*
X563991Y512032D01*
X564408Y511408D01*
X565032Y510991D01*
X565768Y510845D01*
X566503Y510991D01*
X566596Y511053D01*
X566664Y511045D01*
X567117Y510800D01*
X567224Y510264D01*
X567640Y509640D01*
X568264Y509224D01*
X569000Y509077D01*
X569736Y509224D01*
X570360Y509640D01*
X570776Y510264D01*
X570923Y511000D01*
X570776Y511736D01*
X570360Y512360D01*
X569736Y512776D01*
X569000Y512923D01*
X568264Y512776D01*
X568172Y512715D01*
X568104Y512722D01*
X567651Y512968D01*
X567544Y513504D01*
X567127Y514127D01*
X566503Y514544D01*
X565768Y514690D01*
D02*
G37*
G36*
X559000Y511923D02*
X558264Y511776D01*
X557640Y511360D01*
X557224Y510736D01*
X557077Y510000D01*
X557224Y509264D01*
X557640Y508640D01*
X558264Y508224D01*
X559000Y508077D01*
X559736Y508224D01*
X560190Y508527D01*
X560325Y508325D01*
X560949Y507909D01*
X561685Y507762D01*
X562421Y507909D01*
X563045Y508325D01*
X563461Y508949D01*
X563608Y509685D01*
X563461Y510421D01*
X563045Y511045D01*
X562421Y511461D01*
X561685Y511608D01*
X560949Y511461D01*
X560495Y511158D01*
X560360Y511360D01*
X559736Y511776D01*
X559000Y511923D01*
D02*
G37*
G36*
X573500Y511423D02*
X572764Y511276D01*
X572140Y510860D01*
X571724Y510236D01*
X571577Y509500D01*
X571724Y508764D01*
X572140Y508140D01*
X572764Y507724D01*
X573500Y507577D01*
X574236Y507724D01*
X574860Y508140D01*
X575276Y508764D01*
X575423Y509500D01*
X575276Y510236D01*
X574860Y510860D01*
X574236Y511276D01*
X573500Y511423D01*
D02*
G37*
G36*
X601500Y509923D02*
X600764Y509776D01*
X600140Y509360D01*
X599724Y508736D01*
X599577Y508000D01*
X599724Y507264D01*
X600140Y506640D01*
X600764Y506224D01*
X601500Y506077D01*
X602236Y506224D01*
X602860Y506640D01*
X603276Y507264D01*
X603423Y508000D01*
X603276Y508736D01*
X602860Y509360D01*
X602236Y509776D01*
X601500Y509923D01*
D02*
G37*
G36*
X528516Y508438D02*
X527780Y508292D01*
X527156Y507875D01*
X526739Y507252D01*
X526593Y506516D01*
X526739Y505780D01*
X527156Y505156D01*
X527780Y504739D01*
X528516Y504593D01*
X529252Y504739D01*
X529875Y505156D01*
X530292Y505780D01*
X530439Y506516D01*
X530292Y507252D01*
X529875Y507875D01*
X529252Y508292D01*
X528516Y508438D01*
D02*
G37*
G36*
X575500Y505423D02*
X574764Y505276D01*
X574140Y504860D01*
X573724Y504236D01*
X573577Y503500D01*
X573724Y502764D01*
X574140Y502140D01*
X574764Y501724D01*
X575500Y501577D01*
X576236Y501724D01*
X576860Y502140D01*
X577276Y502764D01*
X577423Y503500D01*
X577276Y504236D01*
X576860Y504860D01*
X576236Y505276D01*
X575500Y505423D01*
D02*
G37*
G36*
X573086Y500509D02*
X572350Y500362D01*
X571726Y499945D01*
X571309Y499322D01*
X571289Y499220D01*
X570780D01*
X570776Y499236D01*
X570360Y499860D01*
X569736Y500276D01*
X569000Y500423D01*
X568264Y500276D01*
X567640Y499860D01*
X567224Y499236D01*
X567077Y498500D01*
X567224Y497764D01*
X567640Y497140D01*
X568264Y496724D01*
X569000Y496577D01*
X569736Y496724D01*
X570360Y497140D01*
X570776Y497764D01*
X570797Y497865D01*
X571306D01*
X571309Y497850D01*
X571726Y497226D01*
X571951Y497076D01*
X571724Y496736D01*
X571577Y496000D01*
X571724Y495264D01*
X572140Y494640D01*
X572668Y494288D01*
X572786Y493748D01*
X572695Y493679D01*
X572093Y492894D01*
X571715Y491981D01*
X571689Y491786D01*
X571185D01*
X571159Y491981D01*
X570781Y492894D01*
X570179Y493679D01*
X569394Y494281D01*
X568480Y494659D01*
X567500Y494788D01*
X566519Y494659D01*
X565606Y494281D01*
X564821Y493679D01*
X564219Y492894D01*
X563841Y491981D01*
X563815Y491786D01*
X563311D01*
X563285Y491981D01*
X562907Y492894D01*
X562305Y493679D01*
X561520Y494281D01*
X560606Y494659D01*
X559626Y494788D01*
X558645Y494659D01*
X557732Y494281D01*
X556947Y493679D01*
X556573Y493191D01*
X555959Y493212D01*
X555860Y493360D01*
X555236Y493776D01*
X554500Y493923D01*
X553764Y493776D01*
X553140Y493360D01*
X552724Y492736D01*
X552577Y492000D01*
X552724Y491264D01*
X553140Y490640D01*
X553385Y490477D01*
X553224Y490236D01*
X553077Y489500D01*
X553224Y488764D01*
X553640Y488140D01*
X554264Y487724D01*
X555000Y487577D01*
X555736Y487724D01*
X556360Y488140D01*
X556461Y488293D01*
X557036Y488253D01*
X557732Y487719D01*
X558645Y487341D01*
X558840Y487315D01*
Y486811D01*
X558645Y486785D01*
X557732Y486407D01*
X556947Y485805D01*
X556345Y485020D01*
X555967Y484106D01*
X555903Y483626D01*
X559626D01*
Y483126D01*
X560126D01*
Y479403D01*
X560606Y479467D01*
X561520Y479845D01*
X562305Y480447D01*
X562907Y481232D01*
X563285Y482146D01*
X563307Y482309D01*
X563811D01*
X563841Y482083D01*
X564219Y481169D01*
X564821Y480384D01*
X565606Y479782D01*
X566519Y479404D01*
X567500Y479275D01*
X568480Y479404D01*
X569394Y479782D01*
X570179Y480384D01*
X570781Y481169D01*
X571159Y482083D01*
X571185Y482277D01*
X571689D01*
X571715Y482083D01*
X572093Y481169D01*
X572695Y480384D01*
X573480Y479782D01*
X574394Y479404D01*
X575374Y479275D01*
X576355Y479404D01*
X577268Y479782D01*
X578053Y480384D01*
X578655Y481169D01*
X579033Y482083D01*
X579162Y483063D01*
X579033Y484044D01*
X578655Y484957D01*
X578053Y485742D01*
X577268Y486344D01*
X576355Y486722D01*
X575921Y486779D01*
Y487284D01*
X576355Y487341D01*
X577268Y487719D01*
X578053Y488321D01*
X578655Y489106D01*
X579033Y490020D01*
X579162Y491000D01*
X579033Y491981D01*
X578655Y492894D01*
X578053Y493679D01*
X577268Y494281D01*
X576355Y494659D01*
X575545Y494766D01*
X575257Y495235D01*
X575276Y495264D01*
X575423Y496000D01*
X575276Y496736D01*
X574860Y497360D01*
X574635Y497510D01*
X574862Y497850D01*
X575009Y498586D01*
X574862Y499322D01*
X574445Y499945D01*
X573822Y500362D01*
X573086Y500509D01*
D02*
G37*
G36*
X577500Y500423D02*
X576764Y500276D01*
X576140Y499860D01*
X575724Y499236D01*
X575577Y498500D01*
X575724Y497764D01*
X576140Y497140D01*
X576764Y496724D01*
X577500Y496577D01*
X578236Y496724D01*
X578860Y497140D01*
X579276Y497764D01*
X579423Y498500D01*
X579276Y499236D01*
X578860Y499860D01*
X578236Y500276D01*
X577500Y500423D01*
D02*
G37*
G36*
X564500D02*
X563764Y500276D01*
X563140Y499860D01*
X562724Y499236D01*
X562577Y498500D01*
X562724Y497764D01*
X563140Y497140D01*
X563764Y496724D01*
X564500Y496577D01*
X565236Y496724D01*
X565860Y497140D01*
X566276Y497764D01*
X566423Y498500D01*
X566276Y499236D01*
X565860Y499860D01*
X565236Y500276D01*
X564500Y500423D01*
D02*
G37*
G36*
X582500Y497923D02*
X581764Y497776D01*
X581140Y497360D01*
X580724Y496736D01*
X580577Y496000D01*
X580724Y495264D01*
X581140Y494640D01*
X581764Y494224D01*
X582500Y494077D01*
X583236Y494224D01*
X583665Y494510D01*
X584210Y494333D01*
X584224Y494264D01*
X584640Y493640D01*
X585264Y493224D01*
X586000Y493077D01*
X586736Y493224D01*
X587360Y493640D01*
X587677Y494116D01*
X588264Y493724D01*
X589000Y493577D01*
X589736Y493724D01*
X590360Y494140D01*
X590776Y494764D01*
X590923Y495500D01*
X590776Y496236D01*
X590360Y496860D01*
X589736Y497276D01*
X589000Y497423D01*
X588264Y497276D01*
X587640Y496860D01*
X587323Y496384D01*
X586736Y496776D01*
X586000Y496923D01*
X585264Y496776D01*
X584835Y496490D01*
X584290Y496667D01*
X584276Y496736D01*
X583860Y497360D01*
X583236Y497776D01*
X582500Y497923D01*
D02*
G37*
G36*
X541000Y494454D02*
X540264Y494308D01*
X539640Y493891D01*
X539224Y493267D01*
X539098Y492636D01*
X538908Y492447D01*
X538613Y492301D01*
X538000Y492423D01*
X537264Y492276D01*
X536835Y491990D01*
X536290Y492167D01*
X536276Y492236D01*
X535860Y492860D01*
X535236Y493276D01*
X534500Y493423D01*
X533764Y493276D01*
X533140Y492860D01*
X532724Y492236D01*
X532577Y491500D01*
X532724Y490764D01*
X532999Y490353D01*
X532638Y489992D01*
X532470Y490105D01*
X532000Y490198D01*
X531750Y490725D01*
X531776Y490764D01*
X531923Y491500D01*
X531776Y492236D01*
X531360Y492860D01*
X530736Y493276D01*
X530000Y493423D01*
X529264Y493276D01*
X528640Y492860D01*
X528224Y492236D01*
X528077Y491500D01*
X528224Y490764D01*
X528640Y490140D01*
X529264Y489724D01*
X529734Y489630D01*
X529983Y489103D01*
X529957Y489064D01*
X529811Y488328D01*
X529957Y487593D01*
X530374Y486969D01*
X530998Y486552D01*
X531734Y486406D01*
X532470Y486552D01*
X533094Y486969D01*
X533510Y487593D01*
X533657Y488328D01*
X533510Y489064D01*
X533235Y489476D01*
X533596Y489836D01*
X533764Y489724D01*
X534500Y489577D01*
X535236Y489724D01*
X535665Y490010D01*
X536210Y489833D01*
X536224Y489764D01*
X536640Y489140D01*
X537264Y488724D01*
X538000Y488577D01*
X538736Y488724D01*
X539360Y489140D01*
X539776Y489764D01*
X539902Y490396D01*
X540092Y490584D01*
X540387Y490731D01*
X541000Y490609D01*
X541736Y490755D01*
X542360Y491172D01*
X542776Y491796D01*
X542923Y492531D01*
X542776Y493267D01*
X542360Y493891D01*
X541736Y494308D01*
X541000Y494454D01*
D02*
G37*
G36*
X545362Y493285D02*
X544626Y493139D01*
X544003Y492722D01*
X543586Y492098D01*
X543439Y491362D01*
X543586Y490626D01*
X544003Y490003D01*
X544626Y489586D01*
X545362Y489439D01*
X546098Y489586D01*
X546722Y490003D01*
X547139Y490626D01*
X547285Y491362D01*
X547139Y492098D01*
X546722Y492722D01*
X546098Y493139D01*
X545362Y493285D01*
D02*
G37*
G36*
X591575Y491994D02*
X590800Y491892D01*
X590078Y491593D01*
X589458Y491117D01*
X588982Y490497D01*
X588683Y489775D01*
X588581Y489000D01*
X588683Y488225D01*
X588982Y487503D01*
X589458Y486883D01*
X590078Y486407D01*
X590800Y486108D01*
X591575Y486006D01*
X592350Y486108D01*
X593072Y486407D01*
X593692Y486883D01*
X594168Y487503D01*
X594467Y488225D01*
X594569Y489000D01*
X594467Y489775D01*
X594168Y490497D01*
X593692Y491117D01*
X593072Y491593D01*
X592350Y491892D01*
X591575Y491994D01*
D02*
G37*
G36*
X583500Y487923D02*
X582764Y487776D01*
X582140Y487360D01*
X581724Y486736D01*
X581577Y486000D01*
X581724Y485264D01*
X582140Y484640D01*
X582764Y484224D01*
X583500Y484077D01*
X584236Y484224D01*
X584860Y484640D01*
X585276Y485264D01*
X585423Y486000D01*
X585276Y486736D01*
X584860Y487360D01*
X584236Y487776D01*
X583500Y487923D01*
D02*
G37*
G36*
X559126Y482626D02*
X555903D01*
X555967Y482146D01*
X556345Y481232D01*
X556947Y480447D01*
X557732Y479845D01*
X558645Y479467D01*
X559126Y479403D01*
Y482626D01*
D02*
G37*
G36*
X540011Y482934D02*
X539276Y482788D01*
X538652Y482371D01*
X538235Y481747D01*
X538089Y481011D01*
X538235Y480276D01*
X538652Y479652D01*
X539276Y479235D01*
X540011Y479089D01*
X540747Y479235D01*
X541371Y479652D01*
X541788Y480276D01*
X541934Y481011D01*
X541788Y481747D01*
X541371Y482371D01*
X540747Y482788D01*
X540011Y482934D01*
D02*
G37*
G36*
X535650Y481900D02*
X532500D01*
Y479000D01*
X535650D01*
Y481900D01*
D02*
G37*
G36*
X531500D02*
X528350D01*
Y479000D01*
X531500D01*
Y481900D01*
D02*
G37*
G36*
X535650Y478000D02*
X532500D01*
Y475100D01*
X535650D01*
Y478000D01*
D02*
G37*
G36*
X531500D02*
X528350D01*
Y475100D01*
X531500D01*
Y478000D01*
D02*
G37*
G36*
X561531Y478891D02*
X560796Y478745D01*
X560172Y478328D01*
X559755Y477704D01*
X559609Y476968D01*
X559755Y476233D01*
X560172Y475609D01*
X560796Y475192D01*
X561531Y475046D01*
X562267Y475192D01*
X562891Y475609D01*
X563308Y476233D01*
X563454Y476968D01*
X563308Y477704D01*
X562891Y478328D01*
X562267Y478745D01*
X561531Y478891D01*
D02*
G37*
G36*
X574500Y474423D02*
X573764Y474276D01*
X573140Y473860D01*
X572724Y473236D01*
X572577Y472500D01*
X572630Y472236D01*
X572209Y471787D01*
X572000Y471814D01*
X570883Y471667D01*
X569843Y471236D01*
X568949Y470551D01*
X568264Y469657D01*
X567833Y468617D01*
X567686Y467500D01*
X567833Y466383D01*
X568264Y465343D01*
X568949Y464449D01*
X569843Y463764D01*
X570883Y463333D01*
X572000Y463186D01*
X573117Y463333D01*
X574157Y463764D01*
X575051Y464449D01*
X575736Y465343D01*
X576167Y466383D01*
X576314Y467500D01*
X576167Y468617D01*
X575736Y469657D01*
X575300Y470226D01*
X575288Y470313D01*
X575440Y470860D01*
X575860Y471140D01*
X576276Y471764D01*
X576423Y472500D01*
X576276Y473236D01*
X575860Y473860D01*
X575236Y474276D01*
X574500Y474423D01*
D02*
G37*
G36*
X590000D02*
X589264Y474276D01*
X588640Y473860D01*
X588224Y473236D01*
X588077Y472500D01*
X588224Y471764D01*
X588640Y471140D01*
X589264Y470724D01*
X590000Y470577D01*
X590736Y470724D01*
X591360Y471140D01*
X591776Y471764D01*
X591923Y472500D01*
X591776Y473236D01*
X591360Y473860D01*
X590736Y474276D01*
X590000Y474423D01*
D02*
G37*
G36*
X536500Y472923D02*
X535764Y472776D01*
X535140Y472360D01*
X534724Y471736D01*
X534577Y471000D01*
X534724Y470264D01*
X535140Y469640D01*
X535764Y469224D01*
X536500Y469077D01*
X537236Y469224D01*
X537860Y469640D01*
X538276Y470264D01*
X538423Y471000D01*
X538276Y471736D01*
X537860Y472360D01*
X537236Y472776D01*
X536500Y472923D01*
D02*
G37*
G36*
X556278Y471778D02*
X552500D01*
Y468000D01*
X556278D01*
Y471778D01*
D02*
G37*
G36*
X551500D02*
X547722D01*
Y468000D01*
X551500D01*
Y471778D01*
D02*
G37*
G36*
X599551Y469943D02*
X598879Y469855D01*
X598253Y469595D01*
X597715Y469183D01*
X597302Y468645D01*
X597043Y468019D01*
X596954Y467346D01*
X597043Y466674D01*
X597302Y466048D01*
X597715Y465510D01*
X598253Y465097D01*
X598879Y464838D01*
X599551Y464749D01*
X600223Y464838D01*
X600850Y465097D01*
X601388Y465510D01*
X601800Y466048D01*
X602060Y466674D01*
X602148Y467346D01*
X602060Y468019D01*
X601800Y468645D01*
X601388Y469183D01*
X600850Y469595D01*
X600223Y469855D01*
X599551Y469943D01*
D02*
G37*
G36*
X556278Y467000D02*
X552500D01*
Y463222D01*
X556278D01*
Y467000D01*
D02*
G37*
G36*
X551500D02*
X547722D01*
Y463222D01*
X551500D01*
Y467000D01*
D02*
G37*
G36*
X582000Y471814D02*
X580883Y471667D01*
X579843Y471236D01*
X578949Y470551D01*
X578264Y469657D01*
X577833Y468617D01*
X577685Y467500D01*
X577833Y466383D01*
X578264Y465343D01*
X578949Y464449D01*
X579843Y463764D01*
X580883Y463333D01*
X582000Y463186D01*
X583117Y463333D01*
X584157Y463764D01*
X585051Y464449D01*
X585736Y465343D01*
X586167Y466383D01*
X586314Y467500D01*
X586167Y468617D01*
X585736Y469657D01*
X585051Y470551D01*
X584157Y471236D01*
X583117Y471667D01*
X582000Y471814D01*
D02*
G37*
G36*
X562000D02*
X560883Y471667D01*
X559843Y471236D01*
X558949Y470551D01*
X558264Y469657D01*
X557832Y468617D01*
X557686Y467500D01*
X557832Y466383D01*
X558264Y465343D01*
X558949Y464449D01*
X559843Y463764D01*
X560883Y463333D01*
X562000Y463186D01*
X563117Y463333D01*
X564157Y463764D01*
X565051Y464449D01*
X565736Y465343D01*
X566167Y466383D01*
X566315Y467500D01*
X566167Y468617D01*
X565736Y469657D01*
X565051Y470551D01*
X564157Y471236D01*
X563117Y471667D01*
X562000Y471814D01*
D02*
G37*
G36*
X599551Y463251D02*
X598879Y463162D01*
X598253Y462903D01*
X597715Y462490D01*
X597302Y461952D01*
X597043Y461326D01*
X596954Y460654D01*
X597043Y459981D01*
X597302Y459355D01*
X597715Y458817D01*
X598253Y458404D01*
X598879Y458145D01*
X599551Y458057D01*
X600223Y458145D01*
X600850Y458404D01*
X601388Y458817D01*
X601800Y459355D01*
X602060Y459981D01*
X602148Y460654D01*
X602060Y461326D01*
X601800Y461952D01*
X601388Y462490D01*
X600850Y462903D01*
X600223Y463162D01*
X599551Y463251D01*
D02*
G37*
G36*
X536500Y459923D02*
X535764Y459776D01*
X535140Y459360D01*
X534724Y458736D01*
X534577Y458000D01*
X534724Y457264D01*
X535140Y456640D01*
X535764Y456224D01*
X536500Y456077D01*
X537236Y456224D01*
X537860Y456640D01*
X538276Y457264D01*
X538423Y458000D01*
X538276Y458736D01*
X537860Y459360D01*
X537236Y459776D01*
X536500Y459923D01*
D02*
G37*
G36*
X572000Y461814D02*
X570883Y461667D01*
X569843Y461236D01*
X568949Y460551D01*
X568264Y459657D01*
X567833Y458617D01*
X567686Y457500D01*
X567833Y456383D01*
X568264Y455343D01*
X568949Y454449D01*
X569843Y453764D01*
X570883Y453333D01*
X572000Y453186D01*
X573117Y453333D01*
X574157Y453764D01*
X575051Y454449D01*
X575736Y455343D01*
X576167Y456383D01*
X576314Y457500D01*
X576167Y458617D01*
X575736Y459657D01*
X575051Y460551D01*
X574157Y461236D01*
X573117Y461667D01*
X572000Y461814D01*
D02*
G37*
G36*
X562000D02*
X560883Y461667D01*
X559843Y461236D01*
X558949Y460551D01*
X558264Y459657D01*
X557832Y458617D01*
X557686Y457500D01*
X557832Y456383D01*
X558264Y455343D01*
X558949Y454449D01*
X559843Y453764D01*
X560883Y453333D01*
X562000Y453186D01*
X563117Y453333D01*
X564157Y453764D01*
X565051Y454449D01*
X565736Y455343D01*
X566167Y456383D01*
X566315Y457500D01*
X566167Y458617D01*
X565736Y459657D01*
X565051Y460551D01*
X564157Y461236D01*
X563117Y461667D01*
X562000Y461814D01*
D02*
G37*
G36*
X552000D02*
X550883Y461667D01*
X549843Y461236D01*
X548949Y460551D01*
X548264Y459657D01*
X547832Y458617D01*
X547685Y457500D01*
X547832Y456383D01*
X548264Y455343D01*
X548949Y454449D01*
X549843Y453764D01*
X550883Y453333D01*
X552000Y453186D01*
X553117Y453333D01*
X554157Y453764D01*
X555051Y454449D01*
X555736Y455343D01*
X556168Y456383D01*
X556315Y457500D01*
X556168Y458617D01*
X555736Y459657D01*
X555051Y460551D01*
X554157Y461236D01*
X553117Y461667D01*
X552000Y461814D01*
D02*
G37*
G36*
X582000D02*
X580883Y461667D01*
X579843Y461236D01*
X578949Y460551D01*
X578264Y459657D01*
X577833Y458617D01*
X577685Y457500D01*
X577833Y456383D01*
X578264Y455343D01*
X578949Y454449D01*
X579223Y454239D01*
X579125Y453684D01*
X578640Y453360D01*
X578224Y452736D01*
X578077Y452000D01*
X578224Y451264D01*
X578640Y450640D01*
X579264Y450224D01*
X580000Y450077D01*
X580736Y450224D01*
X581360Y450640D01*
X581776Y451264D01*
X581923Y452000D01*
X581776Y452736D01*
X581751Y452774D01*
X582071Y453195D01*
X583117Y453333D01*
X584157Y453764D01*
X585051Y454449D01*
X585736Y455343D01*
X586167Y456383D01*
X586314Y457500D01*
X586167Y458617D01*
X585736Y459657D01*
X585051Y460551D01*
X584157Y461236D01*
X583117Y461667D01*
X582000Y461814D01*
D02*
G37*
G36*
X536000Y452423D02*
X535264Y452276D01*
X534640Y451860D01*
X534224Y451236D01*
X534077Y450500D01*
X534224Y449764D01*
X534640Y449140D01*
X535264Y448724D01*
X536000Y448577D01*
X536736Y448724D01*
X537360Y449140D01*
X537776Y449764D01*
X537923Y450500D01*
X537776Y451236D01*
X537360Y451860D01*
X536736Y452276D01*
X536000Y452423D01*
D02*
G37*
G36*
X585500Y446423D02*
X584764Y446276D01*
X584140Y445860D01*
X583724Y445236D01*
X583577Y444500D01*
X583724Y443764D01*
X584140Y443140D01*
X584764Y442724D01*
X585500Y442577D01*
X586236Y442724D01*
X586860Y443140D01*
X587276Y443764D01*
X587423Y444500D01*
X587276Y445236D01*
X586860Y445860D01*
X586236Y446276D01*
X585500Y446423D01*
D02*
G37*
G36*
X568838Y445423D02*
X568102Y445276D01*
X567479Y444860D01*
X567062Y444236D01*
X566915Y443500D01*
X567062Y442764D01*
X567479Y442140D01*
X568102Y441724D01*
X568838Y441577D01*
X569574Y441724D01*
X570198Y442140D01*
X570615Y442764D01*
X570761Y443500D01*
X570615Y444236D01*
X570198Y444860D01*
X569574Y445276D01*
X568838Y445423D01*
D02*
G37*
G36*
X537500D02*
X536764Y445276D01*
X536140Y444860D01*
X535724Y444236D01*
X535577Y443500D01*
X535724Y442764D01*
X536140Y442140D01*
X536764Y441724D01*
X537500Y441577D01*
X538236Y441724D01*
X538860Y442140D01*
X539276Y442764D01*
X539423Y443500D01*
X539276Y444236D01*
X538860Y444860D01*
X538236Y445276D01*
X537500Y445423D01*
D02*
G37*
G36*
X602000Y444423D02*
X601264Y444276D01*
X600640Y443860D01*
X600224Y443236D01*
X600077Y442500D01*
X600224Y441764D01*
X600640Y441140D01*
X601264Y440724D01*
X602000Y440577D01*
X602736Y440724D01*
X603360Y441140D01*
X603776Y441764D01*
X603923Y442500D01*
X603776Y443236D01*
X603360Y443860D01*
X602736Y444276D01*
X602000Y444423D01*
D02*
G37*
G36*
X553874Y444497D02*
Y440524D01*
X557847D01*
X557758Y441198D01*
X557305Y442293D01*
X556583Y443233D01*
X555643Y443954D01*
X554549Y444408D01*
X553874Y444497D01*
D02*
G37*
G36*
X552874D02*
X552199Y444408D01*
X551105Y443954D01*
X550165Y443233D01*
X549443Y442293D01*
X548990Y441198D01*
X548901Y440524D01*
X552874D01*
Y444497D01*
D02*
G37*
G36*
X564500Y443923D02*
X563764Y443776D01*
X563140Y443360D01*
X562724Y442736D01*
X562577Y442000D01*
X562724Y441264D01*
X563140Y440640D01*
X563764Y440224D01*
X564500Y440077D01*
X565236Y440224D01*
X565860Y440640D01*
X566276Y441264D01*
X566423Y442000D01*
X566276Y442736D01*
X565860Y443360D01*
X565236Y443776D01*
X564500Y443923D01*
D02*
G37*
G36*
X534500Y441423D02*
X533764Y441276D01*
X533140Y440860D01*
X532724Y440236D01*
X532577Y439500D01*
X532724Y438764D01*
X533140Y438140D01*
X533764Y437724D01*
X534500Y437577D01*
X535236Y437724D01*
X535860Y438140D01*
X536276Y438764D01*
X536423Y439500D01*
X536276Y440236D01*
X535860Y440860D01*
X535236Y441276D01*
X534500Y441423D01*
D02*
G37*
G36*
X543500Y440423D02*
X542764Y440276D01*
X542140Y439860D01*
X541724Y439236D01*
X541577Y438500D01*
X541724Y437764D01*
X542140Y437140D01*
X542764Y436724D01*
X543500Y436577D01*
X544236Y436724D01*
X544860Y437140D01*
X545276Y437764D01*
X545423Y438500D01*
X545276Y439236D01*
X544860Y439860D01*
X544236Y440276D01*
X543500Y440423D01*
D02*
G37*
G36*
X557847Y439524D02*
X553874D01*
Y435551D01*
X554549Y435639D01*
X555643Y436093D01*
X556583Y436814D01*
X557305Y437754D01*
X557758Y438849D01*
X557847Y439524D01*
D02*
G37*
G36*
X552874D02*
X548901D01*
X548990Y438849D01*
X549443Y437754D01*
X550165Y436814D01*
X551105Y436093D01*
X552199Y435639D01*
X552874Y435551D01*
Y439524D01*
D02*
G37*
G36*
X574500Y438423D02*
X573764Y438276D01*
X573140Y437860D01*
X572724Y437236D01*
X572577Y436500D01*
X572724Y435764D01*
X573140Y435140D01*
X573764Y434724D01*
X574500Y434577D01*
X575236Y434724D01*
X575860Y435140D01*
X576276Y435764D01*
X576423Y436500D01*
X576276Y437236D01*
X575860Y437860D01*
X575236Y438276D01*
X574500Y438423D01*
D02*
G37*
G36*
X596000Y435423D02*
X595264Y435276D01*
X594640Y434860D01*
X594224Y434236D01*
X594077Y433500D01*
X594224Y432764D01*
X594640Y432140D01*
X595264Y431724D01*
X596000Y431577D01*
X596736Y431724D01*
X597360Y432140D01*
X597776Y432764D01*
X597923Y433500D01*
X597776Y434236D01*
X597360Y434860D01*
X596736Y435276D01*
X596000Y435423D01*
D02*
G37*
G36*
X578000Y430423D02*
X577264Y430276D01*
X576640Y429860D01*
X576224Y429236D01*
X576077Y428500D01*
X576224Y427764D01*
X576640Y427140D01*
X577264Y426724D01*
X578000Y426577D01*
X578736Y426724D01*
X579360Y427140D01*
X579776Y427764D01*
X579923Y428500D01*
X579776Y429236D01*
X579360Y429860D01*
X578736Y430276D01*
X578000Y430423D01*
D02*
G37*
G36*
X602134Y430057D02*
X601398Y429910D01*
X600774Y429494D01*
X600357Y428870D01*
X600211Y428134D01*
X600357Y427398D01*
X600774Y426774D01*
X601398Y426357D01*
X602134Y426211D01*
X602870Y426357D01*
X603493Y426774D01*
X603910Y427398D01*
X604057Y428134D01*
X603910Y428870D01*
X603493Y429494D01*
X602870Y429910D01*
X602134Y430057D01*
D02*
G37*
G36*
X534500Y429423D02*
X533764Y429276D01*
X533140Y428860D01*
X532724Y428236D01*
X532577Y427500D01*
X532724Y426764D01*
X533140Y426140D01*
X533764Y425724D01*
X534500Y425577D01*
X535236Y425724D01*
X535860Y426140D01*
X536276Y426764D01*
X536423Y427500D01*
X536276Y428236D01*
X535860Y428860D01*
X535236Y429276D01*
X534500Y429423D01*
D02*
G37*
G36*
X560500Y429923D02*
X559764Y429776D01*
X559140Y429360D01*
X558724Y428736D01*
X558577Y428000D01*
X558724Y427264D01*
X559140Y426640D01*
X559764Y426224D01*
X560396Y426098D01*
X560584Y425908D01*
X560731Y425613D01*
X560609Y425000D01*
X560755Y424264D01*
X561172Y423640D01*
X561796Y423224D01*
X562532Y423077D01*
X563267Y423224D01*
X563891Y423640D01*
X564308Y424264D01*
X564454Y425000D01*
X564308Y425736D01*
X563891Y426360D01*
X563267Y426776D01*
X562636Y426902D01*
X562447Y427092D01*
X562301Y427387D01*
X562423Y428000D01*
X562276Y428736D01*
X561860Y429360D01*
X561236Y429776D01*
X560500Y429923D01*
D02*
G37*
G36*
X595000Y425923D02*
X594264Y425776D01*
X593640Y425360D01*
X593224Y424736D01*
X593077Y424000D01*
X593224Y423264D01*
X593640Y422640D01*
X594264Y422224D01*
X595000Y422077D01*
X595736Y422224D01*
X596360Y422640D01*
X596776Y423264D01*
X596923Y424000D01*
X596776Y424736D01*
X596360Y425360D01*
X595736Y425776D01*
X595000Y425923D01*
D02*
G37*
G36*
X533000Y422923D02*
X532264Y422776D01*
X531640Y422360D01*
X531224Y421736D01*
X531077Y421000D01*
X531224Y420264D01*
X531640Y419640D01*
X532264Y419224D01*
X533000Y419077D01*
X533736Y419224D01*
X534360Y419640D01*
X534776Y420264D01*
X534923Y421000D01*
X534776Y421736D01*
X534360Y422360D01*
X533736Y422776D01*
X533000Y422923D01*
D02*
G37*
G36*
X547559Y428528D02*
X540441D01*
Y417472D01*
X547559D01*
Y428528D01*
D02*
G37*
G36*
X587968Y416923D02*
X587233Y416776D01*
X586609Y416360D01*
X586192Y415736D01*
X586046Y415000D01*
X586192Y414264D01*
X586609Y413640D01*
X587233Y413224D01*
X587968Y413077D01*
X588704Y413224D01*
X589328Y413640D01*
X589745Y414264D01*
X589891Y415000D01*
X589745Y415736D01*
X589328Y416360D01*
X588704Y416776D01*
X587968Y416923D01*
D02*
G37*
G36*
X541500Y414923D02*
X540764Y414776D01*
X540140Y414360D01*
X539724Y413736D01*
X539577Y413000D01*
X539724Y412264D01*
X540140Y411640D01*
X540764Y411224D01*
X541500Y411077D01*
X542236Y411224D01*
X542860Y411640D01*
X543276Y412264D01*
X543423Y413000D01*
X543276Y413736D01*
X542860Y414360D01*
X542236Y414776D01*
X541500Y414923D01*
D02*
G37*
G36*
X566000Y421529D02*
X564824Y421413D01*
X563693Y421070D01*
X562650Y420513D01*
X561737Y419763D01*
X560987Y418850D01*
X560430Y417807D01*
X560087Y416676D01*
X559971Y415500D01*
X560087Y414324D01*
X560430Y413193D01*
X560987Y412150D01*
X561737Y411237D01*
X562650Y410487D01*
X563693Y409930D01*
X564824Y409587D01*
X566000Y409471D01*
X567176Y409587D01*
X568307Y409930D01*
X569349Y410487D01*
X570263Y411237D01*
X571013Y412150D01*
X571570Y413193D01*
X571913Y414324D01*
X572029Y415500D01*
X571913Y416676D01*
X571570Y417807D01*
X571013Y418850D01*
X570263Y419763D01*
X569349Y420513D01*
X568307Y421070D01*
X567176Y421413D01*
X566000Y421529D01*
D02*
G37*
G36*
X549000Y411480D02*
Y406000D01*
X554480D01*
X554413Y406676D01*
X554070Y407807D01*
X553513Y408849D01*
X552763Y409763D01*
X551850Y410513D01*
X550807Y411070D01*
X549676Y411413D01*
X549000Y411480D01*
D02*
G37*
G36*
X548000D02*
X547324Y411413D01*
X546193Y411070D01*
X545151Y410513D01*
X544237Y409763D01*
X543487Y408849D01*
X542930Y407807D01*
X542587Y406676D01*
X542520Y406000D01*
X548000D01*
Y411480D01*
D02*
G37*
G36*
X554480Y405000D02*
X549000D01*
Y399520D01*
X549676Y399587D01*
X550807Y399930D01*
X551850Y400487D01*
X552763Y401237D01*
X553513Y402150D01*
X554070Y403193D01*
X554413Y404324D01*
X554480Y405000D01*
D02*
G37*
G36*
X548000D02*
X542520D01*
X542587Y404324D01*
X542930Y403193D01*
X543487Y402150D01*
X544237Y401237D01*
X545151Y400487D01*
X546193Y399930D01*
X547324Y399587D01*
X548000Y399520D01*
Y405000D01*
D02*
G37*
G36*
X582000Y411529D02*
X580824Y411413D01*
X579693Y411070D01*
X578651Y410513D01*
X577737Y409763D01*
X576987Y408849D01*
X576430Y407807D01*
X576087Y406676D01*
X575971Y405500D01*
X576087Y404324D01*
X576430Y403193D01*
X576987Y402150D01*
X577737Y401237D01*
X578651Y400487D01*
X579693Y399930D01*
X580824Y399587D01*
X582000Y399471D01*
X583176Y399587D01*
X584307Y399930D01*
X585350Y400487D01*
X586263Y401237D01*
X587013Y402150D01*
X587570Y403193D01*
X587913Y404324D01*
X588029Y405500D01*
X587913Y406676D01*
X587570Y407807D01*
X587013Y408849D01*
X586263Y409763D01*
X585350Y410513D01*
X584307Y411070D01*
X583176Y411413D01*
X582000Y411529D01*
D02*
G37*
G36*
X565562Y407946D02*
X564670D01*
X564572Y407927D01*
X564471D01*
X563597Y407753D01*
X563504Y407714D01*
X563405Y407694D01*
X562581Y407353D01*
X562498Y407298D01*
X562405Y407259D01*
X561663Y406764D01*
X561592Y406693D01*
X561509Y406637D01*
X560878Y406006D01*
X560823Y405923D01*
X560752Y405852D01*
X560256Y405110D01*
X560218Y405017D01*
X560162Y404934D01*
X559821Y404110D01*
X559801Y404011D01*
X559763Y403919D01*
X559589Y403044D01*
Y402943D01*
X559569Y402845D01*
Y401953D01*
X559589Y401855D01*
Y401754D01*
X559763Y400879D01*
X559801Y400787D01*
X559821Y400688D01*
X560162Y399864D01*
X560218Y399781D01*
X560256Y399688D01*
X560752Y398946D01*
X560823Y398875D01*
X560878Y398792D01*
X561509Y398161D01*
X561593Y398106D01*
X561663Y398035D01*
X562405Y397539D01*
X562498Y397500D01*
X562581Y397445D01*
X563405Y397104D01*
X563504Y397084D01*
X563597Y397045D01*
X564471Y396871D01*
X564572D01*
X564670Y396852D01*
X565562D01*
X565661Y396871D01*
X565761D01*
X566636Y397045D01*
X566728Y397084D01*
X566827Y397104D01*
X567651Y397445D01*
X567734Y397500D01*
X567827Y397539D01*
X568569Y398035D01*
X568640Y398106D01*
X568723Y398161D01*
X569354Y398792D01*
X569410Y398875D01*
X569481Y398946D01*
X569976Y399688D01*
X570015Y399781D01*
X570070Y399864D01*
X570412Y400688D01*
X570431Y400787D01*
X570470Y400879D01*
X570644Y401754D01*
Y401855D01*
X570663Y401953D01*
Y402845D01*
X570644Y402943D01*
Y403044D01*
X570470Y403919D01*
X570431Y404011D01*
X570412Y404110D01*
X570070Y404934D01*
X570015Y405017D01*
X569976Y405110D01*
X569481Y405852D01*
X569410Y405923D01*
X569354Y406006D01*
X568723Y406637D01*
X568640Y406693D01*
X568569Y406764D01*
X567827Y407259D01*
X567734Y407298D01*
X567651Y407353D01*
X566827Y407694D01*
X566728Y407714D01*
X566636Y407753D01*
X565761Y407927D01*
X565661D01*
X565562Y407946D01*
D02*
G37*
G36*
X646859Y577941D02*
X646318Y577833D01*
X645860Y577527D01*
X645554Y577068D01*
X645446Y576528D01*
X645554Y575987D01*
X645860Y575528D01*
X646318Y575222D01*
X646859Y575115D01*
X647400Y575222D01*
X647858Y575528D01*
X648165Y575987D01*
X648272Y576528D01*
X648165Y577068D01*
X647858Y577527D01*
X647400Y577833D01*
X646859Y577941D01*
D02*
G37*
G36*
X653621Y577782D02*
X653081Y577674D01*
X652622Y577368D01*
X652316Y576910D01*
X652209Y576369D01*
X652316Y575828D01*
X652622Y575370D01*
X653081Y575064D01*
X653621Y574956D01*
X654162Y575064D01*
X654621Y575370D01*
X654927Y575828D01*
X655034Y576369D01*
X654927Y576910D01*
X654621Y577368D01*
X654162Y577674D01*
X653621Y577782D01*
D02*
G37*
G36*
X660621Y575282D02*
X660081Y575175D01*
X659622Y574868D01*
X659316Y574410D01*
X659208Y573869D01*
X659316Y573328D01*
X659622Y572870D01*
X660081Y572564D01*
X660621Y572456D01*
X661162Y572564D01*
X661621Y572870D01*
X661927Y573328D01*
X662034Y573869D01*
X661927Y574410D01*
X661621Y574868D01*
X661162Y575175D01*
X660621Y575282D01*
D02*
G37*
G36*
X653121Y572782D02*
X652581Y572675D01*
X652122Y572368D01*
X651816Y571910D01*
X651709Y571369D01*
X651816Y570828D01*
X652122Y570370D01*
X652581Y570064D01*
X653121Y569956D01*
X653662Y570064D01*
X654121Y570370D01*
X654427Y570828D01*
X654534Y571369D01*
X654427Y571910D01*
X654121Y572368D01*
X653662Y572675D01*
X653121Y572782D01*
D02*
G37*
G36*
X646859Y572453D02*
X646318Y572346D01*
X645860Y572040D01*
X645554Y571581D01*
X645446Y571040D01*
X645554Y570500D01*
X645860Y570041D01*
X646318Y569735D01*
X646859Y569628D01*
X647400Y569735D01*
X647858Y570041D01*
X648165Y570500D01*
X648272Y571040D01*
X648165Y571581D01*
X647858Y572040D01*
X647400Y572346D01*
X646859Y572453D01*
D02*
G37*
G36*
X668121Y569282D02*
X667581Y569174D01*
X667122Y568868D01*
X666816Y568410D01*
X666709Y567869D01*
X666816Y567328D01*
X667122Y566870D01*
X667581Y566564D01*
X668121Y566456D01*
X668662Y566564D01*
X669121Y566870D01*
X669427Y567328D01*
X669534Y567869D01*
X669427Y568410D01*
X669121Y568868D01*
X668662Y569174D01*
X668121Y569282D01*
D02*
G37*
G36*
X659621Y568782D02*
X659081Y568675D01*
X658622Y568368D01*
X658316Y567910D01*
X658209Y567369D01*
X658316Y566828D01*
X658622Y566370D01*
X659081Y566064D01*
X659621Y565956D01*
X660162Y566064D01*
X660621Y566370D01*
X660927Y566828D01*
X661034Y567369D01*
X660927Y567910D01*
X660621Y568368D01*
X660162Y568675D01*
X659621Y568782D01*
D02*
G37*
G36*
X665121Y564782D02*
X664581Y564675D01*
X664122Y564368D01*
X663816Y563910D01*
X663708Y563369D01*
X663816Y562828D01*
X664122Y562370D01*
X664581Y562064D01*
X665121Y561956D01*
X665662Y562064D01*
X666121Y562370D01*
X666427Y562828D01*
X666534Y563369D01*
X666427Y563910D01*
X666121Y564368D01*
X665662Y564675D01*
X665121Y564782D01*
D02*
G37*
G36*
X674621Y562782D02*
X674081Y562675D01*
X673622Y562368D01*
X673316Y561910D01*
X673209Y561369D01*
X673316Y560828D01*
X673622Y560370D01*
X674081Y560064D01*
X674621Y559956D01*
X675162Y560064D01*
X675621Y560370D01*
X675927Y560828D01*
X676034Y561369D01*
X675927Y561910D01*
X675621Y562368D01*
X675162Y562675D01*
X674621Y562782D01*
D02*
G37*
G36*
X669121Y560282D02*
X668581Y560175D01*
X668122Y559868D01*
X667816Y559410D01*
X667708Y558869D01*
X667816Y558328D01*
X668122Y557870D01*
X668581Y557564D01*
X669121Y557456D01*
X669662Y557564D01*
X670121Y557870D01*
X670427Y558328D01*
X670534Y558869D01*
X670427Y559410D01*
X670121Y559868D01*
X669662Y560175D01*
X669121Y560282D01*
D02*
G37*
G36*
X678621Y555782D02*
X678081Y555675D01*
X677622Y555368D01*
X677316Y554910D01*
X677209Y554369D01*
X677316Y553828D01*
X677622Y553370D01*
X678081Y553064D01*
X678621Y552956D01*
X679162Y553064D01*
X679621Y553370D01*
X679927Y553828D01*
X680034Y554369D01*
X679927Y554910D01*
X679621Y555368D01*
X679162Y555675D01*
X678621Y555782D01*
D02*
G37*
G36*
X672280Y554670D02*
X671740Y554562D01*
X671281Y554256D01*
X670975Y553798D01*
X670867Y553257D01*
X670975Y552716D01*
X671281Y552258D01*
X671740Y551952D01*
X672280Y551844D01*
X672821Y551952D01*
X673279Y552258D01*
X673586Y552716D01*
X673693Y553257D01*
X673586Y553798D01*
X673279Y554256D01*
X672821Y554562D01*
X672280Y554670D01*
D02*
G37*
G36*
X674621Y547782D02*
X674081Y547675D01*
X673622Y547368D01*
X673316Y546910D01*
X673209Y546369D01*
X673316Y545828D01*
X673622Y545370D01*
X674081Y545064D01*
X674621Y544956D01*
X675162Y545064D01*
X675621Y545370D01*
X675927Y545828D01*
X676034Y546369D01*
X675927Y546910D01*
X675621Y547368D01*
X675162Y547675D01*
X674621Y547782D01*
D02*
G37*
G36*
X644694Y542871D02*
X644153Y542764D01*
X643695Y542457D01*
X643388Y541999D01*
X643281Y541458D01*
X643388Y540917D01*
X643695Y540459D01*
X644153Y540153D01*
X644694Y540045D01*
X645234Y540153D01*
X645693Y540459D01*
X645999Y540917D01*
X646107Y541458D01*
X645999Y541999D01*
X645693Y542457D01*
X645234Y542764D01*
X644694Y542871D01*
D02*
G37*
G36*
X674121Y541782D02*
X673581Y541675D01*
X673122Y541368D01*
X672816Y540910D01*
X672709Y540369D01*
X672816Y539828D01*
X673122Y539370D01*
X673581Y539064D01*
X674121Y538956D01*
X674662Y539064D01*
X675121Y539370D01*
X675427Y539828D01*
X675534Y540369D01*
X675427Y540910D01*
X675121Y541368D01*
X674662Y541675D01*
X674121Y541782D01*
D02*
G37*
G36*
X680121Y541282D02*
X679581Y541175D01*
X679122Y540868D01*
X678816Y540410D01*
X678709Y539869D01*
X678816Y539328D01*
X679122Y538870D01*
X679581Y538564D01*
X680121Y538456D01*
X680662Y538564D01*
X681121Y538870D01*
X681427Y539328D01*
X681534Y539869D01*
X681427Y540410D01*
X681121Y540868D01*
X680662Y541175D01*
X680121Y541282D01*
D02*
G37*
G36*
X673621Y535282D02*
X673081Y535175D01*
X672622Y534868D01*
X672316Y534410D01*
X672208Y533869D01*
X672316Y533328D01*
X672622Y532870D01*
X673081Y532564D01*
X673621Y532456D01*
X674162Y532564D01*
X674621Y532870D01*
X674927Y533328D01*
X675034Y533869D01*
X674927Y534410D01*
X674621Y534868D01*
X674162Y535175D01*
X673621Y535282D01*
D02*
G37*
G36*
X678121Y534282D02*
X677581Y534174D01*
X677122Y533868D01*
X676816Y533410D01*
X676709Y532869D01*
X676816Y532328D01*
X677122Y531870D01*
X677581Y531564D01*
X678121Y531456D01*
X678662Y531564D01*
X679121Y531870D01*
X679427Y532328D01*
X679534Y532869D01*
X679427Y533410D01*
X679121Y533868D01*
X678662Y534174D01*
X678121Y534282D01*
D02*
G37*
G36*
X670121Y529782D02*
X669581Y529674D01*
X669122Y529368D01*
X668816Y528910D01*
X668709Y528369D01*
X668816Y527828D01*
X669122Y527370D01*
X669581Y527064D01*
X670121Y526956D01*
X670662Y527064D01*
X671121Y527370D01*
X671427Y527828D01*
X671534Y528369D01*
X671427Y528910D01*
X671121Y529368D01*
X670662Y529674D01*
X670121Y529782D01*
D02*
G37*
G36*
X675121Y527782D02*
X674581Y527674D01*
X674122Y527368D01*
X673816Y526910D01*
X673708Y526369D01*
X673816Y525828D01*
X674122Y525370D01*
X674581Y525064D01*
X675121Y524956D01*
X675662Y525064D01*
X676121Y525370D01*
X676427Y525828D01*
X676534Y526369D01*
X676427Y526910D01*
X676121Y527368D01*
X675662Y527674D01*
X675121Y527782D01*
D02*
G37*
G36*
X665621Y524782D02*
X665081Y524675D01*
X664622Y524368D01*
X664316Y523910D01*
X664209Y523369D01*
X664316Y522828D01*
X664622Y522370D01*
X665081Y522064D01*
X665621Y521956D01*
X666162Y522064D01*
X666621Y522370D01*
X666927Y522828D01*
X667034Y523369D01*
X666927Y523910D01*
X666621Y524368D01*
X666162Y524675D01*
X665621Y524782D01*
D02*
G37*
G36*
X670121Y521782D02*
X669581Y521674D01*
X669122Y521368D01*
X668816Y520910D01*
X668709Y520369D01*
X668816Y519828D01*
X669122Y519370D01*
X669581Y519064D01*
X670121Y518956D01*
X670662Y519064D01*
X671121Y519370D01*
X671427Y519828D01*
X671534Y520369D01*
X671427Y520910D01*
X671121Y521368D01*
X670662Y521674D01*
X670121Y521782D01*
D02*
G37*
G36*
X660621D02*
X660081Y521674D01*
X659622Y521368D01*
X659316Y520910D01*
X659208Y520369D01*
X659316Y519828D01*
X659622Y519370D01*
X660081Y519064D01*
X660621Y518956D01*
X661162Y519064D01*
X661621Y519370D01*
X661927Y519828D01*
X662034Y520369D01*
X661927Y520910D01*
X661621Y521368D01*
X661162Y521674D01*
X660621Y521782D01*
D02*
G37*
G36*
X655621Y519782D02*
X655081Y519674D01*
X654622Y519368D01*
X654316Y518910D01*
X654209Y518369D01*
X654316Y517828D01*
X654622Y517370D01*
X655081Y517064D01*
X655621Y516956D01*
X656162Y517064D01*
X656621Y517370D01*
X656927Y517828D01*
X657034Y518369D01*
X656927Y518910D01*
X656621Y519368D01*
X656162Y519674D01*
X655621Y519782D01*
D02*
G37*
G36*
X650621Y518282D02*
X650081Y518175D01*
X649622Y517868D01*
X649316Y517410D01*
X649208Y516869D01*
X649316Y516328D01*
X649622Y515870D01*
X650081Y515564D01*
X650621Y515456D01*
X651162Y515564D01*
X651621Y515870D01*
X651927Y516328D01*
X652034Y516869D01*
X651927Y517410D01*
X651621Y517868D01*
X651162Y518175D01*
X650621Y518282D01*
D02*
G37*
G36*
X664121Y517282D02*
X663581Y517174D01*
X663122Y516868D01*
X662816Y516410D01*
X662709Y515869D01*
X662816Y515328D01*
X663122Y514870D01*
X663581Y514564D01*
X664121Y514456D01*
X664662Y514564D01*
X665121Y514870D01*
X665427Y515328D01*
X665534Y515869D01*
X665427Y516410D01*
X665121Y516868D01*
X664662Y517174D01*
X664121Y517282D01*
D02*
G37*
G36*
X646859Y516034D02*
X646318Y515926D01*
X645860Y515620D01*
X645554Y515162D01*
X645446Y514621D01*
X645554Y514080D01*
X645860Y513622D01*
X646318Y513315D01*
X646859Y513208D01*
X647400Y513315D01*
X647858Y513622D01*
X648165Y514080D01*
X648272Y514621D01*
X648165Y515162D01*
X647858Y515620D01*
X647400Y515926D01*
X646859Y516034D01*
D02*
G37*
G36*
X658121Y514782D02*
X657581Y514675D01*
X657122Y514368D01*
X656816Y513910D01*
X656708Y513369D01*
X656816Y512828D01*
X657122Y512370D01*
X657581Y512064D01*
X658121Y511956D01*
X658662Y512064D01*
X659121Y512370D01*
X659427Y512828D01*
X659534Y513369D01*
X659427Y513910D01*
X659121Y514368D01*
X658662Y514675D01*
X658121Y514782D01*
D02*
G37*
G36*
X652621Y512782D02*
X652081Y512675D01*
X651622Y512368D01*
X651316Y511910D01*
X651208Y511369D01*
X651316Y510828D01*
X651622Y510370D01*
X652081Y510064D01*
X652621Y509956D01*
X653162Y510064D01*
X653621Y510370D01*
X653927Y510828D01*
X654034Y511369D01*
X653927Y511910D01*
X653621Y512368D01*
X653162Y512675D01*
X652621Y512782D01*
D02*
G37*
G36*
X671896Y464822D02*
X670347Y464670D01*
X668858Y464218D01*
X667486Y463485D01*
X666283Y462497D01*
X665295Y461295D01*
X664562Y459922D01*
X664110Y458433D01*
X663958Y456884D01*
Y451884D01*
X664110Y450336D01*
X664562Y448846D01*
X665295Y447474D01*
X666283Y446271D01*
X667486Y445284D01*
X668858Y444550D01*
X670347Y444099D01*
X671896Y443946D01*
X673444Y444099D01*
X674933Y444550D01*
X676306Y445284D01*
X677509Y446271D01*
X678496Y447474D01*
X679230Y448846D01*
X679681Y450336D01*
X679834Y451884D01*
Y456884D01*
X679681Y458433D01*
X679230Y459922D01*
X678496Y461295D01*
X677509Y462497D01*
X676306Y463485D01*
X674933Y464218D01*
X673444Y464670D01*
X671896Y464822D01*
D02*
G37*
G36*
X650565D02*
X649017Y464670D01*
X647527Y464218D01*
X646155Y463485D01*
X644952Y462497D01*
X643965Y461295D01*
X643231Y459922D01*
X642779Y458433D01*
X642627Y456884D01*
Y451884D01*
X642779Y450336D01*
X643231Y448846D01*
X643965Y447474D01*
X644952Y446271D01*
X646155Y445284D01*
X647527Y444550D01*
X649017Y444099D01*
X650565Y443946D01*
X652114Y444099D01*
X653603Y444550D01*
X654976Y445284D01*
X656178Y446271D01*
X657166Y447474D01*
X657899Y448846D01*
X658351Y450336D01*
X658503Y451884D01*
Y456884D01*
X658351Y458433D01*
X657899Y459922D01*
X657166Y461295D01*
X656178Y462497D01*
X654976Y463485D01*
X653603Y464218D01*
X652114Y464670D01*
X650565Y464822D01*
D02*
G37*
G36*
Y442455D02*
X649286Y442287D01*
X648094Y441793D01*
X647071Y441008D01*
X646285Y439984D01*
X645791Y438792D01*
X645623Y437513D01*
X645791Y436234D01*
X646285Y435042D01*
X647071Y434018D01*
X648094Y433233D01*
X649286Y432739D01*
X650565Y432571D01*
X651844Y432739D01*
X653036Y433233D01*
X654060Y434018D01*
X654845Y435042D01*
X655339Y436234D01*
X655508Y437513D01*
X655339Y438792D01*
X654845Y439984D01*
X654060Y441008D01*
X653036Y441793D01*
X651844Y442287D01*
X650565Y442455D01*
D02*
G37*
G36*
X680761Y442434D02*
X679482Y442266D01*
X678290Y441772D01*
X677266Y440987D01*
X676481Y439963D01*
X675987Y438771D01*
X675819Y437492D01*
X675987Y436213D01*
X676481Y435021D01*
X677266Y433997D01*
X678290Y433212D01*
X679482Y432718D01*
X680761Y432550D01*
X682040Y432718D01*
X683232Y433212D01*
X684256Y433997D01*
X685041Y435021D01*
X685535Y436213D01*
X685703Y437492D01*
X685535Y438771D01*
X685041Y439963D01*
X684256Y440987D01*
X683232Y441772D01*
X682040Y442266D01*
X680761Y442434D01*
D02*
G37*
G36*
X620328D02*
X619049Y442266D01*
X617857Y441772D01*
X616833Y440987D01*
X616048Y439963D01*
X615554Y438771D01*
X615386Y437492D01*
X615554Y436213D01*
X616048Y435021D01*
X616833Y433997D01*
X617857Y433212D01*
X619049Y432718D01*
X620328Y432550D01*
X621607Y432718D01*
X622799Y433212D01*
X623823Y433997D01*
X624608Y435021D01*
X625102Y436213D01*
X625270Y437492D01*
X625102Y438771D01*
X624608Y439963D01*
X623823Y440987D01*
X622799Y441772D01*
X621607Y442266D01*
X620328Y442434D01*
D02*
G37*
G36*
X678461Y430871D02*
X677182Y430703D01*
X675990Y430209D01*
X674966Y429424D01*
X674181Y428400D01*
X673687Y427208D01*
X673519Y425929D01*
X673687Y424650D01*
X674181Y423458D01*
X674966Y422434D01*
X675990Y421649D01*
X677182Y421155D01*
X678461Y420987D01*
X679740Y421155D01*
X680932Y421649D01*
X681956Y422434D01*
X682741Y423458D01*
X683235Y424650D01*
X683403Y425929D01*
X683235Y427208D01*
X682741Y428400D01*
X681956Y429424D01*
X680932Y430209D01*
X679740Y430703D01*
X678461Y430871D01*
D02*
G37*
G36*
X622628D02*
X621349Y430703D01*
X620157Y430209D01*
X619133Y429424D01*
X618348Y428400D01*
X617854Y427208D01*
X617686Y425929D01*
X617854Y424650D01*
X618348Y423458D01*
X619133Y422434D01*
X620157Y421649D01*
X621349Y421155D01*
X622628Y420987D01*
X623907Y421155D01*
X625099Y421649D01*
X626123Y422434D01*
X626908Y423458D01*
X627402Y424650D01*
X627570Y425929D01*
X627402Y427208D01*
X626908Y428400D01*
X626123Y429424D01*
X625099Y430209D01*
X623907Y430703D01*
X622628Y430871D01*
D02*
G37*
G36*
X671911Y421068D02*
X670632Y420900D01*
X669440Y420406D01*
X668416Y419621D01*
X667631Y418597D01*
X667137Y417405D01*
X666969Y416126D01*
X667137Y414847D01*
X667631Y413655D01*
X668416Y412631D01*
X669440Y411846D01*
X670632Y411352D01*
X671911Y411184D01*
X673190Y411352D01*
X674382Y411846D01*
X675406Y412631D01*
X676191Y413655D01*
X676685Y414847D01*
X676853Y416126D01*
X676685Y417405D01*
X676191Y418597D01*
X675406Y419621D01*
X674382Y420406D01*
X673190Y420900D01*
X671911Y421068D01*
D02*
G37*
G36*
X629178D02*
X627899Y420900D01*
X626707Y420406D01*
X625683Y419621D01*
X624898Y418597D01*
X624404Y417405D01*
X624236Y416126D01*
X624404Y414847D01*
X624898Y413655D01*
X625683Y412631D01*
X626707Y411846D01*
X627899Y411352D01*
X629178Y411184D01*
X630457Y411352D01*
X631649Y411846D01*
X632673Y412631D01*
X633458Y413655D01*
X633952Y414847D01*
X634121Y416126D01*
X633952Y417405D01*
X633458Y418597D01*
X632673Y419621D01*
X631649Y420406D01*
X630457Y420900D01*
X629178Y421068D01*
D02*
G37*
G36*
X662108Y414518D02*
X660829Y414350D01*
X659637Y413856D01*
X658613Y413070D01*
X657828Y412047D01*
X657334Y410855D01*
X657166Y409576D01*
X657334Y408296D01*
X657828Y407104D01*
X658613Y406081D01*
X659637Y405296D01*
X660829Y404802D01*
X662108Y404633D01*
X663387Y404802D01*
X664579Y405296D01*
X665603Y406081D01*
X666388Y407104D01*
X666882Y408296D01*
X667050Y409576D01*
X666882Y410855D01*
X666388Y412047D01*
X665603Y413070D01*
X664579Y413856D01*
X663387Y414350D01*
X662108Y414518D01*
D02*
G37*
G36*
X638981D02*
X637702Y414350D01*
X636510Y413856D01*
X635487Y413070D01*
X634701Y412047D01*
X634207Y410855D01*
X634039Y409576D01*
X634207Y408296D01*
X634701Y407104D01*
X635487Y406081D01*
X636510Y405296D01*
X637702Y404802D01*
X638981Y404633D01*
X640260Y404802D01*
X641452Y405296D01*
X642476Y406081D01*
X643261Y407104D01*
X643755Y408296D01*
X643924Y409576D01*
X643755Y410855D01*
X643261Y412047D01*
X642476Y413070D01*
X641452Y413856D01*
X640260Y414350D01*
X638981Y414518D01*
D02*
G37*
G36*
X650545Y412218D02*
X649265Y412049D01*
X648073Y411556D01*
X647050Y410770D01*
X646264Y409747D01*
X645771Y408555D01*
X645602Y407276D01*
X645771Y405996D01*
X646264Y404804D01*
X647050Y403781D01*
X648073Y402995D01*
X649265Y402502D01*
X650545Y402333D01*
X651824Y402502D01*
X653016Y402995D01*
X654039Y403781D01*
X654825Y404804D01*
X655318Y405996D01*
X655487Y407276D01*
X655318Y408555D01*
X654825Y409747D01*
X654039Y410770D01*
X653016Y411556D01*
X651824Y412049D01*
X650545Y412218D01*
D02*
G37*
%LPD*%
D43*
X629338Y454384D02*
D03*
D51*
X553374Y440024D02*
D03*
D54*
X559626Y483126D02*
D03*
D55*
X532000Y478500D02*
D03*
D57*
X527000Y573000D02*
D03*
D58*
X552000Y467500D02*
D03*
D60*
X598551Y549665D02*
D03*
Y583681D02*
D03*
X583591D02*
D03*
Y549665D02*
D03*
D62*
X548500Y405500D02*
D03*
D64*
X522406Y521292D02*
D03*
X599394Y480235D02*
D03*
X596579Y449130D02*
D03*
X587259Y487096D02*
D03*
X558500Y513500D02*
D03*
X532000Y469586D02*
D03*
X552500Y528000D02*
D03*
X561500Y498200D02*
D03*
X527500Y581500D02*
D03*
X602500Y567000D02*
D03*
X558000Y528000D02*
D03*
X595552Y533135D02*
D03*
X606000Y415000D02*
D03*
X529000Y451500D02*
D03*
X545500Y472000D02*
D03*
X586500Y513500D02*
D03*
X524500Y526500D02*
D03*
X635621Y530869D02*
D03*
X635796Y543108D02*
D03*
X627621Y549369D02*
D03*
X630121Y555369D02*
D03*
X636621Y560869D02*
D03*
X643121Y563869D02*
D03*
X645621Y557369D02*
D03*
X642121Y556369D02*
D03*
X638121Y554369D02*
D03*
X634121Y551369D02*
D03*
X631621Y547869D02*
D03*
X635621Y534869D02*
D03*
X628121Y536369D02*
D03*
X632621Y537869D02*
D03*
X626768Y543108D02*
D03*
X630811D02*
D03*
D65*
X663734Y437492D02*
D03*
X659871Y428166D02*
D03*
X650545Y424303D02*
D03*
X643388Y420215D02*
D03*
X637356Y437492D02*
D03*
X667822Y430336D02*
D03*
X657701Y420215D02*
D03*
X641219Y428166D02*
D03*
X633267Y430336D02*
D03*
M02*
