G04*
G04 #@! TF.GenerationSoftware,Altium Limited,Altium Designer,20.0.13 (296)*
G04*
G04 Layer_Physical_Order=3*
G04 Layer_Color=16440176*
%FSLAX25Y25*%
%MOIN*%
G70*
G01*
G75*
%ADD30C,0.00400*%
%ADD31C,0.03000*%
%ADD33C,0.04000*%
%ADD35C,0.02000*%
%ADD43O,0.15000X0.20000*%
%ADD46C,0.15000*%
%ADD54C,0.05512*%
%ADD59C,0.06555*%
%ADD61C,0.18000*%
%ADD64C,0.01772*%
%ADD65C,0.09000*%
%ADD66C,0.10000*%
%ADD67C,0.18000*%
%ADD68C,0.06000*%
%ADD69R,0.05118X0.09055*%
G36*
X609120Y574900D02*
X609181Y574593D01*
X609355Y574333D01*
X609615Y574158D01*
X609908Y574100D01*
Y512113D01*
X609610Y512054D01*
X609349Y511880D01*
X609175Y511619D01*
X609114Y511312D01*
Y472444D01*
X609175Y472137D01*
X609349Y471876D01*
X609610Y471702D01*
X609908Y471643D01*
Y403351D01*
X609600Y403290D01*
X609443Y403185D01*
X609023Y403196D01*
X608825Y403246D01*
X608786Y403312D01*
X608855Y403540D01*
X609048Y405500D01*
X608855Y407460D01*
X608284Y409345D01*
X607355Y411083D01*
X606105Y412605D01*
X606256Y413128D01*
X606736Y413224D01*
X607360Y413640D01*
X607776Y414264D01*
X607923Y415000D01*
X607776Y415736D01*
X607360Y416360D01*
X606736Y416776D01*
X606000Y416923D01*
X605264Y416776D01*
X604640Y416360D01*
X604224Y415736D01*
X604077Y415000D01*
X604146Y414655D01*
X603701Y414326D01*
X602845Y414783D01*
X600960Y415355D01*
X599000Y415548D01*
X597040Y415355D01*
X595155Y414783D01*
X593417Y413855D01*
X591895Y412605D01*
X590645Y411083D01*
X589716Y409345D01*
X589145Y407460D01*
X588952Y405500D01*
X589145Y403540D01*
X589716Y401655D01*
X590645Y399917D01*
X591895Y398395D01*
X593417Y397145D01*
X595155Y396217D01*
X596436Y395828D01*
X596362Y395328D01*
X533638D01*
X533564Y395828D01*
X534845Y396217D01*
X536583Y397145D01*
X538105Y398395D01*
X539355Y399917D01*
X540283Y401655D01*
X540855Y403540D01*
X541048Y405500D01*
X540855Y407460D01*
X540283Y409345D01*
X539355Y411083D01*
X539088Y411408D01*
X539188Y411529D01*
X539377Y411883D01*
X539959Y411911D01*
X540140Y411640D01*
X540764Y411224D01*
X541500Y411077D01*
X542236Y411224D01*
X542860Y411640D01*
X543276Y412264D01*
X543423Y413000D01*
X543276Y413736D01*
X542993Y414160D01*
X543242Y414660D01*
X544000D01*
X545627Y414820D01*
X547192Y415295D01*
X548633Y416065D01*
X549897Y417103D01*
X550935Y418366D01*
X551705Y419808D01*
X552180Y421373D01*
X552340Y423000D01*
X552180Y424627D01*
X551705Y426192D01*
X550935Y427633D01*
X549897Y428897D01*
X548633Y429935D01*
X547192Y430705D01*
X545627Y431180D01*
X544000Y431340D01*
X540847D01*
Y436111D01*
X540703Y437572D01*
X541211Y438080D01*
X541690Y437934D01*
X541724Y437764D01*
X542140Y437140D01*
X542764Y436724D01*
X543500Y436577D01*
X544236Y436724D01*
X544860Y437140D01*
X545276Y437764D01*
X545423Y438500D01*
X545276Y439236D01*
X544860Y439860D01*
X544236Y440276D01*
X544066Y440310D01*
X543920Y440789D01*
X549011Y445879D01*
X549247Y446167D01*
X563912D01*
X565053Y445027D01*
Y444207D01*
X564667Y443890D01*
X564500Y443923D01*
X563764Y443776D01*
X563140Y443360D01*
X562724Y442736D01*
X562577Y442000D01*
X562724Y441264D01*
X563140Y440640D01*
X563764Y440224D01*
X564500Y440077D01*
X565236Y440224D01*
X565860Y440640D01*
X566481Y440670D01*
X566969Y440295D01*
X567894Y439912D01*
X568886Y439781D01*
X569878Y439912D01*
X570802Y440295D01*
X571596Y440904D01*
X572205Y441698D01*
X572588Y442622D01*
X572719Y443614D01*
Y446614D01*
X572588Y447606D01*
X572205Y448531D01*
X571596Y449324D01*
X568210Y452710D01*
X567416Y453319D01*
X567015Y453485D01*
X566918Y453976D01*
X567916Y454974D01*
X568578Y454933D01*
X568949Y454449D01*
X569843Y453764D01*
X570883Y453333D01*
X572000Y453186D01*
X573117Y453333D01*
X574157Y453764D01*
X575051Y454449D01*
X575736Y455343D01*
X576167Y456383D01*
X576314Y457500D01*
X576295Y457647D01*
X576480Y457805D01*
X576980Y457575D01*
Y438180D01*
X576459Y437658D01*
X575961Y437707D01*
X575860Y437860D01*
X575236Y438276D01*
X574500Y438423D01*
X573764Y438276D01*
X573140Y437860D01*
X572724Y437236D01*
X572577Y436500D01*
X572600Y436386D01*
X572192Y435872D01*
X572115Y435856D01*
X571784Y435635D01*
X563111Y426961D01*
X562590Y426989D01*
X562302Y427394D01*
X562423Y428000D01*
X562276Y428736D01*
X561860Y429360D01*
X561236Y429776D01*
X560500Y429923D01*
X559764Y429776D01*
X559140Y429360D01*
X558724Y428736D01*
X558577Y428000D01*
X558724Y427264D01*
X559140Y426640D01*
X559764Y426224D01*
X560396Y426098D01*
X560584Y425908D01*
X560731Y425613D01*
X560609Y425000D01*
X560755Y424264D01*
X561172Y423640D01*
X561796Y423224D01*
X562532Y423077D01*
X563267Y423224D01*
X563891Y423640D01*
X564308Y424264D01*
X564454Y425000D01*
X564384Y425351D01*
X572928Y433895D01*
X575157D01*
X575547Y433972D01*
X575878Y434193D01*
X577519Y435834D01*
X577980Y435642D01*
Y430419D01*
X577264Y430276D01*
X576640Y429860D01*
X576224Y429236D01*
X576077Y428500D01*
X576224Y427764D01*
X576640Y427140D01*
X577264Y426724D01*
X578000Y426577D01*
X578180Y426613D01*
X578566Y426296D01*
Y423383D01*
X578644Y422993D01*
X578865Y422662D01*
X586126Y415401D01*
X586046Y415000D01*
X586192Y414264D01*
X586609Y413640D01*
X587233Y413224D01*
X587968Y413077D01*
X588704Y413224D01*
X589328Y413640D01*
X589745Y414264D01*
X589891Y415000D01*
X589745Y415736D01*
X589328Y416360D01*
X588704Y416776D01*
X587968Y416923D01*
X587567Y416843D01*
X580605Y423805D01*
Y429157D01*
X580528Y429547D01*
X580307Y429878D01*
X580020Y430165D01*
Y450081D01*
X580736Y450224D01*
X581360Y450640D01*
X581776Y451264D01*
X581923Y452000D01*
X581776Y452736D01*
X581751Y452774D01*
X582071Y453195D01*
X583117Y453333D01*
X584157Y453764D01*
X585051Y454449D01*
X585480Y455009D01*
X585980Y454839D01*
Y447144D01*
X585594Y446826D01*
X585500Y446845D01*
X584603Y446667D01*
X583842Y446158D01*
X583333Y445397D01*
X583155Y444500D01*
X583333Y443603D01*
X583842Y442842D01*
X594342Y432342D01*
X595103Y431833D01*
X596000Y431655D01*
X596647Y431784D01*
X597158Y431777D01*
X597379Y431447D01*
X600291Y428535D01*
X600211Y428134D01*
X600357Y427398D01*
X600774Y426774D01*
X601398Y426357D01*
X602134Y426211D01*
X602870Y426357D01*
X603493Y426774D01*
X603910Y427398D01*
X604057Y428134D01*
X603910Y428870D01*
X603493Y429494D01*
X602870Y429910D01*
X602134Y430057D01*
X601733Y429977D01*
X599120Y432590D01*
Y434870D01*
X599042Y435260D01*
X598821Y435591D01*
X588020Y446392D01*
Y471170D01*
X588520Y471321D01*
X588640Y471140D01*
X589264Y470724D01*
X590000Y470577D01*
X590736Y470724D01*
X591360Y471140D01*
X591776Y471764D01*
X591923Y472500D01*
X591776Y473236D01*
X591360Y473860D01*
X590736Y474276D01*
X590000Y474423D01*
X589264Y474276D01*
X588640Y473860D01*
X588520Y473679D01*
X588020Y473831D01*
Y482500D01*
X587942Y482890D01*
X587721Y483221D01*
X585725Y485217D01*
X585734Y485246D01*
X586317Y485457D01*
X586523Y485320D01*
X587259Y485173D01*
X587995Y485320D01*
X588618Y485736D01*
X589035Y486360D01*
X589077Y486569D01*
X589140Y486622D01*
X589624Y486756D01*
X590078Y486407D01*
X590800Y486108D01*
X591575Y486006D01*
X592350Y486108D01*
X593072Y486407D01*
X593692Y486883D01*
X594168Y487503D01*
X594467Y488225D01*
X594569Y489000D01*
X594467Y489775D01*
X594168Y490497D01*
X593692Y491117D01*
X593072Y491593D01*
X592350Y491892D01*
X591575Y491994D01*
X590800Y491892D01*
X590078Y491593D01*
X589458Y491117D01*
X588982Y490497D01*
X588683Y489775D01*
X588591Y489076D01*
X588378Y488915D01*
X588103Y488800D01*
X587995Y488872D01*
X587259Y489019D01*
X586523Y488872D01*
X585899Y488456D01*
X585482Y487832D01*
X585405Y487443D01*
X584874Y487338D01*
X584860Y487360D01*
X584236Y487776D01*
X583500Y487923D01*
X582820Y487787D01*
X582665Y487825D01*
X582320Y488010D01*
Y493929D01*
X582500Y494077D01*
X583236Y494224D01*
X583665Y494510D01*
X584210Y494333D01*
X584224Y494264D01*
X584640Y493640D01*
X585264Y493224D01*
X586000Y493077D01*
X586736Y493224D01*
X587360Y493640D01*
X587776Y494264D01*
X587923Y495000D01*
X587776Y495736D01*
X587360Y496360D01*
X586736Y496776D01*
X586000Y496923D01*
X585599Y496843D01*
X582320Y500122D01*
Y505200D01*
X582242Y505590D01*
X582021Y505921D01*
X573551Y514391D01*
Y524382D01*
X573891Y524609D01*
X574308Y525233D01*
X574454Y525969D01*
X574308Y526704D01*
X573891Y527328D01*
X573267Y527745D01*
X572532Y527891D01*
X571796Y527745D01*
X571172Y527328D01*
X570755Y526704D01*
X570609Y525969D01*
X570755Y525233D01*
X571172Y524609D01*
X571512Y524382D01*
Y515826D01*
X571050Y515635D01*
X568933Y517752D01*
X569078Y518230D01*
X569204Y518255D01*
X569828Y518672D01*
X570245Y519296D01*
X570391Y520031D01*
X570245Y520767D01*
X569828Y521391D01*
X569488Y521618D01*
Y553945D01*
X569828Y554172D01*
X570245Y554796D01*
X570391Y555532D01*
X570245Y556267D01*
X569828Y556891D01*
X569204Y557308D01*
X568469Y557454D01*
X567733Y557308D01*
X567109Y556891D01*
X566692Y556267D01*
X566546Y555532D01*
X566692Y554796D01*
X567109Y554172D01*
X567449Y553945D01*
Y521618D01*
X567109Y521391D01*
X566692Y520767D01*
X566546Y520031D01*
X566072Y520020D01*
X557587D01*
X557360Y520360D01*
X556736Y520776D01*
X556000Y520923D01*
X555264Y520776D01*
X554640Y520360D01*
X554224Y519736D01*
X554077Y519000D01*
X554224Y518264D01*
X554640Y517640D01*
X555264Y517224D01*
X556000Y517077D01*
X556736Y517224D01*
X557360Y517640D01*
X557587Y517980D01*
X565820D01*
X572342Y511459D01*
X572293Y510961D01*
X572140Y510860D01*
X571724Y510236D01*
X571577Y509500D01*
X571724Y508764D01*
X572140Y508140D01*
X572764Y507724D01*
X573500Y507577D01*
X574236Y507724D01*
X574661Y508008D01*
X578680Y503989D01*
Y500510D01*
X578335Y500325D01*
X578180Y500287D01*
X577500Y500423D01*
X576764Y500276D01*
X576140Y499860D01*
X575724Y499236D01*
X575577Y498500D01*
X575724Y497764D01*
X576140Y497140D01*
X576764Y496724D01*
X577500Y496577D01*
X577880Y496265D01*
Y494376D01*
X577432Y494155D01*
X577268Y494281D01*
X576355Y494659D01*
X575545Y494766D01*
X575257Y495235D01*
X575276Y495264D01*
X575423Y496000D01*
X575276Y496736D01*
X574860Y497360D01*
X574635Y497510D01*
X574862Y497850D01*
X575009Y498586D01*
X574862Y499322D01*
X574445Y499945D01*
X573822Y500362D01*
X573086Y500509D01*
X572350Y500362D01*
X571726Y499945D01*
X571309Y499322D01*
X571289Y499220D01*
X570780D01*
X570776Y499236D01*
X570360Y499860D01*
X569736Y500276D01*
X569000Y500423D01*
X568264Y500276D01*
X567640Y499860D01*
X567224Y499236D01*
X567077Y498500D01*
X567107Y498352D01*
X566750Y497907D01*
X566393Y498352D01*
X566423Y498500D01*
X566276Y499236D01*
X565860Y499860D01*
X565236Y500276D01*
X564500Y500423D01*
X563764Y500276D01*
X563140Y499860D01*
X562940Y499560D01*
X562860D01*
X562236Y499976D01*
X561500Y500123D01*
X560764Y499976D01*
X560140Y499560D01*
X559724Y498936D01*
X559577Y498200D01*
X559632Y497923D01*
X559315Y497537D01*
X558405D01*
X543769Y512173D01*
X543848Y512574D01*
X543702Y513310D01*
X543285Y513934D01*
X542661Y514351D01*
X541926Y514497D01*
X541190Y514351D01*
X540566Y513934D01*
X540149Y513310D01*
X540003Y512574D01*
X540043Y512370D01*
X539690Y512016D01*
X539500Y512054D01*
X538764Y511908D01*
X538140Y511491D01*
X537724Y510867D01*
X537632Y510406D01*
X537500Y509923D01*
X536764Y509776D01*
X536140Y509360D01*
X535724Y508736D01*
X535577Y508000D01*
X535724Y507264D01*
X536140Y506640D01*
X536480Y506413D01*
Y500646D01*
X536019Y500455D01*
X530359Y506115D01*
X530439Y506516D01*
X530292Y507252D01*
X529875Y507875D01*
X529252Y508292D01*
X528516Y508438D01*
X528211Y508378D01*
X527824Y508695D01*
Y511318D01*
X528211Y511635D01*
X528500Y511577D01*
X529236Y511724D01*
X529860Y512140D01*
X530276Y512764D01*
X530394Y513355D01*
X550076Y533037D01*
X556664D01*
X556891Y532696D01*
X557515Y532280D01*
X558251Y532133D01*
X558987Y532280D01*
X559611Y532696D01*
X560027Y533320D01*
X560174Y534056D01*
X560027Y534792D01*
X559611Y535416D01*
X559844Y535849D01*
X560008Y536095D01*
X560154Y536830D01*
X560008Y537566D01*
X559591Y538190D01*
X558967Y538607D01*
X558231Y538753D01*
X557496Y538607D01*
X556872Y538190D01*
X556645Y537850D01*
X549499D01*
X549109Y537772D01*
X548778Y537551D01*
X539287Y528060D01*
X538814Y528294D01*
X538824Y528374D01*
Y536818D01*
X539211Y537135D01*
X539500Y537077D01*
X540236Y537224D01*
X540860Y537640D01*
X541177Y538116D01*
X541764Y537724D01*
X542500Y537577D01*
X543236Y537724D01*
X543860Y538140D01*
X544276Y538764D01*
X544423Y539500D01*
X544276Y540236D01*
X543860Y540860D01*
X543236Y541276D01*
X542500Y541423D01*
X541764Y541276D01*
X541140Y540860D01*
X540823Y540384D01*
X540236Y540776D01*
X539500Y540923D01*
X539211Y540865D01*
X538824Y541182D01*
Y561462D01*
X539324Y561614D01*
X539640Y561140D01*
X540264Y560724D01*
X541000Y560577D01*
X541736Y560724D01*
X542360Y561140D01*
X542776Y561764D01*
X542923Y562500D01*
X542776Y563236D01*
X542360Y563860D01*
X541736Y564276D01*
X541000Y564423D01*
X540264Y564276D01*
X539640Y563860D01*
X539324Y563386D01*
X538824Y563538D01*
Y574830D01*
X539670Y575676D01*
X542500D01*
X543231Y575772D01*
X543912Y576054D01*
X544497Y576503D01*
X544946Y577088D01*
X545228Y577769D01*
X545324Y578500D01*
X545228Y579231D01*
X544951Y579900D01*
X544969Y579940D01*
X545272Y580308D01*
X545767Y580103D01*
X546811Y579965D01*
X547855Y580103D01*
X548828Y580506D01*
X549664Y581147D01*
X550305Y581983D01*
X550708Y582956D01*
X550845Y584000D01*
X550708Y585044D01*
X550305Y586017D01*
X549664Y586853D01*
X548828Y587494D01*
X548186Y587760D01*
X548285Y588260D01*
X580627Y588260D01*
X580796Y587760D01*
X580069Y587202D01*
X579278Y586171D01*
X578781Y584970D01*
X578611Y583681D01*
X578781Y582392D01*
X579278Y581191D01*
X580069Y580160D01*
X581101Y579369D01*
X582302Y578871D01*
X583591Y578701D01*
X584879Y578871D01*
X586080Y579369D01*
X587112Y580160D01*
X587903Y581191D01*
X588401Y582392D01*
X588570Y583681D01*
X588401Y584970D01*
X587903Y586171D01*
X587112Y587202D01*
X586385Y587760D01*
X586554Y588260D01*
X595587D01*
X595757Y587760D01*
X595030Y587202D01*
X594239Y586171D01*
X593741Y584970D01*
X593572Y583681D01*
X593741Y582392D01*
X594239Y581191D01*
X595030Y580160D01*
X596061Y579369D01*
X597262Y578871D01*
X598551Y578701D01*
X599840Y578871D01*
X601041Y579369D01*
X602072Y580160D01*
X602864Y581191D01*
X603361Y582392D01*
X603531Y583681D01*
X603361Y584970D01*
X602864Y586171D01*
X602072Y587202D01*
X601345Y587760D01*
X601515Y588260D01*
X609120D01*
Y574900D01*
D02*
G37*
G36*
X533625Y587760D02*
X532983Y587494D01*
X532147Y586853D01*
X531506Y586017D01*
X531103Y585044D01*
X530966Y584000D01*
X531103Y582956D01*
X531506Y581983D01*
X532147Y581147D01*
X532983Y580506D01*
X533956Y580103D01*
X535000Y579965D01*
X535304Y580006D01*
X535538Y579532D01*
X534003Y577997D01*
X533554Y577412D01*
X533272Y576731D01*
X533176Y576000D01*
Y529544D01*
X524818Y521186D01*
X524588Y521236D01*
X524310Y521386D01*
X524183Y522027D01*
X523766Y522651D01*
X523142Y523068D01*
X522406Y523214D01*
X521671Y523068D01*
X521328Y522839D01*
X520828Y523106D01*
Y588260D01*
X533526D01*
X533625Y587760D01*
D02*
G37*
G36*
X652135Y578671D02*
X655595Y577982D01*
X658971Y576958D01*
X662231Y575608D01*
X665343Y573945D01*
X668276Y571984D01*
X671004Y569746D01*
X673498Y567251D01*
X675737Y564524D01*
X677697Y561590D01*
X679360Y558479D01*
X680711Y555219D01*
X681735Y551842D01*
X682423Y548382D01*
X682769Y544871D01*
Y543107D01*
X682769Y541342D01*
X682423Y537831D01*
X681735Y534371D01*
X680711Y530994D01*
X679360Y527735D01*
X677697Y524623D01*
X675737Y521689D01*
X673498Y518962D01*
X671004Y516467D01*
X668276Y514229D01*
X665343Y512269D01*
X662231Y510605D01*
X658971Y509255D01*
X655595Y508231D01*
X652135Y507543D01*
X648623Y507197D01*
X645095D01*
X641584Y507543D01*
X638123Y508231D01*
X634747Y509255D01*
X631487Y510605D01*
X628375Y512269D01*
X625442Y514229D01*
X622714Y516467D01*
X620220Y518962D01*
X617981Y521689D01*
X616021Y524623D01*
X614358Y527735D01*
X613008Y530994D01*
X611983Y534371D01*
X611295Y537831D01*
X610949Y541342D01*
Y543107D01*
Y544871D01*
X611295Y548382D01*
X611983Y551842D01*
X613008Y555219D01*
X614358Y558479D01*
X616021Y561590D01*
X617981Y564524D01*
X620220Y567251D01*
X622714Y569746D01*
X625442Y571984D01*
X628375Y573945D01*
X631487Y575608D01*
X634747Y576958D01*
X638123Y577982D01*
X641584Y578671D01*
X645095Y579016D01*
X648623D01*
X652135Y578671D01*
D02*
G37*
G36*
X656912Y476569D02*
X660434Y475830D01*
X663874Y474774D01*
X667204Y473409D01*
X670396Y471748D01*
X673424Y469804D01*
X676264Y467594D01*
X678890Y465134D01*
X681283Y462446D01*
X683422Y459552D01*
X685289Y456476D01*
X686869Y453243D01*
X688149Y449880D01*
X689119Y446414D01*
X689769Y442875D01*
X690096Y439291D01*
Y435693D01*
X689769Y432109D01*
X689119Y428570D01*
X688149Y425104D01*
X686869Y421741D01*
X685289Y418508D01*
X683422Y415432D01*
X681283Y412538D01*
X678890Y409850D01*
X676264Y407391D01*
X673424Y405180D01*
X670396Y403236D01*
X667204Y401575D01*
X663874Y400211D01*
X660433Y399154D01*
X656912Y398415D01*
X655730Y398277D01*
X655725Y398292D01*
X655209Y399177D01*
X655154Y399240D01*
X655110Y399312D01*
X654422Y400072D01*
X654355Y400122D01*
X654298Y400183D01*
X653467Y400783D01*
X653391Y400818D01*
X653322Y400867D01*
X652385Y401282D01*
X652303Y401301D01*
X652226Y401334D01*
X651223Y401546D01*
X651139Y401547D01*
X651057Y401563D01*
X650032D01*
X649950Y401547D01*
X649866Y401546D01*
X648863Y401334D01*
X648786Y401301D01*
X648704Y401282D01*
X647767Y400867D01*
X647698Y400818D01*
X647622Y400783D01*
X646792Y400183D01*
X646734Y400122D01*
X646667Y400072D01*
X645979Y399312D01*
X645936Y399240D01*
X645880Y399177D01*
X645364Y398292D01*
X645359Y398277D01*
X644177Y398415D01*
X640656Y399154D01*
X637216Y400211D01*
X633886Y401575D01*
X630693Y403236D01*
X627665Y405180D01*
X624826Y407391D01*
X622199Y409850D01*
X619806Y412538D01*
X617667Y415432D01*
X615800Y418508D01*
X614220Y421741D01*
X612940Y425104D01*
X611971Y428570D01*
X611320Y432109D01*
X610993Y435693D01*
Y439291D01*
X611320Y442875D01*
X611971Y446414D01*
X612940Y449880D01*
X614220Y453243D01*
X615800Y456476D01*
X617667Y459552D01*
X619806Y462446D01*
X622199Y465134D01*
X624826Y467594D01*
X627665Y469804D01*
X630693Y471748D01*
X633886Y473409D01*
X637216Y474774D01*
X640656Y475830D01*
X644177Y476569D01*
X645359Y476707D01*
X645364Y476693D01*
X645880Y475807D01*
X645936Y475744D01*
X645979Y475672D01*
X646667Y474913D01*
X646734Y474863D01*
X646792Y474801D01*
X647622Y474201D01*
X647698Y474166D01*
X647767Y474117D01*
X648704Y473702D01*
X648786Y473684D01*
X648863Y473651D01*
X649866Y473438D01*
X649950Y473437D01*
X650032Y473421D01*
X651057D01*
X651139Y473437D01*
X651223Y473438D01*
X652226Y473651D01*
X652303Y473684D01*
X652385Y473702D01*
X653322Y474117D01*
X653391Y474166D01*
X653467Y474201D01*
X654298Y474801D01*
X654355Y474863D01*
X654422Y474913D01*
X655110Y475672D01*
X655154Y475744D01*
X655209Y475807D01*
X655725Y476693D01*
X655730Y476707D01*
X656912Y476569D01*
D02*
G37*
G36*
X521671Y519515D02*
X522376Y519375D01*
X522473Y519241D01*
X522647Y518907D01*
X522554Y518786D01*
X522272Y518105D01*
X522176Y517374D01*
Y469500D01*
X522272Y468769D01*
X522554Y468088D01*
X523003Y467503D01*
X534503Y456003D01*
X535088Y455554D01*
X535769Y455272D01*
X536500Y455176D01*
X537231Y455272D01*
X537912Y455554D01*
X538497Y456003D01*
X538946Y456588D01*
X539228Y457269D01*
X539324Y458000D01*
X539228Y458731D01*
X538946Y459412D01*
X538497Y459997D01*
X531177Y467317D01*
X531423Y467778D01*
X532000Y467663D01*
X532736Y467809D01*
X533360Y468226D01*
X533776Y468850D01*
X533923Y469586D01*
X533776Y470322D01*
X533360Y470945D01*
X532736Y471362D01*
X532000Y471509D01*
X531264Y471362D01*
X530640Y470945D01*
X530224Y470322D01*
X530077Y469586D01*
X530192Y469009D01*
X529731Y468763D01*
X527824Y470670D01*
Y490462D01*
X528324Y490614D01*
X528640Y490140D01*
X529264Y489724D01*
X529734Y489630D01*
X529983Y489103D01*
X529957Y489064D01*
X529811Y488328D01*
X529957Y487593D01*
X530374Y486969D01*
X530998Y486552D01*
X531734Y486406D01*
X532470Y486552D01*
X533094Y486969D01*
X533510Y487593D01*
X533657Y488328D01*
X533510Y489064D01*
X533235Y489476D01*
X533596Y489836D01*
X533764Y489724D01*
X534500Y489577D01*
X535236Y489724D01*
X535665Y490010D01*
X536210Y489833D01*
X536224Y489764D01*
X536640Y489140D01*
X537264Y488724D01*
X538000Y488577D01*
X538736Y488724D01*
X539360Y489140D01*
X539776Y489764D01*
X539923Y490500D01*
X539776Y491236D01*
X539360Y491860D01*
X538736Y492276D01*
X538000Y492423D01*
X537264Y492276D01*
X536835Y491990D01*
X536290Y492167D01*
X536276Y492236D01*
X535860Y492860D01*
X535236Y493276D01*
X534500Y493423D01*
X533764Y493276D01*
X533140Y492860D01*
X532724Y492236D01*
X532577Y491500D01*
X532724Y490764D01*
X532999Y490353D01*
X532638Y489992D01*
X532470Y490105D01*
X532000Y490198D01*
X531750Y490725D01*
X531776Y490764D01*
X531923Y491500D01*
X531776Y492236D01*
X531360Y492860D01*
X530736Y493276D01*
X530000Y493423D01*
X529264Y493276D01*
X528640Y492860D01*
X528324Y492386D01*
X527824Y492538D01*
Y504337D01*
X528211Y504654D01*
X528516Y504593D01*
X528917Y504673D01*
X540193Y493396D01*
X540524Y493175D01*
X540914Y493098D01*
X543734D01*
X543920Y492598D01*
X543586Y492098D01*
X543439Y491362D01*
X543586Y490626D01*
X544003Y490003D01*
X544626Y489586D01*
X545362Y489439D01*
X546098Y489586D01*
X546722Y490003D01*
X547139Y490626D01*
X547285Y491362D01*
X547139Y492098D01*
X546805Y492598D01*
X546991Y493098D01*
X552410D01*
X552696Y492598D01*
X552577Y492000D01*
X552657Y491599D01*
X552279Y491221D01*
X552058Y490890D01*
X551980Y490500D01*
Y480869D01*
X552058Y480478D01*
X552279Y480148D01*
X560477Y471949D01*
X560380Y471459D01*
X559843Y471236D01*
X558949Y470551D01*
X558264Y469657D01*
X557832Y468617D01*
X557686Y467500D01*
X557832Y466383D01*
X558264Y465343D01*
X558949Y464449D01*
X559843Y463764D01*
X560883Y463333D01*
X562000Y463186D01*
X563117Y463333D01*
X564157Y463764D01*
X565051Y464449D01*
X565736Y465343D01*
X566167Y466383D01*
X566315Y467500D01*
X566167Y468617D01*
X565736Y469657D01*
X565051Y470551D01*
X564157Y471236D01*
X563117Y471667D01*
X563020Y471680D01*
Y471869D01*
X562942Y472259D01*
X562721Y472590D01*
X560671Y474640D01*
X560803Y475163D01*
X560833Y475185D01*
X561531Y475046D01*
X562267Y475192D01*
X562891Y475609D01*
X563308Y476233D01*
X563454Y476968D01*
X563308Y477704D01*
X562891Y478328D01*
X562267Y478745D01*
X561531Y478891D01*
X560796Y478745D01*
X560172Y478328D01*
X559945Y477988D01*
X558454D01*
X556074Y480368D01*
X556117Y480722D01*
X556612Y480884D01*
X556947Y480447D01*
X557732Y479845D01*
X558645Y479467D01*
X559626Y479338D01*
X560606Y479467D01*
X561520Y479845D01*
X562305Y480447D01*
X562907Y481232D01*
X563285Y482146D01*
X563307Y482309D01*
X563811D01*
X563841Y482083D01*
X564219Y481169D01*
X564821Y480384D01*
X565606Y479782D01*
X566519Y479404D01*
X567500Y479275D01*
X568480Y479404D01*
X569394Y479782D01*
X570179Y480384D01*
X570781Y481169D01*
X571159Y482083D01*
X571185Y482277D01*
X571689D01*
X571715Y482083D01*
X572093Y481169D01*
X572695Y480384D01*
X573480Y479782D01*
X574394Y479404D01*
X575374Y479275D01*
X576355Y479404D01*
X577268Y479782D01*
X577432Y479908D01*
X577880Y479687D01*
Y479085D01*
X575679Y476884D01*
X575458Y476553D01*
X575380Y476163D01*
Y470904D01*
X574880Y470681D01*
X574157Y471236D01*
X573117Y471667D01*
X572000Y471814D01*
X570883Y471667D01*
X569843Y471236D01*
X568949Y470551D01*
X568264Y469657D01*
X567833Y468617D01*
X567686Y467500D01*
X567833Y466383D01*
X568264Y465343D01*
X568949Y464449D01*
X569843Y463764D01*
X570432Y463520D01*
X570332Y463020D01*
X570000D01*
X569610Y462942D01*
X569279Y462721D01*
X566779Y460221D01*
X566558Y459890D01*
X566480Y459500D01*
Y459168D01*
X565980Y459068D01*
X565736Y459657D01*
X565051Y460551D01*
X564157Y461236D01*
X563117Y461667D01*
X562000Y461814D01*
X560883Y461667D01*
X559843Y461236D01*
X558949Y460551D01*
X558264Y459657D01*
X557832Y458617D01*
X557686Y457500D01*
X557832Y456383D01*
X558264Y455343D01*
X558457Y455091D01*
X558236Y454642D01*
X556300D01*
X555677Y455265D01*
X555736Y455343D01*
X556168Y456383D01*
X556315Y457500D01*
X556168Y458617D01*
X555736Y459657D01*
X555051Y460551D01*
X554157Y461236D01*
X553117Y461667D01*
X552000Y461814D01*
X550883Y461667D01*
X549843Y461236D01*
X548949Y460551D01*
X548264Y459657D01*
X547832Y458617D01*
X547685Y457500D01*
X547832Y456383D01*
X548264Y455343D01*
X548267Y455338D01*
X547936Y454948D01*
X547120Y455384D01*
X546026Y455716D01*
X544889Y455828D01*
X543752Y455716D01*
X542659Y455384D01*
X541651Y454846D01*
X540768Y454121D01*
X538180Y451532D01*
X537536Y451596D01*
X537360Y451860D01*
X536736Y452276D01*
X536000Y452423D01*
X535264Y452276D01*
X534640Y451860D01*
X534224Y451236D01*
X534077Y450500D01*
X534224Y449764D01*
X534640Y449140D01*
X534904Y448964D01*
X534968Y448320D01*
X532461Y445814D01*
X531000Y445958D01*
X529079Y445769D01*
X527232Y445208D01*
X525529Y444298D01*
X524037Y443074D01*
X522812Y441581D01*
X521902Y439879D01*
X521342Y438032D01*
X521328Y437889D01*
X520828Y437914D01*
Y519477D01*
X521328Y519744D01*
X521671Y519515D01*
D02*
G37*
%LPC*%
G36*
X565562Y586736D02*
X564670D01*
X564572Y586716D01*
X564471D01*
X563597Y586542D01*
X563504Y586504D01*
X563405Y586484D01*
X562581Y586143D01*
X562498Y586087D01*
X562405Y586049D01*
X561663Y585553D01*
X561592Y585482D01*
X561509Y585427D01*
X560878Y584796D01*
X560823Y584712D01*
X560752Y584641D01*
X560256Y583900D01*
X560218Y583807D01*
X560162Y583723D01*
X559821Y582900D01*
X559801Y582801D01*
X559763Y582708D01*
X559589Y581834D01*
Y581733D01*
X559569Y581635D01*
Y580743D01*
X559589Y580644D01*
Y580544D01*
X559763Y579669D01*
X559801Y579576D01*
X559821Y579478D01*
X560162Y578654D01*
X560218Y578571D01*
X560256Y578478D01*
X560752Y577736D01*
X560823Y577665D01*
X560878Y577582D01*
X561509Y576951D01*
X561593Y576895D01*
X561663Y576824D01*
X562405Y576329D01*
X562498Y576290D01*
X562581Y576234D01*
X563405Y575893D01*
X563504Y575874D01*
X563597Y575835D01*
X564471Y575661D01*
X564572D01*
X564670Y575642D01*
X565562D01*
X565661Y575661D01*
X565761D01*
X566636Y575835D01*
X566728Y575874D01*
X566827Y575893D01*
X567651Y576234D01*
X567734Y576290D01*
X567827Y576329D01*
X568569Y576824D01*
X568640Y576895D01*
X568723Y576951D01*
X569354Y577582D01*
X569410Y577665D01*
X569481Y577736D01*
X569976Y578478D01*
X570015Y578571D01*
X570070Y578654D01*
X570412Y579478D01*
X570431Y579576D01*
X570470Y579669D01*
X570644Y580544D01*
Y580644D01*
X570663Y580743D01*
Y581635D01*
X570644Y581733D01*
Y581834D01*
X570470Y582708D01*
X570431Y582801D01*
X570412Y582900D01*
X570070Y583723D01*
X570015Y583807D01*
X569976Y583900D01*
X569481Y584641D01*
X569410Y584712D01*
X569354Y584796D01*
X568723Y585427D01*
X568640Y585482D01*
X568569Y585553D01*
X567827Y586049D01*
X567734Y586087D01*
X567651Y586143D01*
X566827Y586484D01*
X566728Y586504D01*
X566636Y586542D01*
X565761Y586716D01*
X565661D01*
X565562Y586736D01*
D02*
G37*
G36*
X596158Y574580D02*
X595422Y574434D01*
X594798Y574017D01*
X594381Y573393D01*
X594235Y572657D01*
X594381Y571922D01*
X594798Y571298D01*
X595422Y570881D01*
X596158Y570735D01*
X596893Y570881D01*
X597517Y571298D01*
X597934Y571922D01*
X598080Y572657D01*
X597934Y573393D01*
X597517Y574017D01*
X596893Y574434D01*
X596158Y574580D01*
D02*
G37*
G36*
X586031Y570923D02*
X585296Y570776D01*
X584672Y570360D01*
X584255Y569736D01*
X584109Y569000D01*
X584255Y568264D01*
X584672Y567640D01*
X585296Y567224D01*
X586031Y567077D01*
X586767Y567224D01*
X587391Y567640D01*
X587808Y568264D01*
X587954Y569000D01*
X587808Y569736D01*
X587391Y570360D01*
X586767Y570776D01*
X586031Y570923D01*
D02*
G37*
G36*
X554500Y569923D02*
X553764Y569776D01*
X553140Y569360D01*
X552724Y568736D01*
X552577Y568000D01*
X552724Y567264D01*
X553140Y566640D01*
X553764Y566224D01*
X554500Y566077D01*
X555236Y566224D01*
X555860Y566640D01*
X556276Y567264D01*
X556423Y568000D01*
X556276Y568736D01*
X555860Y569360D01*
X555236Y569776D01*
X554500Y569923D01*
D02*
G37*
G36*
X602500Y568923D02*
X601764Y568776D01*
X601140Y568360D01*
X600724Y567736D01*
X600577Y567000D01*
X600724Y566264D01*
X601140Y565640D01*
X601764Y565224D01*
X602500Y565077D01*
X603236Y565224D01*
X603860Y565640D01*
X604276Y566264D01*
X604423Y567000D01*
X604276Y567736D01*
X603860Y568360D01*
X603236Y568776D01*
X602500Y568923D01*
D02*
G37*
G36*
X585500Y565923D02*
X584764Y565776D01*
X584140Y565360D01*
X583724Y564736D01*
X583577Y564000D01*
X583724Y563264D01*
X584140Y562640D01*
X584764Y562224D01*
X585500Y562077D01*
X586236Y562224D01*
X586860Y562640D01*
X587276Y563264D01*
X587423Y564000D01*
X587276Y564736D01*
X586860Y565360D01*
X586236Y565776D01*
X585500Y565923D01*
D02*
G37*
G36*
X547000Y562423D02*
X546264Y562276D01*
X545640Y561860D01*
X545224Y561236D01*
X545077Y560500D01*
X545224Y559764D01*
X545640Y559140D01*
X546264Y558724D01*
X547000Y558577D01*
X547736Y558724D01*
X548360Y559140D01*
X548776Y559764D01*
X548923Y560500D01*
X548776Y561236D01*
X548360Y561860D01*
X547736Y562276D01*
X547000Y562423D01*
D02*
G37*
G36*
X562500Y556923D02*
X561764Y556776D01*
X561140Y556360D01*
X560724Y555736D01*
X560577Y555000D01*
X560724Y554264D01*
X561140Y553640D01*
X561764Y553224D01*
X562500Y553077D01*
X563236Y553224D01*
X563860Y553640D01*
X564276Y554264D01*
X564423Y555000D01*
X564276Y555736D01*
X563860Y556360D01*
X563236Y556776D01*
X562500Y556923D01*
D02*
G37*
G36*
X606000Y556423D02*
X605264Y556276D01*
X604640Y555860D01*
X604224Y555236D01*
X604077Y554500D01*
X604224Y553764D01*
X604640Y553140D01*
X605264Y552724D01*
X606000Y552577D01*
X606736Y552724D01*
X607360Y553140D01*
X607776Y553764D01*
X607923Y554500D01*
X607776Y555236D01*
X607360Y555860D01*
X606736Y556276D01*
X606000Y556423D01*
D02*
G37*
G36*
X575500Y553257D02*
X574764Y553111D01*
X574140Y552694D01*
X573724Y552071D01*
X573577Y551335D01*
X573724Y550599D01*
X574140Y549975D01*
X574764Y549558D01*
X575500Y549412D01*
X576236Y549558D01*
X576860Y549975D01*
X577276Y550599D01*
X577423Y551335D01*
X577276Y552071D01*
X576860Y552694D01*
X576236Y553111D01*
X575500Y553257D01*
D02*
G37*
G36*
X598551Y554645D02*
X597262Y554475D01*
X596061Y553978D01*
X595030Y553187D01*
X594239Y552155D01*
X593741Y550954D01*
X593572Y549665D01*
X593741Y548377D01*
X594239Y547176D01*
X595030Y546144D01*
X596061Y545353D01*
X597262Y544855D01*
X598551Y544686D01*
X599840Y544855D01*
X601041Y545353D01*
X602072Y546144D01*
X602864Y547176D01*
X603361Y548377D01*
X603531Y549665D01*
X603361Y550954D01*
X602864Y552155D01*
X602072Y553187D01*
X601041Y553978D01*
X599840Y554475D01*
X598551Y554645D01*
D02*
G37*
G36*
X583591D02*
X582302Y554475D01*
X581101Y553978D01*
X580069Y553187D01*
X579278Y552155D01*
X578781Y550954D01*
X578611Y549665D01*
X578781Y548377D01*
X579278Y547176D01*
X580069Y546144D01*
X581101Y545353D01*
X582302Y544855D01*
X583591Y544686D01*
X584879Y544855D01*
X586080Y545353D01*
X587112Y546144D01*
X587903Y547176D01*
X588401Y548377D01*
X588570Y549665D01*
X588401Y550954D01*
X587903Y552155D01*
X587112Y553187D01*
X586080Y553978D01*
X584879Y554475D01*
X583591Y554645D01*
D02*
G37*
G36*
X554000Y546423D02*
X553264Y546276D01*
X552640Y545860D01*
X552224Y545236D01*
X552077Y544500D01*
X552224Y543764D01*
X552640Y543140D01*
X553264Y542724D01*
X554000Y542577D01*
X554736Y542724D01*
X555186Y543024D01*
X555546Y542664D01*
X555335Y542347D01*
X555189Y541612D01*
X555335Y540876D01*
X555752Y540252D01*
X556376Y539835D01*
X557111Y539689D01*
X557847Y539835D01*
X558471Y540252D01*
X558888Y540876D01*
X559034Y541612D01*
X558888Y542347D01*
X558471Y542971D01*
X557847Y543388D01*
X557111Y543534D01*
X556376Y543388D01*
X555926Y543087D01*
X555565Y543448D01*
X555776Y543764D01*
X555923Y544500D01*
X555776Y545236D01*
X555360Y545860D01*
X554736Y546276D01*
X554000Y546423D01*
D02*
G37*
G36*
X595552Y535058D02*
X594816Y534912D01*
X594193Y534495D01*
X593776Y533871D01*
X593629Y533135D01*
X593776Y532400D01*
X594193Y531776D01*
X594816Y531359D01*
X595552Y531213D01*
X596288Y531359D01*
X596912Y531776D01*
X597329Y532400D01*
X597475Y533135D01*
X597329Y533871D01*
X596912Y534495D01*
X596288Y534912D01*
X595552Y535058D01*
D02*
G37*
G36*
X585570Y535841D02*
X584834Y535694D01*
X584210Y535278D01*
X583794Y534654D01*
X583647Y533918D01*
X583794Y533182D01*
X584210Y532558D01*
X584834Y532142D01*
X584896Y532129D01*
Y531620D01*
X584486Y531538D01*
X583862Y531121D01*
X583445Y530497D01*
X583299Y529762D01*
X583445Y529026D01*
X583862Y528402D01*
X584486Y527985D01*
X585222Y527839D01*
X585957Y527985D01*
X586581Y528402D01*
X586998Y529026D01*
X587144Y529762D01*
X587047Y530248D01*
X587498Y530549D01*
X587945Y530250D01*
X588681Y530104D01*
X589417Y530250D01*
X590041Y530667D01*
X590457Y531291D01*
X590604Y532026D01*
X590457Y532762D01*
X590041Y533386D01*
X589417Y533803D01*
X588681Y533949D01*
X587945Y533803D01*
X587940Y533800D01*
X587461Y534080D01*
X587347Y534654D01*
X586930Y535278D01*
X586306Y535694D01*
X585570Y535841D01*
D02*
G37*
G36*
X558000Y529923D02*
X557264Y529776D01*
X556640Y529360D01*
X556224Y528736D01*
X556077Y528000D01*
X556224Y527264D01*
X556640Y526640D01*
X557264Y526224D01*
X558000Y526077D01*
X558736Y526224D01*
X559360Y526640D01*
X559776Y527264D01*
X559923Y528000D01*
X559776Y528736D01*
X559360Y529360D01*
X558736Y529776D01*
X558000Y529923D01*
D02*
G37*
G36*
X552500D02*
X551764Y529776D01*
X551140Y529360D01*
X550724Y528736D01*
X550577Y528000D01*
X550724Y527264D01*
X551140Y526640D01*
X551764Y526224D01*
X552500Y526077D01*
X553236Y526224D01*
X553860Y526640D01*
X554276Y527264D01*
X554423Y528000D01*
X554276Y528736D01*
X553860Y529360D01*
X553236Y529776D01*
X552500Y529923D01*
D02*
G37*
G36*
X591575Y523490D02*
X590800Y523388D01*
X590078Y523089D01*
X589458Y522613D01*
X588982Y521993D01*
X588683Y521271D01*
X588581Y520496D01*
X588683Y519721D01*
X588982Y518999D01*
X589458Y518379D01*
X590078Y517903D01*
X590800Y517604D01*
X591575Y517502D01*
X592350Y517604D01*
X593072Y517903D01*
X593692Y518379D01*
X594168Y518999D01*
X594467Y519721D01*
X594569Y520496D01*
X594467Y521271D01*
X594168Y521993D01*
X593692Y522613D01*
X593072Y523089D01*
X592350Y523388D01*
X591575Y523490D01*
D02*
G37*
G36*
X586500Y515423D02*
X585764Y515276D01*
X585140Y514860D01*
X584724Y514236D01*
X584577Y513500D01*
X584724Y512764D01*
X585140Y512140D01*
X585764Y511724D01*
X586500Y511577D01*
X587236Y511724D01*
X587860Y512140D01*
X588276Y512764D01*
X588423Y513500D01*
X588276Y514236D01*
X587860Y514860D01*
X587236Y515276D01*
X586500Y515423D01*
D02*
G37*
G36*
X565768Y514690D02*
X565032Y514544D01*
X564408Y514127D01*
X563991Y513504D01*
X563845Y512768D01*
X563991Y512032D01*
X564408Y511408D01*
X565032Y510991D01*
X565768Y510845D01*
X566503Y510991D01*
X566596Y511053D01*
X566664Y511045D01*
X567117Y510800D01*
X567224Y510264D01*
X567640Y509640D01*
X568264Y509224D01*
X569000Y509077D01*
X569736Y509224D01*
X570360Y509640D01*
X570776Y510264D01*
X570923Y511000D01*
X570776Y511736D01*
X570360Y512360D01*
X569736Y512776D01*
X569000Y512923D01*
X568264Y512776D01*
X568172Y512715D01*
X568104Y512722D01*
X567651Y512968D01*
X567544Y513504D01*
X567127Y514127D01*
X566503Y514544D01*
X565768Y514690D01*
D02*
G37*
G36*
X558500Y515423D02*
X557764Y515276D01*
X557140Y514860D01*
X556724Y514236D01*
X556577Y513500D01*
X556724Y512764D01*
X557140Y512140D01*
X557525Y511884D01*
X557633Y511393D01*
X557590Y511284D01*
X557224Y510736D01*
X557077Y510000D01*
X557224Y509264D01*
X557640Y508640D01*
X558264Y508224D01*
X559000Y508077D01*
X559736Y508224D01*
X560190Y508527D01*
X560325Y508325D01*
X560949Y507909D01*
X561685Y507762D01*
X562421Y507909D01*
X563045Y508325D01*
X563461Y508949D01*
X563608Y509685D01*
X563461Y510421D01*
X563045Y511045D01*
X562421Y511461D01*
X561685Y511608D01*
X560949Y511461D01*
X560495Y511158D01*
X560360Y511360D01*
X559975Y511616D01*
X559867Y512107D01*
X559910Y512216D01*
X560276Y512764D01*
X560423Y513500D01*
X560276Y514236D01*
X559860Y514860D01*
X559236Y515276D01*
X558500Y515423D01*
D02*
G37*
G36*
X601500Y509923D02*
X600764Y509776D01*
X600140Y509360D01*
X599724Y508736D01*
X599577Y508000D01*
X599724Y507264D01*
X600140Y506640D01*
X600764Y506224D01*
X601500Y506077D01*
X602236Y506224D01*
X602860Y506640D01*
X603276Y507264D01*
X603423Y508000D01*
X603276Y508736D01*
X602860Y509360D01*
X602236Y509776D01*
X601500Y509923D01*
D02*
G37*
G36*
X575500Y505423D02*
X574764Y505276D01*
X574140Y504860D01*
X573724Y504236D01*
X573577Y503500D01*
X573724Y502764D01*
X574140Y502140D01*
X574764Y501724D01*
X575500Y501577D01*
X576236Y501724D01*
X576860Y502140D01*
X577276Y502764D01*
X577423Y503500D01*
X577276Y504236D01*
X576860Y504860D01*
X576236Y505276D01*
X575500Y505423D01*
D02*
G37*
G36*
X599394Y482158D02*
X598658Y482012D01*
X598034Y481595D01*
X597617Y480971D01*
X597471Y480235D01*
X597617Y479499D01*
X598034Y478876D01*
X598658Y478459D01*
X599394Y478312D01*
X600130Y478459D01*
X600753Y478876D01*
X601170Y479499D01*
X601317Y480235D01*
X601170Y480971D01*
X600753Y481595D01*
X600130Y482012D01*
X599394Y482158D01*
D02*
G37*
G36*
X599551Y469943D02*
X598879Y469855D01*
X598253Y469595D01*
X597715Y469183D01*
X597302Y468645D01*
X597043Y468019D01*
X596954Y467346D01*
X597043Y466674D01*
X597302Y466048D01*
X597715Y465510D01*
X598253Y465097D01*
X598879Y464838D01*
X599551Y464749D01*
X600223Y464838D01*
X600850Y465097D01*
X601388Y465510D01*
X601800Y466048D01*
X602060Y466674D01*
X602148Y467346D01*
X602060Y468019D01*
X601800Y468645D01*
X601388Y469183D01*
X600850Y469595D01*
X600223Y469855D01*
X599551Y469943D01*
D02*
G37*
G36*
Y463251D02*
X598879Y463162D01*
X598253Y462903D01*
X597715Y462490D01*
X597302Y461952D01*
X597043Y461326D01*
X596954Y460654D01*
X597043Y459981D01*
X597302Y459355D01*
X597715Y458817D01*
X598253Y458404D01*
X598879Y458145D01*
X599551Y458057D01*
X600223Y458145D01*
X600850Y458404D01*
X601388Y458817D01*
X601800Y459355D01*
X602060Y459981D01*
X602148Y460654D01*
X602060Y461326D01*
X601800Y461952D01*
X601388Y462490D01*
X600850Y462903D01*
X600223Y463162D01*
X599551Y463251D01*
D02*
G37*
G36*
X596579Y451052D02*
X595844Y450906D01*
X595220Y450489D01*
X594803Y449865D01*
X594657Y449130D01*
X594803Y448394D01*
X595220Y447770D01*
X595844Y447353D01*
X596579Y447207D01*
X597315Y447353D01*
X597939Y447770D01*
X598356Y448394D01*
X598502Y449130D01*
X598356Y449865D01*
X597939Y450489D01*
X597315Y450906D01*
X596579Y451052D01*
D02*
G37*
G36*
X602000Y444423D02*
X601264Y444276D01*
X600640Y443860D01*
X600224Y443236D01*
X600077Y442500D01*
X600224Y441764D01*
X600640Y441140D01*
X601264Y440724D01*
X602000Y440577D01*
X602736Y440724D01*
X603360Y441140D01*
X603776Y441764D01*
X603923Y442500D01*
X603776Y443236D01*
X603360Y443860D01*
X602736Y444276D01*
X602000Y444423D01*
D02*
G37*
G36*
X553374Y444562D02*
X552199Y444408D01*
X551105Y443954D01*
X550165Y443233D01*
X549443Y442293D01*
X548990Y441198D01*
X548835Y440024D01*
X548990Y438849D01*
X549443Y437754D01*
X550165Y436814D01*
X551105Y436093D01*
X552199Y435639D01*
X553374Y435485D01*
X554549Y435639D01*
X555643Y436093D01*
X556583Y436814D01*
X557305Y437754D01*
X557758Y438849D01*
X557913Y440024D01*
X557758Y441198D01*
X557305Y442293D01*
X556583Y443233D01*
X555643Y443954D01*
X554549Y444408D01*
X553374Y444562D01*
D02*
G37*
G36*
X595000Y425923D02*
X594264Y425776D01*
X593640Y425360D01*
X593224Y424736D01*
X593077Y424000D01*
X593224Y423264D01*
X593640Y422640D01*
X594264Y422224D01*
X595000Y422077D01*
X595736Y422224D01*
X596360Y422640D01*
X596776Y423264D01*
X596923Y424000D01*
X596776Y424736D01*
X596360Y425360D01*
X595736Y425776D01*
X595000Y425923D01*
D02*
G37*
G36*
X566000Y421529D02*
X564824Y421413D01*
X563693Y421070D01*
X562650Y420513D01*
X561737Y419763D01*
X560987Y418850D01*
X560430Y417807D01*
X560087Y416676D01*
X559971Y415500D01*
X560087Y414324D01*
X560430Y413193D01*
X560987Y412150D01*
X561737Y411237D01*
X562650Y410487D01*
X563693Y409930D01*
X564824Y409587D01*
X566000Y409471D01*
X567176Y409587D01*
X568307Y409930D01*
X569349Y410487D01*
X570263Y411237D01*
X571013Y412150D01*
X571570Y413193D01*
X571913Y414324D01*
X572029Y415500D01*
X571913Y416676D01*
X571570Y417807D01*
X571013Y418850D01*
X570263Y419763D01*
X569349Y420513D01*
X568307Y421070D01*
X567176Y421413D01*
X566000Y421529D01*
D02*
G37*
G36*
X582000Y411529D02*
X580824Y411413D01*
X579693Y411070D01*
X578651Y410513D01*
X577737Y409763D01*
X576987Y408849D01*
X576430Y407807D01*
X576087Y406676D01*
X575971Y405500D01*
X576087Y404324D01*
X576430Y403193D01*
X576987Y402150D01*
X577737Y401237D01*
X578651Y400487D01*
X579693Y399930D01*
X580824Y399587D01*
X582000Y399471D01*
X583176Y399587D01*
X584307Y399930D01*
X585350Y400487D01*
X586263Y401237D01*
X587013Y402150D01*
X587570Y403193D01*
X587913Y404324D01*
X588029Y405500D01*
X587913Y406676D01*
X587570Y407807D01*
X587013Y408849D01*
X586263Y409763D01*
X585350Y410513D01*
X584307Y411070D01*
X583176Y411413D01*
X582000Y411529D01*
D02*
G37*
G36*
X548500D02*
X547324Y411413D01*
X546193Y411070D01*
X545151Y410513D01*
X544237Y409763D01*
X543487Y408849D01*
X542930Y407807D01*
X542587Y406676D01*
X542471Y405500D01*
X542587Y404324D01*
X542930Y403193D01*
X543487Y402150D01*
X544237Y401237D01*
X545151Y400487D01*
X546193Y399930D01*
X547324Y399587D01*
X548500Y399471D01*
X549676Y399587D01*
X550807Y399930D01*
X551850Y400487D01*
X552763Y401237D01*
X553513Y402150D01*
X554070Y403193D01*
X554413Y404324D01*
X554529Y405500D01*
X554413Y406676D01*
X554070Y407807D01*
X553513Y408849D01*
X552763Y409763D01*
X551850Y410513D01*
X550807Y411070D01*
X549676Y411413D01*
X548500Y411529D01*
D02*
G37*
G36*
X565562Y407946D02*
X564670D01*
X564572Y407927D01*
X564471D01*
X563597Y407753D01*
X563504Y407714D01*
X563405Y407694D01*
X562581Y407353D01*
X562498Y407298D01*
X562405Y407259D01*
X561663Y406764D01*
X561592Y406693D01*
X561509Y406637D01*
X560878Y406006D01*
X560823Y405923D01*
X560752Y405852D01*
X560256Y405110D01*
X560218Y405017D01*
X560162Y404934D01*
X559821Y404110D01*
X559801Y404011D01*
X559763Y403919D01*
X559589Y403044D01*
Y402943D01*
X559569Y402845D01*
Y401953D01*
X559589Y401855D01*
Y401754D01*
X559763Y400879D01*
X559801Y400787D01*
X559821Y400688D01*
X560162Y399864D01*
X560218Y399781D01*
X560256Y399688D01*
X560752Y398946D01*
X560823Y398875D01*
X560878Y398792D01*
X561509Y398161D01*
X561593Y398106D01*
X561663Y398035D01*
X562405Y397539D01*
X562498Y397500D01*
X562581Y397445D01*
X563405Y397104D01*
X563504Y397084D01*
X563597Y397045D01*
X564471Y396871D01*
X564572D01*
X564670Y396852D01*
X565562D01*
X565661Y396871D01*
X565761D01*
X566636Y397045D01*
X566728Y397084D01*
X566827Y397104D01*
X567651Y397445D01*
X567734Y397500D01*
X567827Y397539D01*
X568569Y398035D01*
X568640Y398106D01*
X568723Y398161D01*
X569354Y398792D01*
X569410Y398875D01*
X569481Y398946D01*
X569976Y399688D01*
X570015Y399781D01*
X570070Y399864D01*
X570412Y400688D01*
X570431Y400787D01*
X570470Y400879D01*
X570644Y401754D01*
Y401855D01*
X570663Y401953D01*
Y402845D01*
X570644Y402943D01*
Y403044D01*
X570470Y403919D01*
X570431Y404011D01*
X570412Y404110D01*
X570070Y404934D01*
X570015Y405017D01*
X569976Y405110D01*
X569481Y405852D01*
X569410Y405923D01*
X569354Y406006D01*
X568723Y406637D01*
X568640Y406693D01*
X568569Y406764D01*
X567827Y407259D01*
X567734Y407298D01*
X567651Y407353D01*
X566827Y407694D01*
X566728Y407714D01*
X566636Y407753D01*
X565761Y407927D01*
X565661D01*
X565562Y407946D01*
D02*
G37*
G36*
X527500Y583423D02*
X526764Y583276D01*
X526140Y582860D01*
X525724Y582236D01*
X525577Y581500D01*
X525724Y580764D01*
X526140Y580140D01*
X526764Y579724D01*
X527500Y579577D01*
X528236Y579724D01*
X528860Y580140D01*
X529276Y580764D01*
X529423Y581500D01*
X529276Y582236D01*
X528860Y582860D01*
X528236Y583276D01*
X527500Y583423D01*
D02*
G37*
G36*
X527000Y577285D02*
X525891Y577139D01*
X524858Y576711D01*
X523970Y576030D01*
X523289Y575142D01*
X522861Y574109D01*
X522715Y573000D01*
X522861Y571891D01*
X523289Y570858D01*
X523970Y569970D01*
X524858Y569289D01*
X525891Y568861D01*
X527000Y568715D01*
X528109Y568861D01*
X529142Y569289D01*
X530030Y569970D01*
X530711Y570858D01*
X531139Y571891D01*
X531285Y573000D01*
X531139Y574109D01*
X530711Y575142D01*
X530030Y576030D01*
X529142Y576711D01*
X528109Y577139D01*
X527000Y577285D01*
D02*
G37*
G36*
Y567285D02*
X525891Y567139D01*
X524858Y566711D01*
X523970Y566030D01*
X523289Y565142D01*
X522861Y564109D01*
X522715Y563000D01*
X522861Y561891D01*
X523289Y560858D01*
X523970Y559970D01*
X524858Y559289D01*
X525891Y558861D01*
X527000Y558715D01*
X528109Y558861D01*
X529142Y559289D01*
X530030Y559970D01*
X530711Y560858D01*
X531139Y561891D01*
X531285Y563000D01*
X531139Y564109D01*
X530711Y565142D01*
X530030Y566030D01*
X529142Y566711D01*
X528109Y567139D01*
X527000Y567285D01*
D02*
G37*
G36*
Y557285D02*
X525891Y557139D01*
X524858Y556711D01*
X523970Y556030D01*
X523289Y555142D01*
X522861Y554109D01*
X522715Y553000D01*
X522861Y551891D01*
X523289Y550858D01*
X523970Y549970D01*
X524858Y549289D01*
X525891Y548861D01*
X527000Y548715D01*
X528109Y548861D01*
X529142Y549289D01*
X530030Y549970D01*
X530711Y550858D01*
X531139Y551891D01*
X531285Y553000D01*
X531139Y554109D01*
X530711Y555142D01*
X530030Y556030D01*
X529142Y556711D01*
X528109Y557139D01*
X527000Y557285D01*
D02*
G37*
G36*
Y547285D02*
X525891Y547139D01*
X524858Y546711D01*
X523970Y546030D01*
X523289Y545142D01*
X522861Y544109D01*
X522715Y543000D01*
X522861Y541891D01*
X523289Y540858D01*
X523970Y539970D01*
X524858Y539289D01*
X525891Y538861D01*
X527000Y538715D01*
X528109Y538861D01*
X529142Y539289D01*
X530030Y539970D01*
X530711Y540858D01*
X531139Y541891D01*
X531285Y543000D01*
X531139Y544109D01*
X530711Y545142D01*
X530030Y546030D01*
X529142Y546711D01*
X528109Y547139D01*
X527000Y547285D01*
D02*
G37*
G36*
X531248Y537248D02*
X522752D01*
Y528752D01*
X523427D01*
X523732Y528288D01*
X523728Y528252D01*
X523140Y527860D01*
X522724Y527236D01*
X522577Y526500D01*
X522724Y525764D01*
X523140Y525140D01*
X523764Y524724D01*
X524500Y524577D01*
X525236Y524724D01*
X525860Y525140D01*
X526276Y525764D01*
X526423Y526500D01*
X526276Y527236D01*
X525860Y527860D01*
X525272Y528252D01*
X525268Y528288D01*
X525572Y528752D01*
X531248D01*
Y537248D01*
D02*
G37*
G36*
X643121Y565282D02*
X642581Y565174D01*
X642122Y564868D01*
X641816Y564410D01*
X641709Y563869D01*
X641816Y563328D01*
X642122Y562870D01*
X642581Y562564D01*
X643121Y562456D01*
X643662Y562564D01*
X644121Y562870D01*
X644427Y563328D01*
X644534Y563869D01*
X644427Y564410D01*
X644121Y564868D01*
X643662Y565174D01*
X643121Y565282D01*
D02*
G37*
G36*
X636621Y562282D02*
X636081Y562175D01*
X635622Y561868D01*
X635316Y561410D01*
X635209Y560869D01*
X635316Y560328D01*
X635622Y559870D01*
X636081Y559564D01*
X636621Y559456D01*
X637162Y559564D01*
X637621Y559870D01*
X637927Y560328D01*
X638034Y560869D01*
X637927Y561410D01*
X637621Y561868D01*
X637162Y562175D01*
X636621Y562282D01*
D02*
G37*
G36*
X645621Y558782D02*
X645081Y558674D01*
X644622Y558368D01*
X644316Y557910D01*
X644208Y557369D01*
X644316Y556828D01*
X644622Y556370D01*
X645081Y556064D01*
X645621Y555956D01*
X646162Y556064D01*
X646621Y556370D01*
X646927Y556828D01*
X647034Y557369D01*
X646927Y557910D01*
X646621Y558368D01*
X646162Y558674D01*
X645621Y558782D01*
D02*
G37*
G36*
X642121Y557782D02*
X641581Y557675D01*
X641122Y557368D01*
X640816Y556910D01*
X640708Y556369D01*
X640816Y555828D01*
X641122Y555370D01*
X641581Y555064D01*
X642121Y554956D01*
X642662Y555064D01*
X643121Y555370D01*
X643427Y555828D01*
X643534Y556369D01*
X643427Y556910D01*
X643121Y557368D01*
X642662Y557675D01*
X642121Y557782D01*
D02*
G37*
G36*
X630121Y556782D02*
X629581Y556674D01*
X629122Y556368D01*
X628816Y555910D01*
X628709Y555369D01*
X628816Y554828D01*
X629122Y554370D01*
X629581Y554064D01*
X630121Y553956D01*
X630662Y554064D01*
X631121Y554370D01*
X631427Y554828D01*
X631534Y555369D01*
X631427Y555910D01*
X631121Y556368D01*
X630662Y556674D01*
X630121Y556782D01*
D02*
G37*
G36*
X638121Y555782D02*
X637581Y555675D01*
X637122Y555368D01*
X636816Y554910D01*
X636708Y554369D01*
X636816Y553828D01*
X637122Y553370D01*
X637581Y553064D01*
X638121Y552956D01*
X638662Y553064D01*
X639121Y553370D01*
X639427Y553828D01*
X639534Y554369D01*
X639427Y554910D01*
X639121Y555368D01*
X638662Y555675D01*
X638121Y555782D01*
D02*
G37*
G36*
X634121Y552782D02*
X633581Y552674D01*
X633122Y552368D01*
X632816Y551910D01*
X632709Y551369D01*
X632816Y550828D01*
X633122Y550370D01*
X633581Y550064D01*
X634121Y549956D01*
X634662Y550064D01*
X635121Y550370D01*
X635427Y550828D01*
X635534Y551369D01*
X635427Y551910D01*
X635121Y552368D01*
X634662Y552674D01*
X634121Y552782D01*
D02*
G37*
G36*
X627621Y550782D02*
X627081Y550674D01*
X626622Y550368D01*
X626316Y549910D01*
X626208Y549369D01*
X626316Y548828D01*
X626622Y548370D01*
X627081Y548064D01*
X627621Y547956D01*
X628162Y548064D01*
X628621Y548370D01*
X628927Y548828D01*
X629034Y549369D01*
X628927Y549910D01*
X628621Y550368D01*
X628162Y550674D01*
X627621Y550782D01*
D02*
G37*
G36*
X631621Y549282D02*
X631081Y549174D01*
X630622Y548868D01*
X630316Y548410D01*
X630208Y547869D01*
X630316Y547328D01*
X630622Y546870D01*
X631081Y546564D01*
X631621Y546456D01*
X632162Y546564D01*
X632621Y546870D01*
X632927Y547328D01*
X633034Y547869D01*
X632927Y548410D01*
X632621Y548868D01*
X632162Y549174D01*
X631621Y549282D01*
D02*
G37*
G36*
X635796Y544521D02*
X635256Y544413D01*
X634797Y544107D01*
X634491Y543648D01*
X634383Y543108D01*
X634491Y542567D01*
X634797Y542108D01*
X635256Y541802D01*
X635796Y541694D01*
X636337Y541802D01*
X636796Y542108D01*
X637102Y542567D01*
X637209Y543108D01*
X637102Y543648D01*
X636796Y544107D01*
X636337Y544413D01*
X635796Y544521D01*
D02*
G37*
G36*
X630811D02*
X630270Y544413D01*
X629812Y544107D01*
X629506Y543648D01*
X629398Y543108D01*
X629506Y542567D01*
X629812Y542108D01*
X630270Y541802D01*
X630811Y541694D01*
X631352Y541802D01*
X631810Y542108D01*
X632117Y542567D01*
X632224Y543108D01*
X632117Y543648D01*
X631810Y544107D01*
X631352Y544413D01*
X630811Y544521D01*
D02*
G37*
G36*
X626768D02*
X626227Y544413D01*
X625769Y544107D01*
X625462Y543648D01*
X625355Y543108D01*
X625462Y542567D01*
X625769Y542108D01*
X626227Y541802D01*
X626768Y541694D01*
X627309Y541802D01*
X627767Y542108D01*
X628073Y542567D01*
X628181Y543108D01*
X628073Y543648D01*
X627767Y544107D01*
X627309Y544413D01*
X626768Y544521D01*
D02*
G37*
G36*
X644694Y542871D02*
X644153Y542764D01*
X643695Y542457D01*
X643388Y541999D01*
X643281Y541458D01*
X643388Y540917D01*
X643695Y540459D01*
X644153Y540153D01*
X644694Y540045D01*
X645234Y540153D01*
X645693Y540459D01*
X645999Y540917D01*
X646107Y541458D01*
X645999Y541999D01*
X645693Y542457D01*
X645234Y542764D01*
X644694Y542871D01*
D02*
G37*
G36*
X632621Y539282D02*
X632081Y539175D01*
X631622Y538868D01*
X631316Y538410D01*
X631209Y537869D01*
X631316Y537328D01*
X631622Y536870D01*
X632081Y536564D01*
X632621Y536456D01*
X633162Y536564D01*
X633621Y536870D01*
X633927Y537328D01*
X634034Y537869D01*
X633927Y538410D01*
X633621Y538868D01*
X633162Y539175D01*
X632621Y539282D01*
D02*
G37*
G36*
X628121Y537782D02*
X627581Y537675D01*
X627122Y537368D01*
X626816Y536910D01*
X626709Y536369D01*
X626816Y535828D01*
X627122Y535370D01*
X627581Y535064D01*
X628121Y534956D01*
X628662Y535064D01*
X629121Y535370D01*
X629427Y535828D01*
X629534Y536369D01*
X629427Y536910D01*
X629121Y537368D01*
X628662Y537675D01*
X628121Y537782D01*
D02*
G37*
G36*
X635621Y536282D02*
X635081Y536174D01*
X634622Y535868D01*
X634316Y535410D01*
X634208Y534869D01*
X634316Y534328D01*
X634622Y533870D01*
X635081Y533564D01*
X635621Y533456D01*
X636162Y533564D01*
X636621Y533870D01*
X636927Y534328D01*
X637034Y534869D01*
X636927Y535410D01*
X636621Y535868D01*
X636162Y536174D01*
X635621Y536282D01*
D02*
G37*
G36*
Y532282D02*
X635081Y532174D01*
X634622Y531868D01*
X634316Y531410D01*
X634208Y530869D01*
X634316Y530328D01*
X634622Y529870D01*
X635081Y529564D01*
X635621Y529456D01*
X636162Y529564D01*
X636621Y529870D01*
X636927Y530328D01*
X637034Y530869D01*
X636927Y531410D01*
X636621Y531868D01*
X636162Y532174D01*
X635621Y532282D01*
D02*
G37*
G36*
X650565Y464822D02*
X649017Y464670D01*
X647527Y464218D01*
X646155Y463485D01*
X644952Y462497D01*
X643965Y461295D01*
X643231Y459922D01*
X642779Y458433D01*
X642627Y456884D01*
Y451884D01*
X642779Y450336D01*
X643231Y448846D01*
X643965Y447474D01*
X644952Y446271D01*
X646155Y445284D01*
X647527Y444550D01*
X649017Y444099D01*
X650565Y443946D01*
X652114Y444099D01*
X653603Y444550D01*
X654976Y445284D01*
X656178Y446271D01*
X657166Y447474D01*
X657899Y448846D01*
X658351Y450336D01*
X658503Y451884D01*
Y456884D01*
X658351Y458433D01*
X657899Y459922D01*
X657166Y461295D01*
X656178Y462497D01*
X654976Y463485D01*
X653603Y464218D01*
X652114Y464670D01*
X650565Y464822D01*
D02*
G37*
G36*
X629338D02*
X627789Y464670D01*
X626300Y464218D01*
X624928Y463485D01*
X623725Y462497D01*
X622737Y461295D01*
X622004Y459922D01*
X621552Y458433D01*
X621399Y456884D01*
Y451884D01*
X621552Y450336D01*
X622004Y448846D01*
X622737Y447474D01*
X623725Y446271D01*
X624928Y445284D01*
X626300Y444550D01*
X627789Y444099D01*
X629338Y443946D01*
X630886Y444099D01*
X632375Y444550D01*
X633748Y445284D01*
X634951Y446271D01*
X635938Y447474D01*
X636672Y448846D01*
X637123Y450336D01*
X637276Y451884D01*
Y456884D01*
X637123Y458433D01*
X636672Y459922D01*
X635938Y461295D01*
X634951Y462497D01*
X633748Y463485D01*
X632375Y464218D01*
X630886Y464670D01*
X629338Y464822D01*
D02*
G37*
G36*
X663734Y442434D02*
X662454Y442266D01*
X661262Y441772D01*
X660239Y440987D01*
X659453Y439963D01*
X658960Y438771D01*
X658791Y437492D01*
X658960Y436213D01*
X659453Y435021D01*
X660239Y433997D01*
X660920Y433474D01*
X660722Y432996D01*
X659871Y433108D01*
X658591Y432940D01*
X657399Y432446D01*
X656376Y431661D01*
X655590Y430637D01*
X655097Y429445D01*
X654928Y428166D01*
X655040Y427315D01*
X654562Y427116D01*
X654039Y427798D01*
X653016Y428583D01*
X651824Y429077D01*
X650545Y429245D01*
X649265Y429077D01*
X648073Y428583D01*
X647050Y427798D01*
X646527Y427116D01*
X646049Y427315D01*
X646161Y428166D01*
X645992Y429445D01*
X645499Y430637D01*
X644713Y431661D01*
X643690Y432446D01*
X642498Y432940D01*
X641219Y433108D01*
X640367Y432996D01*
X640169Y433474D01*
X640850Y433997D01*
X641636Y435021D01*
X642130Y436213D01*
X642298Y437492D01*
X642130Y438771D01*
X641636Y439963D01*
X640850Y440987D01*
X639827Y441772D01*
X638635Y442266D01*
X637356Y442434D01*
X636076Y442266D01*
X634885Y441772D01*
X633861Y440987D01*
X633076Y439963D01*
X632582Y438771D01*
X632413Y437492D01*
X632582Y436213D01*
X632827Y435620D01*
X632577Y435187D01*
X631988Y435110D01*
X630796Y434616D01*
X629773Y433830D01*
X628987Y432807D01*
X628493Y431615D01*
X628325Y430336D01*
X628493Y429057D01*
X628987Y427865D01*
X629773Y426841D01*
X630796Y426055D01*
X631988Y425562D01*
X633267Y425393D01*
X634547Y425562D01*
X635738Y426055D01*
X636210Y426417D01*
X636693Y426288D01*
X636938Y425695D01*
X637724Y424671D01*
X638747Y423886D01*
X639340Y423640D01*
X639470Y423157D01*
X639108Y422686D01*
X638614Y421494D01*
X638446Y420215D01*
X638614Y418936D01*
X639108Y417744D01*
X639893Y416720D01*
X640917Y415935D01*
X642109Y415441D01*
X643388Y415273D01*
X644667Y415441D01*
X645859Y415935D01*
X646883Y416720D01*
X647668Y417744D01*
X648162Y418936D01*
X648240Y419525D01*
X648672Y419775D01*
X649265Y419529D01*
X650545Y419361D01*
X651824Y419529D01*
X652417Y419775D01*
X652850Y419525D01*
X652927Y418936D01*
X653421Y417744D01*
X654206Y416720D01*
X655230Y415935D01*
X656422Y415441D01*
X657701Y415273D01*
X658980Y415441D01*
X660172Y415935D01*
X661196Y416720D01*
X661981Y417744D01*
X662475Y418936D01*
X662643Y420215D01*
X662475Y421494D01*
X661981Y422686D01*
X661619Y423157D01*
X661749Y423640D01*
X662342Y423886D01*
X663365Y424671D01*
X664151Y425695D01*
X664396Y426288D01*
X664879Y426417D01*
X665351Y426055D01*
X666543Y425562D01*
X667822Y425393D01*
X669101Y425562D01*
X670293Y426055D01*
X671317Y426841D01*
X672102Y427865D01*
X672596Y429057D01*
X672764Y430336D01*
X672596Y431615D01*
X672102Y432807D01*
X671317Y433830D01*
X670293Y434616D01*
X669101Y435110D01*
X668512Y435187D01*
X668262Y435620D01*
X668507Y436213D01*
X668676Y437492D01*
X668507Y438771D01*
X668014Y439963D01*
X667228Y440987D01*
X666205Y441772D01*
X665013Y442266D01*
X663734Y442434D01*
D02*
G37*
G36*
X650565Y442455D02*
X649286Y442287D01*
X648094Y441793D01*
X647071Y441008D01*
X646285Y439984D01*
X645791Y438792D01*
X645623Y437513D01*
X645791Y436234D01*
X646285Y435042D01*
X647071Y434018D01*
X648094Y433233D01*
X649286Y432739D01*
X650565Y432571D01*
X651844Y432739D01*
X653036Y433233D01*
X654060Y434018D01*
X654845Y435042D01*
X655339Y436234D01*
X655508Y437513D01*
X655339Y438792D01*
X654845Y439984D01*
X654060Y441008D01*
X653036Y441793D01*
X651844Y442287D01*
X650565Y442455D01*
D02*
G37*
G36*
X535650Y481900D02*
X528350D01*
Y475100D01*
X535650D01*
Y481900D01*
D02*
G37*
G36*
X545500Y473923D02*
X544764Y473776D01*
X544140Y473360D01*
X543724Y472736D01*
X543577Y472000D01*
X543724Y471264D01*
X544140Y470640D01*
X544764Y470224D01*
X545500Y470077D01*
X546236Y470224D01*
X546860Y470640D01*
X547222Y471183D01*
X547584Y471151D01*
X547722Y471100D01*
Y463222D01*
X556278D01*
Y471778D01*
X547888D01*
X547597Y471917D01*
X547395Y472142D01*
X547276Y472736D01*
X546860Y473360D01*
X546236Y473776D01*
X545500Y473923D01*
D02*
G37*
G36*
X529000Y453423D02*
X528264Y453276D01*
X527640Y452860D01*
X527224Y452236D01*
X527077Y451500D01*
X527224Y450764D01*
X527640Y450140D01*
X528264Y449724D01*
X529000Y449577D01*
X529736Y449724D01*
X530360Y450140D01*
X530776Y450764D01*
X530923Y451500D01*
X530776Y452236D01*
X530360Y452860D01*
X529736Y453276D01*
X529000Y453423D01*
D02*
G37*
%LPD*%
D30*
X539086Y507343D02*
Y509346D01*
X539500Y509760D02*
Y510131D01*
X539086Y509346D02*
X539500Y509760D01*
X538330Y498965D02*
X541577Y495717D01*
X538330Y498965D02*
Y506587D01*
X539086Y507343D01*
X528500Y516000D02*
X528669D01*
X528500Y513500D02*
X528762Y513762D01*
X549499Y536830D02*
X558231D01*
X528669Y516000D02*
X549499Y536830D01*
X528762Y513762D02*
X529360D01*
X549653Y534056D01*
X558251D01*
X573500Y509500D02*
X574611D01*
X566243Y519000D02*
X580500Y504743D01*
X572500Y514000D02*
X581300Y505200D01*
X580500Y478000D02*
Y504743D01*
X581300Y499700D02*
Y505200D01*
X574611Y509500D02*
X579700Y504411D01*
X583500Y486000D02*
X587000Y482500D01*
Y445970D02*
Y482500D01*
Y445970D02*
X598100Y434870D01*
Y432168D02*
Y434870D01*
Y432168D02*
X602134Y428134D01*
X557983Y496517D02*
X572983D01*
X541926Y512574D02*
X557983Y496517D01*
X541577Y495717D02*
X570657D01*
X541246Y494917D02*
X563583D01*
X556509Y494117D02*
X559626Y491000D01*
X540914Y494117D02*
X556509D01*
X572983Y496517D02*
X573500Y496000D01*
X570657Y495717D02*
X575374Y491000D01*
X563583Y494917D02*
X567500Y491000D01*
X537500Y498663D02*
X541246Y494917D01*
X528516Y506516D02*
X540914Y494117D01*
X553000Y490500D02*
X554500Y492000D01*
X553000Y480869D02*
Y490500D01*
Y480869D02*
X562000Y471869D01*
Y467500D02*
Y471869D01*
X558032Y476968D02*
X561531D01*
X555000Y480000D02*
X558032Y476968D01*
X555000Y480000D02*
Y489500D01*
X568469Y520031D02*
Y555532D01*
X581300Y477669D02*
Y494800D01*
X579700Y478331D02*
Y504411D01*
X578900Y478663D02*
Y497100D01*
Y475269D02*
X581300Y477669D01*
X578000Y475500D02*
X580500Y478000D01*
X577200Y475831D02*
X579700Y478331D01*
X576400Y476163D02*
X578900Y478663D01*
X572532Y514032D02*
Y525969D01*
X572500Y514000D02*
X572532Y514032D01*
X556000Y519000D02*
X566243D01*
X581300Y499700D02*
X586000Y495000D01*
X576400Y463400D02*
Y476163D01*
X577200Y460200D02*
Y475831D01*
X578000Y437757D02*
Y475500D01*
X578900Y470600D02*
Y475269D01*
Y470600D02*
X582000Y467500D01*
X579000Y451000D02*
X580000Y452000D01*
X579000Y429743D02*
Y451000D01*
Y429743D02*
X579586Y429157D01*
Y423383D02*
Y429157D01*
Y423383D02*
X587968Y415000D01*
X537500Y498663D02*
Y508000D01*
X581300Y494800D02*
X582500Y496000D01*
X575000Y462000D02*
X576400Y463400D01*
X570000Y462000D02*
X575000D01*
X567500Y459500D02*
X570000Y462000D01*
X567500Y456000D02*
Y459500D01*
X565122Y453622D02*
X567500Y456000D01*
X574500Y457500D02*
X577200Y460200D01*
X572000Y457500D02*
X574500D01*
X552000D02*
X555878Y453622D01*
X565122D01*
X575157Y434914D02*
X578000Y437757D01*
X577500Y498500D02*
X578900Y497100D01*
X572505Y434914D02*
X575157D01*
X562591Y425000D02*
X572505Y434914D01*
X562532Y425000D02*
X562591D01*
D31*
X585500Y444500D02*
X596000Y434000D01*
D33*
X525000Y517374D02*
X536000Y528374D01*
Y576000D01*
X525000Y469500D02*
Y517374D01*
Y469500D02*
X536500Y458000D01*
X531000Y405500D02*
Y417000D01*
X536000Y576000D02*
X538500Y578500D01*
X542500D01*
D35*
X596000Y433500D02*
Y434000D01*
X542500Y578500D02*
X543000Y578000D01*
D43*
X671896Y454384D02*
D03*
D46*
X531000Y417000D02*
X537000Y423000D01*
X544000D01*
D54*
X575374Y491000D02*
D03*
X567500D02*
D03*
X559626D02*
D03*
D59*
X562000Y467500D02*
D03*
X582000D02*
D03*
X552000Y457500D02*
D03*
X572000D02*
D03*
D61*
X531000Y405500D02*
D03*
D64*
X528500Y516000D02*
D03*
Y513500D02*
D03*
X539963Y529537D02*
D03*
X558251Y534056D02*
D03*
X558231Y536830D02*
D03*
X560728Y542272D02*
D03*
X573500Y509500D02*
D03*
X583500Y486000D02*
D03*
X602134Y428134D02*
D03*
X574500Y472500D02*
D03*
X533000Y421000D02*
D03*
X534500Y427500D02*
D03*
Y439500D02*
D03*
X574532Y522031D02*
D03*
X596000Y433500D02*
D03*
X541000Y492531D02*
D03*
X554500Y492000D02*
D03*
X555000Y489500D02*
D03*
X561531Y476968D02*
D03*
X553957Y511957D02*
D03*
X568469Y520031D02*
D03*
X550500Y555500D02*
D03*
X541500Y566000D02*
D03*
X573500Y541500D02*
D03*
X572532Y525969D02*
D03*
X586000Y495000D02*
D03*
X589000Y495500D02*
D03*
X573500Y496000D02*
D03*
X547500Y521500D02*
D03*
X525500Y523248D02*
D03*
X541926Y512574D02*
D03*
X580000Y452000D02*
D03*
X539500Y510131D02*
D03*
X537500Y508000D02*
D03*
X534500Y506468D02*
D03*
X528516Y506516D02*
D03*
X568469Y555532D02*
D03*
X566728Y563500D02*
D03*
X568838Y443500D02*
D03*
X577500Y498500D02*
D03*
X582500Y496000D02*
D03*
X540011Y481011D02*
D03*
X556000Y519000D02*
D03*
X562532Y425000D02*
D03*
X536500Y471000D02*
D03*
X539000Y520272D02*
D03*
X585500Y444500D02*
D03*
X587968Y415000D02*
D03*
X543000Y578000D02*
D03*
X536500Y458000D02*
D03*
X537500Y443500D02*
D03*
X653121Y571369D02*
D03*
X659621Y567369D02*
D03*
X646859Y514621D02*
D03*
Y508923D02*
D03*
X650621Y516869D02*
D03*
X652621Y511369D02*
D03*
X655621Y518369D02*
D03*
X658121Y513369D02*
D03*
X660621Y520369D02*
D03*
X664121Y515869D02*
D03*
X665621Y523369D02*
D03*
X670121Y520369D02*
D03*
Y528369D02*
D03*
X675121Y526369D02*
D03*
X673621Y533869D02*
D03*
X678121Y532869D02*
D03*
X674121Y540369D02*
D03*
X680121Y539869D02*
D03*
X674621Y546369D02*
D03*
X680621Y547369D02*
D03*
X672280Y553257D02*
D03*
X678621Y554369D02*
D03*
X669121Y558869D02*
D03*
X674621Y561369D02*
D03*
X665121Y563369D02*
D03*
X668121Y567869D02*
D03*
X660621Y573869D02*
D03*
X653621Y576369D02*
D03*
X646859Y571040D02*
D03*
Y576528D02*
D03*
D65*
X662108Y409576D02*
D03*
X650545Y407276D02*
D03*
X638981Y409576D02*
D03*
X629178Y416126D02*
D03*
X622628Y425929D02*
D03*
X620328Y437492D02*
D03*
X680761D02*
D03*
X678461Y425929D02*
D03*
X671911Y416126D02*
D03*
D66*
X537945Y443055D02*
X544889Y450000D01*
X531000Y436111D02*
X537945Y443055D01*
D67*
X531000Y427500D02*
Y436111D01*
Y417000D02*
Y427500D01*
D68*
X544889Y450000D02*
X565500D01*
X568886Y443614D02*
Y446614D01*
X565500Y450000D02*
X568886Y446614D01*
D69*
X544000Y423000D02*
D03*
M02*
