G04*
G04 #@! TF.GenerationSoftware,Altium Limited,Altium Designer,18.0.7 (293)*
G04*
G04 Layer_Color=32896*
%FSLAX25Y25*%
%MOIN*%
G70*
G01*
G75*
%ADD10C,0.00394*%
%ADD11C,0.00787*%
%ADD12C,0.01000*%
%ADD13C,0.00500*%
%ADD127C,0.00984*%
D10*
X392004Y496286D02*
X404996D01*
X392035Y508681D02*
X405028D01*
X506150Y448032D02*
Y451968D01*
Y448032D02*
Y451968D01*
X499850Y448032D02*
Y451968D01*
Y448032D02*
Y451968D01*
X517650Y451532D02*
Y455469D01*
Y451532D02*
Y455469D01*
X511350Y451532D02*
Y455469D01*
Y451532D02*
Y455469D01*
D11*
X393094Y489382D02*
G03*
X393094Y489382I-394J0D01*
G01*
X417779Y580437D02*
G03*
X417779Y580437I-394J0D01*
G01*
X469894Y556150D02*
G03*
X469894Y556150I-394J0D01*
G01*
X450571Y446260D02*
G03*
X450571Y446260I-394J0D01*
G01*
X503000Y462205D02*
G03*
X503000Y462598I0J197D01*
G01*
D02*
G03*
X503000Y462205I0J-197D01*
G01*
D02*
G03*
X503000Y462598I0J197D01*
G01*
X514500Y465705D02*
G03*
X514500Y466098I0J197D01*
G01*
D02*
G03*
X514500Y465705I0J-197D01*
G01*
D02*
G03*
X514500Y466098I0J197D01*
G01*
X440673Y453406D02*
X445595D01*
X439295Y441752D02*
Y453248D01*
X438705Y441752D02*
X439295D01*
X438705D02*
Y453248D01*
X439295D01*
X441307Y512193D02*
Y548807D01*
X404693Y512193D02*
X441307D01*
X404693D02*
Y548807D01*
X441307D01*
D12*
X419508Y477126D02*
G03*
X419508Y477126I-1000J0D01*
G01*
X475265Y421737D02*
G03*
X475265Y421737I-432J0D01*
G01*
X422008Y463126D02*
Y479126D01*
Y501126D02*
Y517126D01*
X443508Y501126D02*
Y517126D01*
Y463126D02*
Y479126D01*
X422008Y463126D02*
X443508D01*
X425508Y495626D02*
X427008D01*
Y487376D02*
Y492876D01*
X425508Y484626D02*
X427008D01*
Y487376D01*
Y492876D02*
Y495626D01*
X422008Y517126D02*
X443508D01*
X458371Y423681D02*
Y439429D01*
X458871D01*
X458371Y423681D02*
X458871D01*
X474771Y423617D02*
Y439365D01*
X474271Y439491D02*
X474771D01*
X474145Y423617D02*
X474771D01*
D13*
X461669Y501520D02*
G03*
X461669Y501520I-1181J0D01*
G01*
X463638Y503094D02*
X468362D01*
X463638D02*
Y514906D01*
X468362D01*
Y503094D02*
Y514906D01*
X397898Y570398D02*
X410102D01*
X397898Y582602D02*
X410102D01*
X464185Y564693D02*
Y573984D01*
X474815Y564693D02*
Y573984D01*
X454095Y455905D02*
X465906D01*
X454095Y444095D02*
X465906D01*
D127*
X449988Y422402D02*
G03*
X449988Y422402I-492J0D01*
G01*
X448000Y548216D02*
G03*
X448000Y548216I-492J0D01*
G01*
M02*
