G04*
G04 #@! TF.GenerationSoftware,Altium Limited,Altium Designer,18.0.7 (293)*
G04*
G04 Layer_Color=8388736*
%FSLAX25Y25*%
%MOIN*%
G70*
G01*
G75*
%ADD37R,0.03150X0.03110*%
%ADD38R,0.02953X0.02559*%
%ADD39R,0.02854X0.03032*%
%ADD40R,0.02087X0.02284*%
%ADD41R,0.10236X0.08386*%
%ADD42R,0.02165X0.01772*%
%ADD43R,0.01968X0.02559*%
%ADD44R,0.03937X0.01772*%
G04:AMPARAMS|DCode=45|XSize=80.71mil|YSize=29.53mil|CornerRadius=5.91mil|HoleSize=0mil|Usage=FLASHONLY|Rotation=90.000|XOffset=0mil|YOffset=0mil|HoleType=Round|Shape=RoundedRectangle|*
%AMROUNDEDRECTD45*
21,1,0.08071,0.01772,0,0,90.0*
21,1,0.06890,0.02953,0,0,90.0*
1,1,0.01181,0.00886,0.03445*
1,1,0.01181,0.00886,-0.03445*
1,1,0.01181,-0.00886,-0.03445*
1,1,0.01181,-0.00886,0.03445*
%
%ADD45ROUNDEDRECTD45*%
%ADD46R,0.05315X0.04134*%
%ADD47R,0.05709X0.05315*%
G04:AMPARAMS|DCode=48|XSize=31.5mil|YSize=31.1mil|CornerRadius=0mil|HoleSize=0mil|Usage=FLASHONLY|Rotation=135.000|XOffset=0mil|YOffset=0mil|HoleType=Round|Shape=Rectangle|*
%AMROTATEDRECTD48*
4,1,4,0.02213,-0.00014,0.00014,-0.02213,-0.02213,0.00014,-0.00014,0.02213,0.02213,-0.00014,0.0*
%
%ADD48ROTATEDRECTD48*%

G04:AMPARAMS|DCode=49|XSize=31.5mil|YSize=31.1mil|CornerRadius=0mil|HoleSize=0mil|Usage=FLASHONLY|Rotation=45.000|XOffset=0mil|YOffset=0mil|HoleType=Round|Shape=Rectangle|*
%AMROTATEDRECTD49*
4,1,4,-0.00014,-0.02213,-0.02213,-0.00014,0.00014,0.02213,0.02213,0.00014,-0.00014,-0.02213,0.0*
%
%ADD49ROTATEDRECTD49*%

%ADD50R,0.05315X0.03347*%
%ADD51R,0.05315X0.03583*%
%ADD52R,0.05315X0.03740*%
%ADD53R,0.02559X0.02953*%
%ADD54R,0.03110X0.03150*%
%ADD55R,0.12011X0.05311*%
%ADD56R,0.06890X0.03347*%
%ADD57R,0.09252X0.05315*%
%ADD58R,0.06496X0.05315*%
%ADD59R,0.06496X0.06890*%
%ADD60R,0.05891X0.05391*%
%ADD61O,0.06091X0.05091*%
%ADD62R,0.07087X0.07087*%
%ADD63C,0.07087*%
%ADD64C,0.07591*%
%ADD65R,0.07146X0.07146*%
%ADD66C,0.07146*%
%ADD67C,0.08465*%
%ADD68C,0.18591*%
%ADD69C,0.06591*%
%ADD70C,0.10591*%
%ADD71C,0.02559*%
%ADD72C,0.02362*%
D37*
X404272Y486500D02*
D03*
X400728D02*
D03*
X398772Y576000D02*
D03*
X395228D02*
D03*
X412272Y508000D02*
D03*
X408728D02*
D03*
X398728Y477000D02*
D03*
X402272D02*
D03*
D38*
X403031Y576000D02*
D03*
X406968D02*
D03*
X396937Y489500D02*
D03*
X393000D02*
D03*
X465469Y423000D02*
D03*
X461531D02*
D03*
X439032Y435000D02*
D03*
X442969D02*
D03*
X400531Y489500D02*
D03*
X404468D02*
D03*
D39*
X468177Y448000D02*
D03*
X458823Y444260D02*
D03*
Y451740D02*
D03*
D40*
X443571Y443803D02*
D03*
X432429D02*
D03*
D41*
X438000Y445221D02*
D03*
D42*
X434161Y449709D02*
D03*
X436721D02*
D03*
X439280D02*
D03*
X441839D02*
D03*
D43*
Y438291D02*
D03*
X439280D02*
D03*
X436721D02*
D03*
X434161D02*
D03*
D44*
X407201Y500953D02*
D03*
Y498984D02*
D03*
Y497016D02*
D03*
Y495047D02*
D03*
X394799D02*
D03*
Y497016D02*
D03*
Y498984D02*
D03*
Y500953D02*
D03*
D45*
X394000Y549165D02*
D03*
X399000D02*
D03*
X404000D02*
D03*
X409000D02*
D03*
Y529835D02*
D03*
X404000D02*
D03*
X399000D02*
D03*
X394000D02*
D03*
D46*
X467551Y476055D02*
D03*
Y457945D02*
D03*
D47*
X461449Y473594D02*
D03*
Y460405D02*
D03*
D48*
X461247Y429253D02*
D03*
X463753Y426747D02*
D03*
X471753Y433747D02*
D03*
X469247Y436253D02*
D03*
D49*
X464253Y436753D02*
D03*
X461747Y434247D02*
D03*
X471753Y429253D02*
D03*
X469247Y426747D02*
D03*
X444247Y424747D02*
D03*
X446753Y427253D02*
D03*
D50*
X450157Y567031D02*
D03*
Y570968D02*
D03*
D51*
Y574984D02*
D03*
Y563016D02*
D03*
D52*
Y579827D02*
D03*
Y558173D02*
D03*
D53*
X456500Y423032D02*
D03*
X456500Y426968D02*
D03*
X494500Y453968D02*
D03*
Y450032D02*
D03*
X485000Y453937D02*
D03*
Y450000D02*
D03*
X534500Y452000D02*
D03*
Y455937D02*
D03*
X533000Y466968D02*
D03*
Y463031D02*
D03*
X525500Y454063D02*
D03*
Y458000D02*
D03*
D54*
X449500Y449728D02*
D03*
Y453272D02*
D03*
X471500Y450728D02*
D03*
Y454272D02*
D03*
X416000Y577000D02*
D03*
Y580543D02*
D03*
X412000Y577228D02*
D03*
Y580772D02*
D03*
X634000Y549772D02*
D03*
Y546228D02*
D03*
X624500Y549772D02*
D03*
Y546228D02*
D03*
X637500Y549772D02*
D03*
Y546228D02*
D03*
X621000Y549772D02*
D03*
Y546228D02*
D03*
X641000Y549772D02*
D03*
Y546228D02*
D03*
X617500Y549772D02*
D03*
Y546228D02*
D03*
X614000Y549772D02*
D03*
Y546228D02*
D03*
X610500Y549772D02*
D03*
Y546228D02*
D03*
X593000Y549772D02*
D03*
Y546228D02*
D03*
D55*
X396446Y435498D02*
D03*
X424006D02*
D03*
D56*
X417488Y486213D02*
D03*
Y490543D02*
D03*
Y494874D02*
D03*
Y499205D02*
D03*
Y503535D02*
D03*
Y507866D02*
D03*
Y512197D02*
D03*
Y516528D02*
D03*
Y520858D02*
D03*
D57*
X459221Y542512D02*
D03*
Y481488D02*
D03*
D58*
X421425D02*
D03*
D59*
Y538969D02*
D03*
D60*
X399000Y482000D02*
D03*
D61*
X443000Y429685D02*
D03*
D62*
X396500Y562500D02*
D03*
D63*
X406500D02*
D03*
X416500D02*
D03*
X426500D02*
D03*
X436500D02*
D03*
D64*
X466571Y431491D02*
D03*
D65*
X419000Y471000D02*
D03*
D66*
X429000D02*
D03*
X439000D02*
D03*
X449000D02*
D03*
X419000Y461000D02*
D03*
X429000D02*
D03*
X439000D02*
D03*
X449000D02*
D03*
D67*
X465709Y551992D02*
D03*
Y586008D02*
D03*
X450748D02*
D03*
Y551992D02*
D03*
D68*
X466000Y408500D02*
D03*
X398000Y409000D02*
D03*
D69*
X407311Y587500D02*
D03*
X395500D02*
D03*
D70*
X433000Y419000D02*
D03*
X419220Y409000D02*
D03*
X446779D02*
D03*
D71*
X460795Y492512D02*
D03*
Y524008D02*
D03*
D72*
X472500Y426000D02*
D03*
X464000Y425500D02*
D03*
X460000Y426000D02*
D03*
X468000D02*
D03*
X460500Y437000D02*
D03*
X473000D02*
D03*
X465500D02*
D03*
X469000Y438000D02*
D03*
M02*
