G04*
G04 #@! TF.GenerationSoftware,Altium Limited,Altium Designer,18.0.7 (293)*
G04*
G04 Layer_Color=32768*
%FSLAX25Y25*%
%MOIN*%
G70*
G01*
G75*
%ADD10C,0.00394*%
%ADD129C,0.00197*%
D10*
X401457Y574622D02*
Y577378D01*
X408543Y574622D02*
Y577378D01*
X401457D02*
X408543D01*
X401457Y574622D02*
X408543D01*
X403819Y576000D02*
X406181D01*
X405000Y574819D02*
Y577181D01*
X451622Y490457D02*
X454378D01*
X451622Y497543D02*
X454378D01*
Y490457D02*
Y497543D01*
X451622Y490457D02*
Y497543D01*
X453000Y492819D02*
Y495181D01*
X451819Y494000D02*
X454181D01*
X463043Y472122D02*
Y474878D01*
X455957Y472122D02*
Y474878D01*
X463043D01*
X455957Y472122D02*
X463043D01*
X458319Y473500D02*
X460681D01*
X459500Y472319D02*
Y474681D01*
X428622Y483512D02*
X431378D01*
X428622Y476425D02*
X431378D01*
X428622D02*
Y483512D01*
X431378Y476425D02*
Y483512D01*
X430000Y478787D02*
Y481150D01*
X428819Y479969D02*
X431181D01*
X452957Y566122D02*
Y568878D01*
X460043Y566122D02*
Y568878D01*
X452957Y566122D02*
X460043D01*
X452957Y568878D02*
X460043D01*
X455319Y567500D02*
X457681D01*
X456500Y566319D02*
Y568681D01*
X460043Y569622D02*
Y572378D01*
X452957Y569622D02*
Y572378D01*
X460043D01*
X452957Y569622D02*
X460043D01*
X455319Y571000D02*
X457681D01*
X456500Y569819D02*
Y572181D01*
X420043Y492622D02*
Y495378D01*
X412957Y492622D02*
Y495378D01*
X420043D01*
X412957Y492622D02*
X420043D01*
X415319Y494000D02*
X417681D01*
X416500Y492819D02*
Y495181D01*
X410622Y501543D02*
X413378D01*
X410622Y494457D02*
X413378D01*
X410622D02*
Y501543D01*
X413378Y494457D02*
Y501543D01*
X412000Y496819D02*
Y499181D01*
X410819Y498000D02*
X413181D01*
X427622Y448575D02*
X430378D01*
X427622Y441488D02*
X430378D01*
X427622D02*
Y448575D01*
X430378Y441488D02*
Y448575D01*
X429000Y443850D02*
Y446213D01*
X427819Y445031D02*
X430181D01*
X433043Y449622D02*
Y452378D01*
X425957Y449622D02*
Y452378D01*
X433043D01*
X425957Y449622D02*
X433043D01*
X428319Y451000D02*
X430681D01*
X429500Y449819D02*
Y452181D01*
X426457Y434122D02*
Y436878D01*
X433543Y434122D02*
Y436878D01*
X426457Y434122D02*
X433543D01*
X426457Y436878D02*
X433543D01*
X428819Y435500D02*
X431181D01*
X430000Y434319D02*
Y436681D01*
X488622Y448457D02*
X491378D01*
X488622Y455543D02*
X491378D01*
Y448457D02*
Y455543D01*
X488622Y448457D02*
Y455543D01*
X490000Y450819D02*
Y453181D01*
X488819Y452000D02*
X491181D01*
X398512Y488122D02*
Y490878D01*
X391425Y488122D02*
Y490878D01*
Y488122D02*
X398512D01*
X391425Y490878D02*
X398512D01*
X393787Y489500D02*
X396150D01*
X394969Y488319D02*
Y490681D01*
X427744Y431787D02*
Y454236D01*
Y431787D02*
X448256D01*
Y454236D01*
X427744D02*
X448256D01*
X460622Y573012D02*
X463378D01*
X460622Y565925D02*
X463378D01*
X460622D02*
Y573012D01*
X463378Y565925D02*
Y573012D01*
X462000Y568287D02*
Y570650D01*
X460819Y569468D02*
X463181D01*
X495913Y466535D02*
X510087D01*
Y437835D02*
Y466535D01*
X495913Y437835D02*
X510087D01*
X495913D02*
Y466535D01*
X507413Y470035D02*
X521587D01*
Y441335D02*
Y470035D01*
X507413Y441335D02*
X521587D01*
X507413D02*
Y470035D01*
X463500Y421819D02*
Y424181D01*
X462319Y423000D02*
X464681D01*
X459957Y421622D02*
X467043D01*
X459957Y424378D02*
X467043D01*
Y421622D02*
Y424378D01*
X459957Y421622D02*
Y424378D01*
X441000Y433819D02*
Y436181D01*
X439819Y435000D02*
X442181D01*
X437457Y436378D02*
X444543D01*
X437457Y433622D02*
X444543D01*
X437457D02*
Y436378D01*
X444543Y433622D02*
Y436378D01*
X440118Y543921D02*
Y594079D01*
X479882D01*
Y543921D02*
Y594079D01*
X440118Y543921D02*
X479882D01*
X455319Y425000D02*
X457681D01*
X456500Y423819D02*
Y426181D01*
X455122Y421457D02*
X455122Y428543D01*
X457878Y428543D02*
X457878Y421457D01*
X455122Y421457D02*
X457878Y421457D01*
X455122Y428543D02*
X457878Y428543D01*
X402500Y488319D02*
Y490681D01*
X401319Y489500D02*
X403681D01*
X398957Y490878D02*
X406043D01*
X398957Y488122D02*
X406043D01*
X398957D02*
Y490878D01*
X406043Y488122D02*
Y490878D01*
X493319Y452000D02*
X495681D01*
X494500Y450819D02*
Y453181D01*
X495878Y448457D02*
Y455543D01*
X493122Y448457D02*
Y455543D01*
X495878D01*
X493122Y448457D02*
X495878D01*
X483819Y451968D02*
X486181D01*
X485000Y450787D02*
Y453150D01*
X486378Y448425D02*
Y455512D01*
X483622Y448425D02*
Y455512D01*
X486378D01*
X483622Y448425D02*
X486378D01*
X533319Y453968D02*
X535681D01*
X534500Y452787D02*
Y455150D01*
X533122Y450425D02*
Y457512D01*
X535878Y450425D02*
Y457512D01*
X533122Y450425D02*
X535878D01*
X533122Y457512D02*
X535878D01*
X406858Y475189D02*
X480480D01*
Y548811D01*
X406858D02*
X480480D01*
X406858Y475189D02*
Y548811D01*
X531819Y465000D02*
X534181D01*
X533000Y463819D02*
Y466181D01*
X534378Y461457D02*
Y468543D01*
X531622Y461457D02*
Y468543D01*
X534378D01*
X531622Y461457D02*
X534378D01*
X524319Y456032D02*
X526681D01*
X525500Y454850D02*
Y457213D01*
X524122Y452488D02*
Y459575D01*
X526878Y452488D02*
Y459575D01*
X524122Y452488D02*
X526878D01*
X524122Y459575D02*
X526878D01*
D129*
X398858Y484650D02*
X406142D01*
X398858D02*
Y488350D01*
X406142D01*
Y484650D02*
Y488350D01*
X416650Y571858D02*
Y579142D01*
Y571858D02*
X420350D01*
Y579142D01*
X416650D02*
X420350D01*
X393358Y574150D02*
X400642D01*
X393358D02*
Y577850D01*
X400642D01*
Y574150D02*
Y577850D01*
X411850Y477858D02*
Y485142D01*
X408150D02*
X411850D01*
X408150Y477858D02*
Y485142D01*
Y477858D02*
X411850D01*
X390634Y473634D02*
Y490366D01*
Y473634D02*
X407366D01*
Y490366D01*
X390634D02*
X407366D01*
X457102Y441307D02*
Y454693D01*
Y441307D02*
X469898D01*
Y454693D01*
X457102D02*
X469898D01*
X391638Y570713D02*
Y582287D01*
X416362Y570713D02*
Y582287D01*
X411126Y570713D02*
X416362D01*
X411126Y569374D02*
Y570713D01*
X396874Y569374D02*
X411126D01*
X396874D02*
Y570713D01*
X391638D02*
X396874D01*
X391638Y582287D02*
X396874D01*
Y583626D01*
X411126D01*
Y582287D02*
Y583626D01*
Y582287D02*
X416362D01*
X462358Y519850D02*
X469642D01*
X462358Y516150D02*
Y519850D01*
Y516150D02*
X469642D01*
Y519850D01*
X373858Y523850D02*
X381142D01*
X373858Y520150D02*
Y523850D01*
Y520150D02*
X381142D01*
Y523850D01*
X435087Y503850D02*
X442370D01*
X435087Y500150D02*
Y503850D01*
Y500150D02*
X442370D01*
Y503850D01*
X463201Y556937D02*
Y581740D01*
X475799D01*
Y556937D02*
Y581740D01*
X463201Y556937D02*
X475799D01*
X398858Y495850D02*
X406142D01*
X398858Y492150D02*
Y495850D01*
Y492150D02*
X406142D01*
Y495850D01*
X391358D02*
X398642D01*
X391358Y492150D02*
Y495850D01*
Y492150D02*
X398642D01*
Y495850D01*
X446579Y440531D02*
Y454468D01*
X431421Y440531D02*
X446579D01*
X431421D02*
Y454468D01*
X446579D01*
X392142Y492882D02*
Y503118D01*
Y492882D02*
X409858D01*
Y503118D01*
X392142D02*
X409858D01*
X468327Y442913D02*
Y457087D01*
X451673Y442913D02*
Y457087D01*
X468327D01*
X451673Y442913D02*
X468327D01*
X450087Y421417D02*
Y437953D01*
X435913D02*
X450087D01*
X435913Y421417D02*
Y437953D01*
Y421417D02*
X450087D01*
X390870Y553890D02*
X412130D01*
X390870Y525110D02*
X412130D01*
Y553890D01*
X390870Y525110D02*
Y553890D01*
X449476Y504024D02*
Y556976D01*
X396524Y504024D02*
X449476D01*
X396524D02*
Y556976D01*
X449476D01*
X389827Y556516D02*
Y568484D01*
X443173D01*
Y556516D02*
Y568484D01*
X389827Y556516D02*
X443173D01*
X463767Y424117D02*
X466384Y426733D01*
X461233Y431883D02*
X466384Y426733D01*
X458616Y429267D02*
X461233Y431883D01*
X458616Y429267D02*
X463767Y424117D01*
X459117Y434233D02*
X461733Y431616D01*
X466884Y436767D01*
X464267Y439384D02*
X466884Y436767D01*
X459117Y434233D02*
X464267Y439384D01*
X466616Y426733D02*
X469233Y424117D01*
X474383Y429267D01*
X471767Y431883D02*
X474383Y429267D01*
X466616Y426733D02*
X471767Y431883D01*
X466616Y436267D02*
X469233Y438883D01*
X466616Y436267D02*
X471767Y431116D01*
X474383Y433733D01*
X469233Y438883D02*
X474383Y433733D01*
X446767Y429883D02*
X449383Y427267D01*
X441616Y424733D02*
X446767Y429883D01*
X441616Y424733D02*
X444233Y422117D01*
X449383Y427267D01*
X447650Y455142D02*
X451350D01*
X447650Y447858D02*
Y455142D01*
Y447858D02*
X451350D01*
Y455142D01*
X469650Y456142D02*
X473350D01*
X469650Y448858D02*
Y456142D01*
Y448858D02*
X473350D01*
Y456142D01*
X414150Y582413D02*
X417850D01*
X414150Y575130D02*
Y582413D01*
Y575130D02*
X417850D01*
Y582413D01*
X410150Y582642D02*
X413850D01*
X410150Y575358D02*
Y582642D01*
Y575358D02*
X413850D01*
Y582642D01*
X406858Y506150D02*
Y509850D01*
Y506150D02*
X414142D01*
Y509850D01*
X406858D02*
X414142D01*
X404142Y475150D02*
Y478850D01*
X396858D02*
X404142D01*
X396858Y475150D02*
Y478850D01*
Y475150D02*
X404142D01*
X632150Y544358D02*
X635850D01*
Y551642D01*
X632150D02*
X635850D01*
X632150Y544358D02*
Y551642D01*
X622650Y544358D02*
X626350D01*
Y551642D01*
X622650D02*
X626350D01*
X622650Y544358D02*
Y551642D01*
X635650Y544358D02*
X639350D01*
Y551642D01*
X635650D02*
X639350D01*
X635650Y544358D02*
Y551642D01*
X619150Y544358D02*
X622850D01*
Y551642D01*
X619150D02*
X622850D01*
X619150Y544358D02*
Y551642D01*
X639150Y544358D02*
X642850D01*
Y551642D01*
X639150D02*
X642850D01*
X639150Y544358D02*
Y551642D01*
X615650Y544358D02*
X619350D01*
Y551642D01*
X615650D02*
X619350D01*
X615650Y544358D02*
Y551642D01*
X612150Y544358D02*
X615850D01*
Y551642D01*
X612150D02*
X615850D01*
X612150Y544358D02*
Y551642D01*
X608650Y544358D02*
X612350D01*
Y551642D01*
X608650D02*
X612350D01*
X608650Y544358D02*
Y551642D01*
X591150Y544358D02*
X594850D01*
Y551642D01*
X591150D02*
X594850D01*
X591150Y544358D02*
Y551642D01*
M02*
