G04*
G04 #@! TF.GenerationSoftware,Altium Limited,Altium Designer,18.0.7 (293)*
G04*
G04 Layer_Color=16711935*
%FSLAX25Y25*%
%MOIN*%
G70*
G01*
G75*
%ADD37R,0.03150X0.03110*%
%ADD38R,0.02953X0.02559*%
%ADD53R,0.02559X0.02953*%
%ADD54R,0.03110X0.03150*%
%ADD60R,0.05891X0.05391*%
%ADD62R,0.07087X0.07087*%
%ADD63C,0.07087*%
%ADD65R,0.07146X0.07146*%
%ADD66C,0.07146*%
%ADD67C,0.08465*%
%ADD68C,0.18591*%
%ADD69C,0.06591*%
%ADD70C,0.10591*%
%ADD71C,0.02559*%
%ADD72C,0.02362*%
%ADD107R,0.01191X0.02791*%
%ADD108R,0.01378X0.03543*%
%ADD109R,0.02791X0.01191*%
%ADD110R,0.03543X0.01378*%
%ADD111R,0.08465X0.04134*%
%ADD112R,0.08465X0.03740*%
%ADD113R,0.04921X0.02953*%
G04:AMPARAMS|DCode=114|XSize=62.99mil|YSize=24.8mil|CornerRadius=5.32mil|HoleSize=0mil|Usage=FLASHONLY|Rotation=0.000|XOffset=0mil|YOffset=0mil|HoleType=Round|Shape=RoundedRectangle|*
%AMROUNDEDRECTD114*
21,1,0.06299,0.01417,0,0,0.0*
21,1,0.05236,0.02480,0,0,0.0*
1,1,0.01063,0.02618,-0.00709*
1,1,0.01063,-0.02618,-0.00709*
1,1,0.01063,-0.02618,0.00709*
1,1,0.01063,0.02618,0.00709*
%
%ADD114ROUNDEDRECTD114*%
%ADD115R,0.08858X0.06102*%
%ADD116R,0.06496X0.11221*%
%ADD117R,0.05512X0.02953*%
%ADD118R,0.07008X0.09921*%
G04:AMPARAMS|DCode=119|XSize=39.76mil|YSize=21.65mil|CornerRadius=4.92mil|HoleSize=0mil|Usage=FLASHONLY|Rotation=0.000|XOffset=0mil|YOffset=0mil|HoleType=Round|Shape=RoundedRectangle|*
%AMROUNDEDRECTD119*
21,1,0.03976,0.01181,0,0,0.0*
21,1,0.02992,0.02165,0,0,0.0*
1,1,0.00984,0.01496,-0.00591*
1,1,0.00984,-0.01496,-0.00591*
1,1,0.00984,-0.01496,0.00591*
1,1,0.00984,0.01496,0.00591*
%
%ADD119ROUNDEDRECTD119*%
%ADD120R,0.05394X0.04173*%
%ADD121R,0.01772X0.04528*%
%ADD122R,0.01772X0.06398*%
%ADD123R,0.06398X0.01772*%
%ADD124R,0.01969X0.04528*%
%ADD125R,0.09646X0.05709*%
%ADD126R,0.13583X0.08591*%
D37*
X467772Y518000D02*
D03*
X464228D02*
D03*
X379272Y522000D02*
D03*
X375728D02*
D03*
X440500Y502000D02*
D03*
X436957D02*
D03*
X404272Y494000D02*
D03*
X400728D02*
D03*
X396772D02*
D03*
X393228D02*
D03*
D38*
X461469Y473500D02*
D03*
X457531D02*
D03*
X454531Y567500D02*
D03*
X458468D02*
D03*
X458468Y571000D02*
D03*
X454531D02*
D03*
X418469Y494000D02*
D03*
X414532D02*
D03*
X431468Y451000D02*
D03*
X427531D02*
D03*
X428031Y435500D02*
D03*
X431968D02*
D03*
D53*
X453000Y492031D02*
D03*
Y495968D02*
D03*
X430000Y481937D02*
D03*
Y478000D02*
D03*
X412000Y499968D02*
D03*
Y496032D02*
D03*
X429000Y447000D02*
D03*
Y443063D02*
D03*
X490000Y450032D02*
D03*
Y453968D02*
D03*
X462000Y571437D02*
D03*
Y567500D02*
D03*
D54*
X418500Y577272D02*
D03*
Y573728D02*
D03*
X410000Y479728D02*
D03*
Y483272D02*
D03*
D60*
X399000Y482000D02*
D03*
D62*
X396500Y562500D02*
D03*
D63*
X406500D02*
D03*
X416500D02*
D03*
X426500D02*
D03*
X436500D02*
D03*
D65*
X419000Y471000D02*
D03*
D66*
X429000D02*
D03*
X439000D02*
D03*
X449000D02*
D03*
X419000Y461000D02*
D03*
X429000D02*
D03*
X439000D02*
D03*
X449000D02*
D03*
D67*
X465709Y551992D02*
D03*
Y586008D02*
D03*
X450748D02*
D03*
Y551992D02*
D03*
D68*
X466000Y408500D02*
D03*
X398000Y409000D02*
D03*
D69*
X407311Y587500D02*
D03*
X395500D02*
D03*
D70*
X433000Y419000D02*
D03*
X419220Y409000D02*
D03*
X446779D02*
D03*
D71*
X460795Y492512D02*
D03*
Y524008D02*
D03*
D72*
X472500Y426000D02*
D03*
X464000Y425500D02*
D03*
X460000Y426000D02*
D03*
X468000D02*
D03*
X460500Y437000D02*
D03*
X473000D02*
D03*
X465500D02*
D03*
X469000Y438000D02*
D03*
D107*
X395063Y487906D02*
D03*
D108*
X396638D02*
D03*
X398213D02*
D03*
X399787D02*
D03*
X401362D02*
D03*
X402937D02*
D03*
Y476094D02*
D03*
X401362D02*
D03*
X399787D02*
D03*
X398213D02*
D03*
X396638D02*
D03*
X395063D02*
D03*
D109*
X404906Y485937D02*
D03*
Y478063D02*
D03*
X393094D02*
D03*
D110*
X404906Y484362D02*
D03*
Y482787D02*
D03*
Y481213D02*
D03*
Y479638D02*
D03*
X393094D02*
D03*
Y481213D02*
D03*
Y482787D02*
D03*
Y484362D02*
D03*
Y485937D02*
D03*
D111*
X446000Y482252D02*
D03*
Y498000D02*
D03*
D112*
Y490126D02*
D03*
X420016Y498000D02*
D03*
Y490126D02*
D03*
Y482252D02*
D03*
D113*
X460488Y509000D02*
D03*
Y505260D02*
D03*
Y512740D02*
D03*
X471512D02*
D03*
Y505260D02*
D03*
D114*
X395496Y580339D02*
D03*
Y577779D02*
D03*
Y575220D02*
D03*
Y572661D02*
D03*
X412504D02*
D03*
Y575220D02*
D03*
Y577779D02*
D03*
Y580339D02*
D03*
D115*
X469500Y578000D02*
D03*
Y560677D02*
D03*
D116*
X394760Y502500D02*
D03*
X402240D02*
D03*
D117*
X434866Y447500D02*
D03*
X443134Y443760D02*
D03*
Y451240D02*
D03*
D118*
X460000Y450000D02*
D03*
D119*
X465650Y446260D02*
D03*
Y450000D02*
D03*
Y453740D02*
D03*
X454350D02*
D03*
Y450000D02*
D03*
Y446260D02*
D03*
D120*
X503000Y443563D02*
D03*
Y456437D02*
D03*
X514500Y447063D02*
D03*
Y459937D02*
D03*
D121*
X446937Y424370D02*
D03*
X444969D02*
D03*
X443000D02*
D03*
X441032D02*
D03*
X439063D02*
D03*
Y435000D02*
D03*
X441032D02*
D03*
X443000D02*
D03*
X444969D02*
D03*
X446937D02*
D03*
D122*
X437764Y553090D02*
D03*
X435795D02*
D03*
X433827D02*
D03*
X431858D02*
D03*
X429890D02*
D03*
X427921D02*
D03*
X425953D02*
D03*
X423984D02*
D03*
X422016D02*
D03*
X420047D02*
D03*
X418079D02*
D03*
X416110D02*
D03*
X414142D02*
D03*
X412173D02*
D03*
X410205D02*
D03*
X408236D02*
D03*
Y507909D02*
D03*
X410205D02*
D03*
X412173D02*
D03*
X414142D02*
D03*
X416110D02*
D03*
X418079D02*
D03*
X420047D02*
D03*
X422016D02*
D03*
X423984D02*
D03*
X425953D02*
D03*
X427921D02*
D03*
X429890D02*
D03*
X431858D02*
D03*
X433827D02*
D03*
X435795D02*
D03*
X437764D02*
D03*
D123*
X400410Y545264D02*
D03*
Y543295D02*
D03*
Y541327D02*
D03*
Y539358D02*
D03*
Y537390D02*
D03*
Y535421D02*
D03*
Y533453D02*
D03*
Y531484D02*
D03*
Y529516D02*
D03*
Y527547D02*
D03*
Y525579D02*
D03*
Y523610D02*
D03*
Y521642D02*
D03*
Y519673D02*
D03*
Y517705D02*
D03*
Y515736D02*
D03*
X445590D02*
D03*
Y517705D02*
D03*
Y519673D02*
D03*
Y521642D02*
D03*
Y523610D02*
D03*
Y525579D02*
D03*
Y527547D02*
D03*
Y529516D02*
D03*
Y531484D02*
D03*
Y533453D02*
D03*
Y535421D02*
D03*
Y537390D02*
D03*
Y539358D02*
D03*
Y541327D02*
D03*
Y543295D02*
D03*
Y545264D02*
D03*
D124*
X460567Y439365D02*
D03*
X462929D02*
D03*
X465094D02*
D03*
X468047D02*
D03*
X470409D02*
D03*
X472575D02*
D03*
X460567Y423617D02*
D03*
X462732D02*
D03*
X465094D02*
D03*
X468047D02*
D03*
X470212D02*
D03*
X472575D02*
D03*
D125*
X443000Y429685D02*
D03*
D126*
X466571Y431491D02*
D03*
M02*
