G04*
G04 #@! TF.GenerationSoftware,Altium Limited,Altium Designer,18.0.7 (293)*
G04*
G04 Layer_Physical_Order=4*
G04 Layer_Color=16711680*
%FSLAX25Y25*%
%MOIN*%
G70*
G01*
G75*
%ADD14R,0.02559X0.02520*%
%ADD15R,0.02362X0.01968*%
%ADD30R,0.01968X0.02362*%
%ADD31R,0.02520X0.02559*%
%ADD73R,0.05300X0.04800*%
%ADD75C,0.03150*%
%ADD76R,0.06496X0.06496*%
%ADD77C,0.06496*%
%ADD79R,0.06555X0.06555*%
%ADD80C,0.06555*%
%ADD81C,0.07874*%
%ADD82C,0.18000*%
%ADD83C,0.06000*%
%ADD84C,0.10000*%
%ADD85C,0.01968*%
%ADD86C,0.01772*%
%ADD87R,0.00600X0.02200*%
%ADD88R,0.00787X0.02953*%
%ADD89R,0.02200X0.00600*%
%ADD90R,0.02953X0.00787*%
%ADD91R,0.07874X0.03543*%
%ADD92R,0.07874X0.03150*%
%ADD93R,0.04331X0.02362*%
G04:AMPARAMS|DCode=94|XSize=57.09mil|YSize=18.9mil|CornerRadius=2.36mil|HoleSize=0mil|Usage=FLASHONLY|Rotation=0.000|XOffset=0mil|YOffset=0mil|HoleType=Round|Shape=RoundedRectangle|*
%AMROUNDEDRECTD94*
21,1,0.05709,0.01417,0,0,0.0*
21,1,0.05236,0.01890,0,0,0.0*
1,1,0.00472,0.02618,-0.00709*
1,1,0.00472,-0.02618,-0.00709*
1,1,0.00472,-0.02618,0.00709*
1,1,0.00472,0.02618,0.00709*
%
%ADD94ROUNDEDRECTD94*%
%ADD95R,0.08268X0.05512*%
%ADD96R,0.05906X0.10630*%
%ADD97R,0.04921X0.02362*%
%ADD98R,0.06417X0.09331*%
G04:AMPARAMS|DCode=99|XSize=33.86mil|YSize=15.75mil|CornerRadius=1.97mil|HoleSize=0mil|Usage=FLASHONLY|Rotation=0.000|XOffset=0mil|YOffset=0mil|HoleType=Round|Shape=RoundedRectangle|*
%AMROUNDEDRECTD99*
21,1,0.03386,0.01181,0,0,0.0*
21,1,0.02992,0.01575,0,0,0.0*
1,1,0.00394,0.01496,-0.00591*
1,1,0.00394,-0.01496,-0.00591*
1,1,0.00394,-0.01496,0.00591*
1,1,0.00394,0.01496,0.00591*
%
%ADD99ROUNDEDRECTD99*%
%ADD100R,0.04803X0.03583*%
%ADD101R,0.01181X0.03937*%
%ADD102R,0.01181X0.05807*%
%ADD103R,0.05807X0.01181*%
%ADD104R,0.01378X0.03937*%
%ADD105R,0.09055X0.05118*%
%ADD106R,0.12992X0.08000*%
D14*
X467772Y518000D02*
D03*
X464228D02*
D03*
X379272Y522000D02*
D03*
X375728D02*
D03*
X440500Y502000D02*
D03*
X436957D02*
D03*
X404272Y494000D02*
D03*
X400728D02*
D03*
X396772D02*
D03*
X393228D02*
D03*
D15*
X461469Y473500D02*
D03*
X457531D02*
D03*
X454531Y567500D02*
D03*
X458468D02*
D03*
X458468Y571000D02*
D03*
X454531D02*
D03*
X418469Y494000D02*
D03*
X414532D02*
D03*
X431468Y451000D02*
D03*
X427531D02*
D03*
X428031Y435500D02*
D03*
X431968D02*
D03*
D30*
X453000Y492031D02*
D03*
Y495968D02*
D03*
X430000Y481937D02*
D03*
Y478000D02*
D03*
X412000Y499968D02*
D03*
Y496032D02*
D03*
X429000Y447000D02*
D03*
Y443063D02*
D03*
X490000Y450032D02*
D03*
Y453968D02*
D03*
X462000Y571437D02*
D03*
Y567500D02*
D03*
D31*
X418500Y577272D02*
D03*
Y573728D02*
D03*
X410000Y479728D02*
D03*
Y483272D02*
D03*
D73*
X399000Y482000D02*
D03*
D75*
X467551Y470346D02*
D03*
Y463654D02*
D03*
D76*
X396500Y562500D02*
D03*
D77*
X406500D02*
D03*
X416500D02*
D03*
X426500D02*
D03*
X436500D02*
D03*
D79*
X419000Y471000D02*
D03*
D80*
X429000D02*
D03*
X439000D02*
D03*
X449000D02*
D03*
X419000Y461000D02*
D03*
X429000D02*
D03*
X439000D02*
D03*
X449000D02*
D03*
D81*
X465709Y551992D02*
D03*
Y586008D02*
D03*
X450748D02*
D03*
Y551992D02*
D03*
D82*
X466000Y408500D02*
D03*
X398000Y409000D02*
D03*
D83*
X407311Y587500D02*
D03*
X395500D02*
D03*
D84*
X433000Y419000D02*
D03*
X419220Y409000D02*
D03*
X446779D02*
D03*
D85*
X460795Y492512D02*
D03*
Y524008D02*
D03*
D86*
X472500Y426000D02*
D03*
X464000Y425500D02*
D03*
X460000Y426000D02*
D03*
X468000D02*
D03*
X460500Y437000D02*
D03*
X473000D02*
D03*
X465500D02*
D03*
X469000Y438000D02*
D03*
D87*
X395063Y487906D02*
D03*
D88*
X396638D02*
D03*
X398213D02*
D03*
X399787D02*
D03*
X401362D02*
D03*
X402937D02*
D03*
Y476094D02*
D03*
X401362D02*
D03*
X399787D02*
D03*
X398213D02*
D03*
X396638D02*
D03*
X395063D02*
D03*
D89*
X404906Y485937D02*
D03*
Y478063D02*
D03*
X393094D02*
D03*
D90*
X404906Y484362D02*
D03*
Y482787D02*
D03*
Y481213D02*
D03*
Y479638D02*
D03*
X393094D02*
D03*
Y481213D02*
D03*
Y482787D02*
D03*
Y484362D02*
D03*
Y485937D02*
D03*
D91*
X446000Y482252D02*
D03*
Y498000D02*
D03*
D92*
Y490126D02*
D03*
X420016Y498000D02*
D03*
Y490126D02*
D03*
Y482252D02*
D03*
D93*
X460488Y509000D02*
D03*
Y505260D02*
D03*
Y512740D02*
D03*
X471512D02*
D03*
Y505260D02*
D03*
D94*
X395496Y580339D02*
D03*
Y577779D02*
D03*
Y575220D02*
D03*
Y572661D02*
D03*
X412504D02*
D03*
Y575220D02*
D03*
Y577779D02*
D03*
Y580339D02*
D03*
D95*
X469500Y578000D02*
D03*
Y560677D02*
D03*
D96*
X394760Y502500D02*
D03*
X402240D02*
D03*
D97*
X434866Y447500D02*
D03*
X443134Y443760D02*
D03*
Y451240D02*
D03*
D98*
X460000Y450000D02*
D03*
D99*
X465650Y446260D02*
D03*
Y450000D02*
D03*
Y453740D02*
D03*
X454350D02*
D03*
Y450000D02*
D03*
Y446260D02*
D03*
D100*
X503000Y443563D02*
D03*
Y456437D02*
D03*
X514500Y447063D02*
D03*
Y459937D02*
D03*
D101*
X446937Y424370D02*
D03*
X444969D02*
D03*
X443000D02*
D03*
X441032D02*
D03*
X439063D02*
D03*
Y435000D02*
D03*
X441032D02*
D03*
X443000D02*
D03*
X444969D02*
D03*
X446937D02*
D03*
D102*
X437764Y553090D02*
D03*
X435795D02*
D03*
X433827D02*
D03*
X431858D02*
D03*
X429890D02*
D03*
X427921D02*
D03*
X425953D02*
D03*
X423984D02*
D03*
X422016D02*
D03*
X420047D02*
D03*
X418079D02*
D03*
X416110D02*
D03*
X414142D02*
D03*
X412173D02*
D03*
X410205D02*
D03*
X408236D02*
D03*
Y507909D02*
D03*
X410205D02*
D03*
X412173D02*
D03*
X414142D02*
D03*
X416110D02*
D03*
X418079D02*
D03*
X420047D02*
D03*
X422016D02*
D03*
X423984D02*
D03*
X425953D02*
D03*
X427921D02*
D03*
X429890D02*
D03*
X431858D02*
D03*
X433827D02*
D03*
X435795D02*
D03*
X437764D02*
D03*
D103*
X400410Y545264D02*
D03*
Y543295D02*
D03*
Y541327D02*
D03*
Y539358D02*
D03*
Y537390D02*
D03*
Y535421D02*
D03*
Y533453D02*
D03*
Y531484D02*
D03*
Y529516D02*
D03*
Y527547D02*
D03*
Y525579D02*
D03*
Y523610D02*
D03*
Y521642D02*
D03*
Y519673D02*
D03*
Y517705D02*
D03*
Y515736D02*
D03*
X445590D02*
D03*
Y517705D02*
D03*
Y519673D02*
D03*
Y521642D02*
D03*
Y523610D02*
D03*
Y525579D02*
D03*
Y527547D02*
D03*
Y529516D02*
D03*
Y531484D02*
D03*
Y533453D02*
D03*
Y535421D02*
D03*
Y537390D02*
D03*
Y539358D02*
D03*
Y541327D02*
D03*
Y543295D02*
D03*
Y545264D02*
D03*
D104*
X460567Y439365D02*
D03*
X462929D02*
D03*
X465094D02*
D03*
X468047D02*
D03*
X470409D02*
D03*
X472575D02*
D03*
X460567Y423617D02*
D03*
X462732D02*
D03*
X465094D02*
D03*
X468047D02*
D03*
X470212D02*
D03*
X472575D02*
D03*
D105*
X443000Y429685D02*
D03*
D106*
X466571Y431491D02*
D03*
M02*
