G04*
G04 #@! TF.GenerationSoftware,Altium Limited,Altium Designer,20.0.13 (296)*
G04*
G04 Layer_Physical_Order=3*
G04 Layer_Color=16440176*
%FSLAX25Y25*%
%MOIN*%
G70*
G01*
G75*
%ADD29C,0.00400*%
%ADD30C,0.04000*%
%ADD32C,0.02000*%
%ADD35C,0.03000*%
%ADD43O,0.15000X0.20000*%
%ADD46C,0.15000*%
%ADD54C,0.05512*%
%ADD59C,0.06555*%
%ADD61C,0.18000*%
%ADD64C,0.01772*%
%ADD65C,0.09000*%
%ADD66C,0.10000*%
%ADD67C,0.18000*%
%ADD68C,0.06000*%
%ADD69R,0.05118X0.09055*%
G36*
X652135Y578671D02*
X655595Y577982D01*
X658971Y576958D01*
X662231Y575608D01*
X665343Y573945D01*
X668276Y571984D01*
X671004Y569746D01*
X673498Y567251D01*
X675737Y564524D01*
X677697Y561590D01*
X679360Y558479D01*
X680711Y555219D01*
X681735Y551842D01*
X682423Y548382D01*
X682769Y544871D01*
Y543107D01*
X682769Y541342D01*
X682423Y537831D01*
X681735Y534371D01*
X680711Y530994D01*
X679360Y527735D01*
X677697Y524623D01*
X675737Y521689D01*
X673498Y518962D01*
X671004Y516467D01*
X668276Y514229D01*
X665343Y512269D01*
X662231Y510605D01*
X658971Y509255D01*
X655595Y508231D01*
X652135Y507543D01*
X648623Y507197D01*
X645095D01*
X641584Y507543D01*
X638123Y508231D01*
X634747Y509255D01*
X631487Y510605D01*
X628375Y512269D01*
X625442Y514229D01*
X622714Y516467D01*
X620220Y518962D01*
X617981Y521689D01*
X616021Y524623D01*
X614358Y527735D01*
X613008Y530994D01*
X611983Y534371D01*
X611295Y537831D01*
X610949Y541342D01*
Y543107D01*
Y544871D01*
X611295Y548382D01*
X611983Y551842D01*
X613008Y555219D01*
X614358Y558479D01*
X616021Y561590D01*
X617981Y564524D01*
X620220Y567251D01*
X622714Y569746D01*
X625442Y571984D01*
X628375Y573945D01*
X631487Y575608D01*
X634747Y576958D01*
X638123Y577982D01*
X641584Y578671D01*
X645095Y579016D01*
X648623D01*
X652135Y578671D01*
D02*
G37*
G36*
X656912Y476569D02*
X660434Y475830D01*
X663874Y474774D01*
X667204Y473409D01*
X670396Y471748D01*
X673424Y469804D01*
X676264Y467594D01*
X678890Y465134D01*
X681283Y462446D01*
X683422Y459552D01*
X685289Y456476D01*
X686869Y453243D01*
X688149Y449880D01*
X689119Y446414D01*
X689769Y442875D01*
X690096Y439291D01*
Y435693D01*
X689769Y432109D01*
X689119Y428570D01*
X688149Y425104D01*
X686869Y421741D01*
X685289Y418508D01*
X683422Y415432D01*
X681283Y412538D01*
X678890Y409850D01*
X676264Y407391D01*
X673424Y405180D01*
X670396Y403236D01*
X667204Y401575D01*
X663874Y400211D01*
X660433Y399154D01*
X656912Y398415D01*
X655730Y398277D01*
X655725Y398292D01*
X655209Y399177D01*
X655154Y399240D01*
X655110Y399312D01*
X654422Y400072D01*
X654355Y400122D01*
X654298Y400183D01*
X653467Y400783D01*
X653391Y400818D01*
X653322Y400867D01*
X652385Y401282D01*
X652303Y401301D01*
X652226Y401334D01*
X651223Y401546D01*
X651139Y401547D01*
X651057Y401563D01*
X650032D01*
X649950Y401547D01*
X649866Y401546D01*
X648863Y401334D01*
X648786Y401301D01*
X648704Y401282D01*
X647767Y400867D01*
X647698Y400818D01*
X647622Y400783D01*
X646792Y400183D01*
X646734Y400122D01*
X646667Y400072D01*
X645979Y399312D01*
X645936Y399240D01*
X645880Y399177D01*
X645364Y398292D01*
X645359Y398277D01*
X644177Y398415D01*
X640656Y399154D01*
X637216Y400211D01*
X633886Y401575D01*
X630693Y403236D01*
X627665Y405180D01*
X624826Y407391D01*
X622199Y409850D01*
X619806Y412538D01*
X617667Y415432D01*
X615800Y418508D01*
X614220Y421741D01*
X612940Y425104D01*
X611971Y428570D01*
X611320Y432109D01*
X610993Y435693D01*
Y439291D01*
X611320Y442875D01*
X611971Y446414D01*
X612940Y449880D01*
X614220Y453243D01*
X615800Y456476D01*
X617667Y459552D01*
X619806Y462446D01*
X622199Y465134D01*
X624826Y467594D01*
X627665Y469804D01*
X630693Y471748D01*
X633886Y473409D01*
X637216Y474774D01*
X640656Y475830D01*
X644177Y476569D01*
X645359Y476707D01*
X645364Y476693D01*
X645880Y475807D01*
X645936Y475744D01*
X645979Y475672D01*
X646667Y474913D01*
X646734Y474863D01*
X646792Y474801D01*
X647622Y474201D01*
X647698Y474166D01*
X647767Y474117D01*
X648704Y473702D01*
X648786Y473684D01*
X648863Y473651D01*
X649866Y473438D01*
X649950Y473437D01*
X650032Y473421D01*
X651057D01*
X651139Y473437D01*
X651223Y473438D01*
X652226Y473651D01*
X652303Y473684D01*
X652385Y473702D01*
X653322Y474117D01*
X653391Y474166D01*
X653467Y474201D01*
X654298Y474801D01*
X654355Y474863D01*
X654422Y474913D01*
X655110Y475672D01*
X655154Y475744D01*
X655209Y475807D01*
X655725Y476693D01*
X655730Y476707D01*
X656912Y476569D01*
D02*
G37*
%LPC*%
G36*
X643121Y565282D02*
X642581Y565174D01*
X642122Y564868D01*
X641816Y564410D01*
X641709Y563869D01*
X641816Y563328D01*
X642122Y562870D01*
X642581Y562564D01*
X643121Y562456D01*
X643662Y562564D01*
X644121Y562870D01*
X644427Y563328D01*
X644534Y563869D01*
X644427Y564410D01*
X644121Y564868D01*
X643662Y565174D01*
X643121Y565282D01*
D02*
G37*
G36*
X636621Y562282D02*
X636081Y562175D01*
X635622Y561868D01*
X635316Y561410D01*
X635209Y560869D01*
X635316Y560328D01*
X635622Y559870D01*
X636081Y559564D01*
X636621Y559456D01*
X637162Y559564D01*
X637621Y559870D01*
X637927Y560328D01*
X638034Y560869D01*
X637927Y561410D01*
X637621Y561868D01*
X637162Y562175D01*
X636621Y562282D01*
D02*
G37*
G36*
X645621Y558782D02*
X645081Y558674D01*
X644622Y558368D01*
X644316Y557910D01*
X644208Y557369D01*
X644316Y556828D01*
X644622Y556370D01*
X645081Y556064D01*
X645621Y555956D01*
X646162Y556064D01*
X646621Y556370D01*
X646927Y556828D01*
X647034Y557369D01*
X646927Y557910D01*
X646621Y558368D01*
X646162Y558674D01*
X645621Y558782D01*
D02*
G37*
G36*
X642121Y557782D02*
X641581Y557675D01*
X641122Y557368D01*
X640816Y556910D01*
X640708Y556369D01*
X640816Y555828D01*
X641122Y555370D01*
X641581Y555064D01*
X642121Y554956D01*
X642662Y555064D01*
X643121Y555370D01*
X643427Y555828D01*
X643534Y556369D01*
X643427Y556910D01*
X643121Y557368D01*
X642662Y557675D01*
X642121Y557782D01*
D02*
G37*
G36*
X630121Y556782D02*
X629581Y556674D01*
X629122Y556368D01*
X628816Y555910D01*
X628709Y555369D01*
X628816Y554828D01*
X629122Y554370D01*
X629581Y554064D01*
X630121Y553956D01*
X630662Y554064D01*
X631121Y554370D01*
X631427Y554828D01*
X631534Y555369D01*
X631427Y555910D01*
X631121Y556368D01*
X630662Y556674D01*
X630121Y556782D01*
D02*
G37*
G36*
X638121Y555782D02*
X637581Y555675D01*
X637122Y555368D01*
X636816Y554910D01*
X636708Y554369D01*
X636816Y553828D01*
X637122Y553370D01*
X637581Y553064D01*
X638121Y552956D01*
X638662Y553064D01*
X639121Y553370D01*
X639427Y553828D01*
X639534Y554369D01*
X639427Y554910D01*
X639121Y555368D01*
X638662Y555675D01*
X638121Y555782D01*
D02*
G37*
G36*
X634121Y552782D02*
X633581Y552674D01*
X633122Y552368D01*
X632816Y551910D01*
X632709Y551369D01*
X632816Y550828D01*
X633122Y550370D01*
X633581Y550064D01*
X634121Y549956D01*
X634662Y550064D01*
X635121Y550370D01*
X635427Y550828D01*
X635534Y551369D01*
X635427Y551910D01*
X635121Y552368D01*
X634662Y552674D01*
X634121Y552782D01*
D02*
G37*
G36*
X627621Y550782D02*
X627081Y550674D01*
X626622Y550368D01*
X626316Y549910D01*
X626208Y549369D01*
X626316Y548828D01*
X626622Y548370D01*
X627081Y548064D01*
X627621Y547956D01*
X628162Y548064D01*
X628621Y548370D01*
X628927Y548828D01*
X629034Y549369D01*
X628927Y549910D01*
X628621Y550368D01*
X628162Y550674D01*
X627621Y550782D01*
D02*
G37*
G36*
X631621Y549282D02*
X631081Y549174D01*
X630622Y548868D01*
X630316Y548410D01*
X630208Y547869D01*
X630316Y547328D01*
X630622Y546870D01*
X631081Y546564D01*
X631621Y546456D01*
X632162Y546564D01*
X632621Y546870D01*
X632927Y547328D01*
X633034Y547869D01*
X632927Y548410D01*
X632621Y548868D01*
X632162Y549174D01*
X631621Y549282D01*
D02*
G37*
G36*
X635796Y544521D02*
X635256Y544413D01*
X634797Y544107D01*
X634491Y543648D01*
X634383Y543108D01*
X634491Y542567D01*
X634797Y542108D01*
X635256Y541802D01*
X635796Y541694D01*
X636337Y541802D01*
X636796Y542108D01*
X637102Y542567D01*
X637209Y543108D01*
X637102Y543648D01*
X636796Y544107D01*
X636337Y544413D01*
X635796Y544521D01*
D02*
G37*
G36*
X630811D02*
X630270Y544413D01*
X629812Y544107D01*
X629506Y543648D01*
X629398Y543108D01*
X629506Y542567D01*
X629812Y542108D01*
X630270Y541802D01*
X630811Y541694D01*
X631352Y541802D01*
X631810Y542108D01*
X632117Y542567D01*
X632224Y543108D01*
X632117Y543648D01*
X631810Y544107D01*
X631352Y544413D01*
X630811Y544521D01*
D02*
G37*
G36*
X626768D02*
X626227Y544413D01*
X625769Y544107D01*
X625462Y543648D01*
X625355Y543108D01*
X625462Y542567D01*
X625769Y542108D01*
X626227Y541802D01*
X626768Y541694D01*
X627309Y541802D01*
X627767Y542108D01*
X628073Y542567D01*
X628181Y543108D01*
X628073Y543648D01*
X627767Y544107D01*
X627309Y544413D01*
X626768Y544521D01*
D02*
G37*
G36*
X644694Y542871D02*
X644153Y542764D01*
X643695Y542457D01*
X643388Y541999D01*
X643281Y541458D01*
X643388Y540917D01*
X643695Y540459D01*
X644153Y540153D01*
X644694Y540045D01*
X645234Y540153D01*
X645693Y540459D01*
X645999Y540917D01*
X646107Y541458D01*
X645999Y541999D01*
X645693Y542457D01*
X645234Y542764D01*
X644694Y542871D01*
D02*
G37*
G36*
X632621Y539282D02*
X632081Y539175D01*
X631622Y538868D01*
X631316Y538410D01*
X631209Y537869D01*
X631316Y537328D01*
X631622Y536870D01*
X632081Y536564D01*
X632621Y536456D01*
X633162Y536564D01*
X633621Y536870D01*
X633927Y537328D01*
X634034Y537869D01*
X633927Y538410D01*
X633621Y538868D01*
X633162Y539175D01*
X632621Y539282D01*
D02*
G37*
G36*
X628121Y537782D02*
X627581Y537675D01*
X627122Y537368D01*
X626816Y536910D01*
X626709Y536369D01*
X626816Y535828D01*
X627122Y535370D01*
X627581Y535064D01*
X628121Y534956D01*
X628662Y535064D01*
X629121Y535370D01*
X629427Y535828D01*
X629534Y536369D01*
X629427Y536910D01*
X629121Y537368D01*
X628662Y537675D01*
X628121Y537782D01*
D02*
G37*
G36*
X635621Y536282D02*
X635081Y536174D01*
X634622Y535868D01*
X634316Y535410D01*
X634208Y534869D01*
X634316Y534328D01*
X634622Y533870D01*
X635081Y533564D01*
X635621Y533456D01*
X636162Y533564D01*
X636621Y533870D01*
X636927Y534328D01*
X637034Y534869D01*
X636927Y535410D01*
X636621Y535868D01*
X636162Y536174D01*
X635621Y536282D01*
D02*
G37*
G36*
X633121Y531782D02*
X632581Y531674D01*
X632122Y531368D01*
X631816Y530910D01*
X631708Y530369D01*
X631816Y529828D01*
X632122Y529370D01*
X632581Y529064D01*
X633121Y528956D01*
X633662Y529064D01*
X634121Y529370D01*
X634427Y529828D01*
X634534Y530369D01*
X634427Y530910D01*
X634121Y531368D01*
X633662Y531674D01*
X633121Y531782D01*
D02*
G37*
G36*
X650565Y464822D02*
X649017Y464670D01*
X647527Y464218D01*
X646155Y463485D01*
X644952Y462497D01*
X643965Y461295D01*
X643231Y459922D01*
X642779Y458433D01*
X642627Y456884D01*
Y451884D01*
X642779Y450336D01*
X643231Y448846D01*
X643965Y447474D01*
X644952Y446271D01*
X646155Y445284D01*
X647527Y444550D01*
X649017Y444099D01*
X650565Y443946D01*
X652114Y444099D01*
X653603Y444550D01*
X654976Y445284D01*
X656178Y446271D01*
X657166Y447474D01*
X657899Y448846D01*
X658351Y450336D01*
X658503Y451884D01*
Y456884D01*
X658351Y458433D01*
X657899Y459922D01*
X657166Y461295D01*
X656178Y462497D01*
X654976Y463485D01*
X653603Y464218D01*
X652114Y464670D01*
X650565Y464822D01*
D02*
G37*
G36*
X629338D02*
X627789Y464670D01*
X626300Y464218D01*
X624928Y463485D01*
X623725Y462497D01*
X622737Y461295D01*
X622004Y459922D01*
X621552Y458433D01*
X621399Y456884D01*
Y451884D01*
X621552Y450336D01*
X622004Y448846D01*
X622737Y447474D01*
X623725Y446271D01*
X624928Y445284D01*
X626300Y444550D01*
X627789Y444099D01*
X629338Y443946D01*
X630886Y444099D01*
X632375Y444550D01*
X633748Y445284D01*
X634951Y446271D01*
X635938Y447474D01*
X636672Y448846D01*
X637123Y450336D01*
X637276Y451884D01*
Y456884D01*
X637123Y458433D01*
X636672Y459922D01*
X635938Y461295D01*
X634951Y462497D01*
X633748Y463485D01*
X632375Y464218D01*
X630886Y464670D01*
X629338Y464822D01*
D02*
G37*
G36*
X663734Y442434D02*
X662454Y442266D01*
X661262Y441772D01*
X660239Y440987D01*
X659453Y439963D01*
X658960Y438771D01*
X658791Y437492D01*
X658960Y436213D01*
X659453Y435021D01*
X660239Y433997D01*
X660920Y433474D01*
X660722Y432996D01*
X659871Y433108D01*
X658591Y432940D01*
X657399Y432446D01*
X656376Y431661D01*
X655590Y430637D01*
X655097Y429445D01*
X654928Y428166D01*
X655040Y427315D01*
X654562Y427116D01*
X654039Y427798D01*
X653016Y428583D01*
X651824Y429077D01*
X650545Y429245D01*
X649265Y429077D01*
X648073Y428583D01*
X647050Y427798D01*
X646527Y427116D01*
X646049Y427315D01*
X646161Y428166D01*
X645992Y429445D01*
X645499Y430637D01*
X644713Y431661D01*
X643690Y432446D01*
X642498Y432940D01*
X641219Y433108D01*
X640367Y432996D01*
X640169Y433474D01*
X640850Y433997D01*
X641636Y435021D01*
X642130Y436213D01*
X642298Y437492D01*
X642130Y438771D01*
X641636Y439963D01*
X640850Y440987D01*
X639827Y441772D01*
X638635Y442266D01*
X637356Y442434D01*
X636076Y442266D01*
X634885Y441772D01*
X633861Y440987D01*
X633076Y439963D01*
X632582Y438771D01*
X632413Y437492D01*
X632582Y436213D01*
X632827Y435620D01*
X632577Y435187D01*
X631988Y435110D01*
X630796Y434616D01*
X629773Y433830D01*
X628987Y432807D01*
X628493Y431615D01*
X628325Y430336D01*
X628493Y429057D01*
X628987Y427865D01*
X629773Y426841D01*
X630796Y426055D01*
X631988Y425562D01*
X633267Y425393D01*
X634547Y425562D01*
X635738Y426055D01*
X636210Y426417D01*
X636693Y426288D01*
X636938Y425695D01*
X637724Y424671D01*
X638747Y423886D01*
X639340Y423640D01*
X639470Y423157D01*
X639108Y422686D01*
X638614Y421494D01*
X638446Y420215D01*
X638614Y418936D01*
X639108Y417744D01*
X639893Y416720D01*
X640917Y415935D01*
X642109Y415441D01*
X643388Y415273D01*
X644667Y415441D01*
X645859Y415935D01*
X646883Y416720D01*
X647668Y417744D01*
X648162Y418936D01*
X648240Y419525D01*
X648672Y419775D01*
X649265Y419529D01*
X650545Y419361D01*
X651824Y419529D01*
X652417Y419775D01*
X652850Y419525D01*
X652927Y418936D01*
X653421Y417744D01*
X654206Y416720D01*
X655230Y415935D01*
X656422Y415441D01*
X657701Y415273D01*
X658980Y415441D01*
X660172Y415935D01*
X661196Y416720D01*
X661981Y417744D01*
X662475Y418936D01*
X662643Y420215D01*
X662475Y421494D01*
X661981Y422686D01*
X661619Y423157D01*
X661749Y423640D01*
X662342Y423886D01*
X663365Y424671D01*
X664151Y425695D01*
X664396Y426288D01*
X664879Y426417D01*
X665351Y426055D01*
X666543Y425562D01*
X667822Y425393D01*
X669101Y425562D01*
X670293Y426055D01*
X671317Y426841D01*
X672102Y427865D01*
X672596Y429057D01*
X672764Y430336D01*
X672596Y431615D01*
X672102Y432807D01*
X671317Y433830D01*
X670293Y434616D01*
X669101Y435110D01*
X668512Y435187D01*
X668262Y435620D01*
X668507Y436213D01*
X668676Y437492D01*
X668507Y438771D01*
X668014Y439963D01*
X667228Y440987D01*
X666205Y441772D01*
X665013Y442266D01*
X663734Y442434D01*
D02*
G37*
G36*
X650565Y442455D02*
X649286Y442287D01*
X648094Y441793D01*
X647071Y441008D01*
X646285Y439984D01*
X645791Y438792D01*
X645623Y437513D01*
X645791Y436234D01*
X646285Y435042D01*
X647071Y434018D01*
X648094Y433233D01*
X649286Y432739D01*
X650565Y432571D01*
X651844Y432739D01*
X653036Y433233D01*
X654060Y434018D01*
X654845Y435042D01*
X655339Y436234D01*
X655508Y437513D01*
X655339Y438792D01*
X654845Y439984D01*
X654060Y441008D01*
X653036Y441793D01*
X651844Y442287D01*
X650565Y442455D01*
D02*
G37*
%LPD*%
D29*
X549499Y536830D02*
X558231D01*
X528669Y516000D02*
X549499Y536830D01*
X528500Y516000D02*
X528669D01*
X528500Y513500D02*
X528762Y513762D01*
X529360D01*
X549653Y534056D01*
X558251D01*
X573500Y509500D02*
X574611D01*
X566243Y519000D02*
X580500Y504743D01*
X572500Y514000D02*
X581300Y505200D01*
X580500Y478000D02*
Y504743D01*
X581300Y499700D02*
Y505200D01*
X574611Y509500D02*
X579700Y504411D01*
X583500Y486000D02*
X587000Y482500D01*
Y445970D02*
Y482500D01*
Y445970D02*
X598100Y434870D01*
Y432168D02*
Y434870D01*
Y432168D02*
X602134Y428134D01*
X557983Y496517D02*
X572983D01*
X541926Y512574D02*
X557983Y496517D01*
X541577Y495717D02*
X570657D01*
X541246Y494917D02*
X563583D01*
X556509Y494117D02*
X559626Y491000D01*
X540914Y494117D02*
X556509D01*
X572983Y496517D02*
X573500Y496000D01*
X570657Y495717D02*
X575374Y491000D01*
X563583Y494917D02*
X567500Y491000D01*
X539500Y497794D02*
X541577Y495717D01*
X537500Y498663D02*
X541246Y494917D01*
X528516Y506516D02*
X540914Y494117D01*
X553000Y490500D02*
X554500Y492000D01*
X553000Y480869D02*
Y490500D01*
Y480869D02*
X562000Y471869D01*
Y467500D02*
Y471869D01*
X558032Y476968D02*
X561531D01*
X555000Y480000D02*
X558032Y476968D01*
X555000Y480000D02*
Y489500D01*
X568469Y520031D02*
Y555532D01*
X581300Y477669D02*
Y494800D01*
X579700Y478331D02*
Y504411D01*
X578900Y478663D02*
Y497100D01*
Y475269D02*
X581300Y477669D01*
X578000Y475500D02*
X580500Y478000D01*
X577200Y475831D02*
X579700Y478331D01*
X576400Y476163D02*
X578900Y478663D01*
X572532Y514032D02*
Y525969D01*
X572500Y514000D02*
X572532Y514032D01*
X556000Y519000D02*
X566243D01*
X581300Y499700D02*
X586000Y495000D01*
X576400Y463400D02*
Y476163D01*
X577200Y460200D02*
Y475831D01*
X578000Y437757D02*
Y475500D01*
X578900Y470600D02*
Y475269D01*
Y470600D02*
X582000Y467500D01*
X579000Y451000D02*
X580000Y452000D01*
X579000Y429743D02*
Y451000D01*
Y429743D02*
X579586Y429157D01*
Y423383D02*
Y429157D01*
Y423383D02*
X587968Y415000D01*
X539500Y497794D02*
Y510131D01*
X537500Y498663D02*
Y508000D01*
X581300Y494800D02*
X582500Y496000D01*
X575000Y462000D02*
X576400Y463400D01*
X570000Y462000D02*
X575000D01*
X567500Y459500D02*
X570000Y462000D01*
X567500Y456000D02*
Y459500D01*
X565122Y453622D02*
X567500Y456000D01*
X574500Y457500D02*
X577200Y460200D01*
X572000Y457500D02*
X574500D01*
X552000D02*
X555878Y453622D01*
X565122D01*
X575157Y434914D02*
X578000Y437757D01*
X577500Y498500D02*
X578900Y497100D01*
X572505Y434914D02*
X575157D01*
X562591Y425000D02*
X572505Y434914D01*
X562532Y425000D02*
X562591D01*
D30*
X536000Y528374D02*
Y576000D01*
X525000Y469500D02*
Y517374D01*
X536000Y528374D01*
X531000Y405500D02*
Y417000D01*
X525000Y469500D02*
X536500Y458000D01*
X536000Y576000D02*
X538500Y578500D01*
X542500D01*
D32*
X596000Y433500D02*
Y434000D01*
X542500Y578500D02*
X543000Y578000D01*
D35*
X585500Y444500D02*
X596000Y434000D01*
D43*
X671896Y454384D02*
D03*
D46*
X531000Y417000D02*
X537000Y423000D01*
X544000D01*
D54*
X575374Y491000D02*
D03*
X567500D02*
D03*
X559626D02*
D03*
D59*
X562000Y467500D02*
D03*
X582000D02*
D03*
X552000Y457500D02*
D03*
X572000D02*
D03*
D61*
X531000Y405500D02*
D03*
D64*
X528500Y516000D02*
D03*
Y513500D02*
D03*
X558251Y534056D02*
D03*
X558231Y536830D02*
D03*
X573500Y509500D02*
D03*
X583500Y486000D02*
D03*
X602134Y428134D02*
D03*
X533000Y421000D02*
D03*
X534500Y427500D02*
D03*
Y439500D02*
D03*
X596000Y433500D02*
D03*
X554500Y492000D02*
D03*
X555000Y489500D02*
D03*
X561531Y476968D02*
D03*
X568469Y520031D02*
D03*
X572532Y525969D02*
D03*
X586000Y495000D02*
D03*
X573500Y496000D02*
D03*
X541926Y512574D02*
D03*
X580000Y452000D02*
D03*
X539500Y510131D02*
D03*
X537500Y508000D02*
D03*
X528516Y506516D02*
D03*
X568469Y555532D02*
D03*
X568838Y443500D02*
D03*
X577500Y498500D02*
D03*
X582500Y496000D02*
D03*
X556000Y519000D02*
D03*
X562532Y425000D02*
D03*
X585500Y444500D02*
D03*
X587968Y415000D02*
D03*
X543000Y578000D02*
D03*
X536500Y458000D02*
D03*
X537500Y443500D02*
D03*
X653121Y571369D02*
D03*
X659621Y567369D02*
D03*
X646859Y514621D02*
D03*
Y508923D02*
D03*
X650621Y516869D02*
D03*
X652621Y511369D02*
D03*
X655621Y518369D02*
D03*
X658121Y513369D02*
D03*
X660621Y520369D02*
D03*
X664121Y515869D02*
D03*
X665621Y523369D02*
D03*
X670121Y520369D02*
D03*
Y528369D02*
D03*
X675121Y526369D02*
D03*
X673621Y533869D02*
D03*
X678121Y532869D02*
D03*
X674121Y540369D02*
D03*
X680121Y539869D02*
D03*
X674621Y546369D02*
D03*
X680621Y547369D02*
D03*
X672280Y553257D02*
D03*
X678621Y554369D02*
D03*
X669121Y558869D02*
D03*
X674621Y561369D02*
D03*
X665121Y563369D02*
D03*
X668121Y567869D02*
D03*
X660621Y573869D02*
D03*
X653621Y576369D02*
D03*
X646859Y571040D02*
D03*
Y576528D02*
D03*
D65*
X662108Y409576D02*
D03*
X650545Y407276D02*
D03*
X638981Y409576D02*
D03*
X629178Y416126D02*
D03*
X622628Y425929D02*
D03*
X620328Y437492D02*
D03*
X680761D02*
D03*
X678461Y425929D02*
D03*
X671911Y416126D02*
D03*
D66*
X531000Y436111D02*
X544889Y450000D01*
D67*
X531000Y417000D02*
Y436111D01*
D68*
X544889Y450000D02*
X565500D01*
X568886Y443614D02*
Y446614D01*
X565500Y450000D02*
X568886Y446614D01*
D69*
X544000Y423000D02*
D03*
M02*
