G04*
G04 #@! TF.GenerationSoftware,Altium Limited,Altium Designer,20.0.13 (296)*
G04*
G04 Layer_Color=16711935*
%FSLAX25Y25*%
%MOIN*%
G70*
G01*
G75*
%ADD154C,0.00050*%
%ADD155C,0.00050*%
D154*
X613972Y420442D02*
X614407Y419539D01*
X614864Y418647D01*
X615343Y417766D01*
X615844Y416898D01*
X616366Y416043D01*
X616910Y415200D01*
X617474Y414372D01*
X618058Y413558D01*
X618663Y412758D01*
X619287Y411974D01*
X619931Y411205D01*
X620593Y410453D01*
X621274Y409718D01*
X621973Y408999D01*
X622689Y408298D01*
X623423Y407616D01*
X624174Y406951D01*
X624940Y406306D01*
X625723Y405679D01*
X626521Y405072D01*
X627334Y404486D01*
X628161Y403920D01*
X629002Y403374D01*
X629856Y402849D01*
X630723Y402346D01*
X631602Y401865D01*
X632492Y401405D01*
X633394Y400968D01*
X634307Y400553D01*
X635229Y400161D01*
X636162Y399793D01*
X637102Y399447D01*
X638052Y399125D01*
X639008Y398826D01*
X639972Y398552D01*
X640943Y398301D01*
X641919Y398075D01*
X642901Y397873D01*
X643888Y397695D01*
X644878Y397542D01*
X645872Y397413D01*
X655218D02*
X656214Y397542D01*
X657205Y397695D01*
X658193Y397873D01*
X659176Y398076D01*
X660153Y398302D01*
X661125Y398553D01*
X662090Y398829D01*
X663048Y399128D01*
X663998Y399450D01*
X664940Y399797D01*
X665873Y400166D01*
X666796Y400559D01*
X667710Y400974D01*
X668612Y401412D01*
X669504Y401873D01*
X670384Y402355D01*
X671252Y402859D01*
X672107Y403385D01*
X672948Y403932D01*
X673776Y404499D01*
X674589Y405087D01*
X675387Y405695D01*
X676170Y406322D01*
X676938Y406969D01*
X677689Y407635D01*
X678423Y408319D01*
X679140Y409021D01*
X679839Y409741D01*
X680520Y410478D01*
X681182Y411232D01*
X681826Y412001D01*
X682450Y412787D01*
X683055Y413588D01*
X683639Y414404D01*
X684203Y415234D01*
X684746Y416078D01*
X685268Y416935D01*
X685769Y417804D01*
X686248Y418686D01*
X686704Y419580D01*
X687139Y420484D01*
X687550Y421400D01*
X687939Y422325D01*
X688305Y423259D01*
X688647Y424202D01*
X688966Y425154D01*
X689261Y426113D01*
X689532Y427079D01*
X689779Y428052D01*
X690002Y429030D01*
X690200Y430014D01*
X690374Y431002D01*
X690523Y431995D01*
X690647Y432991D01*
X690747Y433989D01*
X690822Y434990D01*
X690872Y435992D01*
X690897Y436995D01*
X690897Y437999D01*
X690872Y439002D01*
X690822Y440004D01*
X690747Y441005D01*
X690647Y442003D01*
X690523Y442999D01*
X690374Y443991D01*
X690200Y444980D01*
X690001Y445963D01*
X689779Y446942D01*
X689532Y447914D01*
X689261Y448881D01*
X688966Y449840D01*
X688647Y450791D01*
X688304Y451734D01*
X687939Y452669D01*
X687550Y453594D01*
X687138Y454509D01*
X686704Y455414D01*
X686247Y456307D01*
X685768Y457189D01*
X685268Y458059D01*
X684746Y458916D01*
X684202Y459760D01*
X683639Y460590D01*
X683054Y461406D01*
X682450Y462207D01*
X681825Y462992D01*
X681182Y463762D01*
X680519Y464516D01*
X679838Y465253D01*
X679139Y465972D01*
X678422Y466675D01*
X677688Y467359D01*
X676937Y468024D01*
X676170Y468671D01*
X675386Y469299D01*
X674588Y469907D01*
X673775Y470494D01*
X672947Y471062D01*
X672106Y471608D01*
X671251Y472134D01*
X670383Y472638D01*
X669503Y473120D01*
X668611Y473581D01*
X667709Y474019D01*
X666795Y474434D01*
X665872Y474827D01*
X664939Y475197D01*
X663997Y475543D01*
X663047Y475865D01*
X662089Y476164D01*
X661124Y476440D01*
X660152Y476690D01*
X659175Y476917D01*
X658192Y477120D01*
X657204Y477297D01*
X656212Y477451D01*
X655218Y477579D01*
Y397413D02*
X654797Y398348D01*
X654192Y399175D01*
X653428Y399859D01*
X652540Y400369D01*
X651565Y400685D01*
X650545Y400792D01*
X649526Y400685D01*
X648551Y400369D01*
X647662Y399859D01*
X646899Y399175D01*
X646293Y398348D01*
X645872Y397413D01*
X645872Y477579D02*
X644878Y477451D01*
X643888Y477298D01*
X642901Y477120D01*
X641919Y476918D01*
X640943Y476691D01*
X639972Y476441D01*
X639008Y476166D01*
X638052Y475868D01*
X637102Y475546D01*
X636162Y475200D01*
X635230Y474831D01*
X634307Y474439D01*
X633394Y474025D01*
X632492Y473587D01*
X631602Y473128D01*
X630723Y472646D01*
X629856Y472143D01*
X629002Y471619D01*
X628161Y471073D01*
X627334Y470507D01*
X626521Y469920D01*
X625723Y469313D01*
X624941Y468687D01*
X624174Y468042D01*
X623423Y467377D01*
X622689Y466694D01*
X621973Y465993D01*
X621274Y465275D01*
X620593Y464539D01*
X619931Y463787D01*
X619287Y463019D01*
X618663Y462235D01*
X618058Y461435D01*
X617474Y460621D01*
X616910Y459792D01*
X616366Y458950D01*
X615844Y458095D01*
X615343Y457226D01*
X614864Y456346D01*
X614407Y455454D01*
X613972Y454551D01*
X645872Y477579D02*
X646293Y476645D01*
X646899Y475818D01*
X647662Y475134D01*
X648551Y474623D01*
X649526Y474308D01*
X650545Y474201D01*
X651565Y474308D01*
X652540Y474623D01*
X653428Y475134D01*
X654192Y475818D01*
X654797Y476645D01*
X655218Y477579D01*
X613587Y527591D02*
X614021Y526692D01*
X614479Y525805D01*
X614962Y524931D01*
X615468Y524071D01*
X615997Y523225D01*
X616548Y522393D01*
X617123Y521577D01*
X617719Y520776D01*
X618337Y519992D01*
X618976Y519225D01*
X619635Y518476D01*
X620315Y517745D01*
X621014Y517033D01*
X621733Y516340D01*
X622469Y515667D01*
X623224Y515014D01*
X623997Y514382D01*
X624786Y513771D01*
X625592Y513181D01*
X626413Y512614D01*
X627250Y512070D01*
X628101Y511548D01*
X628966Y511050D01*
X629844Y510575D01*
X630734Y510125D01*
X631637Y509698D01*
X632551Y509297D01*
X633475Y508920D01*
X634409Y508569D01*
X635353Y508244D01*
X636305Y507944D01*
X637264Y507670D01*
X638231Y507422D01*
X639205Y507200D01*
X640184Y507006D01*
X641167Y506838D01*
X642156Y506696D01*
X643147Y506582D01*
X644141Y506494D01*
X645138Y506434D01*
X646135Y506401D01*
X647133Y506395D01*
X648131Y506416D01*
X649128Y506464D01*
X650124Y506539D01*
X651117Y506641D01*
X652106Y506770D01*
X653092Y506926D01*
X654073Y507109D01*
X655049Y507319D01*
X656019Y507554D01*
X656982Y507817D01*
X657938Y508105D01*
X658885Y508419D01*
X659824Y508759D01*
X660753Y509124D01*
X661672Y509514D01*
X662579Y509929D01*
X663475Y510369D01*
X664359Y510833D01*
X665230Y511320D01*
X666087Y511831D01*
X666931Y512366D01*
X667759Y512923D01*
X668572Y513502D01*
X669369Y514103D01*
X670149Y514726D01*
X670912Y515369D01*
X671657Y516034D01*
X672383Y516718D01*
X673091Y517421D01*
X673780Y518144D01*
X674449Y518885D01*
X675097Y519644D01*
X675724Y520420D01*
X676330Y521213D01*
X676915Y522022D01*
X677477Y522847D01*
X678016Y523687D01*
X678533Y524541D01*
X679026Y525409D01*
X679495Y526290D01*
X679940Y527184D01*
X680361Y528089D01*
X680756Y529005D01*
X681127Y529932D01*
X681473Y530868D01*
X681792Y531814D01*
X682087Y532768D01*
X682355Y533729D01*
X682596Y534697D01*
X682812Y535672D01*
X683001Y536652D01*
X683163Y537637D01*
X683298Y538626D01*
X683406Y539618D01*
X683488Y540613D01*
X683542Y541610D01*
X683569Y542607D01*
X683569Y543606D01*
X683542Y544603D01*
X683488Y545600D01*
X683406Y546595D01*
X683298Y547587D01*
X683163Y548576D01*
X683001Y549561D01*
X682812Y550541D01*
X682596Y551516D01*
X682354Y552484D01*
X682086Y553446D01*
X681792Y554399D01*
X681472Y555345D01*
X681127Y556281D01*
X680756Y557208D01*
X680360Y558124D01*
X679940Y559029D01*
X679494Y559923D01*
X679025Y560804D01*
X678532Y561672D01*
X678016Y562526D01*
X677476Y563366D01*
X676914Y564190D01*
X676330Y565000D01*
X675724Y565793D01*
X675096Y566569D01*
X674448Y567328D01*
X673779Y568069D01*
X673091Y568792D01*
X672383Y569495D01*
X671656Y570179D01*
X670911Y570844D01*
X670148Y571487D01*
X669368Y572110D01*
X668571Y572711D01*
X667758Y573290D01*
X666930Y573847D01*
X666087Y574381D01*
X665229Y574893D01*
X664359Y575380D01*
X663475Y575844D01*
X662578Y576284D01*
X661671Y576699D01*
X660752Y577089D01*
X659823Y577454D01*
X658885Y577794D01*
X657937Y578108D01*
X656982Y578396D01*
X656018Y578658D01*
X655049Y578894D01*
X654073Y579103D01*
X653091Y579286D01*
X652106Y579442D01*
X651116Y579571D01*
X650123Y579673D01*
X649128Y579749D01*
X648131Y579797D01*
X647133Y579818D01*
X646135Y579812D01*
X645137Y579778D01*
X644141Y579718D01*
X643146Y579631D01*
X642155Y579516D01*
X641167Y579375D01*
X640183Y579207D01*
X639204Y579012D01*
X638231Y578790D01*
X637264Y578543D01*
X636304Y578268D01*
X635352Y577969D01*
X634408Y577643D01*
X633474Y577291D01*
X632550Y576915D01*
X631636Y576513D01*
X630733Y576087D01*
X629843Y575637D01*
X628965Y575162D01*
X628100Y574664D01*
X627249Y574142D01*
X626412Y573597D01*
X625591Y573030D01*
X624785Y572441D01*
X623996Y571830D01*
X623224Y571198D01*
X622469Y570545D01*
X621732Y569872D01*
X621013Y569179D01*
X620314Y568467D01*
X619635Y567735D01*
X618975Y566986D01*
X618336Y566219D01*
X617718Y565435D01*
X617122Y564635D01*
X616548Y563819D01*
X615996Y562987D01*
X615467Y562140D01*
X614961Y561280D01*
X614479Y560406D01*
X614020Y559519D01*
X613587Y558622D01*
X569644Y581189D02*
X569530Y582196D01*
X569195Y583153D01*
X568656Y584012D01*
X567939Y584729D01*
X567081Y585268D01*
X566124Y585603D01*
X565116Y585716D01*
X564109Y585603D01*
X563152Y585268D01*
X562293Y584729D01*
X561576Y584012D01*
X561037Y583153D01*
X560702Y582196D01*
X560589Y581189D01*
X560702Y580181D01*
X561037Y579224D01*
X561576Y578366D01*
X562293Y577649D01*
X563152Y577110D01*
X564109Y576775D01*
X565116Y576661D01*
X566124Y576775D01*
X567081Y577110D01*
X567939Y577649D01*
X568656Y578366D01*
X569195Y579224D01*
X569530Y580181D01*
X569644Y581189D01*
Y402399D02*
X569530Y403406D01*
X569195Y404363D01*
X568656Y405222D01*
X567939Y405939D01*
X567081Y406478D01*
X566124Y406813D01*
X565116Y406927D01*
X564109Y406813D01*
X563152Y406478D01*
X562293Y405939D01*
X561576Y405222D01*
X561037Y404363D01*
X560702Y403406D01*
X560589Y402399D01*
X560702Y401392D01*
X561037Y400435D01*
X561576Y399576D01*
X562293Y398859D01*
X563152Y398320D01*
X564109Y397985D01*
X565116Y397871D01*
X566124Y397985D01*
X567081Y398320D01*
X567939Y398859D01*
X568656Y399576D01*
X569195Y400435D01*
X569530Y401392D01*
X569644Y402399D01*
X609908Y420442D02*
X613972D01*
X609917Y454551D02*
X613972D01*
X609917Y527591D02*
X613587D01*
X609917Y454551D02*
Y527591D01*
X609908Y394525D02*
Y420442D01*
X609917Y558622D02*
X613587D01*
X609917Y558622D02*
X609923Y589063D01*
X520025Y589063D02*
X609908D01*
X520025Y394525D02*
Y589063D01*
Y394525D02*
X609908D01*
X645871Y477575D02*
X644876Y477446D01*
X643885Y477293D01*
X642897Y477115D01*
X641914Y476913D01*
X640937Y476686D01*
X639965Y476435D01*
X639000Y476160D01*
X638042Y475861D01*
X637092Y475538D01*
X636150Y475192D01*
X635217Y474822D01*
X634294Y474430D01*
X633380Y474014D01*
X632478Y473576D01*
X631586Y473116D01*
X630706Y472633D01*
X629838Y472129D01*
X628983Y471604D01*
X628142Y471057D01*
X627314Y470490D01*
X626501Y469902D01*
X625703Y469294D01*
X624920Y468666D01*
X624152Y468019D01*
X623401Y467354D01*
X622667Y466670D01*
X621950Y465968D01*
X621251Y465248D01*
X620570Y464511D01*
X619908Y463757D01*
X619264Y462987D01*
X618640Y462202D01*
X618035Y461401D01*
X617451Y460585D01*
X616887Y459755D01*
X616344Y458911D01*
X615822Y458054D01*
X615321Y457184D01*
X614842Y456302D01*
X614386Y455409D01*
X613951Y454504D01*
X613540Y453589D01*
X613151Y452664D01*
X612785Y451730D01*
X612443Y450786D01*
X612124Y449835D01*
X611829Y448876D01*
X611558Y447910D01*
X611311Y446937D01*
X611088Y445959D01*
X610890Y444975D01*
X610716Y443987D01*
X610567Y442994D01*
X610443Y441998D01*
X610343Y441000D01*
X610268Y439999D01*
X610218Y438997D01*
X610193Y437994D01*
Y436990D01*
X610218Y435987D01*
X610268Y434985D01*
X610343Y433984D01*
X610443Y432986D01*
X610567Y431990D01*
X610716Y430998D01*
X610890Y430009D01*
X611088Y429026D01*
X611311Y428047D01*
X611558Y427075D01*
X611829Y426109D01*
X612124Y425149D01*
X612443Y424198D01*
X612785Y423255D01*
X613151Y422320D01*
X613540Y421395D01*
X613951Y420480D01*
X614386Y419575D01*
X614842Y418682D01*
X615321Y417800D01*
X615822Y416930D01*
X616344Y416073D01*
X616887Y415229D01*
X617451Y414399D01*
X618035Y413584D01*
X618640Y412783D01*
X619264Y411997D01*
X619908Y411227D01*
X620570Y410473D01*
X621251Y409736D01*
X621950Y409017D01*
X622667Y408315D01*
X623401Y407630D01*
X624152Y406965D01*
X624920Y406318D01*
X625703Y405690D01*
X626501Y405083D01*
X627314Y404495D01*
X628142Y403927D01*
X628983Y403381D01*
X629838Y402855D01*
X630706Y402351D01*
X631586Y401868D01*
X632478Y401408D01*
X633380Y400970D01*
X634294Y400555D01*
X635217Y400162D01*
X636150Y399792D01*
X637092Y399446D01*
X638042Y399123D01*
X639000Y398824D01*
X639965Y398549D01*
X640937Y398298D01*
X641914Y398071D01*
X642897Y397869D01*
X643885Y397691D01*
X644876Y397538D01*
X645871Y397409D01*
X646538Y420215D02*
X646384Y421188D01*
X645936Y422066D01*
X645239Y422763D01*
X644361Y423210D01*
X643388Y423364D01*
X642415Y423210D01*
X641537Y422763D01*
X640840Y422066D01*
X640393Y421188D01*
X640239Y420215D01*
X640393Y419242D01*
X640840Y418364D01*
X641537Y417667D01*
X642415Y417219D01*
X643388Y417065D01*
X644361Y417219D01*
X645239Y417667D01*
X645936Y418364D01*
X646384Y419242D01*
X646538Y420215D01*
X653694Y437492D02*
X653540Y438465D01*
X653093Y439343D01*
X652396Y440040D01*
X651518Y440488D01*
X650545Y440642D01*
X649571Y440488D01*
X648693Y440040D01*
X647997Y439343D01*
X647549Y438465D01*
X647395Y437492D01*
X647549Y436519D01*
X647997Y435641D01*
X648693Y434944D01*
X649571Y434497D01*
X650545Y434342D01*
X651518Y434497D01*
X652396Y434944D01*
X653093Y435641D01*
X653540Y436519D01*
X653694Y437492D01*
X670971Y430336D02*
X670817Y431309D01*
X670370Y432187D01*
X669673Y432884D01*
X668795Y433331D01*
X667822Y433485D01*
X666849Y433331D01*
X665971Y432884D01*
X665274Y432187D01*
X664826Y431309D01*
X664672Y430336D01*
X664826Y429362D01*
X665274Y428484D01*
X665971Y427787D01*
X666849Y427340D01*
X667822Y427186D01*
X668795Y427340D01*
X669673Y427787D01*
X670370Y428484D01*
X670817Y429362D01*
X670971Y430336D01*
X675061Y416126D02*
X674906Y417099D01*
X674459Y417977D01*
X673762Y418674D01*
X672884Y419121D01*
X671911Y419275D01*
X670938Y419121D01*
X670060Y418674D01*
X669363Y417977D01*
X668915Y417099D01*
X668761Y416126D01*
X668915Y415153D01*
X669363Y414275D01*
X670060Y413578D01*
X670938Y413130D01*
X671911Y412976D01*
X672884Y413130D01*
X673762Y413578D01*
X674459Y414275D01*
X674906Y415153D01*
X675061Y416126D01*
X632328D02*
X632174Y417099D01*
X631726Y417977D01*
X631030Y418674D01*
X630152Y419121D01*
X629178Y419275D01*
X628205Y419121D01*
X627327Y418674D01*
X626630Y417977D01*
X626183Y417099D01*
X626029Y416126D01*
X626183Y415153D01*
X626630Y414275D01*
X627327Y413578D01*
X628205Y413130D01*
X629178Y412976D01*
X630152Y413130D01*
X631030Y413578D01*
X631726Y414275D01*
X632174Y415153D01*
X632328Y416126D01*
X625778Y425929D02*
X625624Y426902D01*
X625176Y427780D01*
X624479Y428477D01*
X623601Y428924D01*
X622628Y429078D01*
X621655Y428924D01*
X620777Y428477D01*
X620080Y427780D01*
X619633Y426902D01*
X619479Y425929D01*
X619633Y424956D01*
X620080Y424078D01*
X620777Y423381D01*
X621655Y422933D01*
X622628Y422779D01*
X623601Y422933D01*
X624479Y423381D01*
X625176Y424078D01*
X625624Y424956D01*
X625778Y425929D01*
X665258Y409576D02*
X665103Y410549D01*
X664656Y411427D01*
X663959Y412124D01*
X663081Y412571D01*
X662108Y412725D01*
X661135Y412571D01*
X660257Y412124D01*
X659560Y411427D01*
X659113Y410549D01*
X658958Y409576D01*
X659113Y408602D01*
X659560Y407724D01*
X660257Y407028D01*
X661135Y406580D01*
X662108Y406426D01*
X663081Y406580D01*
X663959Y407028D01*
X664656Y407724D01*
X665103Y408602D01*
X665258Y409576D01*
X666883Y437492D02*
X666729Y438465D01*
X666282Y439343D01*
X665585Y440040D01*
X664707Y440488D01*
X663734Y440642D01*
X662760Y440488D01*
X661882Y440040D01*
X661186Y439343D01*
X660738Y438465D01*
X660584Y437492D01*
X660738Y436519D01*
X661186Y435641D01*
X661882Y434944D01*
X662760Y434497D01*
X663734Y434342D01*
X664707Y434497D01*
X665585Y434944D01*
X666282Y435641D01*
X666729Y436519D01*
X666883Y437492D01*
X653694Y424303D02*
X653540Y425276D01*
X653093Y426154D01*
X652396Y426851D01*
X651518Y427299D01*
X650545Y427453D01*
X649571Y427299D01*
X648693Y426851D01*
X647997Y426154D01*
X647549Y425276D01*
X647395Y424303D01*
X647549Y423330D01*
X647997Y422452D01*
X648693Y421755D01*
X649571Y421308D01*
X650545Y421153D01*
X651518Y421308D01*
X652396Y421755D01*
X653093Y422452D01*
X653540Y423330D01*
X653694Y424303D01*
X644368Y428166D02*
X644214Y429139D01*
X643767Y430017D01*
X643070Y430714D01*
X642192Y431162D01*
X641219Y431316D01*
X640245Y431162D01*
X639367Y430714D01*
X638670Y430017D01*
X638223Y429139D01*
X638069Y428166D01*
X638223Y427193D01*
X638670Y426315D01*
X639367Y425618D01*
X640245Y425171D01*
X641219Y425016D01*
X642192Y425171D01*
X643070Y425618D01*
X643767Y426315D01*
X644214Y427193D01*
X644368Y428166D01*
X640505Y437492D02*
X640351Y438465D01*
X639904Y439343D01*
X639207Y440040D01*
X638329Y440488D01*
X637356Y440642D01*
X636382Y440488D01*
X635504Y440040D01*
X634807Y439343D01*
X634360Y438465D01*
X634206Y437492D01*
X634360Y436519D01*
X634807Y435641D01*
X635504Y434944D01*
X636382Y434497D01*
X637356Y434342D01*
X638329Y434497D01*
X639207Y434944D01*
X639904Y435641D01*
X640351Y436519D01*
X640505Y437492D01*
X663020Y428166D02*
X662866Y429139D01*
X662419Y430017D01*
X661722Y430714D01*
X660844Y431162D01*
X659871Y431316D01*
X658897Y431162D01*
X658019Y430714D01*
X657323Y430017D01*
X656875Y429139D01*
X656721Y428166D01*
X656875Y427193D01*
X657323Y426315D01*
X658019Y425618D01*
X658897Y425171D01*
X659871Y425016D01*
X660844Y425171D01*
X661722Y425618D01*
X662419Y426315D01*
X662866Y427193D01*
X663020Y428166D01*
X681611Y425929D02*
X681457Y426902D01*
X681009Y427780D01*
X680312Y428477D01*
X679434Y428924D01*
X678461Y429078D01*
X677488Y428924D01*
X676610Y428477D01*
X675913Y427780D01*
X675465Y426902D01*
X675311Y425929D01*
X675465Y424956D01*
X675913Y424078D01*
X676610Y423381D01*
X677488Y422933D01*
X678461Y422779D01*
X679434Y422933D01*
X680312Y423381D01*
X681009Y424078D01*
X681457Y424956D01*
X681611Y425929D01*
X642131Y409576D02*
X641977Y410549D01*
X641529Y411427D01*
X640833Y412124D01*
X639955Y412571D01*
X638981Y412725D01*
X638008Y412571D01*
X637130Y412124D01*
X636433Y411427D01*
X635986Y410549D01*
X635832Y409576D01*
X635986Y408602D01*
X636433Y407724D01*
X637130Y407028D01*
X638008Y406580D01*
X638981Y406426D01*
X639955Y406580D01*
X640833Y407028D01*
X641529Y407724D01*
X641977Y408602D01*
X642131Y409576D01*
X623478Y437492D02*
X623323Y438465D01*
X622876Y439343D01*
X622179Y440040D01*
X621301Y440488D01*
X620328Y440642D01*
X619355Y440488D01*
X618477Y440040D01*
X617780Y439343D01*
X617333Y438465D01*
X617178Y437492D01*
X617333Y436519D01*
X617780Y435641D01*
X618477Y434944D01*
X619355Y434497D01*
X620328Y434342D01*
X621301Y434497D01*
X622179Y434944D01*
X622876Y435641D01*
X623323Y436519D01*
X623478Y437492D01*
X653694Y407276D02*
X653540Y408249D01*
X653093Y409127D01*
X652396Y409824D01*
X651518Y410271D01*
X650545Y410425D01*
X649571Y410271D01*
X648693Y409824D01*
X647997Y409127D01*
X647549Y408249D01*
X647395Y407276D01*
X647549Y406302D01*
X647997Y405424D01*
X648693Y404728D01*
X649571Y404280D01*
X650545Y404126D01*
X651518Y404280D01*
X652396Y404728D01*
X653093Y405424D01*
X653540Y406302D01*
X653694Y407276D01*
X683911Y437492D02*
X683757Y438465D01*
X683309Y439343D01*
X682612Y440040D01*
X681734Y440488D01*
X680761Y440642D01*
X679788Y440488D01*
X678910Y440040D01*
X678213Y439343D01*
X677766Y438465D01*
X677611Y437492D01*
X677766Y436519D01*
X678213Y435641D01*
X678910Y434944D01*
X679788Y434497D01*
X680761Y434342D01*
X681734Y434497D01*
X682612Y434944D01*
X683309Y435641D01*
X683757Y436519D01*
X683911Y437492D01*
X660851Y420215D02*
X660697Y421188D01*
X660249Y422066D01*
X659552Y422763D01*
X658674Y423210D01*
X657701Y423364D01*
X656728Y423210D01*
X655850Y422763D01*
X655153Y422066D01*
X654706Y421188D01*
X654551Y420215D01*
X654706Y419242D01*
X655153Y418364D01*
X655850Y417667D01*
X656728Y417219D01*
X657701Y417065D01*
X658674Y417219D01*
X659552Y417667D01*
X660249Y418364D01*
X660697Y419242D01*
X660851Y420215D01*
X636417Y430336D02*
X636263Y431309D01*
X635815Y432187D01*
X635119Y432884D01*
X634241Y433331D01*
X633267Y433485D01*
X632294Y433331D01*
X631416Y432884D01*
X630719Y432187D01*
X630272Y431309D01*
X630118Y430336D01*
X630272Y429362D01*
X630719Y428484D01*
X631416Y427787D01*
X632294Y427340D01*
X633267Y427186D01*
X634241Y427340D01*
X635119Y427787D01*
X635815Y428484D01*
X636263Y429362D01*
X636417Y430336D01*
X655218Y397409D02*
X654797Y398344D01*
X654191Y399171D01*
X653428Y399854D01*
X652539Y400365D01*
X651564Y400681D01*
X650545Y400787D01*
X649525Y400681D01*
X648550Y400365D01*
X647661Y399854D01*
X646898Y399171D01*
X646292Y398344D01*
X645871Y397409D01*
Y477575D02*
X646292Y476641D01*
X646898Y475813D01*
X647661Y475130D01*
X648550Y474619D01*
X649525Y474304D01*
X650545Y474197D01*
X651564Y474304D01*
X652539Y474619D01*
X653428Y475130D01*
X654191Y475813D01*
X654797Y476641D01*
X655218Y477575D01*
D155*
X650564Y437492D02*
D03*
M02*
