G04*
G04 #@! TF.GenerationSoftware,Altium Limited,Altium Designer,20.0.13 (296)*
G04*
G04 Layer_Color=255*
%FSLAX25Y25*%
%MOIN*%
G70*
G01*
G75*
%ADD10R,0.02559X0.02520*%
%ADD11R,0.04803X0.03583*%
%ADD12R,0.02362X0.01968*%
%ADD13R,0.01968X0.02362*%
%ADD14R,0.04724X0.03543*%
%ADD15R,0.05118X0.04724*%
G04:AMPARAMS|DCode=16|XSize=57.09mil|YSize=18.9mil|CornerRadius=2.36mil|HoleSize=0mil|Usage=FLASHONLY|Rotation=270.000|XOffset=0mil|YOffset=0mil|HoleType=Round|Shape=RoundedRectangle|*
%AMROUNDEDRECTD16*
21,1,0.05709,0.01417,0,0,270.0*
21,1,0.05236,0.01890,0,0,270.0*
1,1,0.00472,-0.00709,-0.02618*
1,1,0.00472,-0.00709,0.02618*
1,1,0.00472,0.00709,0.02618*
1,1,0.00472,0.00709,-0.02618*
%
%ADD16ROUNDEDRECTD16*%
%ADD17R,0.02264X0.02441*%
%ADD18R,0.01181X0.03347*%
G04:AMPARAMS|DCode=19|XSize=74.8mil|YSize=23.62mil|CornerRadius=2.95mil|HoleSize=0mil|Usage=FLASHONLY|Rotation=90.000|XOffset=0mil|YOffset=0mil|HoleType=Round|Shape=RoundedRectangle|*
%AMROUNDEDRECTD19*
21,1,0.07480,0.01772,0,0,90.0*
21,1,0.06890,0.02362,0,0,90.0*
1,1,0.00591,0.00886,0.03445*
1,1,0.00591,0.00886,-0.03445*
1,1,0.00591,-0.00886,-0.03445*
1,1,0.00591,-0.00886,0.03445*
%
%ADD19ROUNDEDRECTD19*%
%ADD20R,0.04724X0.02756*%
%ADD21R,0.04724X0.02992*%
%ADD22R,0.04724X0.03150*%
%ADD23R,0.02520X0.02559*%
%ADD24R,0.11420X0.04720*%
%ADD25R,0.06299X0.02756*%
%ADD26R,0.08661X0.04724*%
%ADD27R,0.05906X0.04724*%
%ADD28R,0.05906X0.06299*%
%ADD47O,0.15000X0.20000*%
%ADD48R,0.02756X0.02362*%
%ADD50O,0.04500X0.05500*%
%ADD51C,0.07000*%
%ADD52C,0.03150*%
%ADD53C,0.06000*%
%ADD54C,0.05512*%
%ADD55R,0.05300X0.04800*%
%ADD56R,0.06496X0.06496*%
%ADD57C,0.06496*%
%ADD58R,0.06555X0.06555*%
%ADD59C,0.06555*%
%ADD60C,0.07874*%
%ADD61C,0.18000*%
%ADD62C,0.10000*%
%ADD63C,0.01968*%
%ADD65C,0.09000*%
D10*
X537772Y493500D02*
D03*
X534228D02*
D03*
X529772D02*
D03*
X526228D02*
D03*
X537272Y483000D02*
D03*
X533728D02*
D03*
X539772Y503500D02*
D03*
X536228D02*
D03*
X531728Y473500D02*
D03*
X535272D02*
D03*
X564272Y540500D02*
D03*
X560728D02*
D03*
X568457Y540000D02*
D03*
X572000D02*
D03*
D11*
X603000Y433500D02*
D03*
Y420626D02*
D03*
D12*
X542000Y414500D02*
D03*
X545937Y414500D02*
D03*
X591532Y417500D02*
D03*
X595469D02*
D03*
X529937Y486000D02*
D03*
X526000D02*
D03*
X533532Y486000D02*
D03*
X537468D02*
D03*
D13*
X589000Y417531D02*
D03*
Y421468D02*
D03*
D14*
X599551Y473055D02*
D03*
Y454945D02*
D03*
D15*
X593449Y470594D02*
D03*
Y457405D02*
D03*
D16*
X537441Y574000D02*
D03*
X540000D02*
D03*
X542559D02*
D03*
X545118D02*
D03*
Y556992D02*
D03*
X542559D02*
D03*
X540000D02*
D03*
X537441D02*
D03*
D17*
X601177Y444500D02*
D03*
X591823Y440760D02*
D03*
Y448240D02*
D03*
D18*
X526547Y522201D02*
D03*
X528516D02*
D03*
X530484D02*
D03*
X532453D02*
D03*
Y509799D02*
D03*
X530484D02*
D03*
X528516D02*
D03*
X526547D02*
D03*
D19*
X557500Y567665D02*
D03*
X562500D02*
D03*
X567500D02*
D03*
X572500D02*
D03*
Y548335D02*
D03*
X567500D02*
D03*
X562500D02*
D03*
X557500D02*
D03*
D20*
X583000Y564705D02*
D03*
Y568642D02*
D03*
D21*
Y572657D02*
D03*
Y560689D02*
D03*
D22*
Y577500D02*
D03*
Y555847D02*
D03*
D23*
X582500Y446228D02*
D03*
Y449772D02*
D03*
X606500Y442272D02*
D03*
Y438728D02*
D03*
X552500Y559272D02*
D03*
Y555728D02*
D03*
X549000Y545272D02*
D03*
Y541728D02*
D03*
X547500Y526772D02*
D03*
Y523228D02*
D03*
X552500Y545272D02*
D03*
Y541728D02*
D03*
X539000Y515728D02*
D03*
Y519272D02*
D03*
D24*
X533500Y433000D02*
D03*
X561060D02*
D03*
D25*
X548268Y482701D02*
D03*
Y487032D02*
D03*
Y491362D02*
D03*
Y495693D02*
D03*
Y500024D02*
D03*
Y504354D02*
D03*
Y508685D02*
D03*
Y513016D02*
D03*
Y517346D02*
D03*
D26*
X590000Y539000D02*
D03*
Y477976D02*
D03*
D27*
X552205D02*
D03*
D28*
Y535457D02*
D03*
D47*
X638121Y554369D02*
D03*
X646859Y529369D02*
D03*
X655621Y554369D02*
D03*
X629338Y454384D02*
D03*
X671896D02*
D03*
X650565D02*
D03*
D48*
X649024Y541458D02*
D03*
X644694D02*
D03*
D50*
X544000Y423000D02*
D03*
D51*
X553374Y440024D02*
D03*
D52*
X599551Y467346D02*
D03*
Y460654D02*
D03*
D53*
X546811Y584000D02*
D03*
X535000D02*
D03*
D54*
X559626Y483126D02*
D03*
X567500Y483063D02*
D03*
X575374D02*
D03*
Y491000D02*
D03*
X567500D02*
D03*
X559626D02*
D03*
D55*
X532000Y478500D02*
D03*
D56*
X527000Y533000D02*
D03*
D57*
Y543000D02*
D03*
Y553000D02*
D03*
Y563000D02*
D03*
Y573000D02*
D03*
D58*
X552000Y467500D02*
D03*
D59*
X562000D02*
D03*
X572000D02*
D03*
X582000D02*
D03*
X552000Y457500D02*
D03*
X562000D02*
D03*
X572000D02*
D03*
X582000D02*
D03*
D60*
X598551Y549665D02*
D03*
Y583681D02*
D03*
X583591D02*
D03*
Y549665D02*
D03*
D61*
X599000Y405500D02*
D03*
X531000D02*
D03*
D62*
X566000Y415500D02*
D03*
X552220Y405500D02*
D03*
X579779D02*
D03*
D63*
X591575Y489000D02*
D03*
Y520496D02*
D03*
D65*
X650565Y437513D02*
D03*
X662108Y409576D02*
D03*
X650545Y407276D02*
D03*
X638981Y409576D02*
D03*
X629178Y416126D02*
D03*
X622628Y425929D02*
D03*
X620328Y437492D02*
D03*
X680761D02*
D03*
X678461Y425929D02*
D03*
X671911Y416126D02*
D03*
X663734Y437492D02*
D03*
X659871Y428166D02*
D03*
X650545Y424303D02*
D03*
X643388Y420215D02*
D03*
X637356Y437492D02*
D03*
X667822Y430336D02*
D03*
X657701Y420215D02*
D03*
X641219Y428166D02*
D03*
X633267Y430336D02*
D03*
M02*
