G04*
G04 #@! TF.GenerationSoftware,Altium Limited,Altium Designer,20.0.13 (296)*
G04*
G04 Layer_Color=8388736*
%FSLAX25Y25*%
%MOIN*%
G70*
G01*
G75*
%ADD97R,0.03150X0.03110*%
%ADD98R,0.05394X0.04173*%
%ADD99R,0.02953X0.02559*%
%ADD100R,0.02559X0.02953*%
%ADD101R,0.05315X0.04134*%
%ADD102R,0.05709X0.05315*%
G04:AMPARAMS|DCode=103|XSize=62.99mil|YSize=24.8mil|CornerRadius=5.32mil|HoleSize=0mil|Usage=FLASHONLY|Rotation=270.000|XOffset=0mil|YOffset=0mil|HoleType=Round|Shape=RoundedRectangle|*
%AMROUNDEDRECTD103*
21,1,0.06299,0.01417,0,0,270.0*
21,1,0.05236,0.02480,0,0,270.0*
1,1,0.01063,-0.00709,-0.02618*
1,1,0.01063,-0.00709,0.02618*
1,1,0.01063,0.00709,0.02618*
1,1,0.01063,0.00709,-0.02618*
%
%ADD103ROUNDEDRECTD103*%
%ADD104R,0.02854X0.03032*%
%ADD105R,0.01772X0.03937*%
G04:AMPARAMS|DCode=106|XSize=80.71mil|YSize=29.53mil|CornerRadius=5.91mil|HoleSize=0mil|Usage=FLASHONLY|Rotation=90.000|XOffset=0mil|YOffset=0mil|HoleType=Round|Shape=RoundedRectangle|*
%AMROUNDEDRECTD106*
21,1,0.08071,0.01772,0,0,90.0*
21,1,0.06890,0.02953,0,0,90.0*
1,1,0.01181,0.00886,0.03445*
1,1,0.01181,0.00886,-0.03445*
1,1,0.01181,-0.00886,-0.03445*
1,1,0.01181,-0.00886,0.03445*
%
%ADD106ROUNDEDRECTD106*%
%ADD107R,0.05315X0.03347*%
%ADD108R,0.05315X0.03583*%
%ADD109R,0.05315X0.03740*%
%ADD110R,0.03110X0.03150*%
%ADD111R,0.12011X0.05311*%
%ADD112R,0.06890X0.03347*%
%ADD113R,0.09252X0.05315*%
%ADD114R,0.06496X0.05315*%
%ADD115R,0.06496X0.06890*%
%ADD116O,0.15591X0.20591*%
%ADD117R,0.03347X0.02953*%
%ADD118O,0.05091X0.06091*%
%ADD119C,0.07591*%
%ADD120C,0.06591*%
%ADD121C,0.06102*%
%ADD122R,0.05891X0.05391*%
%ADD123R,0.07087X0.07087*%
%ADD124C,0.07087*%
%ADD125R,0.07146X0.07146*%
%ADD126C,0.07146*%
%ADD127C,0.08465*%
%ADD128C,0.18591*%
%ADD129C,0.10591*%
%ADD130C,0.02559*%
%ADD131C,0.02362*%
%ADD132C,0.11000*%
D97*
X537772Y493500D02*
D03*
X534228D02*
D03*
X529772D02*
D03*
X526228D02*
D03*
X537272Y483000D02*
D03*
X533728D02*
D03*
X539772Y503500D02*
D03*
X536228D02*
D03*
X531728Y473500D02*
D03*
X535272D02*
D03*
X564272Y540500D02*
D03*
X560728D02*
D03*
X568457Y540000D02*
D03*
X572000D02*
D03*
D98*
X603000Y433500D02*
D03*
Y420626D02*
D03*
D99*
X542000Y414500D02*
D03*
X545937Y414500D02*
D03*
X591532Y417500D02*
D03*
X595469D02*
D03*
X529937Y486000D02*
D03*
X526000D02*
D03*
X533532Y486000D02*
D03*
X537468D02*
D03*
D100*
X589000Y417531D02*
D03*
Y421468D02*
D03*
D101*
X599551Y473055D02*
D03*
Y454945D02*
D03*
D102*
X593449Y470594D02*
D03*
Y457405D02*
D03*
D103*
X537441Y574000D02*
D03*
X540000D02*
D03*
X542559D02*
D03*
X545118D02*
D03*
Y556992D02*
D03*
X542559D02*
D03*
X540000D02*
D03*
X537441D02*
D03*
D104*
X601177Y444500D02*
D03*
X591823Y440760D02*
D03*
Y448240D02*
D03*
D105*
X526547Y522201D02*
D03*
X528516D02*
D03*
X530484D02*
D03*
X532453D02*
D03*
Y509799D02*
D03*
X530484D02*
D03*
X528516D02*
D03*
X526547D02*
D03*
D106*
X557500Y567665D02*
D03*
X562500D02*
D03*
X567500D02*
D03*
X572500D02*
D03*
Y548335D02*
D03*
X567500D02*
D03*
X562500D02*
D03*
X557500D02*
D03*
D107*
X583000Y564705D02*
D03*
Y568642D02*
D03*
D108*
Y572657D02*
D03*
Y560689D02*
D03*
D109*
Y577500D02*
D03*
Y555847D02*
D03*
D110*
X582500Y446228D02*
D03*
Y449772D02*
D03*
X606500Y442272D02*
D03*
Y438728D02*
D03*
X552500Y559272D02*
D03*
Y555728D02*
D03*
X549000Y545272D02*
D03*
Y541728D02*
D03*
X547500Y526772D02*
D03*
Y523228D02*
D03*
X552500Y545272D02*
D03*
Y541728D02*
D03*
X539000Y515728D02*
D03*
Y519272D02*
D03*
D111*
X533500Y433000D02*
D03*
X561060D02*
D03*
D112*
X548268Y482701D02*
D03*
Y487032D02*
D03*
Y491362D02*
D03*
Y495693D02*
D03*
Y500024D02*
D03*
Y504354D02*
D03*
Y508685D02*
D03*
Y513016D02*
D03*
Y517346D02*
D03*
D113*
X590000Y539000D02*
D03*
Y477976D02*
D03*
D114*
X552205D02*
D03*
D115*
Y535457D02*
D03*
D116*
X638121Y554369D02*
D03*
X646859Y529369D02*
D03*
X655621Y554369D02*
D03*
X629338Y454384D02*
D03*
X671896D02*
D03*
X650565D02*
D03*
D117*
X649024Y541458D02*
D03*
X644694D02*
D03*
D118*
X544000Y423000D02*
D03*
D119*
X553374Y440024D02*
D03*
D120*
X546811Y584000D02*
D03*
X535000D02*
D03*
D121*
X559626Y483126D02*
D03*
X567500Y483063D02*
D03*
X575374D02*
D03*
Y491000D02*
D03*
X567500D02*
D03*
X559626D02*
D03*
D122*
X532000Y478500D02*
D03*
D123*
X527000Y533000D02*
D03*
D124*
Y543000D02*
D03*
Y553000D02*
D03*
Y563000D02*
D03*
Y573000D02*
D03*
D125*
X552000Y467500D02*
D03*
D126*
X562000D02*
D03*
X572000D02*
D03*
X582000D02*
D03*
X552000Y457500D02*
D03*
X562000D02*
D03*
X572000D02*
D03*
X582000D02*
D03*
D127*
X598551Y549665D02*
D03*
Y583681D02*
D03*
X583591D02*
D03*
Y549665D02*
D03*
D128*
X599000Y405500D02*
D03*
X531000D02*
D03*
D129*
X566000Y415500D02*
D03*
X548500Y405500D02*
D03*
X582000D02*
D03*
D130*
X591575Y489000D02*
D03*
Y520496D02*
D03*
D131*
X539963Y529537D02*
D03*
X528500Y516000D02*
D03*
Y513500D02*
D03*
X558251Y534056D02*
D03*
X558231Y536830D02*
D03*
X560728Y542272D02*
D03*
X557111Y541612D02*
D03*
X558500Y513500D02*
D03*
X532000Y469586D02*
D03*
X552500Y528000D02*
D03*
X573500Y509500D02*
D03*
X569000Y511000D02*
D03*
X583500Y486000D02*
D03*
X602134Y428134D02*
D03*
X561500Y498200D02*
D03*
X527500Y581500D02*
D03*
X602500Y567000D02*
D03*
X558000Y528000D02*
D03*
X592000Y531000D02*
D03*
X593500Y464000D02*
D03*
X606000Y415000D02*
D03*
X529000Y451500D02*
D03*
X545500Y472000D02*
D03*
X586500Y513500D02*
D03*
X575500Y503500D02*
D03*
X524500Y526500D02*
D03*
X574500Y472500D02*
D03*
X541500Y413000D02*
D03*
X533000Y421000D02*
D03*
X534500Y427500D02*
D03*
Y439500D02*
D03*
X574532Y522031D02*
D03*
X596000Y433500D02*
D03*
X564500Y498500D02*
D03*
X531734Y488328D02*
D03*
X538000Y490500D02*
D03*
X534500Y491500D02*
D03*
X530000D02*
D03*
X559000Y510000D02*
D03*
X541000Y492531D02*
D03*
X554500Y492000D02*
D03*
X555000Y489500D02*
D03*
X561531Y476968D02*
D03*
X569000Y498500D02*
D03*
X553957Y511957D02*
D03*
X561685Y509685D02*
D03*
X565768Y512768D02*
D03*
X568469Y520031D02*
D03*
X562500Y555000D02*
D03*
X550500Y555500D02*
D03*
X541500Y566000D02*
D03*
X541000Y562500D02*
D03*
X554500Y568000D02*
D03*
X547000Y560500D02*
D03*
X573500Y541500D02*
D03*
X573086Y498586D02*
D03*
X572532Y525969D02*
D03*
X586000Y495000D02*
D03*
X589000Y495500D02*
D03*
X573500Y496000D02*
D03*
X547500Y521500D02*
D03*
X525500Y523248D02*
D03*
X541926Y512574D02*
D03*
X580000Y452000D02*
D03*
X539500Y510131D02*
D03*
X590000Y472500D02*
D03*
X537500Y508000D02*
D03*
X534500Y506468D02*
D03*
X528516Y506516D02*
D03*
X542500Y539500D02*
D03*
X539500Y539000D02*
D03*
X575500Y551335D02*
D03*
X568469Y555532D02*
D03*
X566728Y563500D02*
D03*
X554000Y544500D02*
D03*
X568838Y443500D02*
D03*
X564500Y442000D02*
D03*
X602000Y442500D02*
D03*
X606000Y554500D02*
D03*
X596158Y572657D02*
D03*
X585500Y564000D02*
D03*
X586031Y569000D02*
D03*
X577500Y498500D02*
D03*
X582500Y496000D02*
D03*
X545362Y491362D02*
D03*
X540011Y481011D02*
D03*
X556000Y519000D02*
D03*
X562532Y425000D02*
D03*
X536500Y471000D02*
D03*
X539000Y520272D02*
D03*
X585500Y444500D02*
D03*
X601500Y508000D02*
D03*
X595000Y424000D02*
D03*
X587968Y415000D02*
D03*
X543000Y578000D02*
D03*
X536500Y458000D02*
D03*
X574500Y436500D02*
D03*
X536000Y450500D02*
D03*
X543500Y438500D02*
D03*
X537500Y443500D02*
D03*
X578000Y428500D02*
D03*
X560500Y428000D02*
D03*
X653121Y571369D02*
D03*
X659621Y567369D02*
D03*
X646859Y514621D02*
D03*
Y508923D02*
D03*
X650621Y516869D02*
D03*
X652621Y511369D02*
D03*
X655621Y518369D02*
D03*
X658121Y513369D02*
D03*
X660621Y520369D02*
D03*
X664121Y515869D02*
D03*
X665621Y523369D02*
D03*
X670121Y520369D02*
D03*
Y528369D02*
D03*
X675121Y526369D02*
D03*
X673621Y533869D02*
D03*
X678121Y532869D02*
D03*
X674121Y540369D02*
D03*
X680121Y539869D02*
D03*
X674621Y546369D02*
D03*
X680621Y547369D02*
D03*
X672280Y553257D02*
D03*
X678621Y554369D02*
D03*
X669121Y558869D02*
D03*
X674621Y561369D02*
D03*
X665121Y563369D02*
D03*
X668121Y567869D02*
D03*
X660621Y573869D02*
D03*
X653621Y576369D02*
D03*
X646859Y571040D02*
D03*
Y576528D02*
D03*
X635796Y543108D02*
D03*
X627621Y549369D02*
D03*
X630121Y555369D02*
D03*
X636621Y560869D02*
D03*
X643121Y563869D02*
D03*
X645621Y557369D02*
D03*
X642121Y556369D02*
D03*
X638121Y554369D02*
D03*
X634121Y551369D02*
D03*
X631621Y547869D02*
D03*
X633121Y530369D02*
D03*
X635621Y534869D02*
D03*
X628121Y536369D02*
D03*
X632621Y537869D02*
D03*
X626768Y543108D02*
D03*
X630811D02*
D03*
X644694Y541458D02*
D03*
D132*
X650565Y437513D02*
D03*
X662108Y409576D02*
D03*
X650545Y407276D02*
D03*
X638981Y409576D02*
D03*
X629178Y416126D02*
D03*
X622628Y425929D02*
D03*
X620328Y437492D02*
D03*
X680761D02*
D03*
X678461Y425929D02*
D03*
X671911Y416126D02*
D03*
X663734Y437492D02*
D03*
X659871Y428166D02*
D03*
X650545Y424303D02*
D03*
X643388Y420215D02*
D03*
X637356Y437492D02*
D03*
X667822Y430336D02*
D03*
X657701Y420215D02*
D03*
X641219Y428166D02*
D03*
X633267Y430336D02*
D03*
M02*
