G04*
G04 #@! TF.GenerationSoftware,Altium Limited,Altium Designer,20.0.13 (296)*
G04*
G04 Layer_Color=128*
%FSLAX25Y25*%
%MOIN*%
G70*
G01*
G75*
%ADD10R,0.02559X0.02520*%
%ADD12R,0.02362X0.01968*%
%ADD13R,0.01968X0.02362*%
%ADD23R,0.02520X0.02559*%
%ADD46C,0.11200*%
%ADD49C,0.14575*%
%ADD70R,0.03937X0.01181*%
%ADD71R,0.01968X0.01378*%
%ADD72R,0.01181X0.01575*%
%ADD73R,0.07795X0.09646*%
%ADD74R,0.01693X0.01496*%
%ADD75R,0.03937X0.01378*%
%ADD76R,0.00600X0.02200*%
%ADD77R,0.00787X0.02953*%
%ADD78R,0.02200X0.00600*%
%ADD79R,0.02953X0.00787*%
%ADD80R,0.04331X0.02362*%
%ADD82R,0.05906X0.10630*%
%ADD83R,0.04921X0.02362*%
G04:AMPARAMS|DCode=85|XSize=33.86mil|YSize=15.75mil|CornerRadius=1.97mil|HoleSize=0mil|Usage=FLASHONLY|Rotation=0.000|XOffset=0mil|YOffset=0mil|HoleType=Round|Shape=RoundedRectangle|*
%AMROUNDEDRECTD85*
21,1,0.03386,0.01181,0,0,0.0*
21,1,0.02992,0.01575,0,0,0.0*
1,1,0.00394,0.01496,-0.00591*
1,1,0.00394,-0.01496,-0.00591*
1,1,0.00394,-0.01496,0.00591*
1,1,0.00394,0.01496,0.00591*
%
%ADD85ROUNDEDRECTD85*%
%ADD86R,0.03583X0.04803*%
%ADD87R,0.01181X0.05807*%
%ADD88R,0.05807X0.01181*%
%ADD94C,0.15750*%
D10*
X541228Y416500D02*
D03*
X544772D02*
D03*
X548772Y564000D02*
D03*
X545228D02*
D03*
X548772Y568000D02*
D03*
X545228D02*
D03*
X553228Y559000D02*
D03*
X556772D02*
D03*
X553272Y498000D02*
D03*
X549728D02*
D03*
X600772Y514500D02*
D03*
X597228D02*
D03*
X557228Y498000D02*
D03*
X560772D02*
D03*
D12*
X573969Y433000D02*
D03*
X570031D02*
D03*
X567969Y423500D02*
D03*
X564032Y423500D02*
D03*
X577969Y475000D02*
D03*
X574031D02*
D03*
X561531Y474500D02*
D03*
X565469D02*
D03*
X587532Y564000D02*
D03*
X591468D02*
D03*
X591468Y567500D02*
D03*
X587532D02*
D03*
X534469Y509500D02*
D03*
X530532D02*
D03*
X604468Y496000D02*
D03*
X600531D02*
D03*
D13*
X538500Y564032D02*
D03*
Y567969D02*
D03*
X572000Y555532D02*
D03*
Y559469D02*
D03*
X575500Y555532D02*
D03*
Y559469D02*
D03*
X541500Y489468D02*
D03*
Y485532D02*
D03*
X589000Y501469D02*
D03*
Y497532D02*
D03*
X586000Y488531D02*
D03*
Y492469D02*
D03*
X543000Y498468D02*
D03*
Y494531D02*
D03*
X606500Y424532D02*
D03*
Y428469D02*
D03*
X586000Y501532D02*
D03*
Y505469D02*
D03*
X595000Y567937D02*
D03*
Y564000D02*
D03*
D23*
X566000Y445772D02*
D03*
Y442228D02*
D03*
Y437772D02*
D03*
Y434228D02*
D03*
X541000Y442228D02*
D03*
Y445772D02*
D03*
X541000Y437772D02*
D03*
X541000Y434228D02*
D03*
X562000Y565228D02*
D03*
Y568772D02*
D03*
X565000Y565228D02*
D03*
Y568772D02*
D03*
X586500Y520272D02*
D03*
Y516728D02*
D03*
X543000Y476228D02*
D03*
Y479772D02*
D03*
D46*
X677059Y543108D02*
G03*
X677059Y543108I-30200J0D01*
G01*
D49*
X662809D02*
G03*
X662809Y543108I-15950J0D01*
G01*
D70*
X549315Y419063D02*
D03*
Y421032D02*
D03*
Y423000D02*
D03*
Y424968D02*
D03*
Y426937D02*
D03*
X538685D02*
D03*
Y424968D02*
D03*
Y423000D02*
D03*
Y421032D02*
D03*
Y419063D02*
D03*
D71*
X586929Y425339D02*
D03*
Y422780D02*
D03*
Y420221D02*
D03*
Y417661D02*
D03*
D72*
X575512D02*
D03*
Y420221D02*
D03*
Y422780D02*
D03*
Y425339D02*
D03*
D73*
X580000Y421500D02*
D03*
D74*
X581417Y427071D02*
D03*
Y415929D02*
D03*
D75*
X561248Y446028D02*
D03*
Y443665D02*
D03*
Y441500D02*
D03*
Y438547D02*
D03*
Y436185D02*
D03*
Y434020D02*
D03*
X545500Y446028D02*
D03*
Y443862D02*
D03*
Y441500D02*
D03*
Y438547D02*
D03*
Y436382D02*
D03*
Y434020D02*
D03*
D76*
X528063Y484406D02*
D03*
D77*
X529638D02*
D03*
X531213D02*
D03*
X532787D02*
D03*
X534362D02*
D03*
X535937D02*
D03*
Y472594D02*
D03*
X534362D02*
D03*
X532787D02*
D03*
X531213D02*
D03*
X529638D02*
D03*
X528063D02*
D03*
D78*
X537906Y482437D02*
D03*
Y474563D02*
D03*
X526094D02*
D03*
D79*
X537906Y480862D02*
D03*
Y479287D02*
D03*
Y477713D02*
D03*
Y476138D02*
D03*
X526094D02*
D03*
Y477713D02*
D03*
Y479287D02*
D03*
Y480862D02*
D03*
Y482437D02*
D03*
D80*
X593488Y505500D02*
D03*
Y501760D02*
D03*
Y509240D02*
D03*
X604512D02*
D03*
Y501760D02*
D03*
D82*
X536240Y498500D02*
D03*
X528760D02*
D03*
D83*
X593866Y426500D02*
D03*
X602134Y422760D02*
D03*
Y430240D02*
D03*
D85*
X601150Y440260D02*
D03*
Y444000D02*
D03*
Y447740D02*
D03*
X589850D02*
D03*
Y444000D02*
D03*
Y440260D02*
D03*
D86*
X525563Y458500D02*
D03*
X538437D02*
D03*
D87*
X571673Y549543D02*
D03*
X569705D02*
D03*
X567736D02*
D03*
X565768D02*
D03*
X563799D02*
D03*
X561831D02*
D03*
X559862D02*
D03*
X557894D02*
D03*
X555925D02*
D03*
X553957D02*
D03*
X551988D02*
D03*
X550020D02*
D03*
X548051D02*
D03*
X546083D02*
D03*
X544114D02*
D03*
X542146D02*
D03*
Y504362D02*
D03*
X544114D02*
D03*
X546083D02*
D03*
X548051D02*
D03*
X550020D02*
D03*
X551988D02*
D03*
X553957D02*
D03*
X555925D02*
D03*
X557894D02*
D03*
X559862D02*
D03*
X561831D02*
D03*
X563799D02*
D03*
X565768D02*
D03*
X567736D02*
D03*
X569705D02*
D03*
X571673D02*
D03*
D88*
X534319Y541716D02*
D03*
Y539748D02*
D03*
Y537780D02*
D03*
Y535811D02*
D03*
Y533843D02*
D03*
Y531874D02*
D03*
Y529906D02*
D03*
Y527937D02*
D03*
Y525969D02*
D03*
Y524000D02*
D03*
Y522031D02*
D03*
Y520063D02*
D03*
Y518094D02*
D03*
Y516126D02*
D03*
Y514157D02*
D03*
Y512189D02*
D03*
X579500D02*
D03*
Y514157D02*
D03*
Y516126D02*
D03*
Y518094D02*
D03*
Y520063D02*
D03*
Y522031D02*
D03*
Y524000D02*
D03*
Y525969D02*
D03*
Y527937D02*
D03*
Y529906D02*
D03*
Y531874D02*
D03*
Y533843D02*
D03*
Y535811D02*
D03*
Y537780D02*
D03*
Y539748D02*
D03*
Y541716D02*
D03*
D94*
X646859Y543108D02*
D03*
M02*
