G04*
G04 #@! TF.GenerationSoftware,Altium Limited,Altium Designer,20.0.13 (296)*
G04*
G04 Layer_Color=32768*
%FSLAX25Y25*%
%MOIN*%
G70*
G01*
G75*
%ADD96C,0.00394*%
%ADD156C,0.00197*%
D96*
X610087Y414898D02*
Y443598D01*
X595913Y414898D02*
X610087D01*
X595913D02*
Y443598D01*
X610087D01*
X540425Y415878D02*
X540425Y413122D01*
X547512Y415878D02*
X547512Y413122D01*
X540425Y415878D02*
X547512Y415878D01*
X540425Y413122D02*
X547512Y413122D01*
X542787Y414500D02*
X545150D01*
X543968Y413319D02*
Y415681D01*
X589957Y416122D02*
Y418878D01*
X597043Y416122D02*
Y418878D01*
X589957D02*
X597043D01*
X589957Y416122D02*
X597043D01*
X592319Y417500D02*
X594681D01*
X593500Y416319D02*
Y418681D01*
X587819Y419500D02*
X590181D01*
X589000Y418319D02*
Y420681D01*
X587622Y415957D02*
Y423043D01*
X590378Y415957D02*
Y423043D01*
X587622Y415957D02*
X590378D01*
X587622Y423043D02*
X590378D01*
X575543Y431622D02*
Y434378D01*
X568457Y431622D02*
Y434378D01*
X575543D01*
X568457Y431622D02*
X575543D01*
X570819Y433000D02*
X573181D01*
X572000Y431819D02*
Y434181D01*
X570984Y411244D02*
Y431756D01*
Y411244D02*
X593433D01*
Y431756D01*
X570984D02*
X593433D01*
X537319Y566000D02*
X539681D01*
X538500Y564819D02*
Y567181D01*
X539878Y562457D02*
Y569543D01*
X537122Y562457D02*
Y569543D01*
Y562457D02*
X539878D01*
X537122Y569543D02*
X539878D01*
X570622Y553957D02*
X573378D01*
X570622Y561043D02*
X573378D01*
Y553957D02*
Y561043D01*
X570622Y553957D02*
Y561043D01*
X572000Y556319D02*
Y558681D01*
X570819Y557500D02*
X573181D01*
X574122Y553957D02*
X576878D01*
X574122Y561043D02*
X576878D01*
Y553957D02*
Y561043D01*
X574122Y553957D02*
Y561043D01*
X575500Y556319D02*
Y558681D01*
X574319Y557500D02*
X576681D01*
X540122Y491043D02*
X542878D01*
X540122Y483957D02*
X542878D01*
X540122D02*
Y491043D01*
X542878Y483957D02*
Y491043D01*
X541500Y486319D02*
Y488681D01*
X540319Y487500D02*
X542681D01*
X587622Y503043D02*
X590378D01*
X587622Y495957D02*
X590378D01*
X587622D02*
Y503043D01*
X590378Y495957D02*
Y503043D01*
X589000Y498319D02*
Y500681D01*
X587819Y499500D02*
X590181D01*
X569543Y424878D02*
X569543Y422122D01*
X562457Y422122D02*
Y424878D01*
X569543Y424878D01*
X562457Y422122D02*
X569543Y422122D01*
X564819Y423500D02*
X567181D01*
X566000Y424681D02*
X566000Y422319D01*
X584622Y486957D02*
X587378D01*
X584622Y494043D02*
X587378D01*
Y486957D02*
Y494043D01*
X584622Y486957D02*
Y494043D01*
X586000Y489319D02*
Y491681D01*
X584819Y490500D02*
X587181D01*
X579543Y473622D02*
Y476378D01*
X572457Y473622D02*
Y476378D01*
X579543D01*
X572457Y473622D02*
X579543D01*
X574819Y475000D02*
X577181D01*
X576000Y473819D02*
Y476181D01*
X559957Y473122D02*
Y475878D01*
X567043Y473122D02*
Y475878D01*
X559957Y473122D02*
X567043D01*
X559957Y475878D02*
X567043D01*
X562319Y474500D02*
X564681D01*
X563500Y473319D02*
Y475681D01*
X585957Y562622D02*
Y565378D01*
X593043Y562622D02*
Y565378D01*
X585957Y562622D02*
X593043D01*
X585957Y565378D02*
X593043D01*
X588319Y564000D02*
X590681D01*
X589500Y562819D02*
Y565181D01*
X593043Y566122D02*
Y568878D01*
X585957Y566122D02*
Y568878D01*
X593043D01*
X585957Y566122D02*
X593043D01*
X588319Y567500D02*
X590681D01*
X589500Y566319D02*
Y568681D01*
X541622Y500043D02*
X544378D01*
X541622Y492957D02*
X544378D01*
X541622D02*
Y500043D01*
X544378Y492957D02*
Y500043D01*
X543000Y495319D02*
Y497681D01*
X541819Y496500D02*
X544181D01*
X536043Y508122D02*
Y510878D01*
X528957Y508122D02*
Y510878D01*
X536043D01*
X528957Y508122D02*
X536043D01*
X531319Y509500D02*
X533681D01*
X532500Y508319D02*
Y510681D01*
X606043Y494622D02*
Y497378D01*
X598957Y494622D02*
Y497378D01*
X606043D01*
X598957Y494622D02*
X606043D01*
X601319Y496000D02*
X603681D01*
X602500Y494819D02*
Y497181D01*
X605122Y422957D02*
X607878D01*
X605122Y430043D02*
X607878D01*
Y422957D02*
Y430043D01*
X605122Y422957D02*
Y430043D01*
X606500Y425319D02*
Y427681D01*
X605319Y426500D02*
X607681D01*
X584622Y499957D02*
X587378D01*
X584622Y507043D02*
X587378D01*
Y499957D02*
Y507043D01*
X584622Y499957D02*
Y507043D01*
X586000Y502319D02*
Y504681D01*
X584819Y503500D02*
X587181D01*
X531512Y484622D02*
Y487378D01*
X524425Y484622D02*
Y487378D01*
Y484622D02*
X531512D01*
X524425Y487378D02*
X531512D01*
X526787Y486000D02*
X529150D01*
X527969Y484819D02*
Y487181D01*
X593622Y569512D02*
X596378D01*
X593622Y562425D02*
X596378D01*
X593622D02*
Y569512D01*
X596378Y562425D02*
Y569512D01*
X595000Y564787D02*
Y567150D01*
X593819Y565969D02*
X596181D01*
X548535Y451413D02*
Y465587D01*
X519835Y451413D02*
X548535D01*
X519835D02*
Y465587D01*
X548535D01*
X572961Y541595D02*
Y591752D01*
X612724D01*
Y541595D02*
Y591752D01*
X572961Y541595D02*
X612724D01*
X535500Y484819D02*
Y487181D01*
X534319Y486000D02*
X536681D01*
X531957Y487378D02*
X539043D01*
X531957Y484622D02*
X539043D01*
X531957D02*
Y487378D01*
X539043Y484622D02*
Y487378D01*
X537638Y471677D02*
X611260D01*
Y545299D01*
X537638D02*
X611260D01*
X537638Y471677D02*
Y545299D01*
D156*
X532358Y491650D02*
Y495350D01*
Y491650D02*
X539642D01*
Y495350D01*
X532358D02*
X539642D01*
X524358Y491650D02*
Y495350D01*
Y491650D02*
X531642D01*
Y495350D01*
X524358D02*
X531642D01*
X535732Y415913D02*
Y430087D01*
X552268D01*
Y415913D02*
Y430087D01*
X535732Y415913D02*
X552268D01*
X564150Y440358D02*
Y447642D01*
Y440358D02*
X567850D01*
Y447642D01*
X564150D02*
X567850D01*
X564150Y432358D02*
Y439642D01*
Y432358D02*
X567850D01*
Y439642D01*
X564150D02*
X567850D01*
X542850Y440358D02*
Y447642D01*
X539150D02*
X542850D01*
X539150Y440358D02*
Y447642D01*
Y440358D02*
X542850D01*
X539150Y432358D02*
Y439642D01*
Y432358D02*
X542850D01*
Y439642D01*
X539150D02*
X542850D01*
X539358Y414650D02*
X546642D01*
Y418350D01*
X539358D02*
X546642D01*
X539358Y414650D02*
Y418350D01*
X543358Y562150D02*
Y565850D01*
X550642D01*
Y562150D02*
Y565850D01*
X543358Y562150D02*
X550642D01*
X543358Y566150D02*
Y569850D01*
X550642D01*
Y566150D02*
Y569850D01*
X543358Y566150D02*
X550642D01*
X551358Y557150D02*
X558642D01*
Y560850D01*
X551358D02*
X558642D01*
X551358Y557150D02*
Y560850D01*
X535492Y577858D02*
X547067D01*
X535492Y553134D02*
X547067D01*
Y558370D01*
X548406D01*
Y572622D01*
X547067D02*
X548406D01*
X547067D02*
Y577858D01*
X535492Y572622D02*
Y577858D01*
X534154Y572622D02*
X535492D01*
X534154Y558370D02*
Y572622D01*
Y558370D02*
X535492D01*
Y553134D02*
Y558370D01*
X563850Y563358D02*
Y570642D01*
X560150D02*
X563850D01*
X560150Y563358D02*
Y570642D01*
Y563358D02*
X563850D01*
X566850D02*
Y570642D01*
X563150D02*
X566850D01*
X563150Y563358D02*
Y570642D01*
Y563358D02*
X566850D01*
X547858Y499850D02*
X555142D01*
X547858Y496150D02*
Y499850D01*
Y496150D02*
X555142D01*
Y499850D01*
X584650Y514858D02*
Y522142D01*
Y514858D02*
X588350D01*
Y522142D01*
X584650D02*
X588350D01*
X531858Y481150D02*
X539142D01*
X531858D02*
Y484850D01*
X539142D01*
Y481150D02*
Y484850D01*
X544850Y474358D02*
Y481642D01*
X541150D02*
X544850D01*
X541150Y474358D02*
Y481642D01*
Y474358D02*
X544850D01*
X523634Y470134D02*
Y486866D01*
Y470134D02*
X540366D01*
Y486866D01*
X523634D02*
X540366D01*
X590102Y437807D02*
Y451193D01*
Y437807D02*
X602898D01*
Y451193D01*
X590102D02*
X602898D01*
X595358Y516350D02*
X602642D01*
X595358Y512650D02*
Y516350D01*
Y512650D02*
X602642D01*
Y516350D01*
X555358Y496150D02*
X562642D01*
Y499850D01*
X555358D02*
X562642D01*
X555358Y496150D02*
Y499850D01*
X596701Y554598D02*
Y579402D01*
X609299D01*
Y554598D02*
Y579402D01*
X596701Y554598D02*
X609299D01*
X605579Y419531D02*
Y433468D01*
X590421Y419531D02*
X605579D01*
X590421D02*
Y433468D01*
X605579D01*
X524382Y507142D02*
X534618D01*
Y524858D01*
X524382D02*
X534618D01*
X524382Y507142D02*
Y524858D01*
X603827Y436913D02*
Y451087D01*
X587173Y436913D02*
Y451087D01*
X603827D01*
X587173Y436913D02*
X603827D01*
X554370Y572390D02*
X575630D01*
X554370Y543610D02*
X575630D01*
Y572390D01*
X554370Y543610D02*
Y572390D01*
X583386Y500476D02*
Y553429D01*
X530433Y500476D02*
X583386D01*
X530433D02*
Y553429D01*
X583386D01*
X521016Y526327D02*
X532984D01*
X521016D02*
Y579673D01*
X532984D01*
Y526327D02*
Y579673D01*
X580650Y451642D02*
X584350D01*
X580650Y444358D02*
Y451642D01*
Y444358D02*
X584350D01*
Y451642D01*
X604650Y436858D02*
X608350D01*
Y444142D01*
X604650D02*
X608350D01*
X604650Y436858D02*
Y444142D01*
X550650Y553858D02*
X554350D01*
Y561142D01*
X550650D02*
X554350D01*
X550650Y553858D02*
Y561142D01*
X534358Y501650D02*
Y505350D01*
Y501650D02*
X541642D01*
Y505350D01*
X534358D02*
X541642D01*
X537142Y471650D02*
Y475350D01*
X529858D02*
X537142D01*
X529858Y471650D02*
Y475350D01*
Y471650D02*
X537142D01*
X547150Y539858D02*
X550850D01*
Y547142D01*
X547150D02*
X550850D01*
X547150Y539858D02*
Y547142D01*
X545650Y521358D02*
X549350D01*
Y528642D01*
X545650D02*
X549350D01*
X545650Y521358D02*
Y528642D01*
X558858Y538650D02*
Y542350D01*
Y538650D02*
X566142D01*
Y542350D01*
X558858D02*
X566142D01*
X550650Y539858D02*
X554350D01*
Y547142D01*
X550650D02*
X554350D01*
X550650Y539858D02*
Y547142D01*
X573870Y538150D02*
Y541850D01*
X566587D02*
X573870D01*
X566587Y538150D02*
Y541850D01*
Y538150D02*
X573870D01*
X537150Y521142D02*
X540850D01*
X537150Y513858D02*
Y521142D01*
Y513858D02*
X540850D01*
Y521142D01*
X642332Y539293D02*
X651387D01*
X642332D02*
Y543624D01*
X651387D01*
Y539293D02*
Y543624D01*
M02*
