G04*
G04 #@! TF.GenerationSoftware,Altium Limited,Altium Designer,20.0.13 (296)*
G04*
G04 Layer_Color=16711935*
%FSLAX25Y25*%
%MOIN*%
G70*
G01*
G75*
%ADD42C,0.11200*%
%ADD45C,0.14575*%
%ADD92C,0.15750*%
%ADD97R,0.03150X0.03110*%
%ADD99R,0.02953X0.02559*%
%ADD100R,0.02559X0.02953*%
%ADD110R,0.03110X0.03150*%
%ADD116O,0.15591X0.20591*%
%ADD119C,0.07591*%
%ADD120C,0.06591*%
%ADD121C,0.06102*%
%ADD122R,0.05891X0.05391*%
%ADD123R,0.07087X0.07087*%
%ADD124C,0.07087*%
%ADD125R,0.07146X0.07146*%
%ADD126C,0.07146*%
%ADD127C,0.08465*%
%ADD128C,0.18591*%
%ADD129C,0.10591*%
%ADD130C,0.02559*%
%ADD131C,0.02362*%
%ADD132C,0.11000*%
%ADD133R,0.04528X0.01772*%
%ADD134R,0.02559X0.01968*%
%ADD135R,0.01772X0.02165*%
%ADD136R,0.08386X0.10236*%
%ADD137R,0.02284X0.02087*%
%ADD138R,0.04528X0.01969*%
%ADD139R,0.01191X0.02791*%
%ADD140R,0.01378X0.03543*%
%ADD141R,0.02791X0.01191*%
%ADD142R,0.03543X0.01378*%
%ADD143R,0.04921X0.02953*%
%ADD144R,0.08858X0.06102*%
%ADD145R,0.06496X0.11221*%
%ADD146R,0.05512X0.02953*%
%ADD147R,0.07008X0.09921*%
G04:AMPARAMS|DCode=148|XSize=39.76mil|YSize=21.65mil|CornerRadius=4.92mil|HoleSize=0mil|Usage=FLASHONLY|Rotation=0.000|XOffset=0mil|YOffset=0mil|HoleType=Round|Shape=RoundedRectangle|*
%AMROUNDEDRECTD148*
21,1,0.03976,0.01181,0,0,0.0*
21,1,0.02992,0.02165,0,0,0.0*
1,1,0.00984,0.01496,-0.00591*
1,1,0.00984,-0.01496,-0.00591*
1,1,0.00984,-0.01496,0.00591*
1,1,0.00984,0.01496,0.00591*
%
%ADD148ROUNDEDRECTD148*%
%ADD149R,0.04173X0.05394*%
%ADD150R,0.01772X0.06398*%
%ADD151R,0.06398X0.01772*%
%ADD152R,0.05709X0.09646*%
D42*
X677059Y543108D02*
X677043Y544106D01*
X676993Y545104D01*
X676911Y546099D01*
X676795Y547091D01*
X676647Y548078D01*
X676467Y549060D01*
X676254Y550036D01*
X676008Y551004D01*
X675731Y551964D01*
X675423Y552914D01*
X675083Y553853D01*
X674712Y554780D01*
X674311Y555694D01*
X673880Y556595D01*
X673419Y557481D01*
X672929Y558351D01*
X672411Y559205D01*
X671865Y560041D01*
X671291Y560859D01*
X670691Y561657D01*
X670065Y562435D01*
X669413Y563191D01*
X668737Y563926D01*
X668037Y564638D01*
X667313Y565326D01*
X666567Y565990D01*
X665800Y566630D01*
X665012Y567243D01*
X664204Y567830D01*
X663377Y568390D01*
X662532Y568922D01*
X661670Y569426D01*
X660792Y569902D01*
X659898Y570348D01*
X658990Y570764D01*
X658069Y571150D01*
X657136Y571505D01*
X656191Y571829D01*
X655237Y572122D01*
X654273Y572383D01*
X653301Y572612D01*
X652322Y572809D01*
X651337Y572974D01*
X650347Y573105D01*
X649353Y573204D01*
X648356Y573270D01*
X647358Y573303D01*
X646360D01*
X645362Y573270D01*
X644365Y573204D01*
X643371Y573105D01*
X642382Y572974D01*
X641397Y572809D01*
X640417Y572612D01*
X639445Y572383D01*
X638482Y572122D01*
X637527Y571829D01*
X636582Y571505D01*
X635649Y571150D01*
X634728Y570764D01*
X633820Y570348D01*
X632927Y569902D01*
X632048Y569426D01*
X631186Y568922D01*
X630341Y568390D01*
X629514Y567830D01*
X628707Y567243D01*
X627918Y566630D01*
X627151Y565990D01*
X626405Y565326D01*
X625682Y564638D01*
X624981Y563926D01*
X624305Y563191D01*
X623653Y562435D01*
X623027Y561657D01*
X622427Y560859D01*
X621853Y560041D01*
X621307Y559205D01*
X620789Y558352D01*
X620299Y557481D01*
X619838Y556595D01*
X619407Y555694D01*
X619006Y554780D01*
X618635Y553853D01*
X618295Y552914D01*
X617987Y551964D01*
X617710Y551004D01*
X617465Y550036D01*
X617252Y549060D01*
X617071Y548078D01*
X616923Y547091D01*
X616808Y546099D01*
X616725Y545104D01*
X616676Y544106D01*
X616659Y543108D01*
X616676Y542109D01*
X616725Y541112D01*
X616808Y540116D01*
X616923Y539124D01*
X617071Y538137D01*
X617252Y537155D01*
X617465Y536179D01*
X617710Y535211D01*
X617987Y534251D01*
X618295Y533302D01*
X618635Y532363D01*
X619006Y531435D01*
X619407Y530521D01*
X619838Y529620D01*
X620299Y528734D01*
X620789Y527864D01*
X621307Y527010D01*
X621853Y526174D01*
X622427Y525356D01*
X623027Y524558D01*
X623653Y523781D01*
X624305Y523024D01*
X624981Y522289D01*
X625682Y521577D01*
X626405Y520889D01*
X627151Y520225D01*
X627918Y519586D01*
X628706Y518972D01*
X629514Y518385D01*
X630341Y517825D01*
X631186Y517293D01*
X632048Y516789D01*
X632926Y516314D01*
X633820Y515868D01*
X634728Y515451D01*
X635649Y515065D01*
X636582Y514710D01*
X637527Y514386D01*
X638481Y514093D01*
X639445Y513832D01*
X640417Y513603D01*
X641396Y513406D01*
X642381Y513241D01*
X643371Y513110D01*
X644365Y513011D01*
X645362Y512945D01*
X646360Y512912D01*
X647358Y512912D01*
X648356Y512945D01*
X649353Y513011D01*
X650347Y513110D01*
X651336Y513241D01*
X652321Y513406D01*
X653301Y513602D01*
X654273Y513832D01*
X655236Y514093D01*
X656191Y514386D01*
X657136Y514710D01*
X658069Y515065D01*
X658990Y515451D01*
X659898Y515867D01*
X660791Y516313D01*
X661670Y516789D01*
X662532Y517293D01*
X663377Y517825D01*
X664204Y518385D01*
X665012Y518972D01*
X665800Y519585D01*
X666567Y520224D01*
X667313Y520889D01*
X668036Y521577D01*
X668737Y522289D01*
X669413Y523024D01*
X670065Y523780D01*
X670691Y524558D01*
X671291Y525356D01*
X671865Y526174D01*
X672411Y527010D01*
X672929Y527864D01*
X673419Y528734D01*
X673880Y529620D01*
X674311Y530521D01*
X674712Y531435D01*
X675083Y532363D01*
X675423Y533301D01*
X675731Y534251D01*
X676008Y535211D01*
X676254Y536179D01*
X676467Y537155D01*
X676647Y538137D01*
X676795Y539124D01*
X676911Y540116D01*
X676993Y541112D01*
X677043Y542109D01*
X677059Y543108D01*
D45*
X662809Y543108D02*
X662778Y544109D01*
X662683Y545107D01*
X662527Y546096D01*
X662308Y547074D01*
X662029Y548036D01*
X661689Y548979D01*
X661291Y549899D01*
X660836Y550792D01*
X660326Y551654D01*
X659763Y552483D01*
X659149Y553274D01*
X658486Y554026D01*
X657778Y554735D01*
X657026Y555397D01*
X656234Y556011D01*
X655406Y556574D01*
X654543Y557085D01*
X653650Y557540D01*
X652731Y557937D01*
X651788Y558277D01*
X650826Y558556D01*
X649848Y558775D01*
X648858Y558932D01*
X647861Y559026D01*
X646859Y559058D01*
X645858Y559026D01*
X644860Y558932D01*
X643870Y558775D01*
X642893Y558556D01*
X641930Y558277D01*
X640988Y557937D01*
X640068Y557540D01*
X639175Y557085D01*
X638313Y556575D01*
X637484Y556011D01*
X636692Y555397D01*
X635941Y554735D01*
X635232Y554026D01*
X634569Y553274D01*
X633955Y552483D01*
X633392Y551654D01*
X632882Y550792D01*
X632427Y549899D01*
X632029Y548979D01*
X631690Y548036D01*
X631410Y547074D01*
X631192Y546096D01*
X631035Y545107D01*
X630941Y544109D01*
X630909Y543108D01*
X630941Y542106D01*
X631035Y541108D01*
X631192Y540119D01*
X631410Y539141D01*
X631690Y538179D01*
X632029Y537236D01*
X632427Y536316D01*
X632882Y535424D01*
X633392Y534561D01*
X633955Y533732D01*
X634570Y532941D01*
X635232Y532189D01*
X635941Y531481D01*
X636692Y530818D01*
X637484Y530204D01*
X638313Y529640D01*
X639175Y529130D01*
X640068Y528676D01*
X640988Y528278D01*
X641930Y527938D01*
X642893Y527659D01*
X643870Y527440D01*
X644860Y527283D01*
X645858Y527189D01*
X646859Y527157D01*
X647861Y527189D01*
X648858Y527283D01*
X649848Y527440D01*
X650826Y527659D01*
X651788Y527938D01*
X652731Y528278D01*
X653650Y528676D01*
X654543Y529131D01*
X655406Y529640D01*
X656234Y530204D01*
X657026Y530818D01*
X657778Y531481D01*
X658486Y532189D01*
X659149Y532941D01*
X659763Y533732D01*
X660326Y534561D01*
X660836Y535424D01*
X661291Y536316D01*
X661689Y537236D01*
X662029Y538179D01*
X662308Y539141D01*
X662527Y540119D01*
X662683Y541109D01*
X662778Y542106D01*
X662809Y543108D01*
D92*
X646859D02*
D03*
D97*
X541228Y416500D02*
D03*
X544772D02*
D03*
X548772Y564000D02*
D03*
X545228D02*
D03*
X548772Y568000D02*
D03*
X545228D02*
D03*
X553228Y559000D02*
D03*
X556772D02*
D03*
X553272Y498000D02*
D03*
X549728D02*
D03*
X600772Y514500D02*
D03*
X597228D02*
D03*
X557228Y498000D02*
D03*
X560772D02*
D03*
D99*
X573969Y433000D02*
D03*
X570031D02*
D03*
X567969Y423500D02*
D03*
X564032Y423500D02*
D03*
X577969Y475000D02*
D03*
X574031D02*
D03*
X561531Y474500D02*
D03*
X565469D02*
D03*
X587532Y564000D02*
D03*
X591468D02*
D03*
X591468Y567500D02*
D03*
X587532D02*
D03*
X534469Y509500D02*
D03*
X530532D02*
D03*
X604468Y496000D02*
D03*
X600531D02*
D03*
D100*
X538500Y564032D02*
D03*
Y567969D02*
D03*
X572000Y555532D02*
D03*
Y559469D02*
D03*
X575500Y555532D02*
D03*
Y559469D02*
D03*
X541500Y489468D02*
D03*
Y485532D02*
D03*
X589000Y501469D02*
D03*
Y497532D02*
D03*
X586000Y488531D02*
D03*
Y492469D02*
D03*
X543000Y498468D02*
D03*
Y494531D02*
D03*
X606500Y424532D02*
D03*
Y428469D02*
D03*
X586000Y501532D02*
D03*
Y505469D02*
D03*
X595000Y567937D02*
D03*
Y564000D02*
D03*
D110*
X566000Y445772D02*
D03*
Y442228D02*
D03*
Y437772D02*
D03*
Y434228D02*
D03*
X541000Y442228D02*
D03*
Y445772D02*
D03*
X541000Y437772D02*
D03*
X541000Y434228D02*
D03*
X562000Y565228D02*
D03*
Y568772D02*
D03*
X565000Y565228D02*
D03*
Y568772D02*
D03*
X586500Y520272D02*
D03*
Y516728D02*
D03*
X543000Y476228D02*
D03*
Y479772D02*
D03*
D116*
X629338Y454384D02*
D03*
X671896D02*
D03*
X650565D02*
D03*
D119*
X553374Y440024D02*
D03*
D120*
X546811Y584000D02*
D03*
X535000D02*
D03*
D121*
X559626Y483126D02*
D03*
X567500Y483063D02*
D03*
X575374D02*
D03*
Y491000D02*
D03*
X567500D02*
D03*
X559626D02*
D03*
D122*
X532000Y478500D02*
D03*
D123*
X527000Y533000D02*
D03*
D124*
Y543000D02*
D03*
Y553000D02*
D03*
Y563000D02*
D03*
Y573000D02*
D03*
D125*
X552000Y467500D02*
D03*
D126*
X562000D02*
D03*
X572000D02*
D03*
X582000D02*
D03*
X552000Y457500D02*
D03*
X562000D02*
D03*
X572000D02*
D03*
X582000D02*
D03*
D127*
X598551Y549665D02*
D03*
Y583681D02*
D03*
X583591D02*
D03*
Y549665D02*
D03*
D128*
X599000Y405500D02*
D03*
X531000D02*
D03*
D129*
X566000Y415500D02*
D03*
X548500Y405500D02*
D03*
X582000D02*
D03*
D130*
X591575Y489000D02*
D03*
Y520496D02*
D03*
D131*
X539963Y529537D02*
D03*
X528500Y516000D02*
D03*
Y513500D02*
D03*
X558251Y534056D02*
D03*
X558231Y536830D02*
D03*
X560728Y542272D02*
D03*
X557111Y541612D02*
D03*
X558500Y513500D02*
D03*
X532000Y469586D02*
D03*
X552500Y528000D02*
D03*
X573500Y509500D02*
D03*
X569000Y511000D02*
D03*
X583500Y486000D02*
D03*
X602134Y428134D02*
D03*
X561500Y498200D02*
D03*
X527500Y581500D02*
D03*
X602500Y567000D02*
D03*
X558000Y528000D02*
D03*
X592000Y531000D02*
D03*
X593500Y464000D02*
D03*
X606000Y415000D02*
D03*
X529000Y451500D02*
D03*
X545500Y472000D02*
D03*
X586500Y513500D02*
D03*
X575500Y503500D02*
D03*
X524500Y526500D02*
D03*
X574500Y472500D02*
D03*
X541500Y413000D02*
D03*
X533000Y421000D02*
D03*
X534500Y427500D02*
D03*
Y439500D02*
D03*
X574532Y522031D02*
D03*
X596000Y433500D02*
D03*
X564500Y498500D02*
D03*
X531734Y488328D02*
D03*
X538000Y490500D02*
D03*
X534500Y491500D02*
D03*
X530000D02*
D03*
X559000Y510000D02*
D03*
X541000Y492531D02*
D03*
X554500Y492000D02*
D03*
X555000Y489500D02*
D03*
X561531Y476968D02*
D03*
X569000Y498500D02*
D03*
X553957Y511957D02*
D03*
X561685Y509685D02*
D03*
X565768Y512768D02*
D03*
X568469Y520031D02*
D03*
X562500Y555000D02*
D03*
X550500Y555500D02*
D03*
X541500Y566000D02*
D03*
X541000Y562500D02*
D03*
X554500Y568000D02*
D03*
X547000Y560500D02*
D03*
X573500Y541500D02*
D03*
X573086Y498586D02*
D03*
X572532Y525969D02*
D03*
X586000Y495000D02*
D03*
X589000Y495500D02*
D03*
X573500Y496000D02*
D03*
X547500Y521500D02*
D03*
X525500Y523248D02*
D03*
X541926Y512574D02*
D03*
X580000Y452000D02*
D03*
X539500Y510131D02*
D03*
X590000Y472500D02*
D03*
X537500Y508000D02*
D03*
X534500Y506468D02*
D03*
X528516Y506516D02*
D03*
X542500Y539500D02*
D03*
X539500Y539000D02*
D03*
X575500Y551335D02*
D03*
X568469Y555532D02*
D03*
X566728Y563500D02*
D03*
X554000Y544500D02*
D03*
X568838Y443500D02*
D03*
X564500Y442000D02*
D03*
X602000Y442500D02*
D03*
X606000Y554500D02*
D03*
X596158Y572657D02*
D03*
X585500Y564000D02*
D03*
X586031Y569000D02*
D03*
X577500Y498500D02*
D03*
X582500Y496000D02*
D03*
X545362Y491362D02*
D03*
X540011Y481011D02*
D03*
X556000Y519000D02*
D03*
X562532Y425000D02*
D03*
X536500Y471000D02*
D03*
X539000Y520272D02*
D03*
X585500Y444500D02*
D03*
X601500Y508000D02*
D03*
X595000Y424000D02*
D03*
X587968Y415000D02*
D03*
X543000Y578000D02*
D03*
X536500Y458000D02*
D03*
X574500Y436500D02*
D03*
X536000Y450500D02*
D03*
X543500Y438500D02*
D03*
X537500Y443500D02*
D03*
X578000Y428500D02*
D03*
X560500Y428000D02*
D03*
X653121Y571369D02*
D03*
X659621Y567369D02*
D03*
X646859Y514621D02*
D03*
Y508923D02*
D03*
X650621Y516869D02*
D03*
X652621Y511369D02*
D03*
X655621Y518369D02*
D03*
X658121Y513369D02*
D03*
X660621Y520369D02*
D03*
X664121Y515869D02*
D03*
X665621Y523369D02*
D03*
X670121Y520369D02*
D03*
Y528369D02*
D03*
X675121Y526369D02*
D03*
X673621Y533869D02*
D03*
X678121Y532869D02*
D03*
X674121Y540369D02*
D03*
X680121Y539869D02*
D03*
X674621Y546369D02*
D03*
X680621Y547369D02*
D03*
X672280Y553257D02*
D03*
X678621Y554369D02*
D03*
X669121Y558869D02*
D03*
X674621Y561369D02*
D03*
X665121Y563369D02*
D03*
X668121Y567869D02*
D03*
X660621Y573869D02*
D03*
X653621Y576369D02*
D03*
X646859Y571040D02*
D03*
Y576528D02*
D03*
X635796Y543108D02*
D03*
X627621Y549369D02*
D03*
X630121Y555369D02*
D03*
X636621Y560869D02*
D03*
X643121Y563869D02*
D03*
X645621Y557369D02*
D03*
X642121Y556369D02*
D03*
X638121Y554369D02*
D03*
X634121Y551369D02*
D03*
X631621Y547869D02*
D03*
X633121Y530369D02*
D03*
X635621Y534869D02*
D03*
X628121Y536369D02*
D03*
X632621Y537869D02*
D03*
X626768Y543108D02*
D03*
X630811D02*
D03*
X644694Y541458D02*
D03*
D132*
X650565Y437513D02*
D03*
X662108Y409576D02*
D03*
X650545Y407276D02*
D03*
X638981Y409576D02*
D03*
X629178Y416126D02*
D03*
X622628Y425929D02*
D03*
X620328Y437492D02*
D03*
X680761D02*
D03*
X678461Y425929D02*
D03*
X671911Y416126D02*
D03*
X663734Y437492D02*
D03*
X659871Y428166D02*
D03*
X650545Y424303D02*
D03*
X643388Y420215D02*
D03*
X637356Y437492D02*
D03*
X667822Y430336D02*
D03*
X657701Y420215D02*
D03*
X641219Y428166D02*
D03*
X633267Y430336D02*
D03*
D133*
X549315Y419063D02*
D03*
Y421032D02*
D03*
Y423000D02*
D03*
Y424968D02*
D03*
Y426937D02*
D03*
X538685D02*
D03*
Y424968D02*
D03*
Y423000D02*
D03*
Y421032D02*
D03*
Y419063D02*
D03*
D134*
X586929Y425339D02*
D03*
Y422780D02*
D03*
Y420221D02*
D03*
Y417661D02*
D03*
D135*
X575512D02*
D03*
Y420221D02*
D03*
Y422780D02*
D03*
Y425339D02*
D03*
D136*
X580000Y421500D02*
D03*
D137*
X581417Y427071D02*
D03*
Y415929D02*
D03*
D138*
X561248Y446028D02*
D03*
Y443665D02*
D03*
Y441500D02*
D03*
Y438547D02*
D03*
Y436185D02*
D03*
Y434020D02*
D03*
X545500Y446028D02*
D03*
Y443862D02*
D03*
Y441500D02*
D03*
Y438547D02*
D03*
Y436382D02*
D03*
Y434020D02*
D03*
D139*
X528063Y484406D02*
D03*
D140*
X529638D02*
D03*
X531213D02*
D03*
X532787D02*
D03*
X534362D02*
D03*
X535937D02*
D03*
Y472594D02*
D03*
X534362D02*
D03*
X532787D02*
D03*
X531213D02*
D03*
X529638D02*
D03*
X528063D02*
D03*
D141*
X537906Y482437D02*
D03*
Y474563D02*
D03*
X526094D02*
D03*
D142*
X537906Y480862D02*
D03*
Y479287D02*
D03*
Y477713D02*
D03*
Y476138D02*
D03*
X526094D02*
D03*
Y477713D02*
D03*
Y479287D02*
D03*
Y480862D02*
D03*
Y482437D02*
D03*
D143*
X593488Y505500D02*
D03*
Y501760D02*
D03*
Y509240D02*
D03*
X604512D02*
D03*
Y501760D02*
D03*
D144*
X603000Y575661D02*
D03*
Y558339D02*
D03*
D145*
X536240Y498500D02*
D03*
X528760D02*
D03*
D146*
X593866Y426500D02*
D03*
X602134Y422760D02*
D03*
Y430240D02*
D03*
D147*
X595500Y444000D02*
D03*
D148*
X601150Y440260D02*
D03*
Y444000D02*
D03*
Y447740D02*
D03*
X589850D02*
D03*
Y444000D02*
D03*
Y440260D02*
D03*
D149*
X525563Y458500D02*
D03*
X538437D02*
D03*
D150*
X571673Y549543D02*
D03*
X569705D02*
D03*
X567736D02*
D03*
X565768D02*
D03*
X563799D02*
D03*
X561831D02*
D03*
X559862D02*
D03*
X557894D02*
D03*
X555925D02*
D03*
X553957D02*
D03*
X551988D02*
D03*
X550020D02*
D03*
X548051D02*
D03*
X546083D02*
D03*
X544114D02*
D03*
X542146D02*
D03*
Y504362D02*
D03*
X544114D02*
D03*
X546083D02*
D03*
X548051D02*
D03*
X550020D02*
D03*
X551988D02*
D03*
X553957D02*
D03*
X555925D02*
D03*
X557894D02*
D03*
X559862D02*
D03*
X561831D02*
D03*
X563799D02*
D03*
X565768D02*
D03*
X567736D02*
D03*
X569705D02*
D03*
X571673D02*
D03*
D151*
X534319Y541716D02*
D03*
Y539748D02*
D03*
Y537780D02*
D03*
Y535811D02*
D03*
Y533843D02*
D03*
Y531874D02*
D03*
Y529906D02*
D03*
Y527937D02*
D03*
Y525969D02*
D03*
Y524000D02*
D03*
Y522031D02*
D03*
Y520063D02*
D03*
Y518094D02*
D03*
Y516126D02*
D03*
Y514157D02*
D03*
Y512189D02*
D03*
X579500D02*
D03*
Y514157D02*
D03*
Y516126D02*
D03*
Y518094D02*
D03*
Y520063D02*
D03*
Y522031D02*
D03*
Y524000D02*
D03*
Y525969D02*
D03*
Y527937D02*
D03*
Y529906D02*
D03*
Y531874D02*
D03*
Y533843D02*
D03*
Y535811D02*
D03*
Y537780D02*
D03*
Y539748D02*
D03*
Y541716D02*
D03*
D152*
X544000Y423000D02*
D03*
M02*
