G04*
G04 #@! TF.GenerationSoftware,Altium Limited,Altium Designer,20.0.13 (296)*
G04*
G04 Layer_Color=32896*
%FSLAX25Y25*%
%MOIN*%
G70*
G01*
G75*
%ADD48C,0.01000*%
%ADD94C,0.00500*%
%ADD95C,0.00787*%
%ADD96C,0.00394*%
%ADD153C,0.00984*%
D48*
X544052Y431761D02*
X543403Y432136D01*
Y431387D01*
X544052Y431761D01*
X554207Y492063D02*
X553500Y492770D01*
X552793Y492063D01*
X553500Y491356D01*
X554207Y492063D01*
X545564Y448224D02*
X561312D01*
X545500Y431824D02*
X561248D01*
X555500Y479063D02*
X579500D01*
Y495063D01*
X555500D02*
X579500D01*
X555500Y479063D02*
Y495063D01*
X666665Y468883D02*
X661334D01*
X640165D02*
X634834D01*
X637499Y471549D02*
Y466217D01*
X657165Y471383D02*
Y466384D01*
X654666D01*
X653833Y467217D01*
Y470550D01*
X654666Y471383D01*
X657165D01*
X652167Y466384D02*
Y469717D01*
X650501Y471383D01*
X648835Y469717D01*
Y466384D01*
Y468883D01*
X652167D01*
X647168Y471383D02*
X643836D01*
X645502D01*
Y466384D01*
D94*
X594669Y498020D02*
X594225Y498943D01*
X593225Y499171D01*
X592424Y498532D01*
Y497507D01*
X593225Y496868D01*
X594225Y497096D01*
X594669Y498020D01*
X596638Y499594D02*
X601362D01*
X596638D02*
Y511406D01*
X601362D01*
Y499594D02*
Y511406D01*
X597685Y562354D02*
Y571646D01*
X608315Y562354D02*
Y571646D01*
X589595Y449905D02*
X601405D01*
X589595Y438095D02*
X601405D01*
D95*
X526094Y485882D02*
X525307D01*
X526094D01*
X603394Y553811D02*
X602606D01*
X603394D01*
X586071Y440260D02*
X585284D01*
X586071D01*
X544205Y458500D02*
X544598D01*
X544205D01*
X544598D01*
X599673Y432406D02*
X604595D01*
X598295Y420752D02*
Y432248D01*
X597705Y420752D02*
X598295D01*
X597705D02*
Y432248D01*
X598295D01*
X575216Y508646D02*
Y545260D01*
X538602Y508646D02*
X575216D01*
X538602D02*
Y545260D01*
X575216D01*
D96*
X589490Y425336D02*
X589093Y425435D01*
X589490Y425336D01*
X575315Y427406D02*
X579646D01*
X583583D02*
X586929D01*
X583583Y415594D02*
X587126D01*
X575315D02*
X579646D01*
X526004Y504714D02*
X538996D01*
X525972Y492319D02*
X538965D01*
X530031Y455350D02*
X533968D01*
X530031D02*
X533968D01*
X530031Y461650D02*
X533968D01*
X530031D02*
X533968D01*
D153*
X537209Y416504D02*
X536471Y416930D01*
Y416078D01*
X537209Y416504D01*
X581910Y544669D02*
X581171Y545095D01*
Y544243D01*
X581910Y544669D01*
M02*
