M48
;Layer_Color=9474304
;FILE_FORMAT=2:5
INCH,TZ
;TYPE=PLATED
T1F00S00C0.00787
T2F00S00C0.03000
T3F00S00C0.03500
T4F00S00C0.03543
T5F00S00C0.04331
T6F00S00C0.04370
T7F00S00C0.05000
T8F00S00C0.05299
T9F00S00C0.06024
T10F00S00C0.06300
T11F00S00C0.08000
T12F00S00C0.11000
;TYPE=NON_PLATED
T13F00S00C0.03150
T14F00S00C0.03937
%
T01
X533000Y421000
X534500Y427500
Y439500
X537500Y443500
X536000Y450500
X529000Y451500
X536500Y458000
X543500Y438500
X564500Y442000
X568838Y443500
X574500Y436500
X578000Y428500
X560500Y428000
X562532Y425000
X541500Y413000
X587968Y415000
X595000Y424000
X596000Y433500
X602134Y428134
X602000Y442500
X585500Y444500
X580000Y452000
X593500Y464000
X606000Y415000
X646859Y508923
Y514621
X650621Y516869
X655621Y518369
X660621Y520369
X664121Y515869
X658121Y513369
X652621Y511369
X665621Y523369
X670121Y520369
Y528369
X675121Y526369
X673621Y533869
X678121Y532869
X680121Y539869
X674121Y540369
X674621Y546369
X680621Y547369
X678621Y554369
X672280Y553257
X669121Y558869
X674621Y561369
X665121Y563369
X668121Y567869
X659621Y567369
X660621Y573869
X653621Y576369
X653121Y571369
X646859Y571040
Y576528
X643121Y563869
X642121Y556369
X645621Y557369
X638121Y554369
X634121Y551369
X631621Y547869
X627621Y549369
X626768Y543108
X630811
X635796
X635621Y534869
X632621Y537869
X628121Y536369
X633121Y530369
X644694Y541458
X636621Y560869
X630121Y555369
X606000Y554500
X602500Y567000
X596158Y572657
X586031Y569000
X585500Y564000
X566728Y563500
X568469Y555532
X562500Y555000
X550500Y555500
X547000Y560500
X541000Y562500
X541500Y566000
X543000Y578000
X527500Y581500
X554500Y568000
X554000Y544500
X557111Y541612
X560728Y542272
X558231Y536830
X558251Y534056
X558000Y528000
X552500
X547500Y521500
X539000Y520272
X539963Y529537
X539500Y539000
X542500Y539500
X541926Y512574
X539500Y510131
X537500Y508000
X534500Y506468
X528516Y506516
X528500Y513500
Y516000
X525500Y523248
X524500Y526500
X556000Y519000
X558500Y513500
X559000Y510000
X561685Y509685
X565768Y512768
X569000Y511000
X573500Y509500
X575500Y503500
X577500Y498500
X573086Y498586
X573500Y496000
X569000Y498500
X564500
X561500Y498200
X554500Y492000
X555000Y489500
X545362Y491362
X541000Y492531
X538000Y490500
X534500Y491500
X530000
X531734Y488328
X540011Y481011
X536500Y471000
X532000Y469586
X545500Y472000
X561531Y476968
X574500Y472500
X590000
X583500Y486000
X582500Y496000
X586000Y495000
X589000Y495500
X586500Y513500
X574532Y522031
X572532Y525969
X568469Y520031
X553957Y511957
X573500Y541500
X575500Y551335
X592000Y531000
X601500Y508000
T02
X544000Y423000
X546811Y584000
X535000
T03
X532000Y478500
T04
X559626Y483126
Y491000
X567500
X575374
Y483063
X567500
T05
X527000Y533000
Y543000
Y553000
Y563000
Y573000
T06
X552000Y457500
Y467500
X562000
X572000
X582000
Y457500
X572000
X562000
T07
X553374Y440024
T08
X583591Y549665
X598551
Y583681
X583591
T09
X552220Y405500
X566000Y415500
X579779Y405500
T10
X622628Y425929
X620328Y437492
X637356
X633267Y430336
X641219Y428166
X643388Y420215
X650545Y424303
X657701Y420215
X659871Y428166
X667822Y430336
X663734Y437492
X650565Y437513
X680761Y437492
X678461Y425929
X671911Y416126
X662108Y409576
X650545Y407276
X638981Y409576
X629178Y416126
T11
X629338Y454384
X650565
X671896
T12
X531000Y405500
X599000
T13
X599551Y460654
Y467346
T14
X591575Y489000
Y520496
M30
